M48
;DRILL file {Pcbnew (2013-mar-13)-testing} date Mon 02 Sep 2013 08:45:39 PM CEST
;FORMAT={-:-/ absolute / metric / decimal}
FMAT,2
METRIC,TZ
T1C0.381
T2C0.762
T3C0.813
T4C1.016
T5C1.020
T6C1.143
T7C1.224
%
G90
G05
M71
T1
X113.411Y-87.757
X113.538Y-64.008
X113.538Y-66.167
X113.538Y-68.453
X113.538Y-71.374
X113.538Y-74.168
X113.538Y-76.327
X113.538Y-78.867
X113.538Y-81.28
X113.538Y-83.82
X113.538Y-86.233
X113.665Y-62.103
X114.351Y-88.697
X114.681Y-60.833
X114.808Y-59.563
X116.713Y-63.5
X116.738Y-59.995
X117.526Y-65.024
X117.526Y-67.005
X117.551Y-68.834
X117.564Y-75.425
X117.602Y-73.901
X118.008Y-63.068
X118.072Y-56.223
X118.593Y-60.858
X119.075Y-91.389
X119.101Y-69.596
X119.329Y-54.889
X119.329Y-89.789
X119.38Y-88.646
X119.812Y-59.233
X120.142Y-97.028
X120.459Y-63.119
X120.459Y-64.453
X120.625Y-53.543
X120.65Y-71.882
X121.285Y-96.266
X121.412Y-57.556
X121.73Y-52.07
X122.174Y-64.389
X122.174Y-71.984
X122.504Y-56.439
X122.809Y-51.067
X123.241Y-90.729
X123.546Y-52.832
X123.546Y-91.643
X123.546Y-92.71
X123.647Y-54.
X123.749Y-72.034
X124.333Y-55.753
X124.562Y-90.932
X124.866Y-91.948
X124.917Y-83.871
X125.222Y-51.308
X125.222Y-87.732
X125.324Y-71.628
X126.187Y-70.663
X126.441Y-92.761
X126.873Y-89.916
X127.Y-56.896
X127.051Y-64.364
X127.381Y-57.861
X127.457Y-91.745
X127.635Y-60.325
X127.864Y-49.517
X127.914Y-90.526
X128.118Y-65.227
X128.473Y-88.748
X128.524Y-68.478
X128.524Y-91.592
X129.095Y-58.547
X129.159Y-55.499
X129.235Y-51.714
X129.642Y-67.818
X129.896Y-49.466
X130.429Y-63.817
X130.429Y-65.202
X130.581Y-60.325
X131.94Y-49.784
X132.334Y-53.975
X132.69Y-89.408
X133.096Y-67.158
X133.096Y-92.761
X133.477Y-98.425
X133.731Y-62.103
X133.858Y-53.696
X134.036Y-49.847
X134.518Y-67.208
X135.077Y-64.516
X135.128Y-53.696
X135.128Y-85.344
X135.23Y-63.246
X135.89Y-86.614
X135.89Y-88.138
X135.941Y-67.208
X136.398Y-53.746
X136.627Y-49.809
X136.652Y-67.818
X137.008Y-90.983
X137.16Y-85.725
X137.16Y-87.249
X137.363Y-68.428
X137.922Y-55.22
X137.922Y-56.896
X137.973Y-53.238
X138.379Y-58.318
X138.811Y-85.09
X139.192Y-49.936
X139.192Y-58.471
X139.319Y-93.345
X139.446Y-70.307
X139.7Y-61.163
X140.259Y-71.323
X141.021Y-62.738
X141.63Y-71.984
X141.834Y-70.714
X142.24Y-81.661
X142.342Y-51.638
X144.196Y-51.88
X144.729Y-70.663
X146.558Y-88.138
X146.749Y-60.528
X147.066Y-68.072
X148.082Y-89.281
X149.352Y-60.071
X150.495Y-61.214
X151.79Y-57.302
X152.641Y-58.115
X153.365Y-59.03
T2
X130.538Y-86.088
X134.13Y-89.68
T3
X145.796Y-79.248
X145.796Y-81.788
X146.177Y-69.723
X148.717Y-69.723
T4
X118.974Y-77.267
X118.974Y-79.807
X118.974Y-82.347
X121.412Y-98.298
X121.514Y-77.267
X121.514Y-79.807
X121.514Y-82.347
X123.952Y-98.298
X126.492Y-98.298
X129.032Y-98.298
X153.924Y-84.328
X153.924Y-86.868
T5
X124.396Y-67.31
X140.843Y-67.31
T6
X149.461Y-57.703
X151.257Y-59.499
X153.053Y-61.296
T7
X155.067Y-69.878
X155.067Y-73.378
X155.067Y-77.498
X155.067Y-80.998
T0
M30
