G04 (created by PCBNEW (2013-mar-13)-testing) date Mon 02 Sep 2013 08:45:34 PM CEST*
%MOIN*%
G04 Gerber Fmt 3.4, Leading zero omitted, Abs format*
%FSLAX34Y34*%
G01*
G70*
G90*
G04 APERTURE LIST*
%ADD10C,0.005906*%
%ADD11C,0.008000*%
%ADD12C,0.007874*%
%ADD13C,0.004700*%
%ADD14C,0.003900*%
%ADD15C,0.012500*%
%ADD16C,0.006000*%
%ADD17C,0.010000*%
%ADD18C,0.005000*%
%ADD19C,0.012000*%
G04 APERTURE END LIST*
G54D10*
G54D11*
X47590Y-37393D02*
X47574Y-37363D01*
X47574Y-37317D01*
X47590Y-37271D01*
X47620Y-37241D01*
X47650Y-37225D01*
X47711Y-37210D01*
X47757Y-37210D01*
X47818Y-37225D01*
X47849Y-37241D01*
X47879Y-37271D01*
X47894Y-37317D01*
X47894Y-37347D01*
X47879Y-37393D01*
X47864Y-37408D01*
X47757Y-37408D01*
X47757Y-37347D01*
X47894Y-37545D02*
X47574Y-37545D01*
X47894Y-37728D01*
X47574Y-37728D01*
X47894Y-37881D02*
X47574Y-37881D01*
X47574Y-37957D01*
X47590Y-38003D01*
X47620Y-38033D01*
X47650Y-38048D01*
X47711Y-38064D01*
X47757Y-38064D01*
X47818Y-38048D01*
X47849Y-38033D01*
X47879Y-38003D01*
X47894Y-37957D01*
X47894Y-37881D01*
X48935Y-37286D02*
X48950Y-37332D01*
X48950Y-37408D01*
X48935Y-37439D01*
X48920Y-37454D01*
X48889Y-37469D01*
X48859Y-37469D01*
X48828Y-37454D01*
X48813Y-37439D01*
X48798Y-37408D01*
X48783Y-37347D01*
X48767Y-37317D01*
X48752Y-37302D01*
X48722Y-37286D01*
X48691Y-37286D01*
X48661Y-37302D01*
X48646Y-37317D01*
X48630Y-37347D01*
X48630Y-37424D01*
X48646Y-37469D01*
X48950Y-37606D02*
X48630Y-37606D01*
X48630Y-37683D01*
X48646Y-37728D01*
X48676Y-37759D01*
X48706Y-37774D01*
X48767Y-37789D01*
X48813Y-37789D01*
X48874Y-37774D01*
X48905Y-37759D01*
X48935Y-37728D01*
X48950Y-37683D01*
X48950Y-37606D01*
X48859Y-37911D02*
X48859Y-38064D01*
X48950Y-37881D02*
X48630Y-37987D01*
X48950Y-38094D01*
X49991Y-37302D02*
X50006Y-37347D01*
X50006Y-37424D01*
X49991Y-37454D01*
X49976Y-37469D01*
X49945Y-37485D01*
X49915Y-37485D01*
X49884Y-37469D01*
X49869Y-37454D01*
X49854Y-37424D01*
X49839Y-37363D01*
X49823Y-37332D01*
X49808Y-37317D01*
X49778Y-37302D01*
X49747Y-37302D01*
X49717Y-37317D01*
X49702Y-37332D01*
X49686Y-37363D01*
X49686Y-37439D01*
X49702Y-37485D01*
X49976Y-37805D02*
X49991Y-37789D01*
X50006Y-37744D01*
X50006Y-37713D01*
X49991Y-37667D01*
X49961Y-37637D01*
X49930Y-37622D01*
X49869Y-37606D01*
X49823Y-37606D01*
X49762Y-37622D01*
X49732Y-37637D01*
X49702Y-37667D01*
X49686Y-37713D01*
X49686Y-37744D01*
X49702Y-37789D01*
X49717Y-37805D01*
X50006Y-38094D02*
X50006Y-37942D01*
X49686Y-37942D01*
X50742Y-37774D02*
X50742Y-37622D01*
X50895Y-37606D01*
X50879Y-37622D01*
X50864Y-37652D01*
X50864Y-37728D01*
X50879Y-37759D01*
X50895Y-37774D01*
X50925Y-37789D01*
X51001Y-37789D01*
X51032Y-37774D01*
X51047Y-37759D01*
X51062Y-37728D01*
X51062Y-37652D01*
X51047Y-37622D01*
X51032Y-37606D01*
X50742Y-37881D02*
X51062Y-37987D01*
X50742Y-38094D01*
X59669Y-28874D02*
X59562Y-29194D01*
X59456Y-28874D01*
X59166Y-29164D02*
X59181Y-29179D01*
X59227Y-29194D01*
X59258Y-29194D01*
X59303Y-29179D01*
X59334Y-29149D01*
X59349Y-29118D01*
X59364Y-29057D01*
X59364Y-29011D01*
X59349Y-28950D01*
X59334Y-28920D01*
X59303Y-28890D01*
X59258Y-28874D01*
X59227Y-28874D01*
X59181Y-28890D01*
X59166Y-28905D01*
X58846Y-29164D02*
X58861Y-29179D01*
X58907Y-29194D01*
X58938Y-29194D01*
X58983Y-29179D01*
X59014Y-29149D01*
X59029Y-29118D01*
X59044Y-29057D01*
X59044Y-29011D01*
X59029Y-28950D01*
X59014Y-28920D01*
X58983Y-28890D01*
X58938Y-28874D01*
X58907Y-28874D01*
X58861Y-28890D01*
X58846Y-28905D01*
X59639Y-29631D02*
X59486Y-29631D01*
X59669Y-29722D02*
X59562Y-29402D01*
X59456Y-29722D01*
X59517Y-30083D02*
X59471Y-30098D01*
X59456Y-30113D01*
X59440Y-30144D01*
X59440Y-30189D01*
X59456Y-30220D01*
X59471Y-30235D01*
X59501Y-30250D01*
X59623Y-30250D01*
X59623Y-29930D01*
X59517Y-29930D01*
X59486Y-29946D01*
X59471Y-29961D01*
X59456Y-29991D01*
X59456Y-30022D01*
X59471Y-30052D01*
X59486Y-30067D01*
X59517Y-30083D01*
X59623Y-30083D01*
X59456Y-30474D02*
X59486Y-30458D01*
X59532Y-30458D01*
X59578Y-30474D01*
X59608Y-30504D01*
X59623Y-30534D01*
X59639Y-30595D01*
X59639Y-30641D01*
X59623Y-30702D01*
X59608Y-30733D01*
X59578Y-30763D01*
X59532Y-30778D01*
X59501Y-30778D01*
X59456Y-30763D01*
X59440Y-30748D01*
X59440Y-30641D01*
X59501Y-30641D01*
X59303Y-30778D02*
X59303Y-30458D01*
X59120Y-30778D01*
X59120Y-30458D01*
X58968Y-30778D02*
X58968Y-30458D01*
X58892Y-30458D01*
X58846Y-30474D01*
X58816Y-30504D01*
X58800Y-30534D01*
X58785Y-30595D01*
X58785Y-30641D01*
X58800Y-30702D01*
X58816Y-30733D01*
X58846Y-30763D01*
X58892Y-30778D01*
X58968Y-30778D01*
X60960Y-35144D02*
X61067Y-34992D01*
X61143Y-35144D02*
X61143Y-34824D01*
X61021Y-34824D01*
X60990Y-34840D01*
X60975Y-34855D01*
X60960Y-34885D01*
X60960Y-34931D01*
X60975Y-34961D01*
X60990Y-34977D01*
X61021Y-34992D01*
X61143Y-34992D01*
X60838Y-35129D02*
X60792Y-35144D01*
X60716Y-35144D01*
X60686Y-35129D01*
X60670Y-35114D01*
X60655Y-35083D01*
X60655Y-35053D01*
X60670Y-35022D01*
X60686Y-35007D01*
X60716Y-34992D01*
X60777Y-34977D01*
X60808Y-34961D01*
X60823Y-34946D01*
X60838Y-34916D01*
X60838Y-34885D01*
X60823Y-34855D01*
X60808Y-34840D01*
X60777Y-34824D01*
X60701Y-34824D01*
X60655Y-34840D01*
X60381Y-34931D02*
X60381Y-35144D01*
X60457Y-34809D02*
X60533Y-35038D01*
X60335Y-35038D01*
X60168Y-34961D02*
X60198Y-34946D01*
X60213Y-34931D01*
X60229Y-34900D01*
X60229Y-34885D01*
X60213Y-34855D01*
X60198Y-34840D01*
X60168Y-34824D01*
X60107Y-34824D01*
X60076Y-34840D01*
X60061Y-34855D01*
X60046Y-34885D01*
X60046Y-34900D01*
X60061Y-34931D01*
X60076Y-34946D01*
X60107Y-34961D01*
X60168Y-34961D01*
X60198Y-34977D01*
X60213Y-34992D01*
X60229Y-35022D01*
X60229Y-35083D01*
X60213Y-35114D01*
X60198Y-35129D01*
X60168Y-35144D01*
X60107Y-35144D01*
X60076Y-35129D01*
X60061Y-35114D01*
X60046Y-35083D01*
X60046Y-35022D01*
X60061Y-34992D01*
X60076Y-34977D01*
X60107Y-34961D01*
X59756Y-34824D02*
X59909Y-34824D01*
X59924Y-34977D01*
X59909Y-34961D01*
X59878Y-34946D01*
X59802Y-34946D01*
X59771Y-34961D01*
X59756Y-34977D01*
X59741Y-35007D01*
X59741Y-35083D01*
X59756Y-35114D01*
X59771Y-35129D01*
X59802Y-35144D01*
X59878Y-35144D01*
X59909Y-35129D01*
X59924Y-35114D01*
X60960Y-35459D02*
X60838Y-35459D01*
X60914Y-35352D02*
X60914Y-35627D01*
X60899Y-35657D01*
X60869Y-35672D01*
X60838Y-35672D01*
X60610Y-35657D02*
X60640Y-35672D01*
X60701Y-35672D01*
X60731Y-35657D01*
X60747Y-35627D01*
X60747Y-35505D01*
X60731Y-35474D01*
X60701Y-35459D01*
X60640Y-35459D01*
X60610Y-35474D01*
X60594Y-35505D01*
X60594Y-35535D01*
X60747Y-35566D01*
X60457Y-35672D02*
X60457Y-35459D01*
X60457Y-35520D02*
X60442Y-35489D01*
X60427Y-35474D01*
X60396Y-35459D01*
X60366Y-35459D01*
X60259Y-35672D02*
X60259Y-35459D01*
X60259Y-35489D02*
X60244Y-35474D01*
X60213Y-35459D01*
X60168Y-35459D01*
X60137Y-35474D01*
X60122Y-35505D01*
X60122Y-35672D01*
X60122Y-35505D02*
X60107Y-35474D01*
X60076Y-35459D01*
X60030Y-35459D01*
X60000Y-35474D01*
X59985Y-35505D01*
X59985Y-35672D01*
X44640Y-24540D02*
X44220Y-24540D01*
X44520Y-24680D01*
X44220Y-24820D01*
X44640Y-24820D01*
X44220Y-25100D02*
X44220Y-25180D01*
X44240Y-25220D01*
X44280Y-25260D01*
X44360Y-25280D01*
X44500Y-25280D01*
X44580Y-25260D01*
X44620Y-25220D01*
X44640Y-25180D01*
X44640Y-25100D01*
X44620Y-25060D01*
X44580Y-25020D01*
X44500Y-25000D01*
X44360Y-25000D01*
X44280Y-25020D01*
X44240Y-25060D01*
X44220Y-25100D01*
X44640Y-25460D02*
X44220Y-25460D01*
X44220Y-25560D01*
X44240Y-25620D01*
X44280Y-25660D01*
X44320Y-25680D01*
X44400Y-25700D01*
X44460Y-25700D01*
X44540Y-25680D01*
X44580Y-25660D01*
X44620Y-25620D01*
X44640Y-25560D01*
X44640Y-25460D01*
X44420Y-26020D02*
X44440Y-26080D01*
X44460Y-26100D01*
X44500Y-26120D01*
X44560Y-26120D01*
X44600Y-26100D01*
X44620Y-26080D01*
X44640Y-26040D01*
X44640Y-25880D01*
X44220Y-25880D01*
X44220Y-26020D01*
X44240Y-26060D01*
X44260Y-26080D01*
X44300Y-26100D01*
X44340Y-26100D01*
X44380Y-26080D01*
X44400Y-26060D01*
X44420Y-26020D01*
X44420Y-25880D01*
X44220Y-26300D02*
X44560Y-26300D01*
X44600Y-26320D01*
X44620Y-26340D01*
X44640Y-26380D01*
X44640Y-26460D01*
X44620Y-26500D01*
X44600Y-26520D01*
X44560Y-26540D01*
X44220Y-26540D01*
X44620Y-26720D02*
X44640Y-26780D01*
X44640Y-26880D01*
X44620Y-26920D01*
X44600Y-26940D01*
X44560Y-26960D01*
X44520Y-26960D01*
X44480Y-26940D01*
X44460Y-26920D01*
X44440Y-26880D01*
X44420Y-26800D01*
X44400Y-26760D01*
X44380Y-26740D01*
X44340Y-26720D01*
X44300Y-26720D01*
X44260Y-26740D01*
X44240Y-26760D01*
X44220Y-26800D01*
X44220Y-26900D01*
X44240Y-26960D01*
X44480Y-27140D02*
X44480Y-27460D01*
X44220Y-27600D02*
X44220Y-27840D01*
X44640Y-27720D02*
X44220Y-27720D01*
X44640Y-27980D02*
X44220Y-27980D01*
X44420Y-27980D02*
X44420Y-28220D01*
X44640Y-28220D02*
X44220Y-28220D01*
X44420Y-28420D02*
X44420Y-28560D01*
X44640Y-28620D02*
X44640Y-28420D01*
X44220Y-28420D01*
X44220Y-28620D01*
X44640Y-29040D02*
X44440Y-28900D01*
X44640Y-28800D02*
X44220Y-28800D01*
X44220Y-28960D01*
X44240Y-29000D01*
X44260Y-29020D01*
X44300Y-29040D01*
X44360Y-29040D01*
X44400Y-29020D01*
X44420Y-29000D01*
X44440Y-28960D01*
X44440Y-28800D01*
X44640Y-29220D02*
X44220Y-29220D01*
X44520Y-29360D01*
X44220Y-29500D01*
X44640Y-29500D01*
X44220Y-29780D02*
X44220Y-29860D01*
X44240Y-29900D01*
X44280Y-29940D01*
X44360Y-29960D01*
X44500Y-29960D01*
X44580Y-29940D01*
X44620Y-29900D01*
X44640Y-29860D01*
X44640Y-29780D01*
X44620Y-29740D01*
X44580Y-29700D01*
X44500Y-29680D01*
X44360Y-29680D01*
X44280Y-29700D01*
X44240Y-29740D01*
X44220Y-29780D01*
X44600Y-30380D02*
X44620Y-30360D01*
X44640Y-30300D01*
X44640Y-30260D01*
X44620Y-30200D01*
X44580Y-30160D01*
X44540Y-30140D01*
X44460Y-30120D01*
X44400Y-30120D01*
X44320Y-30140D01*
X44280Y-30160D01*
X44240Y-30200D01*
X44220Y-30260D01*
X44220Y-30300D01*
X44240Y-30360D01*
X44260Y-30380D01*
X44220Y-30640D02*
X44220Y-30720D01*
X44240Y-30760D01*
X44280Y-30800D01*
X44360Y-30820D01*
X44500Y-30820D01*
X44580Y-30800D01*
X44620Y-30760D01*
X44640Y-30720D01*
X44640Y-30640D01*
X44620Y-30600D01*
X44580Y-30560D01*
X44500Y-30540D01*
X44360Y-30540D01*
X44280Y-30560D01*
X44240Y-30600D01*
X44220Y-30640D01*
X44220Y-31000D02*
X44560Y-31000D01*
X44600Y-31020D01*
X44620Y-31040D01*
X44640Y-31080D01*
X44640Y-31160D01*
X44620Y-31200D01*
X44600Y-31220D01*
X44560Y-31240D01*
X44220Y-31240D01*
X44640Y-31440D02*
X44220Y-31440D01*
X44220Y-31600D01*
X44240Y-31640D01*
X44260Y-31660D01*
X44300Y-31680D01*
X44360Y-31680D01*
X44400Y-31660D01*
X44420Y-31640D01*
X44440Y-31600D01*
X44440Y-31440D01*
X44640Y-32060D02*
X44640Y-31860D01*
X44220Y-31860D01*
X44420Y-32200D02*
X44420Y-32340D01*
X44640Y-32400D02*
X44640Y-32200D01*
X44220Y-32200D01*
X44220Y-32400D01*
X44220Y-32840D02*
X44640Y-32980D01*
X44220Y-33120D01*
X44640Y-33480D02*
X44640Y-33240D01*
X44640Y-33360D02*
X44220Y-33360D01*
X44280Y-33320D01*
X44320Y-33280D01*
X44340Y-33240D01*
X44600Y-33660D02*
X44620Y-33680D01*
X44640Y-33660D01*
X44620Y-33640D01*
X44600Y-33660D01*
X44640Y-33660D01*
X44220Y-33940D02*
X44220Y-33980D01*
X44240Y-34020D01*
X44260Y-34040D01*
X44300Y-34060D01*
X44380Y-34080D01*
X44480Y-34080D01*
X44560Y-34060D01*
X44600Y-34040D01*
X44620Y-34020D01*
X44640Y-33980D01*
X44640Y-33940D01*
X44620Y-33900D01*
X44600Y-33880D01*
X44560Y-33860D01*
X44480Y-33840D01*
X44380Y-33840D01*
X44300Y-33860D01*
X44260Y-33880D01*
X44240Y-33900D01*
X44220Y-33940D01*
X45308Y-24740D02*
X45028Y-24740D01*
X45068Y-24740D02*
X45048Y-24760D01*
X45028Y-24800D01*
X45028Y-24860D01*
X45048Y-24900D01*
X45088Y-24920D01*
X45308Y-24920D01*
X45088Y-24920D02*
X45048Y-24940D01*
X45028Y-24980D01*
X45028Y-25040D01*
X45048Y-25080D01*
X45088Y-25100D01*
X45308Y-25100D01*
X45308Y-25300D02*
X45028Y-25300D01*
X44888Y-25300D02*
X44908Y-25280D01*
X44928Y-25300D01*
X44908Y-25320D01*
X44888Y-25300D01*
X44928Y-25300D01*
X45288Y-25680D02*
X45308Y-25640D01*
X45308Y-25560D01*
X45288Y-25520D01*
X45268Y-25500D01*
X45228Y-25480D01*
X45108Y-25480D01*
X45068Y-25500D01*
X45048Y-25520D01*
X45028Y-25560D01*
X45028Y-25640D01*
X45048Y-25680D01*
X45108Y-26120D02*
X45088Y-26100D01*
X45068Y-26060D01*
X45068Y-26020D01*
X45088Y-25980D01*
X45108Y-25960D01*
X45148Y-25940D01*
X45188Y-25940D01*
X45228Y-25960D01*
X45248Y-25980D01*
X45268Y-26020D01*
X45268Y-26060D01*
X45248Y-26100D01*
X45228Y-26120D01*
X45068Y-26120D02*
X45228Y-26120D01*
X45248Y-26140D01*
X45248Y-26160D01*
X45228Y-26200D01*
X45188Y-26220D01*
X45088Y-26220D01*
X45028Y-26180D01*
X44988Y-26120D01*
X44968Y-26040D01*
X44988Y-25960D01*
X45028Y-25900D01*
X45088Y-25860D01*
X45168Y-25840D01*
X45248Y-25860D01*
X45308Y-25900D01*
X45348Y-25960D01*
X45368Y-26040D01*
X45348Y-26120D01*
X45308Y-26180D01*
X45028Y-26360D02*
X45308Y-26440D01*
X45108Y-26520D01*
X45308Y-26600D01*
X45028Y-26680D01*
X45288Y-27000D02*
X45308Y-26960D01*
X45308Y-26880D01*
X45288Y-26840D01*
X45248Y-26820D01*
X45088Y-26820D01*
X45048Y-26840D01*
X45028Y-26880D01*
X45028Y-26960D01*
X45048Y-27000D01*
X45088Y-27020D01*
X45128Y-27020D01*
X45168Y-26820D01*
X45308Y-27200D02*
X45028Y-27200D01*
X45068Y-27200D02*
X45048Y-27220D01*
X45028Y-27260D01*
X45028Y-27320D01*
X45048Y-27360D01*
X45088Y-27380D01*
X45308Y-27380D01*
X45088Y-27380D02*
X45048Y-27400D01*
X45028Y-27440D01*
X45028Y-27500D01*
X45048Y-27540D01*
X45088Y-27560D01*
X45308Y-27560D01*
X45308Y-27940D02*
X45088Y-27940D01*
X45048Y-27920D01*
X45028Y-27880D01*
X45028Y-27800D01*
X45048Y-27760D01*
X45288Y-27940D02*
X45308Y-27900D01*
X45308Y-27800D01*
X45288Y-27760D01*
X45248Y-27740D01*
X45208Y-27740D01*
X45168Y-27760D01*
X45148Y-27800D01*
X45148Y-27900D01*
X45128Y-27940D01*
X45308Y-28140D02*
X44888Y-28140D01*
X45148Y-28180D02*
X45308Y-28300D01*
X45028Y-28300D02*
X45188Y-28140D01*
X45288Y-28640D02*
X45308Y-28600D01*
X45308Y-28520D01*
X45288Y-28480D01*
X45248Y-28460D01*
X45088Y-28460D01*
X45048Y-28480D01*
X45028Y-28520D01*
X45028Y-28600D01*
X45048Y-28640D01*
X45088Y-28660D01*
X45128Y-28660D01*
X45168Y-28460D01*
X45028Y-28780D02*
X45028Y-28940D01*
X44888Y-28840D02*
X45248Y-28840D01*
X45288Y-28860D01*
X45308Y-28900D01*
X45308Y-28940D01*
X45308Y-29080D02*
X44888Y-29080D01*
X45308Y-29260D02*
X45088Y-29260D01*
X45048Y-29240D01*
X45028Y-29200D01*
X45028Y-29140D01*
X45048Y-29100D01*
X45068Y-29080D01*
X45308Y-29460D02*
X45028Y-29460D01*
X44888Y-29460D02*
X44908Y-29440D01*
X44928Y-29460D01*
X44908Y-29480D01*
X44888Y-29460D01*
X44928Y-29460D01*
X45028Y-29660D02*
X45308Y-29660D01*
X45068Y-29660D02*
X45048Y-29680D01*
X45028Y-29720D01*
X45028Y-29780D01*
X45048Y-29820D01*
X45088Y-29840D01*
X45308Y-29840D01*
X45028Y-30220D02*
X45368Y-30220D01*
X45408Y-30200D01*
X45428Y-30180D01*
X45448Y-30140D01*
X45448Y-30080D01*
X45428Y-30040D01*
X45288Y-30220D02*
X45308Y-30180D01*
X45308Y-30100D01*
X45288Y-30060D01*
X45268Y-30040D01*
X45228Y-30020D01*
X45108Y-30020D01*
X45068Y-30040D01*
X45048Y-30060D01*
X45028Y-30100D01*
X45028Y-30180D01*
X45048Y-30220D01*
X45288Y-30400D02*
X45308Y-30440D01*
X45308Y-30520D01*
X45288Y-30560D01*
X45248Y-30580D01*
X45228Y-30580D01*
X45188Y-30560D01*
X45168Y-30520D01*
X45168Y-30460D01*
X45148Y-30420D01*
X45108Y-30400D01*
X45088Y-30400D01*
X45048Y-30420D01*
X45028Y-30460D01*
X45028Y-30520D01*
X45048Y-30560D01*
X45268Y-30760D02*
X45288Y-30780D01*
X45308Y-30760D01*
X45288Y-30740D01*
X45268Y-30760D01*
X45308Y-30760D01*
X45028Y-30960D02*
X45308Y-30960D01*
X45068Y-30960D02*
X45048Y-30980D01*
X45028Y-31020D01*
X45028Y-31080D01*
X45048Y-31120D01*
X45088Y-31140D01*
X45308Y-31140D01*
X45288Y-31500D02*
X45308Y-31460D01*
X45308Y-31380D01*
X45288Y-31340D01*
X45248Y-31320D01*
X45088Y-31320D01*
X45048Y-31340D01*
X45028Y-31380D01*
X45028Y-31460D01*
X45048Y-31500D01*
X45088Y-31520D01*
X45128Y-31520D01*
X45168Y-31320D01*
X45028Y-31640D02*
X45028Y-31800D01*
X44888Y-31700D02*
X45248Y-31700D01*
X45288Y-31720D01*
X45308Y-31760D01*
X45308Y-31800D01*
X45288Y-31960D02*
X45308Y-31960D01*
X45348Y-31940D01*
X45368Y-31920D01*
X44928Y-32440D02*
X44908Y-32460D01*
X44888Y-32500D01*
X44888Y-32600D01*
X44908Y-32640D01*
X44928Y-32660D01*
X44968Y-32680D01*
X45008Y-32680D01*
X45068Y-32660D01*
X45308Y-32420D01*
X45308Y-32680D01*
X44888Y-32940D02*
X44888Y-32980D01*
X44908Y-33020D01*
X44928Y-33040D01*
X44968Y-33060D01*
X45048Y-33080D01*
X45148Y-33080D01*
X45228Y-33060D01*
X45268Y-33040D01*
X45288Y-33020D01*
X45308Y-32980D01*
X45308Y-32940D01*
X45288Y-32900D01*
X45268Y-32880D01*
X45228Y-32860D01*
X45148Y-32840D01*
X45048Y-32840D01*
X44968Y-32860D01*
X44928Y-32880D01*
X44908Y-32900D01*
X44888Y-32940D01*
X45308Y-33480D02*
X45308Y-33240D01*
X45308Y-33360D02*
X44888Y-33360D01*
X44948Y-33320D01*
X44988Y-33280D01*
X45008Y-33240D01*
X44888Y-33620D02*
X44888Y-33880D01*
X45048Y-33740D01*
X45048Y-33800D01*
X45068Y-33840D01*
X45088Y-33860D01*
X45128Y-33880D01*
X45228Y-33880D01*
X45268Y-33860D01*
X45288Y-33840D01*
X45308Y-33800D01*
X45308Y-33680D01*
X45288Y-33640D01*
X45268Y-33620D01*
X45556Y-28010D02*
X45556Y-28090D01*
X45576Y-28130D01*
X45616Y-28170D01*
X45696Y-28190D01*
X45836Y-28190D01*
X45916Y-28170D01*
X45956Y-28130D01*
X45976Y-28090D01*
X45976Y-28010D01*
X45956Y-27970D01*
X45916Y-27930D01*
X45836Y-27910D01*
X45696Y-27910D01*
X45616Y-27930D01*
X45576Y-27970D01*
X45556Y-28010D01*
X45956Y-28350D02*
X45976Y-28410D01*
X45976Y-28510D01*
X45956Y-28550D01*
X45936Y-28570D01*
X45896Y-28590D01*
X45856Y-28590D01*
X45816Y-28570D01*
X45796Y-28550D01*
X45776Y-28510D01*
X45756Y-28430D01*
X45736Y-28390D01*
X45716Y-28370D01*
X45676Y-28350D01*
X45636Y-28350D01*
X45596Y-28370D01*
X45576Y-28390D01*
X45556Y-28430D01*
X45556Y-28530D01*
X45576Y-28590D01*
X45976Y-28770D02*
X45556Y-28770D01*
X45756Y-28770D02*
X45756Y-29010D01*
X45976Y-29010D02*
X45556Y-29010D01*
X45976Y-29410D02*
X45976Y-29210D01*
X45556Y-29210D01*
X45976Y-30090D02*
X45976Y-29850D01*
X45976Y-29970D02*
X45556Y-29970D01*
X45616Y-29930D01*
X45656Y-29890D01*
X45676Y-29850D01*
X45936Y-30270D02*
X45956Y-30290D01*
X45976Y-30270D01*
X45956Y-30250D01*
X45936Y-30270D01*
X45976Y-30270D01*
X45976Y-30690D02*
X45976Y-30450D01*
X45976Y-30570D02*
X45556Y-30570D01*
X45616Y-30530D01*
X45656Y-30490D01*
X45676Y-30450D01*
G54D12*
X55240Y-29755D02*
G75*
G03X55240Y-29755I-2952J0D01*
G74*
G01*
G54D13*
X49597Y-20544D02*
X49872Y-20544D01*
X49203Y-20544D02*
X48928Y-20544D01*
X49597Y-21056D02*
X49872Y-21056D01*
X48928Y-21056D02*
X49203Y-21056D01*
X49872Y-21050D02*
X49872Y-20550D01*
X48928Y-20550D02*
X48928Y-21050D01*
G54D14*
X48120Y-34560D02*
G75*
G03X48120Y-34560I-50J0D01*
G74*
G01*
X47620Y-34560D02*
X48020Y-34560D01*
X48020Y-34560D02*
X48020Y-33960D01*
X48020Y-33960D02*
X47620Y-33960D01*
X47220Y-33960D02*
X46820Y-33960D01*
X46820Y-33960D02*
X46820Y-34560D01*
X46820Y-34560D02*
X47220Y-34560D01*
X48120Y-33680D02*
G75*
G03X48120Y-33680I-50J0D01*
G74*
G01*
X47620Y-33680D02*
X48020Y-33680D01*
X48020Y-33680D02*
X48020Y-33080D01*
X48020Y-33080D02*
X47620Y-33080D01*
X47220Y-33080D02*
X46820Y-33080D01*
X46820Y-33080D02*
X46820Y-33680D01*
X46820Y-33680D02*
X47220Y-33680D01*
G54D13*
X59561Y-25200D02*
X59367Y-25394D01*
X59840Y-24921D02*
X60034Y-24727D01*
X59199Y-24838D02*
X59005Y-25032D01*
X59672Y-24365D02*
X59478Y-24559D01*
X59009Y-25036D02*
X59363Y-25390D01*
X60030Y-24723D02*
X59676Y-24369D01*
X53197Y-23694D02*
X53472Y-23694D01*
X52803Y-23694D02*
X52528Y-23694D01*
X53197Y-24206D02*
X53472Y-24206D01*
X52528Y-24206D02*
X52803Y-24206D01*
X53472Y-24200D02*
X53472Y-23700D01*
X52528Y-23700D02*
X52528Y-24200D01*
X49656Y-22447D02*
X49656Y-22722D01*
X49656Y-22053D02*
X49656Y-21778D01*
X49144Y-22447D02*
X49144Y-22722D01*
X49144Y-21778D02*
X49144Y-22053D01*
X49150Y-22722D02*
X49650Y-22722D01*
X49650Y-21778D02*
X49150Y-21778D01*
X55144Y-31653D02*
X55144Y-31378D01*
X55144Y-32047D02*
X55144Y-32322D01*
X55656Y-31653D02*
X55656Y-31378D01*
X55656Y-32322D02*
X55656Y-32047D01*
X55650Y-31378D02*
X55150Y-31378D01*
X55150Y-32322D02*
X55650Y-32322D01*
G54D15*
X52276Y-36190D02*
X50509Y-34423D01*
X53690Y-34776D02*
X51923Y-33009D01*
X50509Y-33009D02*
G75*
G02X51923Y-33009I707J-707D01*
G74*
G01*
X50509Y-34423D02*
G75*
G02X50509Y-33009I707J707D01*
G74*
G01*
X53690Y-34776D02*
G75*
G02X53690Y-36190I-707J-707D01*
G74*
G01*
X53690Y-36190D02*
G75*
G02X52276Y-36190I-707J707D01*
G74*
G01*
G54D16*
X61100Y-32700D02*
X60100Y-32700D01*
X60100Y-32700D02*
X60100Y-34700D01*
X60100Y-34700D02*
X61100Y-34700D01*
X61100Y-34700D02*
X61100Y-32700D01*
G54D13*
X46696Y-35417D02*
X46696Y-35692D01*
X46696Y-35023D02*
X46696Y-34748D01*
X46184Y-35417D02*
X46184Y-35692D01*
X46184Y-34748D02*
X46184Y-35023D01*
X46190Y-35692D02*
X46690Y-35692D01*
X46690Y-34748D02*
X46190Y-34748D01*
G54D14*
X51050Y-22740D02*
G75*
G03X51050Y-22740I-50J0D01*
G74*
G01*
X51450Y-22740D02*
X51050Y-22740D01*
X51050Y-22740D02*
X51050Y-23340D01*
X51050Y-23340D02*
X51450Y-23340D01*
X51850Y-23340D02*
X52250Y-23340D01*
X52250Y-23340D02*
X52250Y-22740D01*
X52250Y-22740D02*
X51850Y-22740D01*
G54D13*
X50197Y-19844D02*
X50472Y-19844D01*
X49803Y-19844D02*
X49528Y-19844D01*
X50197Y-20356D02*
X50472Y-20356D01*
X49528Y-20356D02*
X49803Y-20356D01*
X50472Y-20350D02*
X50472Y-19850D01*
X49528Y-19850D02*
X49528Y-20350D01*
G54D17*
X61317Y-24132D02*
X61494Y-23955D01*
X61494Y-23955D02*
X59019Y-21480D01*
X59019Y-21480D02*
X58842Y-21657D01*
X60257Y-25192D02*
X61317Y-24132D01*
X61317Y-24132D02*
X58842Y-21657D01*
X58842Y-21657D02*
X57782Y-22717D01*
X57782Y-22717D02*
X60257Y-25192D01*
G54D18*
X46317Y-33105D02*
X46595Y-33105D01*
X46595Y-33105D02*
X46595Y-33655D01*
X46595Y-33655D02*
X46317Y-33655D01*
X45645Y-33105D02*
X45923Y-33105D01*
X45645Y-33105D02*
X45645Y-33655D01*
X45645Y-33655D02*
X45923Y-33655D01*
X46297Y-33985D02*
X46575Y-33985D01*
X46575Y-33985D02*
X46575Y-34535D01*
X46575Y-34535D02*
X46297Y-34535D01*
X45625Y-33985D02*
X45903Y-33985D01*
X45625Y-33985D02*
X45625Y-34535D01*
X45625Y-34535D02*
X45903Y-34535D01*
G54D19*
X62050Y-29578D02*
X62050Y-26822D01*
X62625Y-29578D02*
X59869Y-29578D01*
X59869Y-29578D02*
X59869Y-26822D01*
X59869Y-26822D02*
X62625Y-26822D01*
X62625Y-26822D02*
X62625Y-29578D01*
X62050Y-32578D02*
X62050Y-29822D01*
X62625Y-32578D02*
X59869Y-32578D01*
X59869Y-32578D02*
X59869Y-29822D01*
X59869Y-29822D02*
X62625Y-29822D01*
X62625Y-29822D02*
X62625Y-32578D01*
G54D13*
X49718Y-35196D02*
X49443Y-35196D01*
X50112Y-35196D02*
X50387Y-35196D01*
X49718Y-34684D02*
X49443Y-34684D01*
X50387Y-34684D02*
X50112Y-34684D01*
X49443Y-34690D02*
X49443Y-35190D01*
X50387Y-35190D02*
X50387Y-34690D01*
X51390Y-35738D02*
X51584Y-35932D01*
X51111Y-35459D02*
X50917Y-35265D01*
X51028Y-36100D02*
X51222Y-36294D01*
X50555Y-35627D02*
X50749Y-35821D01*
X51226Y-36290D02*
X51580Y-35936D01*
X50913Y-35269D02*
X50559Y-35623D01*
X47716Y-35867D02*
X47716Y-36142D01*
X47716Y-35473D02*
X47716Y-35198D01*
X47204Y-35867D02*
X47204Y-36142D01*
X47204Y-35198D02*
X47204Y-35473D01*
X47210Y-36142D02*
X47710Y-36142D01*
X47710Y-35198D02*
X47210Y-35198D01*
X54862Y-35579D02*
X55137Y-35579D01*
X54468Y-35579D02*
X54193Y-35579D01*
X54862Y-36091D02*
X55137Y-36091D01*
X54193Y-36091D02*
X54468Y-36091D01*
X55137Y-36085D02*
X55137Y-35585D01*
X54193Y-35585D02*
X54193Y-36085D01*
G54D17*
X47300Y-39200D02*
X51300Y-39200D01*
X47300Y-38200D02*
X51300Y-38200D01*
X51300Y-38200D02*
X51300Y-39200D01*
X47300Y-39200D02*
X47300Y-38200D01*
G54D10*
X57104Y-31904D02*
X57104Y-32495D01*
X57695Y-32495D01*
X57695Y-31904D01*
X57104Y-31904D01*
X57695Y-31200D02*
G75*
G03X57695Y-31200I-295J0D01*
G74*
G01*
X58254Y-27154D02*
X58254Y-27745D01*
X58845Y-27745D01*
X58845Y-27154D01*
X58254Y-27154D01*
X57845Y-27450D02*
G75*
G03X57845Y-27450I-295J0D01*
G74*
G01*
X53057Y-35307D02*
G75*
G03X53057Y-35307I-250J0D01*
G74*
G01*
X51643Y-33892D02*
G75*
G03X51643Y-33892I-250J0D01*
G74*
G01*
X60329Y-32929D02*
X60329Y-33470D01*
X60870Y-33470D01*
X60870Y-32929D01*
X60329Y-32929D01*
X60870Y-34200D02*
G75*
G03X60870Y-34200I-270J0D01*
G74*
G01*
X60577Y-24132D02*
G75*
G03X60577Y-24132I-320J0D01*
G74*
G01*
X59550Y-23919D02*
X59055Y-23425D01*
X59550Y-22930D01*
X60044Y-23425D01*
X59550Y-23919D01*
X59163Y-22717D02*
G75*
G03X59163Y-22717I-320J0D01*
G74*
G01*
X60579Y-27040D02*
X60579Y-27981D01*
X61520Y-27981D01*
X61520Y-27040D01*
X60579Y-27040D01*
X61520Y-28889D02*
G75*
G03X61520Y-28889I-470J0D01*
G74*
G01*
X60579Y-30040D02*
X60579Y-30981D01*
X61520Y-30981D01*
X61520Y-30040D01*
X60579Y-30040D01*
X61520Y-31889D02*
G75*
G03X61520Y-31889I-470J0D01*
G74*
G01*
X50529Y-38429D02*
X50529Y-38970D01*
X51070Y-38970D01*
X51070Y-38429D01*
X50529Y-38429D01*
X50070Y-38700D02*
G75*
G03X50070Y-38700I-270J0D01*
G74*
G01*
X49070Y-38700D02*
G75*
G03X49070Y-38700I-270J0D01*
G74*
G01*
X48070Y-38700D02*
G75*
G03X48070Y-38700I-270J0D01*
G74*
G01*
X57453Y-30564D02*
X57468Y-30579D01*
X57514Y-30594D01*
X57544Y-30594D01*
X57590Y-30579D01*
X57620Y-30549D01*
X57636Y-30518D01*
X57651Y-30457D01*
X57651Y-30411D01*
X57636Y-30350D01*
X57620Y-30320D01*
X57590Y-30290D01*
X57544Y-30274D01*
X57514Y-30274D01*
X57468Y-30290D01*
X57453Y-30305D01*
X57163Y-30274D02*
X57316Y-30274D01*
X57331Y-30427D01*
X57316Y-30411D01*
X57285Y-30396D01*
X57209Y-30396D01*
X57179Y-30411D01*
X57163Y-30427D01*
X57148Y-30457D01*
X57148Y-30533D01*
X57163Y-30564D01*
X57179Y-30579D01*
X57209Y-30594D01*
X57285Y-30594D01*
X57316Y-30579D01*
X57331Y-30564D01*
X58103Y-28364D02*
X58118Y-28379D01*
X58164Y-28394D01*
X58194Y-28394D01*
X58240Y-28379D01*
X58270Y-28349D01*
X58286Y-28318D01*
X58301Y-28257D01*
X58301Y-28211D01*
X58286Y-28150D01*
X58270Y-28120D01*
X58240Y-28090D01*
X58194Y-28074D01*
X58164Y-28074D01*
X58118Y-28090D01*
X58103Y-28105D01*
X57798Y-28394D02*
X57981Y-28394D01*
X57889Y-28394D02*
X57889Y-28074D01*
X57920Y-28120D01*
X57950Y-28150D01*
X57981Y-28166D01*
G54D17*
X54211Y-26330D02*
X53983Y-26330D01*
X54097Y-26730D02*
X54097Y-26330D01*
X53850Y-26578D02*
X53545Y-26578D01*
X50861Y-26280D02*
X50633Y-26280D01*
X50747Y-26680D02*
X50747Y-26280D01*
X50500Y-26528D02*
X50195Y-26528D01*
X50347Y-26680D02*
X50347Y-26376D01*
G54D10*
X50605Y-20914D02*
X50620Y-20929D01*
X50666Y-20944D01*
X50697Y-20944D01*
X50742Y-20929D01*
X50773Y-20899D01*
X50788Y-20868D01*
X50803Y-20807D01*
X50803Y-20761D01*
X50788Y-20700D01*
X50773Y-20670D01*
X50742Y-20640D01*
X50697Y-20624D01*
X50666Y-20624D01*
X50620Y-20640D01*
X50605Y-20655D01*
X50483Y-20655D02*
X50468Y-20640D01*
X50438Y-20624D01*
X50361Y-20624D01*
X50331Y-20640D01*
X50316Y-20655D01*
X50300Y-20685D01*
X50300Y-20716D01*
X50316Y-20761D01*
X50499Y-20944D01*
X50300Y-20944D01*
X50102Y-20624D02*
X50072Y-20624D01*
X50041Y-20640D01*
X50026Y-20655D01*
X50011Y-20685D01*
X49996Y-20746D01*
X49996Y-20822D01*
X50011Y-20883D01*
X50026Y-20914D01*
X50041Y-20929D01*
X50072Y-20944D01*
X50102Y-20944D01*
X50133Y-20929D01*
X50148Y-20914D01*
X50163Y-20883D01*
X50179Y-20822D01*
X50179Y-20746D01*
X50163Y-20685D01*
X50148Y-20655D01*
X50133Y-20640D01*
X50102Y-20624D01*
X48686Y-34394D02*
X48686Y-34074D01*
X48609Y-34074D01*
X48564Y-34090D01*
X48533Y-34120D01*
X48518Y-34150D01*
X48503Y-34211D01*
X48503Y-34257D01*
X48518Y-34318D01*
X48533Y-34349D01*
X48564Y-34379D01*
X48609Y-34394D01*
X48686Y-34394D01*
X48213Y-34074D02*
X48366Y-34074D01*
X48381Y-34227D01*
X48366Y-34211D01*
X48335Y-34196D01*
X48259Y-34196D01*
X48229Y-34211D01*
X48213Y-34227D01*
X48198Y-34257D01*
X48198Y-34333D01*
X48213Y-34364D01*
X48229Y-34379D01*
X48259Y-34394D01*
X48335Y-34394D01*
X48366Y-34379D01*
X48381Y-34364D01*
X48686Y-33494D02*
X48686Y-33174D01*
X48609Y-33174D01*
X48564Y-33190D01*
X48533Y-33220D01*
X48518Y-33250D01*
X48503Y-33311D01*
X48503Y-33357D01*
X48518Y-33418D01*
X48533Y-33449D01*
X48564Y-33479D01*
X48609Y-33494D01*
X48686Y-33494D01*
X48229Y-33281D02*
X48229Y-33494D01*
X48305Y-33159D02*
X48381Y-33388D01*
X48183Y-33388D01*
X60068Y-25393D02*
X60090Y-25393D01*
X60133Y-25371D01*
X60154Y-25350D01*
X60176Y-25306D01*
X60176Y-25263D01*
X60165Y-25231D01*
X60133Y-25177D01*
X60100Y-25145D01*
X60046Y-25112D01*
X60014Y-25102D01*
X59971Y-25102D01*
X59928Y-25123D01*
X59906Y-25145D01*
X59885Y-25188D01*
X59885Y-25209D01*
X59788Y-25263D02*
X59648Y-25403D01*
X59809Y-25414D01*
X59777Y-25446D01*
X59766Y-25479D01*
X59766Y-25500D01*
X59777Y-25533D01*
X59831Y-25587D01*
X59863Y-25597D01*
X59885Y-25597D01*
X59917Y-25587D01*
X59982Y-25522D01*
X59993Y-25490D01*
X59993Y-25468D01*
X54003Y-24064D02*
X54018Y-24079D01*
X54064Y-24094D01*
X54094Y-24094D01*
X54140Y-24079D01*
X54170Y-24049D01*
X54186Y-24018D01*
X54201Y-23957D01*
X54201Y-23911D01*
X54186Y-23850D01*
X54170Y-23820D01*
X54140Y-23790D01*
X54094Y-23774D01*
X54064Y-23774D01*
X54018Y-23790D01*
X54003Y-23805D01*
X53896Y-23774D02*
X53683Y-23774D01*
X53820Y-24094D01*
X50525Y-22354D02*
X50540Y-22369D01*
X50586Y-22384D01*
X50617Y-22384D01*
X50662Y-22369D01*
X50693Y-22339D01*
X50708Y-22308D01*
X50723Y-22247D01*
X50723Y-22201D01*
X50708Y-22140D01*
X50693Y-22110D01*
X50662Y-22080D01*
X50617Y-22064D01*
X50586Y-22064D01*
X50540Y-22080D01*
X50525Y-22095D01*
X50220Y-22384D02*
X50403Y-22384D01*
X50312Y-22384D02*
X50312Y-22064D01*
X50342Y-22110D01*
X50373Y-22140D01*
X50403Y-22156D01*
X50099Y-22095D02*
X50083Y-22080D01*
X50053Y-22064D01*
X49977Y-22064D01*
X49946Y-22080D01*
X49931Y-22095D01*
X49916Y-22125D01*
X49916Y-22156D01*
X49931Y-22201D01*
X50114Y-22384D01*
X49916Y-22384D01*
X55805Y-31214D02*
X55820Y-31229D01*
X55866Y-31244D01*
X55897Y-31244D01*
X55942Y-31229D01*
X55973Y-31199D01*
X55988Y-31168D01*
X56003Y-31107D01*
X56003Y-31061D01*
X55988Y-31000D01*
X55973Y-30970D01*
X55942Y-30940D01*
X55897Y-30924D01*
X55866Y-30924D01*
X55820Y-30940D01*
X55805Y-30955D01*
X55500Y-31244D02*
X55683Y-31244D01*
X55592Y-31244D02*
X55592Y-30924D01*
X55622Y-30970D01*
X55653Y-31000D01*
X55683Y-31016D01*
X55226Y-30924D02*
X55287Y-30924D01*
X55318Y-30940D01*
X55333Y-30955D01*
X55363Y-31000D01*
X55379Y-31061D01*
X55379Y-31183D01*
X55363Y-31214D01*
X55348Y-31229D01*
X55318Y-31244D01*
X55257Y-31244D01*
X55226Y-31229D01*
X55211Y-31214D01*
X55196Y-31183D01*
X55196Y-31107D01*
X55211Y-31077D01*
X55226Y-31061D01*
X55257Y-31046D01*
X55318Y-31046D01*
X55348Y-31061D01*
X55363Y-31077D01*
X55379Y-31107D01*
G54D19*
X53736Y-33650D02*
X53029Y-33791D01*
X53453Y-33367D02*
X53312Y-34074D01*
X52645Y-33408D02*
X52887Y-33650D01*
X52766Y-33529D02*
X53190Y-33104D01*
X53170Y-33205D01*
X53170Y-33286D01*
X53190Y-33347D01*
G54D16*
G54D10*
X46605Y-36164D02*
X46620Y-36179D01*
X46666Y-36194D01*
X46697Y-36194D01*
X46742Y-36179D01*
X46773Y-36149D01*
X46788Y-36118D01*
X46803Y-36057D01*
X46803Y-36011D01*
X46788Y-35950D01*
X46773Y-35920D01*
X46742Y-35890D01*
X46697Y-35874D01*
X46666Y-35874D01*
X46620Y-35890D01*
X46605Y-35905D01*
X46300Y-36194D02*
X46483Y-36194D01*
X46392Y-36194D02*
X46392Y-35874D01*
X46422Y-35920D01*
X46453Y-35950D01*
X46483Y-35966D01*
X46194Y-35874D02*
X45980Y-35874D01*
X46118Y-36194D01*
X53055Y-23164D02*
X53070Y-23179D01*
X53116Y-23194D01*
X53147Y-23194D01*
X53192Y-23179D01*
X53223Y-23149D01*
X53238Y-23118D01*
X53253Y-23057D01*
X53253Y-23011D01*
X53238Y-22950D01*
X53223Y-22920D01*
X53192Y-22890D01*
X53147Y-22874D01*
X53116Y-22874D01*
X53070Y-22890D01*
X53055Y-22905D01*
X52750Y-23194D02*
X52933Y-23194D01*
X52842Y-23194D02*
X52842Y-22874D01*
X52872Y-22920D01*
X52903Y-22950D01*
X52933Y-22966D01*
X52598Y-23194D02*
X52537Y-23194D01*
X52507Y-23179D01*
X52491Y-23164D01*
X52461Y-23118D01*
X52446Y-23057D01*
X52446Y-22935D01*
X52461Y-22905D01*
X52476Y-22890D01*
X52507Y-22874D01*
X52568Y-22874D01*
X52598Y-22890D01*
X52613Y-22905D01*
X52629Y-22935D01*
X52629Y-23011D01*
X52613Y-23042D01*
X52598Y-23057D01*
X52568Y-23072D01*
X52507Y-23072D01*
X52476Y-23057D01*
X52461Y-23042D01*
X52446Y-23011D01*
X51205Y-20214D02*
X51220Y-20229D01*
X51266Y-20244D01*
X51297Y-20244D01*
X51342Y-20229D01*
X51373Y-20199D01*
X51388Y-20168D01*
X51403Y-20107D01*
X51403Y-20061D01*
X51388Y-20000D01*
X51373Y-19970D01*
X51342Y-19940D01*
X51297Y-19924D01*
X51266Y-19924D01*
X51220Y-19940D01*
X51205Y-19955D01*
X51083Y-19955D02*
X51068Y-19940D01*
X51038Y-19924D01*
X50961Y-19924D01*
X50931Y-19940D01*
X50916Y-19955D01*
X50900Y-19985D01*
X50900Y-20016D01*
X50916Y-20061D01*
X51099Y-20244D01*
X50900Y-20244D01*
X50596Y-20244D02*
X50779Y-20244D01*
X50687Y-20244D02*
X50687Y-19924D01*
X50718Y-19970D01*
X50748Y-20000D01*
X50779Y-20016D01*
X58946Y-24348D02*
X58763Y-24531D01*
X58730Y-24542D01*
X58709Y-24542D01*
X58676Y-24531D01*
X58633Y-24488D01*
X58623Y-24456D01*
X58623Y-24434D01*
X58633Y-24402D01*
X58817Y-24219D01*
X58730Y-24132D02*
X58590Y-23992D01*
X58579Y-24154D01*
X58547Y-24122D01*
X58515Y-24111D01*
X58493Y-24111D01*
X58461Y-24122D01*
X58407Y-24176D01*
X58396Y-24208D01*
X58396Y-24229D01*
X58407Y-24262D01*
X58472Y-24326D01*
X58504Y-24337D01*
X58526Y-24337D01*
X46255Y-32944D02*
X46362Y-32792D01*
X46438Y-32944D02*
X46438Y-32624D01*
X46316Y-32624D01*
X46286Y-32640D01*
X46270Y-32655D01*
X46255Y-32685D01*
X46255Y-32731D01*
X46270Y-32761D01*
X46286Y-32777D01*
X46316Y-32792D01*
X46438Y-32792D01*
X45950Y-32944D02*
X46133Y-32944D01*
X46042Y-32944D02*
X46042Y-32624D01*
X46072Y-32670D01*
X46103Y-32700D01*
X46133Y-32716D01*
X45752Y-32624D02*
X45722Y-32624D01*
X45691Y-32640D01*
X45676Y-32655D01*
X45661Y-32685D01*
X45646Y-32746D01*
X45646Y-32822D01*
X45661Y-32883D01*
X45676Y-32914D01*
X45691Y-32929D01*
X45722Y-32944D01*
X45752Y-32944D01*
X45783Y-32929D01*
X45798Y-32914D01*
X45813Y-32883D01*
X45829Y-32822D01*
X45829Y-32746D01*
X45813Y-32685D01*
X45798Y-32655D01*
X45783Y-32640D01*
X45752Y-32624D01*
X45705Y-35044D02*
X45812Y-34892D01*
X45888Y-35044D02*
X45888Y-34724D01*
X45766Y-34724D01*
X45736Y-34740D01*
X45720Y-34755D01*
X45705Y-34785D01*
X45705Y-34831D01*
X45720Y-34861D01*
X45736Y-34877D01*
X45766Y-34892D01*
X45888Y-34892D01*
X45400Y-35044D02*
X45583Y-35044D01*
X45492Y-35044D02*
X45492Y-34724D01*
X45522Y-34770D01*
X45553Y-34800D01*
X45583Y-34816D01*
X45126Y-34724D02*
X45187Y-34724D01*
X45218Y-34740D01*
X45233Y-34755D01*
X45263Y-34800D01*
X45279Y-34861D01*
X45279Y-34983D01*
X45263Y-35014D01*
X45248Y-35029D01*
X45218Y-35044D01*
X45157Y-35044D01*
X45126Y-35029D01*
X45111Y-35014D01*
X45096Y-34983D01*
X45096Y-34907D01*
X45111Y-34877D01*
X45126Y-34861D01*
X45157Y-34846D01*
X45218Y-34846D01*
X45248Y-34861D01*
X45263Y-34877D01*
X45279Y-34907D01*
G54D19*
G54D10*
X50258Y-34464D02*
X50273Y-34479D01*
X50319Y-34494D01*
X50349Y-34494D01*
X50395Y-34479D01*
X50425Y-34449D01*
X50440Y-34418D01*
X50456Y-34357D01*
X50456Y-34311D01*
X50440Y-34250D01*
X50425Y-34220D01*
X50395Y-34190D01*
X50349Y-34174D01*
X50319Y-34174D01*
X50273Y-34190D01*
X50258Y-34205D01*
X49953Y-34494D02*
X50136Y-34494D01*
X50044Y-34494D02*
X50044Y-34174D01*
X50075Y-34220D01*
X50105Y-34250D01*
X50136Y-34266D01*
X49755Y-34174D02*
X49724Y-34174D01*
X49694Y-34190D01*
X49679Y-34205D01*
X49663Y-34235D01*
X49648Y-34296D01*
X49648Y-34372D01*
X49663Y-34433D01*
X49679Y-34464D01*
X49694Y-34479D01*
X49724Y-34494D01*
X49755Y-34494D01*
X49785Y-34479D01*
X49800Y-34464D01*
X49816Y-34433D01*
X49831Y-34372D01*
X49831Y-34296D01*
X49816Y-34235D01*
X49800Y-34205D01*
X49785Y-34190D01*
X49755Y-34174D01*
X49541Y-34174D02*
X49343Y-34174D01*
X49450Y-34296D01*
X49404Y-34296D01*
X49374Y-34311D01*
X49359Y-34327D01*
X49343Y-34357D01*
X49343Y-34433D01*
X49359Y-34464D01*
X49374Y-34479D01*
X49404Y-34494D01*
X49496Y-34494D01*
X49526Y-34479D01*
X49541Y-34464D01*
X51884Y-36327D02*
X51905Y-36327D01*
X51948Y-36306D01*
X51970Y-36284D01*
X51991Y-36241D01*
X51991Y-36198D01*
X51980Y-36165D01*
X51948Y-36112D01*
X51916Y-36079D01*
X51862Y-36047D01*
X51830Y-36036D01*
X51787Y-36036D01*
X51743Y-36058D01*
X51722Y-36079D01*
X51700Y-36122D01*
X51700Y-36144D01*
X51690Y-36564D02*
X51819Y-36435D01*
X51754Y-36500D02*
X51528Y-36273D01*
X51582Y-36284D01*
X51625Y-36284D01*
X51657Y-36273D01*
X51323Y-36478D02*
X51302Y-36499D01*
X51291Y-36532D01*
X51291Y-36553D01*
X51302Y-36586D01*
X51334Y-36640D01*
X51388Y-36693D01*
X51442Y-36726D01*
X51474Y-36737D01*
X51496Y-36737D01*
X51528Y-36726D01*
X51549Y-36704D01*
X51560Y-36672D01*
X51560Y-36650D01*
X51549Y-36618D01*
X51517Y-36564D01*
X51463Y-36510D01*
X51409Y-36478D01*
X51377Y-36467D01*
X51356Y-36467D01*
X51323Y-36478D01*
X51183Y-36661D02*
X51162Y-36661D01*
X51129Y-36672D01*
X51075Y-36726D01*
X51065Y-36758D01*
X51065Y-36780D01*
X51075Y-36812D01*
X51097Y-36834D01*
X51140Y-36855D01*
X51399Y-36855D01*
X51259Y-36995D01*
X47808Y-36614D02*
X47823Y-36629D01*
X47869Y-36644D01*
X47899Y-36644D01*
X47945Y-36629D01*
X47975Y-36599D01*
X47990Y-36568D01*
X48006Y-36507D01*
X48006Y-36461D01*
X47990Y-36400D01*
X47975Y-36370D01*
X47945Y-36340D01*
X47899Y-36324D01*
X47869Y-36324D01*
X47823Y-36340D01*
X47808Y-36355D01*
X47503Y-36644D02*
X47686Y-36644D01*
X47594Y-36644D02*
X47594Y-36324D01*
X47625Y-36370D01*
X47655Y-36400D01*
X47686Y-36416D01*
X47305Y-36324D02*
X47274Y-36324D01*
X47244Y-36340D01*
X47229Y-36355D01*
X47213Y-36385D01*
X47198Y-36446D01*
X47198Y-36522D01*
X47213Y-36583D01*
X47229Y-36614D01*
X47244Y-36629D01*
X47274Y-36644D01*
X47305Y-36644D01*
X47335Y-36629D01*
X47350Y-36614D01*
X47366Y-36583D01*
X47381Y-36522D01*
X47381Y-36446D01*
X47366Y-36385D01*
X47350Y-36355D01*
X47335Y-36340D01*
X47305Y-36324D01*
X46909Y-36324D02*
X47061Y-36324D01*
X47076Y-36477D01*
X47061Y-36461D01*
X47030Y-36446D01*
X46954Y-36446D01*
X46924Y-36461D01*
X46909Y-36477D01*
X46893Y-36507D01*
X46893Y-36583D01*
X46909Y-36614D01*
X46924Y-36629D01*
X46954Y-36644D01*
X47030Y-36644D01*
X47061Y-36629D01*
X47076Y-36614D01*
X55058Y-35314D02*
X55073Y-35329D01*
X55119Y-35344D01*
X55149Y-35344D01*
X55195Y-35329D01*
X55225Y-35299D01*
X55240Y-35268D01*
X55256Y-35207D01*
X55256Y-35161D01*
X55240Y-35100D01*
X55225Y-35070D01*
X55195Y-35040D01*
X55149Y-35024D01*
X55119Y-35024D01*
X55073Y-35040D01*
X55058Y-35055D01*
X54753Y-35344D02*
X54936Y-35344D01*
X54844Y-35344D02*
X54844Y-35024D01*
X54875Y-35070D01*
X54905Y-35100D01*
X54936Y-35116D01*
X54555Y-35024D02*
X54524Y-35024D01*
X54494Y-35040D01*
X54479Y-35055D01*
X54463Y-35085D01*
X54448Y-35146D01*
X54448Y-35222D01*
X54463Y-35283D01*
X54479Y-35314D01*
X54494Y-35329D01*
X54524Y-35344D01*
X54555Y-35344D01*
X54585Y-35329D01*
X54600Y-35314D01*
X54616Y-35283D01*
X54631Y-35222D01*
X54631Y-35146D01*
X54616Y-35085D01*
X54600Y-35055D01*
X54585Y-35040D01*
X54555Y-35024D01*
X54174Y-35024D02*
X54235Y-35024D01*
X54265Y-35040D01*
X54280Y-35055D01*
X54311Y-35100D01*
X54326Y-35161D01*
X54326Y-35283D01*
X54311Y-35314D01*
X54296Y-35329D01*
X54265Y-35344D01*
X54204Y-35344D01*
X54174Y-35329D01*
X54159Y-35314D01*
X54143Y-35283D01*
X54143Y-35207D01*
X54159Y-35177D01*
X54174Y-35161D01*
X54204Y-35146D01*
X54265Y-35146D01*
X54296Y-35161D01*
X54311Y-35177D01*
X54326Y-35207D01*
G54D11*
M02*
