G04 (created by PCBNEW (2013-mar-13)-testing) date Wed 22 May 2013 10:15:49 PM CEST*
%MOIN*%
G04 Gerber Fmt 3.4, Leading zero omitted, Abs format*
%FSLAX34Y34*%
G01*
G70*
G90*
G04 APERTURE LIST*
%ADD10C,0.005906*%
%ADD11C,0.078740*%
%ADD12C,0.122047*%
%ADD13R,0.015000X0.050000*%
%ADD14R,0.023600X0.039400*%
%ADD15R,0.025000X0.045000*%
%ADD16R,0.045000X0.025000*%
%ADD17R,0.028000X0.018000*%
%ADD18R,0.035000X0.055000*%
%ADD19R,0.060000X0.060000*%
%ADD20C,0.060000*%
%ADD21C,0.056000*%
%ADD22R,0.020000X0.045000*%
%ADD23R,0.078700X0.017700*%
%ADD24R,0.017700X0.078700*%
%ADD25R,0.063000X0.086600*%
%ADD26C,0.070000*%
G04 APERTURE END LIST*
G54D10*
G54D11*
X97650Y-55800D03*
G54D12*
X85236Y-59050D03*
G54D13*
X94141Y-54675D03*
X94397Y-54675D03*
X94653Y-54675D03*
X94909Y-54675D03*
X94909Y-52975D03*
X94653Y-52975D03*
X94397Y-52975D03*
X94141Y-52975D03*
G54D14*
X93025Y-53534D03*
X92650Y-54366D03*
X92275Y-53534D03*
G54D15*
X101725Y-55850D03*
X101125Y-55850D03*
G54D16*
X104800Y-53620D03*
X104800Y-53020D03*
G54D15*
X101075Y-54400D03*
X101675Y-54400D03*
G54D10*
G36*
X100191Y-51190D02*
X100509Y-51508D01*
X100332Y-51685D01*
X100014Y-51367D01*
X100191Y-51190D01*
X100191Y-51190D01*
G37*
G36*
X99767Y-51614D02*
X100085Y-51932D01*
X99908Y-52109D01*
X99590Y-51791D01*
X99767Y-51614D01*
X99767Y-51614D01*
G37*
G36*
X98541Y-49740D02*
X98859Y-50058D01*
X98682Y-50235D01*
X98364Y-49917D01*
X98541Y-49740D01*
X98541Y-49740D01*
G37*
G36*
X98117Y-50164D02*
X98435Y-50482D01*
X98258Y-50659D01*
X97940Y-50341D01*
X98117Y-50164D01*
X98117Y-50164D01*
G37*
G54D16*
X97400Y-49500D03*
X97400Y-50100D03*
X96500Y-49500D03*
X96500Y-50100D03*
G54D15*
X94200Y-62900D03*
X94800Y-62900D03*
G54D16*
X95000Y-64050D03*
X95000Y-63450D03*
G54D15*
X100500Y-61650D03*
X101100Y-61650D03*
G54D17*
X99725Y-55390D03*
X99725Y-55910D03*
X100525Y-55650D03*
G54D18*
X101750Y-55150D03*
X101000Y-55150D03*
G54D10*
G36*
X100083Y-50844D02*
X99694Y-51233D01*
X99446Y-50985D01*
X99835Y-50596D01*
X100083Y-50844D01*
X100083Y-50844D01*
G37*
G36*
X99553Y-50314D02*
X99164Y-50703D01*
X98916Y-50455D01*
X99305Y-50066D01*
X99553Y-50314D01*
X99553Y-50314D01*
G37*
G54D19*
X102850Y-60555D03*
G54D20*
X102850Y-59555D03*
X102850Y-58555D03*
X102850Y-57555D03*
G54D21*
X95007Y-64607D03*
X93592Y-63192D03*
G54D22*
X100000Y-62350D03*
X100500Y-62350D03*
X101000Y-62350D03*
X101500Y-62350D03*
X101500Y-64850D03*
X101000Y-64850D03*
X100500Y-64850D03*
X100000Y-64850D03*
G54D18*
X95175Y-51100D03*
X95925Y-51100D03*
G54D19*
X97950Y-65450D03*
G54D20*
X96950Y-65450D03*
X97950Y-66450D03*
X96950Y-66450D03*
X97950Y-67450D03*
X96950Y-67450D03*
G54D19*
X102260Y-63860D03*
G54D20*
X102260Y-62860D03*
G54D16*
X96050Y-55050D03*
X96050Y-54450D03*
X100125Y-54950D03*
X100125Y-54350D03*
G54D15*
X93725Y-51225D03*
X94325Y-51225D03*
G54D16*
X103000Y-63380D03*
X103000Y-63980D03*
X95250Y-65200D03*
X95250Y-65800D03*
G54D13*
X91566Y-52700D03*
X91822Y-52700D03*
X92078Y-52700D03*
X92334Y-52700D03*
X92334Y-51000D03*
X92078Y-51000D03*
X91822Y-51000D03*
X91566Y-51000D03*
G54D23*
X93696Y-63857D03*
X93696Y-64172D03*
X93696Y-64487D03*
X93696Y-64802D03*
X93696Y-65117D03*
X93696Y-65432D03*
X93696Y-65747D03*
X93696Y-66062D03*
X89930Y-66060D03*
X89930Y-63850D03*
X89930Y-64170D03*
X89930Y-64490D03*
X89930Y-64800D03*
X89930Y-65120D03*
X89930Y-65430D03*
X89930Y-65750D03*
G54D24*
X92912Y-66850D03*
X92598Y-66850D03*
X92282Y-66850D03*
X91968Y-66850D03*
X91652Y-66850D03*
X91338Y-66850D03*
X91022Y-66850D03*
X90708Y-66850D03*
X92910Y-63070D03*
X92600Y-63070D03*
X92280Y-63070D03*
X91970Y-63070D03*
X91660Y-63070D03*
X91340Y-63070D03*
X91020Y-63070D03*
X90700Y-63070D03*
G54D10*
G36*
X104176Y-56454D02*
X103391Y-56820D01*
X103091Y-56177D01*
X103876Y-55811D01*
X104176Y-56454D01*
X104176Y-56454D01*
G37*
G36*
X103508Y-55022D02*
X102723Y-55388D01*
X102423Y-54745D01*
X103208Y-54379D01*
X103508Y-55022D01*
X103508Y-55022D01*
G37*
G54D12*
X94256Y-68015D03*
X101386Y-58605D03*
G54D16*
X90300Y-53650D03*
X90300Y-54250D03*
G54D15*
X107550Y-56700D03*
X108150Y-56700D03*
X105750Y-55250D03*
X106350Y-55250D03*
X105750Y-54500D03*
X106350Y-54500D03*
X95400Y-52750D03*
X96000Y-52750D03*
G54D16*
X92500Y-49560D03*
X92500Y-50160D03*
G54D15*
X91900Y-50100D03*
X91300Y-50100D03*
X90850Y-52650D03*
X90250Y-52650D03*
G54D16*
X99425Y-54950D03*
X99425Y-54350D03*
G54D18*
X95175Y-51950D03*
X95925Y-51950D03*
X93650Y-51975D03*
X94400Y-51975D03*
X90925Y-54250D03*
X91675Y-54250D03*
X91675Y-53400D03*
X90925Y-53400D03*
G54D25*
X87812Y-72300D03*
X89308Y-72300D03*
X87412Y-74860D03*
X88908Y-74860D03*
G54D26*
X102457Y-53432D03*
G54D10*
G36*
X101750Y-53219D02*
X101255Y-52725D01*
X101750Y-52230D01*
X102244Y-52725D01*
X101750Y-53219D01*
X101750Y-53219D01*
G37*
G54D26*
X101042Y-52017D03*
M02*
