G04 (created by PCBNEW (2013-mar-13)-testing) date Mon 02 Sep 2013 08:45:34 PM CEST*
%MOIN*%
G04 Gerber Fmt 3.4, Leading zero omitted, Abs format*
%FSLAX34Y34*%
G01*
G70*
G90*
G04 APERTURE LIST*
%ADD10C,0.005906*%
%ADD11R,0.065000X0.065000*%
%ADD12C,0.065000*%
%ADD13R,0.060000X0.060000*%
%ADD14C,0.060000*%
%ADD15C,0.078740*%
%ADD16R,0.028000X0.018000*%
%ADD17R,0.025000X0.045000*%
%ADD18C,0.122047*%
%ADD19R,0.015000X0.050000*%
%ADD20R,0.023600X0.039400*%
%ADD21R,0.045000X0.025000*%
%ADD22R,0.035000X0.055000*%
%ADD23C,0.056000*%
%ADD24R,0.045000X0.020000*%
%ADD25R,0.078700X0.017700*%
%ADD26R,0.017700X0.078700*%
%ADD27R,0.086600X0.070900*%
%ADD28C,0.070000*%
%ADD29R,0.100000X0.100000*%
%ADD30C,0.100000*%
%ADD31R,0.055000X0.035000*%
%ADD32R,0.039400X0.031500*%
G04 APERTURE END LIST*
G54D10*
G54D11*
X57400Y-32200D03*
G54D12*
X57400Y-31200D03*
G54D11*
X58550Y-27450D03*
G54D12*
X57550Y-27450D03*
G54D13*
X46840Y-30420D03*
G54D14*
X47840Y-30420D03*
X46840Y-31420D03*
X47840Y-31420D03*
X46840Y-32420D03*
X47840Y-32420D03*
G54D15*
X55450Y-26500D03*
X48975Y-26500D03*
G54D16*
X57350Y-26140D03*
X57350Y-26660D03*
X58150Y-26400D03*
G54D17*
X49700Y-20800D03*
X49100Y-20800D03*
G54D18*
X43036Y-29755D03*
G54D19*
X51941Y-25375D03*
X52197Y-25375D03*
X52453Y-25375D03*
X52709Y-25375D03*
X52709Y-23675D03*
X52453Y-23675D03*
X52197Y-23675D03*
X51941Y-23675D03*
G54D20*
X50825Y-24234D03*
X50450Y-25066D03*
X50075Y-24234D03*
G54D17*
X59450Y-26600D03*
X58850Y-26600D03*
X58900Y-25100D03*
X59500Y-25100D03*
X56140Y-24080D03*
X55540Y-24080D03*
X55420Y-22440D03*
X54820Y-22440D03*
X55420Y-21700D03*
X54820Y-21700D03*
X55420Y-20960D03*
X54820Y-20960D03*
X52000Y-33600D03*
X52600Y-33600D03*
G54D21*
X52800Y-34750D03*
X52800Y-34150D03*
X58300Y-32400D03*
X58300Y-31800D03*
G54D22*
X59550Y-25850D03*
X58800Y-25850D03*
X56155Y-23300D03*
X55405Y-23300D03*
G54D23*
X52807Y-35307D03*
X51392Y-33892D03*
G54D24*
X58300Y-33200D03*
X58300Y-33700D03*
X58300Y-34200D03*
X58300Y-34700D03*
X55800Y-34700D03*
X55800Y-34200D03*
X55800Y-33700D03*
X55800Y-33200D03*
G54D22*
X52975Y-21800D03*
X53725Y-21800D03*
G54D13*
X60600Y-33200D03*
G54D14*
X60600Y-34200D03*
G54D19*
X49366Y-23400D03*
X49622Y-23400D03*
X49878Y-23400D03*
X50134Y-23400D03*
X50134Y-21700D03*
X49878Y-21700D03*
X49622Y-21700D03*
X49366Y-21700D03*
G54D25*
X51496Y-34557D03*
X51496Y-34872D03*
X51496Y-35187D03*
X51496Y-35502D03*
X51496Y-35817D03*
X51496Y-36132D03*
X51496Y-36447D03*
X51496Y-36762D03*
X47730Y-36760D03*
X47730Y-34550D03*
X47730Y-34870D03*
X47730Y-35190D03*
X47730Y-35500D03*
X47730Y-35820D03*
X47730Y-36130D03*
X47730Y-36450D03*
G54D26*
X50712Y-37550D03*
X50398Y-37550D03*
X50082Y-37550D03*
X49768Y-37550D03*
X49452Y-37550D03*
X49138Y-37550D03*
X48822Y-37550D03*
X48508Y-37550D03*
X50710Y-33770D03*
X50400Y-33770D03*
X50080Y-33770D03*
X49770Y-33770D03*
X49460Y-33770D03*
X49140Y-33770D03*
X48820Y-33770D03*
X48500Y-33770D03*
G54D27*
X60800Y-26490D03*
X60800Y-24910D03*
G54D18*
X56914Y-37766D03*
X56914Y-21739D03*
G54D21*
X48100Y-24350D03*
X48100Y-24950D03*
G54D17*
X58850Y-24400D03*
X58250Y-24400D03*
X57150Y-24400D03*
X57750Y-24400D03*
X53200Y-23450D03*
X53800Y-23450D03*
G54D21*
X50300Y-20260D03*
X50300Y-20860D03*
G54D17*
X48650Y-23350D03*
X48050Y-23350D03*
G54D21*
X57150Y-25650D03*
X57150Y-25050D03*
G54D22*
X52975Y-22650D03*
X53725Y-22650D03*
X51450Y-22675D03*
X52200Y-22675D03*
X48725Y-24950D03*
X49475Y-24950D03*
X49475Y-24100D03*
X48725Y-24100D03*
G54D28*
X60257Y-24132D03*
G54D10*
G36*
X59550Y-23919D02*
X59055Y-23425D01*
X59550Y-22930D01*
X60044Y-23425D01*
X59550Y-23919D01*
X59550Y-23919D01*
G37*
G54D28*
X58842Y-22717D03*
G54D21*
X53850Y-25050D03*
X53850Y-24450D03*
X57950Y-25650D03*
X57950Y-25050D03*
G54D17*
X51525Y-21925D03*
X52125Y-21925D03*
G54D21*
X59750Y-33550D03*
X59750Y-32950D03*
X53050Y-35900D03*
X53050Y-36500D03*
G54D29*
X61050Y-27511D03*
G54D30*
X61050Y-28889D03*
G54D29*
X61050Y-30511D03*
G54D30*
X61050Y-31889D03*
G54D17*
X49550Y-26180D03*
X50150Y-26180D03*
X54200Y-25700D03*
X53600Y-25700D03*
X45830Y-22750D03*
X45230Y-22750D03*
G54D21*
X46420Y-27830D03*
X46420Y-28430D03*
G54D31*
X44760Y-35415D03*
X44760Y-36165D03*
G54D21*
X59760Y-34670D03*
X59760Y-34070D03*
X59050Y-32950D03*
X59050Y-33550D03*
G54D32*
X59267Y-29600D03*
X60133Y-29225D03*
X60133Y-29975D03*
G54D13*
X50800Y-38700D03*
G54D14*
X49800Y-38700D03*
X48800Y-38700D03*
X47800Y-38700D03*
G54D31*
X51850Y-37975D03*
X51850Y-38725D03*
M02*
