G04 (created by PCBNEW (2013-mar-13)-testing) date Wed 22 May 2013 10:15:49 PM CEST*
%MOIN*%
G04 Gerber Fmt 3.4, Leading zero omitted, Abs format*
%FSLAX34Y34*%
G01*
G70*
G90*
G04 APERTURE LIST*
%ADD10C,0.005906*%
%ADD11C,0.007874*%
%ADD12C,0.015000*%
%ADD13C,0.005000*%
%ADD14C,0.004700*%
%ADD15C,0.010000*%
%ADD16C,0.012500*%
%ADD17C,0.008000*%
%ADD18C,0.006000*%
%ADD19C,0.003900*%
%ADD20C,0.004500*%
%ADD21C,0.012000*%
%ADD22C,0.004300*%
G04 APERTURE END LIST*
G54D10*
G54D11*
X97440Y-59055D02*
G75*
G03X97440Y-59055I-2952J0D01*
G74*
G01*
X105314Y-59055D02*
G75*
G03X105314Y-59055I-10826J0D01*
G74*
G01*
G54D12*
X96416Y-54816D02*
X96416Y-56784D01*
X96666Y-56784D02*
X98634Y-56784D01*
X98634Y-56784D02*
X98634Y-54816D01*
X98634Y-54816D02*
X96666Y-54816D01*
G54D13*
X99817Y-52677D02*
X100810Y-50547D01*
X100402Y-50357D02*
X99409Y-52487D01*
X97189Y-51452D02*
X98182Y-49322D01*
X98182Y-49322D02*
X100810Y-50547D01*
X99817Y-52677D02*
X97189Y-51452D01*
G54D14*
X95397Y-52994D02*
X95672Y-52994D01*
X95003Y-52994D02*
X94728Y-52994D01*
X95397Y-53506D02*
X95672Y-53506D01*
X94728Y-53506D02*
X95003Y-53506D01*
X95672Y-53500D02*
X95672Y-53000D01*
X94728Y-53000D02*
X94728Y-53500D01*
X91531Y-51672D02*
X91531Y-51947D01*
X91531Y-51278D02*
X91531Y-51003D01*
X91019Y-51672D02*
X91019Y-51947D01*
X91019Y-51003D02*
X91019Y-51278D01*
X91025Y-51947D02*
X91525Y-51947D01*
X91525Y-51003D02*
X91025Y-51003D01*
X99047Y-61194D02*
X99322Y-61194D01*
X98653Y-61194D02*
X98378Y-61194D01*
X99047Y-61706D02*
X99322Y-61706D01*
X98378Y-61706D02*
X98653Y-61706D01*
X99322Y-61700D02*
X99322Y-61200D01*
X98378Y-61200D02*
X98378Y-61700D01*
G54D15*
X102350Y-57055D02*
X102350Y-61055D01*
X103350Y-57055D02*
X103350Y-61055D01*
X103350Y-61055D02*
X102350Y-61055D01*
X102350Y-57055D02*
X103350Y-57055D01*
G54D16*
X94476Y-65490D02*
X92709Y-63723D01*
X95890Y-64076D02*
X94123Y-62309D01*
X92709Y-62309D02*
G75*
G02X94123Y-62309I707J-707D01*
G74*
G01*
X92709Y-63723D02*
G75*
G02X92709Y-62309I707J707D01*
G74*
G01*
X95890Y-64076D02*
G75*
G02X95890Y-65490I-707J-707D01*
G74*
G01*
X95890Y-65490D02*
G75*
G02X94476Y-65490I-707J707D01*
G74*
G01*
G54D13*
X103106Y-55355D02*
X101444Y-53693D01*
X101126Y-54012D02*
X102787Y-55673D01*
X101055Y-57406D02*
X99393Y-55744D01*
X99393Y-55744D02*
X101444Y-53693D01*
X103106Y-55355D02*
X101055Y-57406D01*
G54D17*
X98450Y-67950D02*
X98450Y-64950D01*
X96450Y-64950D02*
X96450Y-67950D01*
X96450Y-67950D02*
X98450Y-67950D01*
X98450Y-64950D02*
X96450Y-64950D01*
G54D18*
X101760Y-64360D02*
X102760Y-64360D01*
X102760Y-64360D02*
X102760Y-62360D01*
X102760Y-62360D02*
X101760Y-62360D01*
X101760Y-62360D02*
X101760Y-64360D01*
G54D14*
X89756Y-64677D02*
X89756Y-64952D01*
X89756Y-64283D02*
X89756Y-64008D01*
X89244Y-64677D02*
X89244Y-64952D01*
X89244Y-64008D02*
X89244Y-64283D01*
X89250Y-64952D02*
X89750Y-64952D01*
X89750Y-64008D02*
X89250Y-64008D01*
G54D12*
X92159Y-56784D02*
X92159Y-54816D01*
X92159Y-54816D02*
X90191Y-54816D01*
X90191Y-54816D02*
X90191Y-56784D01*
X90191Y-56784D02*
X92159Y-56784D01*
G54D19*
X92800Y-52550D02*
G75*
G03X92800Y-52550I-50J0D01*
G74*
G01*
X93200Y-52550D02*
X92800Y-52550D01*
X92800Y-52550D02*
X92800Y-53150D01*
X92800Y-53150D02*
X93200Y-53150D01*
X93600Y-53150D02*
X94000Y-53150D01*
X94000Y-53150D02*
X94000Y-52550D01*
X94000Y-52550D02*
X93600Y-52550D01*
G54D14*
X91797Y-49844D02*
X92072Y-49844D01*
X91403Y-49844D02*
X91128Y-49844D01*
X91797Y-50356D02*
X92072Y-50356D01*
X91128Y-50356D02*
X91403Y-50356D01*
X92072Y-50350D02*
X92072Y-49850D01*
X91128Y-49850D02*
X91128Y-50350D01*
G54D15*
X103517Y-53432D02*
X103694Y-53255D01*
X103694Y-53255D02*
X101219Y-50780D01*
X101219Y-50780D02*
X101042Y-50957D01*
X102457Y-54492D02*
X103517Y-53432D01*
X103517Y-53432D02*
X101042Y-50957D01*
X101042Y-50957D02*
X99982Y-52017D01*
X99982Y-52017D02*
X102457Y-54492D01*
G54D10*
X98014Y-55800D02*
G75*
G03X98014Y-55800I-364J0D01*
G74*
G01*
X102579Y-60284D02*
X102579Y-60825D01*
X103120Y-60825D01*
X103120Y-60284D01*
X102579Y-60284D01*
X103120Y-59555D02*
G75*
G03X103120Y-59555I-270J0D01*
G74*
G01*
X103120Y-58555D02*
G75*
G03X103120Y-58555I-270J0D01*
G74*
G01*
X103120Y-57555D02*
G75*
G03X103120Y-57555I-270J0D01*
G74*
G01*
X95257Y-64607D02*
G75*
G03X95257Y-64607I-250J0D01*
G74*
G01*
X93843Y-63192D02*
G75*
G03X93843Y-63192I-250J0D01*
G74*
G01*
X97679Y-65179D02*
X97679Y-65720D01*
X98220Y-65720D01*
X98220Y-65179D01*
X97679Y-65179D01*
X97220Y-65450D02*
G75*
G03X97220Y-65450I-270J0D01*
G74*
G01*
X98220Y-66450D02*
G75*
G03X98220Y-66450I-270J0D01*
G74*
G01*
X97220Y-66450D02*
G75*
G03X97220Y-66450I-270J0D01*
G74*
G01*
X98220Y-67450D02*
G75*
G03X98220Y-67450I-270J0D01*
G74*
G01*
X97220Y-67450D02*
G75*
G03X97220Y-67450I-270J0D01*
G74*
G01*
X101989Y-63589D02*
X101989Y-64130D01*
X102530Y-64130D01*
X102530Y-63589D01*
X101989Y-63589D01*
X102530Y-62860D02*
G75*
G03X102530Y-62860I-270J0D01*
G74*
G01*
X90365Y-55029D02*
X90365Y-56570D01*
X92274Y-56570D01*
X92274Y-55029D01*
X90365Y-55029D01*
X102777Y-53432D02*
G75*
G03X102777Y-53432I-320J0D01*
G74*
G01*
X101750Y-53219D02*
X101255Y-52725D01*
X101750Y-52230D01*
X102244Y-52725D01*
X101750Y-53219D01*
X101363Y-52017D02*
G75*
G03X101363Y-52017I-320J0D01*
G74*
G01*
G54D15*
X96452Y-54638D02*
X96452Y-54409D01*
X96452Y-54523D02*
X96052Y-54523D01*
X96110Y-54485D01*
X96148Y-54447D01*
X96167Y-54409D01*
X96452Y-54809D02*
X96052Y-54809D01*
X96052Y-54961D01*
X96072Y-55000D01*
X96091Y-55019D01*
X96129Y-55038D01*
X96186Y-55038D01*
X96224Y-55019D01*
X96243Y-55000D01*
X96262Y-54961D01*
X96262Y-54809D01*
X96452Y-55209D02*
X96052Y-55209D01*
X96452Y-55400D02*
X96052Y-55400D01*
X96452Y-55628D01*
X96052Y-55628D01*
X96491Y-55723D02*
X96491Y-56028D01*
X96433Y-56104D02*
X96452Y-56161D01*
X96452Y-56257D01*
X96433Y-56295D01*
X96414Y-56314D01*
X96376Y-56333D01*
X96338Y-56333D01*
X96300Y-56314D01*
X96281Y-56295D01*
X96262Y-56257D01*
X96243Y-56180D01*
X96224Y-56142D01*
X96205Y-56123D01*
X96167Y-56104D01*
X96129Y-56104D01*
X96091Y-56123D01*
X96072Y-56142D01*
X96052Y-56180D01*
X96052Y-56276D01*
X96072Y-56333D01*
X96452Y-56504D02*
X96052Y-56504D01*
X96338Y-56638D01*
X96052Y-56771D01*
X96452Y-56771D01*
X96452Y-56961D02*
X96052Y-56961D01*
X96052Y-57057D01*
X96072Y-57114D01*
X96110Y-57152D01*
X96148Y-57171D01*
X96224Y-57190D01*
X96281Y-57190D01*
X96357Y-57171D01*
X96395Y-57152D01*
X96433Y-57114D01*
X96452Y-57057D01*
X96452Y-56961D01*
G54D14*
X98408Y-52346D02*
X98412Y-52358D01*
X98434Y-52379D01*
X98451Y-52387D01*
X98480Y-52390D01*
X98505Y-52381D01*
X98522Y-52368D01*
X98546Y-52338D01*
X98558Y-52312D01*
X98565Y-52275D01*
X98565Y-52254D01*
X98556Y-52229D01*
X98534Y-52208D01*
X98517Y-52200D01*
X98488Y-52197D01*
X98475Y-52201D01*
X98322Y-52109D02*
X98407Y-52149D01*
X98376Y-52238D01*
X98371Y-52225D01*
X98358Y-52209D01*
X98315Y-52189D01*
X98294Y-52190D01*
X98282Y-52194D01*
X98266Y-52207D01*
X98246Y-52250D01*
X98246Y-52271D01*
X98251Y-52283D01*
X98264Y-52300D01*
X98306Y-52319D01*
X98327Y-52319D01*
X98340Y-52314D01*
G54D20*
X95271Y-53220D02*
X95280Y-53211D01*
X95290Y-53185D01*
X95290Y-53168D01*
X95280Y-53142D01*
X95261Y-53125D01*
X95242Y-53117D01*
X95204Y-53108D01*
X95176Y-53108D01*
X95138Y-53117D01*
X95119Y-53125D01*
X95100Y-53142D01*
X95090Y-53168D01*
X95090Y-53185D01*
X95100Y-53211D01*
X95109Y-53220D01*
X95090Y-53280D02*
X95090Y-53400D01*
X95290Y-53322D01*
X91390Y-51546D02*
X91399Y-51555D01*
X91425Y-51565D01*
X91442Y-51565D01*
X91467Y-51555D01*
X91485Y-51536D01*
X91493Y-51517D01*
X91502Y-51479D01*
X91502Y-51451D01*
X91493Y-51413D01*
X91485Y-51394D01*
X91467Y-51375D01*
X91442Y-51365D01*
X91425Y-51365D01*
X91399Y-51375D01*
X91390Y-51384D01*
X91219Y-51565D02*
X91322Y-51565D01*
X91270Y-51565D02*
X91270Y-51365D01*
X91287Y-51394D01*
X91305Y-51413D01*
X91322Y-51422D01*
X91150Y-51384D02*
X91142Y-51375D01*
X91125Y-51365D01*
X91082Y-51365D01*
X91065Y-51375D01*
X91056Y-51384D01*
X91047Y-51403D01*
X91047Y-51422D01*
X91056Y-51451D01*
X91159Y-51565D01*
X91047Y-51565D01*
X98921Y-61334D02*
X98930Y-61325D01*
X98940Y-61300D01*
X98940Y-61282D01*
X98930Y-61257D01*
X98911Y-61240D01*
X98892Y-61231D01*
X98854Y-61222D01*
X98826Y-61222D01*
X98788Y-61231D01*
X98769Y-61240D01*
X98750Y-61257D01*
X98740Y-61282D01*
X98740Y-61300D01*
X98750Y-61325D01*
X98759Y-61334D01*
X98940Y-61505D02*
X98940Y-61402D01*
X98940Y-61454D02*
X98740Y-61454D01*
X98769Y-61437D01*
X98788Y-61420D01*
X98797Y-61402D01*
X98740Y-61660D02*
X98740Y-61625D01*
X98750Y-61608D01*
X98759Y-61600D01*
X98788Y-61582D01*
X98826Y-61574D01*
X98902Y-61574D01*
X98921Y-61582D01*
X98930Y-61591D01*
X98940Y-61608D01*
X98940Y-61642D01*
X98930Y-61660D01*
X98921Y-61668D01*
X98902Y-61677D01*
X98854Y-61677D01*
X98835Y-61668D01*
X98826Y-61660D01*
X98816Y-61642D01*
X98816Y-61608D01*
X98826Y-61591D01*
X98835Y-61582D01*
X98854Y-61574D01*
G54D17*
X104030Y-58759D02*
X103630Y-58759D01*
X103630Y-58912D01*
X103650Y-58950D01*
X103669Y-58969D01*
X103707Y-58988D01*
X103764Y-58988D01*
X103802Y-58969D01*
X103821Y-58950D01*
X103840Y-58912D01*
X103840Y-58759D01*
X103669Y-59140D02*
X103650Y-59159D01*
X103630Y-59197D01*
X103630Y-59293D01*
X103650Y-59331D01*
X103669Y-59350D01*
X103707Y-59369D01*
X103745Y-59369D01*
X103802Y-59350D01*
X104030Y-59121D01*
X104030Y-59369D01*
G54D21*
X95936Y-62950D02*
X95229Y-63091D01*
X95653Y-62667D02*
X95512Y-63374D01*
X94845Y-62708D02*
X95087Y-62950D01*
X94966Y-62829D02*
X95390Y-62404D01*
X95370Y-62505D01*
X95370Y-62586D01*
X95390Y-62647D01*
G54D14*
X102312Y-56566D02*
X102326Y-56566D01*
X102352Y-56553D01*
X102365Y-56539D01*
X102379Y-56513D01*
X102379Y-56486D01*
X102372Y-56466D01*
X102352Y-56433D01*
X102332Y-56413D01*
X102299Y-56394D01*
X102279Y-56387D01*
X102253Y-56387D01*
X102226Y-56400D01*
X102213Y-56413D01*
X102200Y-56440D01*
X102200Y-56453D01*
X102193Y-56712D02*
X102273Y-56632D01*
X102233Y-56672D02*
X102094Y-56533D01*
X102127Y-56539D01*
X102153Y-56539D01*
X102173Y-56533D01*
G54D17*
X96092Y-65964D02*
X96111Y-65945D01*
X96130Y-65888D01*
X96130Y-65850D01*
X96111Y-65792D01*
X96073Y-65754D01*
X96035Y-65735D01*
X95959Y-65716D01*
X95902Y-65716D01*
X95826Y-65735D01*
X95788Y-65754D01*
X95750Y-65792D01*
X95730Y-65850D01*
X95730Y-65888D01*
X95750Y-65945D01*
X95769Y-65964D01*
X95730Y-66211D02*
X95730Y-66288D01*
X95750Y-66326D01*
X95788Y-66364D01*
X95864Y-66383D01*
X95997Y-66383D01*
X96073Y-66364D01*
X96111Y-66326D01*
X96130Y-66288D01*
X96130Y-66211D01*
X96111Y-66173D01*
X96073Y-66135D01*
X95997Y-66116D01*
X95864Y-66116D01*
X95788Y-66135D01*
X95750Y-66173D01*
X95730Y-66211D01*
X96130Y-66554D02*
X95730Y-66554D01*
X96130Y-66783D01*
X95730Y-66783D01*
X96130Y-67183D02*
X96130Y-66954D01*
X96130Y-67069D02*
X95730Y-67069D01*
X95788Y-67030D01*
X95826Y-66992D01*
X95845Y-66954D01*
G54D18*
X102845Y-63110D02*
X103060Y-63110D01*
X103102Y-63095D01*
X103131Y-63067D01*
X103145Y-63024D01*
X103145Y-62995D01*
X103145Y-63252D02*
X102845Y-63252D01*
X102845Y-63367D01*
X102860Y-63395D01*
X102874Y-63410D01*
X102902Y-63424D01*
X102945Y-63424D01*
X102974Y-63410D01*
X102988Y-63395D01*
X103002Y-63367D01*
X103002Y-63252D01*
X103145Y-63710D02*
X103145Y-63538D01*
X103145Y-63624D02*
X102845Y-63624D01*
X102888Y-63595D01*
X102917Y-63567D01*
X102931Y-63538D01*
G54D20*
X89615Y-64551D02*
X89624Y-64560D01*
X89650Y-64570D01*
X89667Y-64570D01*
X89692Y-64560D01*
X89710Y-64541D01*
X89718Y-64522D01*
X89727Y-64484D01*
X89727Y-64456D01*
X89718Y-64418D01*
X89710Y-64399D01*
X89692Y-64380D01*
X89667Y-64370D01*
X89650Y-64370D01*
X89624Y-64380D01*
X89615Y-64389D01*
X89444Y-64570D02*
X89547Y-64570D01*
X89495Y-64570D02*
X89495Y-64370D01*
X89512Y-64399D01*
X89530Y-64418D01*
X89547Y-64427D01*
X89384Y-64370D02*
X89264Y-64370D01*
X89341Y-64570D01*
G54D15*
X92733Y-54638D02*
X92733Y-54409D01*
X92733Y-54523D02*
X92333Y-54523D01*
X92391Y-54485D01*
X92429Y-54447D01*
X92448Y-54409D01*
X92733Y-54809D02*
X92333Y-54809D01*
X92333Y-54961D01*
X92353Y-55000D01*
X92372Y-55019D01*
X92410Y-55038D01*
X92467Y-55038D01*
X92505Y-55019D01*
X92524Y-55000D01*
X92543Y-54961D01*
X92543Y-54809D01*
X92733Y-55209D02*
X92333Y-55209D01*
X92733Y-55400D02*
X92333Y-55400D01*
X92733Y-55628D01*
X92333Y-55628D01*
X92772Y-55723D02*
X92772Y-56028D01*
X92714Y-56104D02*
X92733Y-56161D01*
X92733Y-56257D01*
X92714Y-56295D01*
X92695Y-56314D01*
X92657Y-56333D01*
X92619Y-56333D01*
X92581Y-56314D01*
X92562Y-56295D01*
X92543Y-56257D01*
X92524Y-56180D01*
X92505Y-56142D01*
X92486Y-56123D01*
X92448Y-56104D01*
X92410Y-56104D01*
X92372Y-56123D01*
X92353Y-56142D01*
X92333Y-56180D01*
X92333Y-56276D01*
X92353Y-56333D01*
X92733Y-56504D02*
X92333Y-56504D01*
X92619Y-56638D01*
X92333Y-56771D01*
X92733Y-56771D01*
X92733Y-56961D02*
X92333Y-56961D01*
X92333Y-57057D01*
X92353Y-57114D01*
X92391Y-57152D01*
X92429Y-57171D01*
X92505Y-57190D01*
X92562Y-57190D01*
X92638Y-57171D01*
X92676Y-57152D01*
X92714Y-57114D01*
X92733Y-57057D01*
X92733Y-56961D01*
G54D22*
X93526Y-53045D02*
X93536Y-53054D01*
X93564Y-53064D01*
X93582Y-53064D01*
X93611Y-53054D01*
X93629Y-53035D01*
X93639Y-53017D01*
X93648Y-52979D01*
X93648Y-52951D01*
X93639Y-52914D01*
X93629Y-52895D01*
X93611Y-52876D01*
X93582Y-52867D01*
X93564Y-52867D01*
X93536Y-52876D01*
X93526Y-52885D01*
X93339Y-53064D02*
X93451Y-53064D01*
X93395Y-53064D02*
X93395Y-52867D01*
X93414Y-52895D01*
X93432Y-52914D01*
X93451Y-52923D01*
X93245Y-53064D02*
X93207Y-53064D01*
X93188Y-53054D01*
X93179Y-53045D01*
X93160Y-53017D01*
X93151Y-52979D01*
X93151Y-52904D01*
X93160Y-52885D01*
X93170Y-52876D01*
X93188Y-52867D01*
X93226Y-52867D01*
X93245Y-52876D01*
X93254Y-52885D01*
X93263Y-52904D01*
X93263Y-52951D01*
X93254Y-52970D01*
X93245Y-52979D01*
X93226Y-52989D01*
X93188Y-52989D01*
X93170Y-52979D01*
X93160Y-52970D01*
X93151Y-52951D01*
G54D20*
X91671Y-49984D02*
X91680Y-49975D01*
X91690Y-49950D01*
X91690Y-49932D01*
X91680Y-49907D01*
X91661Y-49890D01*
X91642Y-49881D01*
X91604Y-49872D01*
X91576Y-49872D01*
X91538Y-49881D01*
X91519Y-49890D01*
X91500Y-49907D01*
X91490Y-49932D01*
X91490Y-49950D01*
X91500Y-49975D01*
X91509Y-49984D01*
X91509Y-50052D02*
X91500Y-50061D01*
X91490Y-50078D01*
X91490Y-50121D01*
X91500Y-50138D01*
X91509Y-50147D01*
X91528Y-50155D01*
X91547Y-50155D01*
X91576Y-50147D01*
X91690Y-50044D01*
X91690Y-50155D01*
X91490Y-50267D02*
X91490Y-50284D01*
X91500Y-50301D01*
X91509Y-50310D01*
X91528Y-50318D01*
X91566Y-50327D01*
X91614Y-50327D01*
X91652Y-50318D01*
X91671Y-50310D01*
X91680Y-50301D01*
X91690Y-50284D01*
X91690Y-50267D01*
X91680Y-50250D01*
X91671Y-50241D01*
X91652Y-50232D01*
X91614Y-50224D01*
X91566Y-50224D01*
X91528Y-50232D01*
X91509Y-50241D01*
X91500Y-50250D01*
X91490Y-50267D01*
G54D17*
X103258Y-51647D02*
X102915Y-51990D01*
X102861Y-52017D01*
X102827Y-52024D01*
X102780Y-52017D01*
X102726Y-51964D01*
X102719Y-51916D01*
X102726Y-51883D01*
X102753Y-51829D01*
X103096Y-51485D01*
X102989Y-51378D02*
X102814Y-51203D01*
X102746Y-51458D01*
X102706Y-51418D01*
X102659Y-51411D01*
X102625Y-51418D01*
X102571Y-51445D01*
X102470Y-51546D01*
X102443Y-51600D01*
X102436Y-51634D01*
X102443Y-51681D01*
X102524Y-51761D01*
X102571Y-51768D01*
X102605Y-51761D01*
M02*
