G04 (created by PCBNEW (2013-mar-13)-testing) date Wed 22 May 2013 10:15:49 PM CEST*
%MOIN*%
G04 Gerber Fmt 3.4, Leading zero omitted, Abs format*
%FSLAX34Y34*%
G01*
G70*
G90*
G04 APERTURE LIST*
%ADD10C,0.005906*%
%ADD11C,0.008000*%
%ADD12C,0.005000*%
%ADD13C,0.004700*%
%ADD14C,0.003900*%
%ADD15C,0.006000*%
%ADD16C,0.004500*%
%ADD17C,0.002400*%
%ADD18C,0.004300*%
G04 APERTURE END LIST*
G54D10*
G54D11*
X94400Y-54450D02*
X93900Y-53975D01*
X93900Y-54450D02*
X95150Y-54450D01*
X95150Y-54450D02*
X95150Y-53200D01*
X95150Y-53200D02*
X93900Y-53200D01*
X93900Y-53200D02*
X93900Y-54450D01*
G54D12*
X92275Y-53675D02*
X92275Y-53415D01*
X93025Y-53675D02*
X93025Y-53415D01*
X92650Y-54225D02*
X92650Y-54485D01*
X93240Y-54225D02*
X92060Y-54225D01*
X92060Y-54225D02*
X92060Y-53675D01*
X92060Y-53675D02*
X93240Y-53675D01*
X93240Y-53675D02*
X93240Y-54225D01*
G54D13*
X101228Y-55594D02*
X100953Y-55594D01*
X101622Y-55594D02*
X101897Y-55594D01*
X101228Y-56106D02*
X100953Y-56106D01*
X101897Y-56106D02*
X101622Y-56106D01*
X100953Y-56100D02*
X100953Y-55600D01*
X101897Y-55600D02*
X101897Y-56100D01*
X105056Y-53123D02*
X105056Y-52848D01*
X105056Y-53517D02*
X105056Y-53792D01*
X104544Y-53123D02*
X104544Y-52848D01*
X104544Y-53792D02*
X104544Y-53517D01*
X104550Y-52848D02*
X105050Y-52848D01*
X105050Y-53792D02*
X104550Y-53792D01*
X101572Y-54656D02*
X101847Y-54656D01*
X101178Y-54656D02*
X100903Y-54656D01*
X101572Y-54144D02*
X101847Y-54144D01*
X100903Y-54144D02*
X101178Y-54144D01*
X101847Y-54150D02*
X101847Y-54650D01*
X100903Y-54650D02*
X100903Y-54150D01*
X99729Y-51608D02*
X99535Y-51802D01*
X100008Y-51329D02*
X100202Y-51135D01*
X100091Y-51970D02*
X99897Y-52164D01*
X100564Y-51497D02*
X100370Y-51691D01*
X99893Y-52160D02*
X99539Y-51806D01*
X100206Y-51139D02*
X100560Y-51493D01*
X98079Y-50158D02*
X97885Y-50352D01*
X98358Y-49879D02*
X98552Y-49685D01*
X98441Y-50520D02*
X98247Y-50714D01*
X98914Y-50047D02*
X98720Y-50241D01*
X98243Y-50710D02*
X97889Y-50356D01*
X98556Y-49689D02*
X98910Y-50043D01*
X97144Y-49997D02*
X97144Y-50272D01*
X97144Y-49603D02*
X97144Y-49328D01*
X97656Y-49997D02*
X97656Y-50272D01*
X97656Y-49328D02*
X97656Y-49603D01*
X97650Y-50272D02*
X97150Y-50272D01*
X97150Y-49328D02*
X97650Y-49328D01*
X96244Y-49997D02*
X96244Y-50272D01*
X96244Y-49603D02*
X96244Y-49328D01*
X96756Y-49997D02*
X96756Y-50272D01*
X96756Y-49328D02*
X96756Y-49603D01*
X96750Y-50272D02*
X96250Y-50272D01*
X96250Y-49328D02*
X96750Y-49328D01*
X94697Y-63156D02*
X94972Y-63156D01*
X94303Y-63156D02*
X94028Y-63156D01*
X94697Y-62644D02*
X94972Y-62644D01*
X94028Y-62644D02*
X94303Y-62644D01*
X94972Y-62650D02*
X94972Y-63150D01*
X94028Y-63150D02*
X94028Y-62650D01*
X95256Y-63553D02*
X95256Y-63278D01*
X95256Y-63947D02*
X95256Y-64222D01*
X94744Y-63553D02*
X94744Y-63278D01*
X94744Y-64222D02*
X94744Y-63947D01*
X94750Y-63278D02*
X95250Y-63278D01*
X95250Y-64222D02*
X94750Y-64222D01*
X100997Y-61906D02*
X101272Y-61906D01*
X100603Y-61906D02*
X100328Y-61906D01*
X100997Y-61394D02*
X101272Y-61394D01*
X100328Y-61394D02*
X100603Y-61394D01*
X101272Y-61400D02*
X101272Y-61900D01*
X100328Y-61900D02*
X100328Y-61400D01*
G54D12*
X100380Y-55650D02*
X100600Y-55650D01*
X99870Y-55905D02*
X99650Y-55905D01*
X99870Y-55395D02*
X99650Y-55395D01*
X100380Y-55215D02*
X100380Y-56085D01*
X100380Y-56085D02*
X99870Y-56085D01*
X99870Y-56085D02*
X99870Y-55215D01*
X99870Y-55215D02*
X100380Y-55215D01*
G54D14*
X102075Y-54850D02*
G75*
G03X102075Y-54850I-50J0D01*
G74*
G01*
X101575Y-54850D02*
X101975Y-54850D01*
X101975Y-54850D02*
X101975Y-55450D01*
X101975Y-55450D02*
X101575Y-55450D01*
X101175Y-55450D02*
X100775Y-55450D01*
X100775Y-55450D02*
X100775Y-54850D01*
X100775Y-54850D02*
X101175Y-54850D01*
X100221Y-50897D02*
G75*
G03X100221Y-50897I-50J0D01*
G74*
G01*
X99853Y-50579D02*
X100136Y-50862D01*
X100136Y-50862D02*
X99712Y-51286D01*
X99712Y-51286D02*
X99429Y-51003D01*
X99146Y-50720D02*
X98863Y-50437D01*
X98863Y-50437D02*
X99287Y-50013D01*
X99287Y-50013D02*
X99570Y-50296D01*
G54D12*
X99750Y-62700D02*
X101750Y-62700D01*
X101750Y-62700D02*
X101750Y-64500D01*
X101750Y-64500D02*
X99750Y-64500D01*
X99750Y-64500D02*
X99750Y-62700D01*
X99750Y-63300D02*
X99950Y-63300D01*
X99950Y-63300D02*
X99950Y-63800D01*
X99950Y-63800D02*
X99750Y-63800D01*
G54D14*
X94950Y-51400D02*
G75*
G03X94950Y-51400I-50J0D01*
G74*
G01*
X95350Y-51400D02*
X94950Y-51400D01*
X94950Y-51400D02*
X94950Y-50800D01*
X94950Y-50800D02*
X95350Y-50800D01*
X95750Y-50800D02*
X96150Y-50800D01*
X96150Y-50800D02*
X96150Y-51400D01*
X96150Y-51400D02*
X95750Y-51400D01*
G54D12*
X95800Y-55200D02*
X95800Y-54300D01*
X95800Y-54300D02*
X96300Y-54300D01*
X96300Y-54300D02*
X96300Y-55200D01*
X96300Y-55200D02*
X95800Y-55200D01*
X99875Y-55100D02*
X99875Y-54200D01*
X99875Y-54200D02*
X100375Y-54200D01*
X100375Y-54200D02*
X100375Y-55100D01*
X100375Y-55100D02*
X99875Y-55100D01*
X93575Y-50975D02*
X94475Y-50975D01*
X94475Y-50975D02*
X94475Y-51475D01*
X94475Y-51475D02*
X93575Y-51475D01*
X93575Y-51475D02*
X93575Y-50975D01*
X103250Y-63230D02*
X103250Y-64130D01*
X103250Y-64130D02*
X102750Y-64130D01*
X102750Y-64130D02*
X102750Y-63230D01*
X102750Y-63230D02*
X103250Y-63230D01*
X95500Y-65050D02*
X95500Y-65950D01*
X95500Y-65950D02*
X95000Y-65950D01*
X95000Y-65950D02*
X95000Y-65050D01*
X95000Y-65050D02*
X95500Y-65050D01*
G54D11*
X91825Y-52475D02*
X91325Y-52000D01*
X91325Y-52475D02*
X92575Y-52475D01*
X92575Y-52475D02*
X92575Y-51225D01*
X92575Y-51225D02*
X91325Y-51225D01*
X91325Y-51225D02*
X91325Y-52475D01*
G54D15*
X89820Y-63860D02*
X90270Y-63860D01*
X89820Y-66040D02*
X90260Y-66040D01*
X89820Y-63860D02*
X89820Y-66040D01*
X90700Y-63390D02*
X90700Y-62960D01*
X92910Y-63380D02*
X92910Y-62960D01*
X92920Y-62960D02*
X90700Y-62950D01*
X92900Y-66930D02*
X90730Y-66940D01*
X93330Y-66240D02*
X93330Y-63410D01*
X90720Y-66930D02*
X90720Y-66520D01*
X93080Y-66480D02*
X90300Y-66480D01*
X90280Y-63400D02*
X90280Y-66440D01*
X93330Y-63400D02*
X90330Y-63400D01*
X93780Y-66070D02*
X93780Y-63850D01*
X93780Y-63850D02*
X93330Y-63850D01*
X93326Y-66250D02*
X93096Y-66480D01*
X93778Y-66070D02*
X93326Y-66070D01*
X92900Y-66480D02*
X92900Y-66932D01*
X93106Y-66076D02*
G75*
G03X93106Y-66076I-188J0D01*
G74*
G01*
G54D12*
X103426Y-55871D02*
X103460Y-55944D01*
X103000Y-56732D02*
X102239Y-55101D01*
X102239Y-55101D02*
X102466Y-54995D01*
X103869Y-55047D02*
X102510Y-55681D01*
X103814Y-54929D02*
X102455Y-55563D01*
X104133Y-56204D02*
X104360Y-56098D01*
X104360Y-56098D02*
X103599Y-54467D01*
X103599Y-54467D02*
X103372Y-54573D01*
X103227Y-56626D02*
X103000Y-56732D01*
X103321Y-55645D02*
X103257Y-55950D01*
X103257Y-55950D02*
X103426Y-55871D01*
X103426Y-55871D02*
X103596Y-55792D01*
X103596Y-55792D02*
X103321Y-55645D01*
X103321Y-55645D02*
X103207Y-55698D01*
X103207Y-55698D02*
X103177Y-55780D01*
X103321Y-55645D02*
X103434Y-55592D01*
X103434Y-55592D02*
X103464Y-55510D01*
X103321Y-55645D02*
X103136Y-55249D01*
G54D13*
X90044Y-54147D02*
X90044Y-54422D01*
X90044Y-53753D02*
X90044Y-53478D01*
X90556Y-54147D02*
X90556Y-54422D01*
X90556Y-53478D02*
X90556Y-53753D01*
X90550Y-54422D02*
X90050Y-54422D01*
X90050Y-53478D02*
X90550Y-53478D01*
X108047Y-56956D02*
X108322Y-56956D01*
X107653Y-56956D02*
X107378Y-56956D01*
X108047Y-56444D02*
X108322Y-56444D01*
X107378Y-56444D02*
X107653Y-56444D01*
X108322Y-56450D02*
X108322Y-56950D01*
X107378Y-56950D02*
X107378Y-56450D01*
X106247Y-55506D02*
X106522Y-55506D01*
X105853Y-55506D02*
X105578Y-55506D01*
X106247Y-54994D02*
X106522Y-54994D01*
X105578Y-54994D02*
X105853Y-54994D01*
X106522Y-55000D02*
X106522Y-55500D01*
X105578Y-55500D02*
X105578Y-55000D01*
X106247Y-54756D02*
X106522Y-54756D01*
X105853Y-54756D02*
X105578Y-54756D01*
X106247Y-54244D02*
X106522Y-54244D01*
X105578Y-54244D02*
X105853Y-54244D01*
X106522Y-54250D02*
X106522Y-54750D01*
X105578Y-54750D02*
X105578Y-54250D01*
G54D12*
X95503Y-52475D02*
X95225Y-52475D01*
X95225Y-52475D02*
X95225Y-53025D01*
X95225Y-53025D02*
X95503Y-53025D01*
X96175Y-52475D02*
X95897Y-52475D01*
X96175Y-52475D02*
X96175Y-53025D01*
X96175Y-53025D02*
X95897Y-53025D01*
X92775Y-49663D02*
X92775Y-49385D01*
X92775Y-49385D02*
X92225Y-49385D01*
X92225Y-49385D02*
X92225Y-49663D01*
X92775Y-50335D02*
X92775Y-50057D01*
X92775Y-50335D02*
X92225Y-50335D01*
X92225Y-50335D02*
X92225Y-50057D01*
X91797Y-50375D02*
X92075Y-50375D01*
X92075Y-50375D02*
X92075Y-49825D01*
X92075Y-49825D02*
X91797Y-49825D01*
X91125Y-50375D02*
X91403Y-50375D01*
X91125Y-50375D02*
X91125Y-49825D01*
X91125Y-49825D02*
X91403Y-49825D01*
X90747Y-52925D02*
X91025Y-52925D01*
X91025Y-52925D02*
X91025Y-52375D01*
X91025Y-52375D02*
X90747Y-52375D01*
X90075Y-52925D02*
X90353Y-52925D01*
X90075Y-52925D02*
X90075Y-52375D01*
X90075Y-52375D02*
X90353Y-52375D01*
X99150Y-54847D02*
X99150Y-55125D01*
X99150Y-55125D02*
X99700Y-55125D01*
X99700Y-55125D02*
X99700Y-54847D01*
X99150Y-54175D02*
X99150Y-54453D01*
X99150Y-54175D02*
X99700Y-54175D01*
X99700Y-54175D02*
X99700Y-54453D01*
G54D14*
X94950Y-52250D02*
G75*
G03X94950Y-52250I-50J0D01*
G74*
G01*
X95350Y-52250D02*
X94950Y-52250D01*
X94950Y-52250D02*
X94950Y-51650D01*
X94950Y-51650D02*
X95350Y-51650D01*
X95750Y-51650D02*
X96150Y-51650D01*
X96150Y-51650D02*
X96150Y-52250D01*
X96150Y-52250D02*
X95750Y-52250D01*
X93425Y-52275D02*
G75*
G03X93425Y-52275I-50J0D01*
G74*
G01*
X93825Y-52275D02*
X93425Y-52275D01*
X93425Y-52275D02*
X93425Y-51675D01*
X93425Y-51675D02*
X93825Y-51675D01*
X94225Y-51675D02*
X94625Y-51675D01*
X94625Y-51675D02*
X94625Y-52275D01*
X94625Y-52275D02*
X94225Y-52275D01*
X90700Y-54550D02*
G75*
G03X90700Y-54550I-50J0D01*
G74*
G01*
X91100Y-54550D02*
X90700Y-54550D01*
X90700Y-54550D02*
X90700Y-53950D01*
X90700Y-53950D02*
X91100Y-53950D01*
X91500Y-53950D02*
X91900Y-53950D01*
X91900Y-53950D02*
X91900Y-54550D01*
X91900Y-54550D02*
X91500Y-54550D01*
X92000Y-53100D02*
G75*
G03X92000Y-53100I-50J0D01*
G74*
G01*
X91500Y-53100D02*
X91900Y-53100D01*
X91900Y-53100D02*
X91900Y-53700D01*
X91900Y-53700D02*
X91500Y-53700D01*
X91100Y-53700D02*
X90700Y-53700D01*
X90700Y-53700D02*
X90700Y-53100D01*
X90700Y-53100D02*
X91100Y-53100D01*
G54D12*
X88260Y-72300D02*
X88180Y-72300D01*
X87660Y-71550D02*
X89460Y-71550D01*
X89460Y-71550D02*
X89460Y-71800D01*
X88820Y-73050D02*
X88820Y-71550D01*
X88950Y-73050D02*
X88950Y-71550D01*
X87660Y-72800D02*
X87660Y-73050D01*
X87660Y-73050D02*
X89460Y-73050D01*
X89460Y-73050D02*
X89460Y-72800D01*
X87660Y-71800D02*
X87660Y-71550D01*
X88510Y-72300D02*
X88260Y-72113D01*
X88260Y-72113D02*
X88260Y-72300D01*
X88260Y-72300D02*
X88260Y-72487D01*
X88260Y-72487D02*
X88510Y-72300D01*
X88510Y-72300D02*
X88510Y-72175D01*
X88510Y-72175D02*
X88448Y-72113D01*
X88510Y-72300D02*
X88510Y-72425D01*
X88510Y-72425D02*
X88572Y-72487D01*
X88510Y-72300D02*
X88947Y-72300D01*
X87860Y-74860D02*
X87780Y-74860D01*
X87260Y-74110D02*
X89060Y-74110D01*
X89060Y-74110D02*
X89060Y-74360D01*
X88420Y-75610D02*
X88420Y-74110D01*
X88550Y-75610D02*
X88550Y-74110D01*
X87260Y-75360D02*
X87260Y-75610D01*
X87260Y-75610D02*
X89060Y-75610D01*
X89060Y-75610D02*
X89060Y-75360D01*
X87260Y-74360D02*
X87260Y-74110D01*
X88110Y-74860D02*
X87860Y-74673D01*
X87860Y-74673D02*
X87860Y-74860D01*
X87860Y-74860D02*
X87860Y-75047D01*
X87860Y-75047D02*
X88110Y-74860D01*
X88110Y-74860D02*
X88110Y-74735D01*
X88110Y-74735D02*
X88048Y-74673D01*
X88110Y-74860D02*
X88110Y-74985D01*
X88110Y-74985D02*
X88172Y-75047D01*
X88110Y-74860D02*
X88547Y-74860D01*
G54D10*
G54D15*
X94224Y-53859D02*
X94224Y-54178D01*
X94243Y-54215D01*
X94262Y-54234D01*
X94299Y-54253D01*
X94374Y-54253D01*
X94412Y-54234D01*
X94431Y-54215D01*
X94449Y-54178D01*
X94449Y-53859D01*
X94843Y-54253D02*
X94618Y-54253D01*
X94731Y-54253D02*
X94731Y-53859D01*
X94693Y-53915D01*
X94656Y-53953D01*
X94618Y-53971D01*
G54D14*
X92499Y-53842D02*
X92499Y-54001D01*
X92509Y-54020D01*
X92518Y-54029D01*
X92537Y-54039D01*
X92574Y-54039D01*
X92593Y-54029D01*
X92603Y-54020D01*
X92612Y-54001D01*
X92612Y-53842D01*
X92696Y-53860D02*
X92706Y-53851D01*
X92725Y-53842D01*
X92771Y-53842D01*
X92790Y-53851D01*
X92800Y-53860D01*
X92809Y-53879D01*
X92809Y-53898D01*
X92800Y-53926D01*
X92687Y-54039D01*
X92809Y-54039D01*
G54D16*
X101496Y-55880D02*
X101505Y-55888D01*
X101515Y-55914D01*
X101515Y-55931D01*
X101505Y-55957D01*
X101486Y-55974D01*
X101467Y-55982D01*
X101429Y-55991D01*
X101401Y-55991D01*
X101363Y-55982D01*
X101344Y-55974D01*
X101325Y-55957D01*
X101315Y-55931D01*
X101315Y-55914D01*
X101325Y-55888D01*
X101334Y-55880D01*
X101334Y-55811D02*
X101325Y-55802D01*
X101315Y-55785D01*
X101315Y-55742D01*
X101325Y-55725D01*
X101334Y-55717D01*
X101353Y-55708D01*
X101372Y-55708D01*
X101401Y-55717D01*
X101515Y-55820D01*
X101515Y-55708D01*
X104770Y-53391D02*
X104761Y-53400D01*
X104735Y-53410D01*
X104718Y-53410D01*
X104692Y-53400D01*
X104675Y-53381D01*
X104667Y-53362D01*
X104658Y-53324D01*
X104658Y-53296D01*
X104667Y-53258D01*
X104675Y-53239D01*
X104692Y-53220D01*
X104718Y-53210D01*
X104735Y-53210D01*
X104761Y-53220D01*
X104770Y-53229D01*
X104830Y-53210D02*
X104941Y-53210D01*
X104881Y-53286D01*
X104907Y-53286D01*
X104924Y-53296D01*
X104932Y-53305D01*
X104941Y-53324D01*
X104941Y-53372D01*
X104932Y-53391D01*
X104924Y-53400D01*
X104907Y-53410D01*
X104855Y-53410D01*
X104838Y-53400D01*
X104830Y-53391D01*
X101446Y-54430D02*
X101455Y-54438D01*
X101465Y-54464D01*
X101465Y-54481D01*
X101455Y-54507D01*
X101436Y-54524D01*
X101417Y-54532D01*
X101379Y-54541D01*
X101351Y-54541D01*
X101313Y-54532D01*
X101294Y-54524D01*
X101275Y-54507D01*
X101265Y-54481D01*
X101265Y-54464D01*
X101275Y-54438D01*
X101284Y-54430D01*
X101332Y-54275D02*
X101465Y-54275D01*
X101255Y-54318D02*
X101398Y-54361D01*
X101398Y-54250D01*
X100079Y-51721D02*
X100079Y-51734D01*
X100068Y-51759D01*
X100056Y-51771D01*
X100031Y-51783D01*
X100005Y-51781D01*
X99986Y-51774D01*
X99953Y-51753D01*
X99933Y-51733D01*
X99912Y-51700D01*
X99904Y-51680D01*
X99903Y-51655D01*
X99914Y-51630D01*
X99927Y-51618D01*
X99952Y-51606D01*
X99964Y-51607D01*
X100060Y-51484D02*
X100036Y-51508D01*
X100030Y-51527D01*
X100031Y-51540D01*
X100039Y-51572D01*
X100060Y-51605D01*
X100114Y-51659D01*
X100133Y-51667D01*
X100146Y-51667D01*
X100165Y-51662D01*
X100189Y-51638D01*
X100195Y-51619D01*
X100194Y-51606D01*
X100187Y-51587D01*
X100153Y-51553D01*
X100133Y-51545D01*
X100121Y-51545D01*
X100102Y-51550D01*
X100077Y-51574D01*
X100072Y-51593D01*
X100073Y-51606D01*
X100080Y-51626D01*
X98328Y-50229D02*
X98315Y-50229D01*
X98290Y-50218D01*
X98278Y-50206D01*
X98266Y-50181D01*
X98268Y-50155D01*
X98275Y-50136D01*
X98296Y-50103D01*
X98316Y-50083D01*
X98349Y-50062D01*
X98369Y-50054D01*
X98394Y-50053D01*
X98419Y-50064D01*
X98431Y-50077D01*
X98443Y-50102D01*
X98442Y-50114D01*
X98468Y-50234D02*
X98462Y-50215D01*
X98463Y-50203D01*
X98471Y-50183D01*
X98477Y-50176D01*
X98497Y-50169D01*
X98510Y-50168D01*
X98528Y-50174D01*
X98553Y-50198D01*
X98558Y-50217D01*
X98557Y-50229D01*
X98550Y-50249D01*
X98543Y-50256D01*
X98524Y-50263D01*
X98511Y-50264D01*
X98492Y-50258D01*
X98468Y-50234D01*
X98449Y-50229D01*
X98436Y-50229D01*
X98417Y-50237D01*
X98390Y-50264D01*
X98382Y-50283D01*
X98382Y-50296D01*
X98387Y-50315D01*
X98411Y-50339D01*
X98430Y-50345D01*
X98443Y-50344D01*
X98462Y-50337D01*
X98489Y-50310D01*
X98497Y-50290D01*
X98497Y-50277D01*
X98492Y-50258D01*
X97370Y-49871D02*
X97361Y-49880D01*
X97335Y-49890D01*
X97318Y-49890D01*
X97292Y-49880D01*
X97275Y-49861D01*
X97267Y-49842D01*
X97258Y-49804D01*
X97258Y-49776D01*
X97267Y-49738D01*
X97275Y-49719D01*
X97292Y-49700D01*
X97318Y-49690D01*
X97335Y-49690D01*
X97361Y-49700D01*
X97370Y-49709D01*
X97455Y-49890D02*
X97490Y-49890D01*
X97507Y-49880D01*
X97515Y-49871D01*
X97532Y-49842D01*
X97541Y-49804D01*
X97541Y-49728D01*
X97532Y-49709D01*
X97524Y-49700D01*
X97507Y-49690D01*
X97472Y-49690D01*
X97455Y-49700D01*
X97447Y-49709D01*
X97438Y-49728D01*
X97438Y-49776D01*
X97447Y-49795D01*
X97455Y-49804D01*
X97472Y-49814D01*
X97507Y-49814D01*
X97524Y-49804D01*
X97532Y-49795D01*
X97541Y-49776D01*
X96384Y-49871D02*
X96375Y-49880D01*
X96350Y-49890D01*
X96332Y-49890D01*
X96307Y-49880D01*
X96290Y-49861D01*
X96281Y-49842D01*
X96272Y-49804D01*
X96272Y-49776D01*
X96281Y-49738D01*
X96290Y-49719D01*
X96307Y-49700D01*
X96332Y-49690D01*
X96350Y-49690D01*
X96375Y-49700D01*
X96384Y-49709D01*
X96555Y-49890D02*
X96452Y-49890D01*
X96504Y-49890D02*
X96504Y-49690D01*
X96487Y-49719D01*
X96470Y-49738D01*
X96452Y-49747D01*
X96667Y-49690D02*
X96684Y-49690D01*
X96701Y-49700D01*
X96710Y-49709D01*
X96718Y-49728D01*
X96727Y-49766D01*
X96727Y-49814D01*
X96718Y-49852D01*
X96710Y-49871D01*
X96701Y-49880D01*
X96684Y-49890D01*
X96667Y-49890D01*
X96650Y-49880D01*
X96641Y-49871D01*
X96632Y-49852D01*
X96624Y-49814D01*
X96624Y-49766D01*
X96632Y-49728D01*
X96641Y-49709D01*
X96650Y-49700D01*
X96667Y-49690D01*
X94571Y-63015D02*
X94580Y-63024D01*
X94590Y-63050D01*
X94590Y-63067D01*
X94580Y-63092D01*
X94561Y-63110D01*
X94542Y-63118D01*
X94504Y-63127D01*
X94476Y-63127D01*
X94438Y-63118D01*
X94419Y-63110D01*
X94400Y-63092D01*
X94390Y-63067D01*
X94390Y-63050D01*
X94400Y-63024D01*
X94409Y-63015D01*
X94590Y-62844D02*
X94590Y-62947D01*
X94590Y-62895D02*
X94390Y-62895D01*
X94419Y-62912D01*
X94438Y-62930D01*
X94447Y-62947D01*
X94390Y-62784D02*
X94390Y-62672D01*
X94466Y-62732D01*
X94466Y-62707D01*
X94476Y-62690D01*
X94485Y-62681D01*
X94504Y-62672D01*
X94552Y-62672D01*
X94571Y-62681D01*
X94580Y-62690D01*
X94590Y-62707D01*
X94590Y-62758D01*
X94580Y-62775D01*
X94571Y-62784D01*
X94884Y-63821D02*
X94875Y-63830D01*
X94850Y-63840D01*
X94832Y-63840D01*
X94807Y-63830D01*
X94790Y-63811D01*
X94781Y-63792D01*
X94772Y-63754D01*
X94772Y-63726D01*
X94781Y-63688D01*
X94790Y-63669D01*
X94807Y-63650D01*
X94832Y-63640D01*
X94850Y-63640D01*
X94875Y-63650D01*
X94884Y-63659D01*
X95055Y-63840D02*
X94952Y-63840D01*
X95004Y-63840D02*
X95004Y-63640D01*
X94987Y-63669D01*
X94970Y-63688D01*
X94952Y-63697D01*
X95210Y-63707D02*
X95210Y-63840D01*
X95167Y-63630D02*
X95124Y-63773D01*
X95235Y-63773D01*
X100871Y-61765D02*
X100880Y-61774D01*
X100890Y-61800D01*
X100890Y-61817D01*
X100880Y-61842D01*
X100861Y-61860D01*
X100842Y-61868D01*
X100804Y-61877D01*
X100776Y-61877D01*
X100738Y-61868D01*
X100719Y-61860D01*
X100700Y-61842D01*
X100690Y-61817D01*
X100690Y-61800D01*
X100700Y-61774D01*
X100709Y-61765D01*
X100890Y-61594D02*
X100890Y-61697D01*
X100890Y-61645D02*
X100690Y-61645D01*
X100719Y-61662D01*
X100738Y-61680D01*
X100747Y-61697D01*
X100690Y-61431D02*
X100690Y-61517D01*
X100785Y-61525D01*
X100776Y-61517D01*
X100766Y-61500D01*
X100766Y-61457D01*
X100776Y-61440D01*
X100785Y-61431D01*
X100804Y-61422D01*
X100852Y-61422D01*
X100871Y-61431D01*
X100880Y-61440D01*
X100890Y-61457D01*
X100890Y-61500D01*
X100880Y-61517D01*
X100871Y-61525D01*
G54D17*
X100308Y-55888D02*
X100190Y-55888D01*
X100190Y-55860D01*
X100196Y-55843D01*
X100207Y-55832D01*
X100218Y-55827D01*
X100240Y-55821D01*
X100257Y-55821D01*
X100280Y-55827D01*
X100291Y-55832D01*
X100302Y-55843D01*
X100308Y-55860D01*
X100308Y-55888D01*
X100297Y-55753D02*
X100302Y-55748D01*
X100308Y-55753D01*
X100302Y-55759D01*
X100297Y-55753D01*
X100308Y-55753D01*
X100196Y-55776D02*
X100190Y-55765D01*
X100190Y-55737D01*
X100196Y-55725D01*
X100207Y-55720D01*
X100218Y-55720D01*
X100229Y-55725D01*
X100235Y-55731D01*
X100240Y-55742D01*
X100246Y-55748D01*
X100257Y-55753D01*
X100263Y-55753D01*
X100297Y-55652D02*
X100302Y-55647D01*
X100308Y-55652D01*
X100302Y-55658D01*
X100297Y-55652D01*
X100308Y-55652D01*
X100196Y-55675D02*
X100190Y-55664D01*
X100190Y-55635D01*
X100196Y-55624D01*
X100207Y-55619D01*
X100218Y-55619D01*
X100229Y-55624D01*
X100235Y-55630D01*
X100240Y-55641D01*
X100246Y-55647D01*
X100257Y-55652D01*
X100263Y-55652D01*
X100297Y-55551D02*
X100302Y-55546D01*
X100308Y-55551D01*
X100302Y-55557D01*
X100297Y-55551D01*
X100308Y-55551D01*
X100196Y-55574D02*
X100190Y-55562D01*
X100190Y-55534D01*
X100196Y-55523D01*
X100207Y-55517D01*
X100218Y-55517D01*
X100229Y-55523D01*
X100235Y-55529D01*
X100240Y-55540D01*
X100246Y-55546D01*
X100257Y-55551D01*
X100263Y-55551D01*
X100308Y-55405D02*
X100308Y-55472D01*
X100308Y-55439D02*
X100190Y-55439D01*
X100207Y-55450D01*
X100218Y-55461D01*
X100224Y-55472D01*
G54D18*
X101342Y-55364D02*
X101248Y-55364D01*
X101248Y-55167D01*
X101511Y-55364D02*
X101398Y-55364D01*
X101454Y-55364D02*
X101454Y-55167D01*
X101435Y-55195D01*
X101417Y-55214D01*
X101398Y-55223D01*
X99325Y-50778D02*
X99259Y-50711D01*
X99398Y-50572D01*
X99491Y-50691D02*
X99504Y-50691D01*
X99524Y-50698D01*
X99557Y-50731D01*
X99564Y-50751D01*
X99564Y-50764D01*
X99557Y-50784D01*
X99544Y-50798D01*
X99517Y-50811D01*
X99358Y-50811D01*
X99444Y-50897D01*
G54D12*
X100359Y-63303D02*
X100359Y-62853D01*
X100778Y-63260D02*
X100759Y-63282D01*
X100702Y-63303D01*
X100664Y-63303D01*
X100607Y-63282D01*
X100569Y-63239D01*
X100550Y-63196D01*
X100530Y-63110D01*
X100530Y-63046D01*
X100550Y-62960D01*
X100569Y-62917D01*
X100607Y-62875D01*
X100664Y-62853D01*
X100702Y-62853D01*
X100759Y-62875D01*
X100778Y-62896D01*
X101159Y-63303D02*
X100930Y-63303D01*
X101045Y-63303D02*
X101045Y-62853D01*
X101007Y-62917D01*
X100969Y-62960D01*
X100930Y-62982D01*
G54D18*
X95423Y-51045D02*
X95413Y-51054D01*
X95385Y-51064D01*
X95367Y-51064D01*
X95338Y-51054D01*
X95320Y-51035D01*
X95310Y-51017D01*
X95301Y-50979D01*
X95301Y-50951D01*
X95310Y-50914D01*
X95320Y-50895D01*
X95338Y-50876D01*
X95367Y-50867D01*
X95385Y-50867D01*
X95413Y-50876D01*
X95423Y-50885D01*
X95610Y-51064D02*
X95498Y-51064D01*
X95554Y-51064D02*
X95554Y-50867D01*
X95535Y-50895D01*
X95517Y-50914D01*
X95498Y-50923D01*
X95798Y-51064D02*
X95686Y-51064D01*
X95742Y-51064D02*
X95742Y-50867D01*
X95723Y-50895D01*
X95704Y-50914D01*
X95686Y-50923D01*
G54D16*
X96140Y-54780D02*
X96045Y-54840D01*
X96140Y-54882D02*
X95940Y-54882D01*
X95940Y-54814D01*
X95950Y-54797D01*
X95959Y-54788D01*
X95978Y-54780D01*
X96007Y-54780D01*
X96026Y-54788D01*
X96035Y-54797D01*
X96045Y-54814D01*
X96045Y-54882D01*
X96140Y-54608D02*
X96140Y-54711D01*
X96140Y-54660D02*
X95940Y-54660D01*
X95969Y-54677D01*
X95988Y-54694D01*
X95997Y-54711D01*
X100215Y-54680D02*
X100120Y-54740D01*
X100215Y-54782D02*
X100015Y-54782D01*
X100015Y-54714D01*
X100025Y-54697D01*
X100034Y-54688D01*
X100053Y-54680D01*
X100082Y-54680D01*
X100101Y-54688D01*
X100110Y-54697D01*
X100120Y-54714D01*
X100120Y-54782D01*
X100015Y-54517D02*
X100015Y-54602D01*
X100110Y-54611D01*
X100101Y-54602D01*
X100091Y-54585D01*
X100091Y-54542D01*
X100101Y-54525D01*
X100110Y-54517D01*
X100129Y-54508D01*
X100177Y-54508D01*
X100196Y-54517D01*
X100205Y-54525D01*
X100215Y-54542D01*
X100215Y-54585D01*
X100205Y-54602D01*
X100196Y-54611D01*
X93995Y-51315D02*
X93935Y-51220D01*
X93892Y-51315D02*
X93892Y-51115D01*
X93960Y-51115D01*
X93977Y-51125D01*
X93986Y-51134D01*
X93995Y-51153D01*
X93995Y-51182D01*
X93986Y-51201D01*
X93977Y-51210D01*
X93960Y-51220D01*
X93892Y-51220D01*
X94055Y-51115D02*
X94175Y-51115D01*
X94097Y-51315D01*
X103090Y-63710D02*
X102995Y-63770D01*
X103090Y-63812D02*
X102890Y-63812D01*
X102890Y-63744D01*
X102900Y-63727D01*
X102909Y-63718D01*
X102928Y-63710D01*
X102957Y-63710D01*
X102976Y-63718D01*
X102985Y-63727D01*
X102995Y-63744D01*
X102995Y-63812D01*
X102976Y-63607D02*
X102966Y-63624D01*
X102957Y-63632D01*
X102938Y-63641D01*
X102928Y-63641D01*
X102909Y-63632D01*
X102900Y-63624D01*
X102890Y-63607D01*
X102890Y-63572D01*
X102900Y-63555D01*
X102909Y-63547D01*
X102928Y-63538D01*
X102938Y-63538D01*
X102957Y-63547D01*
X102966Y-63555D01*
X102976Y-63572D01*
X102976Y-63607D01*
X102985Y-63624D01*
X102995Y-63632D01*
X103014Y-63641D01*
X103052Y-63641D01*
X103071Y-63632D01*
X103080Y-63624D01*
X103090Y-63607D01*
X103090Y-63572D01*
X103080Y-63555D01*
X103071Y-63547D01*
X103052Y-63538D01*
X103014Y-63538D01*
X102995Y-63547D01*
X102985Y-63555D01*
X102976Y-63572D01*
X95340Y-65530D02*
X95245Y-65590D01*
X95340Y-65632D02*
X95140Y-65632D01*
X95140Y-65564D01*
X95150Y-65547D01*
X95159Y-65538D01*
X95178Y-65530D01*
X95207Y-65530D01*
X95226Y-65538D01*
X95235Y-65547D01*
X95245Y-65564D01*
X95245Y-65632D01*
X95340Y-65444D02*
X95340Y-65410D01*
X95330Y-65392D01*
X95321Y-65384D01*
X95292Y-65367D01*
X95254Y-65358D01*
X95178Y-65358D01*
X95159Y-65367D01*
X95150Y-65375D01*
X95140Y-65392D01*
X95140Y-65427D01*
X95150Y-65444D01*
X95159Y-65452D01*
X95178Y-65461D01*
X95226Y-65461D01*
X95245Y-65452D01*
X95254Y-65444D01*
X95264Y-65427D01*
X95264Y-65392D01*
X95254Y-65375D01*
X95245Y-65367D01*
X95226Y-65358D01*
G54D15*
X91649Y-51884D02*
X91649Y-52203D01*
X91668Y-52240D01*
X91687Y-52259D01*
X91724Y-52278D01*
X91799Y-52278D01*
X91837Y-52259D01*
X91856Y-52240D01*
X91874Y-52203D01*
X91874Y-51884D01*
X92231Y-52015D02*
X92231Y-52278D01*
X92137Y-51865D02*
X92043Y-52146D01*
X92287Y-52146D01*
G54D11*
X91409Y-65676D02*
X91409Y-65176D01*
X91828Y-65628D02*
X91809Y-65652D01*
X91752Y-65676D01*
X91714Y-65676D01*
X91657Y-65652D01*
X91619Y-65604D01*
X91600Y-65557D01*
X91580Y-65461D01*
X91580Y-65390D01*
X91600Y-65295D01*
X91619Y-65247D01*
X91657Y-65200D01*
X91714Y-65176D01*
X91752Y-65176D01*
X91809Y-65200D01*
X91828Y-65223D01*
X91980Y-65223D02*
X92000Y-65200D01*
X92038Y-65176D01*
X92133Y-65176D01*
X92171Y-65200D01*
X92190Y-65223D01*
X92209Y-65271D01*
X92209Y-65319D01*
X92190Y-65390D01*
X91961Y-65676D01*
X92209Y-65676D01*
G54D13*
X102087Y-55844D02*
X102444Y-55678D01*
X102484Y-55763D01*
X102491Y-55821D01*
X102472Y-55871D01*
X102446Y-55904D01*
X102386Y-55953D01*
X102335Y-55977D01*
X102259Y-55991D01*
X102217Y-55990D01*
X102167Y-55972D01*
X102127Y-55929D01*
X102087Y-55844D01*
X102341Y-56388D02*
X102246Y-56184D01*
X102293Y-56286D02*
X102650Y-56120D01*
X102583Y-56109D01*
X102534Y-56091D01*
X102501Y-56065D01*
G54D10*
G54D16*
X90184Y-54021D02*
X90175Y-54030D01*
X90150Y-54040D01*
X90132Y-54040D01*
X90107Y-54030D01*
X90090Y-54011D01*
X90081Y-53992D01*
X90072Y-53954D01*
X90072Y-53926D01*
X90081Y-53888D01*
X90090Y-53869D01*
X90107Y-53850D01*
X90132Y-53840D01*
X90150Y-53840D01*
X90175Y-53850D01*
X90184Y-53859D01*
X90355Y-54040D02*
X90252Y-54040D01*
X90304Y-54040D02*
X90304Y-53840D01*
X90287Y-53869D01*
X90270Y-53888D01*
X90252Y-53897D01*
X90458Y-53926D02*
X90441Y-53916D01*
X90432Y-53907D01*
X90424Y-53888D01*
X90424Y-53878D01*
X90432Y-53859D01*
X90441Y-53850D01*
X90458Y-53840D01*
X90492Y-53840D01*
X90510Y-53850D01*
X90518Y-53859D01*
X90527Y-53878D01*
X90527Y-53888D01*
X90518Y-53907D01*
X90510Y-53916D01*
X90492Y-53926D01*
X90458Y-53926D01*
X90441Y-53935D01*
X90432Y-53945D01*
X90424Y-53964D01*
X90424Y-54002D01*
X90432Y-54021D01*
X90441Y-54030D01*
X90458Y-54040D01*
X90492Y-54040D01*
X90510Y-54030D01*
X90518Y-54021D01*
X90527Y-54002D01*
X90527Y-53964D01*
X90518Y-53945D01*
X90510Y-53935D01*
X90492Y-53926D01*
X107921Y-56815D02*
X107930Y-56824D01*
X107940Y-56850D01*
X107940Y-56867D01*
X107930Y-56892D01*
X107911Y-56910D01*
X107892Y-56918D01*
X107854Y-56927D01*
X107826Y-56927D01*
X107788Y-56918D01*
X107769Y-56910D01*
X107750Y-56892D01*
X107740Y-56867D01*
X107740Y-56850D01*
X107750Y-56824D01*
X107759Y-56815D01*
X107759Y-56747D02*
X107750Y-56738D01*
X107740Y-56721D01*
X107740Y-56678D01*
X107750Y-56661D01*
X107759Y-56652D01*
X107778Y-56644D01*
X107797Y-56644D01*
X107826Y-56652D01*
X107940Y-56755D01*
X107940Y-56644D01*
X107940Y-56472D02*
X107940Y-56575D01*
X107940Y-56524D02*
X107740Y-56524D01*
X107769Y-56541D01*
X107788Y-56558D01*
X107797Y-56575D01*
X106121Y-55365D02*
X106130Y-55374D01*
X106140Y-55400D01*
X106140Y-55417D01*
X106130Y-55442D01*
X106111Y-55460D01*
X106092Y-55468D01*
X106054Y-55477D01*
X106026Y-55477D01*
X105988Y-55468D01*
X105969Y-55460D01*
X105950Y-55442D01*
X105940Y-55417D01*
X105940Y-55400D01*
X105950Y-55374D01*
X105959Y-55365D01*
X105959Y-55297D02*
X105950Y-55288D01*
X105940Y-55271D01*
X105940Y-55228D01*
X105950Y-55211D01*
X105959Y-55202D01*
X105978Y-55194D01*
X105997Y-55194D01*
X106026Y-55202D01*
X106140Y-55305D01*
X106140Y-55194D01*
X105959Y-55125D02*
X105950Y-55117D01*
X105940Y-55100D01*
X105940Y-55057D01*
X105950Y-55040D01*
X105959Y-55031D01*
X105978Y-55022D01*
X105997Y-55022D01*
X106026Y-55031D01*
X106140Y-55134D01*
X106140Y-55022D01*
X106121Y-54615D02*
X106130Y-54624D01*
X106140Y-54650D01*
X106140Y-54667D01*
X106130Y-54692D01*
X106111Y-54710D01*
X106092Y-54718D01*
X106054Y-54727D01*
X106026Y-54727D01*
X105988Y-54718D01*
X105969Y-54710D01*
X105950Y-54692D01*
X105940Y-54667D01*
X105940Y-54650D01*
X105950Y-54624D01*
X105959Y-54615D01*
X105959Y-54547D02*
X105950Y-54538D01*
X105940Y-54521D01*
X105940Y-54478D01*
X105950Y-54461D01*
X105959Y-54452D01*
X105978Y-54444D01*
X105997Y-54444D01*
X106026Y-54452D01*
X106140Y-54555D01*
X106140Y-54444D01*
X105940Y-54384D02*
X105940Y-54272D01*
X106016Y-54332D01*
X106016Y-54307D01*
X106026Y-54290D01*
X106035Y-54281D01*
X106054Y-54272D01*
X106102Y-54272D01*
X106121Y-54281D01*
X106130Y-54290D01*
X106140Y-54307D01*
X106140Y-54358D01*
X106130Y-54375D01*
X106121Y-54384D01*
X95814Y-52840D02*
X95720Y-52900D01*
X95814Y-52943D02*
X95617Y-52943D01*
X95617Y-52875D01*
X95626Y-52857D01*
X95635Y-52849D01*
X95654Y-52840D01*
X95682Y-52840D01*
X95701Y-52849D01*
X95710Y-52857D01*
X95720Y-52875D01*
X95720Y-52943D01*
X95814Y-52669D02*
X95814Y-52772D01*
X95814Y-52720D02*
X95617Y-52720D01*
X95645Y-52737D01*
X95664Y-52755D01*
X95673Y-52772D01*
X95814Y-52497D02*
X95814Y-52600D01*
X95814Y-52549D02*
X95617Y-52549D01*
X95645Y-52566D01*
X95664Y-52583D01*
X95673Y-52600D01*
X92409Y-49974D02*
X92349Y-49880D01*
X92306Y-49974D02*
X92306Y-49777D01*
X92375Y-49777D01*
X92392Y-49786D01*
X92400Y-49795D01*
X92409Y-49814D01*
X92409Y-49842D01*
X92400Y-49861D01*
X92392Y-49870D01*
X92375Y-49880D01*
X92306Y-49880D01*
X92580Y-49974D02*
X92477Y-49974D01*
X92529Y-49974D02*
X92529Y-49777D01*
X92512Y-49805D01*
X92495Y-49824D01*
X92477Y-49833D01*
X92649Y-49795D02*
X92657Y-49786D01*
X92675Y-49777D01*
X92717Y-49777D01*
X92735Y-49786D01*
X92743Y-49795D01*
X92752Y-49814D01*
X92752Y-49833D01*
X92743Y-49861D01*
X92640Y-49974D01*
X92752Y-49974D01*
X91664Y-50240D02*
X91570Y-50300D01*
X91664Y-50343D02*
X91467Y-50343D01*
X91467Y-50275D01*
X91476Y-50257D01*
X91485Y-50249D01*
X91504Y-50240D01*
X91532Y-50240D01*
X91551Y-50249D01*
X91560Y-50257D01*
X91570Y-50275D01*
X91570Y-50343D01*
X91664Y-50069D02*
X91664Y-50172D01*
X91664Y-50120D02*
X91467Y-50120D01*
X91495Y-50137D01*
X91514Y-50155D01*
X91523Y-50172D01*
X91467Y-50009D02*
X91467Y-49897D01*
X91542Y-49957D01*
X91542Y-49932D01*
X91551Y-49915D01*
X91560Y-49906D01*
X91579Y-49897D01*
X91626Y-49897D01*
X91645Y-49906D01*
X91654Y-49915D01*
X91664Y-49932D01*
X91664Y-49983D01*
X91654Y-50000D01*
X91645Y-50009D01*
X90614Y-52790D02*
X90520Y-52850D01*
X90614Y-52893D02*
X90417Y-52893D01*
X90417Y-52825D01*
X90426Y-52807D01*
X90435Y-52799D01*
X90454Y-52790D01*
X90482Y-52790D01*
X90501Y-52799D01*
X90510Y-52807D01*
X90520Y-52825D01*
X90520Y-52893D01*
X90614Y-52619D02*
X90614Y-52722D01*
X90614Y-52670D02*
X90417Y-52670D01*
X90445Y-52687D01*
X90464Y-52705D01*
X90473Y-52722D01*
X90482Y-52465D02*
X90614Y-52465D01*
X90407Y-52507D02*
X90548Y-52550D01*
X90548Y-52439D01*
X99284Y-54714D02*
X99224Y-54620D01*
X99181Y-54714D02*
X99181Y-54517D01*
X99250Y-54517D01*
X99267Y-54526D01*
X99275Y-54535D01*
X99284Y-54554D01*
X99284Y-54582D01*
X99275Y-54601D01*
X99267Y-54610D01*
X99250Y-54620D01*
X99181Y-54620D01*
X99455Y-54714D02*
X99352Y-54714D01*
X99404Y-54714D02*
X99404Y-54517D01*
X99387Y-54545D01*
X99370Y-54564D01*
X99352Y-54573D01*
X99618Y-54517D02*
X99532Y-54517D01*
X99524Y-54610D01*
X99532Y-54601D01*
X99550Y-54592D01*
X99592Y-54592D01*
X99610Y-54601D01*
X99618Y-54610D01*
X99627Y-54629D01*
X99627Y-54676D01*
X99618Y-54695D01*
X99610Y-54704D01*
X99592Y-54714D01*
X99550Y-54714D01*
X99532Y-54704D01*
X99524Y-54695D01*
G54D18*
X95517Y-51914D02*
X95451Y-51820D01*
X95404Y-51914D02*
X95404Y-51717D01*
X95479Y-51717D01*
X95498Y-51726D01*
X95507Y-51735D01*
X95517Y-51754D01*
X95517Y-51782D01*
X95507Y-51801D01*
X95498Y-51810D01*
X95479Y-51820D01*
X95404Y-51820D01*
X95592Y-51735D02*
X95601Y-51726D01*
X95620Y-51717D01*
X95667Y-51717D01*
X95686Y-51726D01*
X95695Y-51735D01*
X95704Y-51754D01*
X95704Y-51773D01*
X95695Y-51801D01*
X95582Y-51914D01*
X95704Y-51914D01*
X93992Y-51939D02*
X93926Y-51845D01*
X93879Y-51939D02*
X93879Y-51742D01*
X93954Y-51742D01*
X93973Y-51751D01*
X93982Y-51760D01*
X93992Y-51779D01*
X93992Y-51807D01*
X93982Y-51826D01*
X93973Y-51835D01*
X93954Y-51845D01*
X93879Y-51845D01*
X94057Y-51742D02*
X94179Y-51742D01*
X94114Y-51817D01*
X94142Y-51817D01*
X94161Y-51826D01*
X94170Y-51835D01*
X94179Y-51854D01*
X94179Y-51901D01*
X94170Y-51920D01*
X94161Y-51929D01*
X94142Y-51939D01*
X94085Y-51939D01*
X94067Y-51929D01*
X94057Y-51920D01*
X91267Y-54214D02*
X91201Y-54120D01*
X91154Y-54214D02*
X91154Y-54017D01*
X91229Y-54017D01*
X91248Y-54026D01*
X91257Y-54035D01*
X91267Y-54054D01*
X91267Y-54082D01*
X91257Y-54101D01*
X91248Y-54110D01*
X91229Y-54120D01*
X91154Y-54120D01*
X91436Y-54082D02*
X91436Y-54214D01*
X91389Y-54007D02*
X91342Y-54148D01*
X91464Y-54148D01*
X91267Y-53614D02*
X91201Y-53520D01*
X91154Y-53614D02*
X91154Y-53417D01*
X91229Y-53417D01*
X91248Y-53426D01*
X91257Y-53435D01*
X91267Y-53454D01*
X91267Y-53482D01*
X91257Y-53501D01*
X91248Y-53510D01*
X91229Y-53520D01*
X91154Y-53520D01*
X91436Y-53417D02*
X91398Y-53417D01*
X91379Y-53426D01*
X91370Y-53435D01*
X91351Y-53464D01*
X91342Y-53501D01*
X91342Y-53576D01*
X91351Y-53595D01*
X91360Y-53604D01*
X91379Y-53614D01*
X91417Y-53614D01*
X91436Y-53604D01*
X91445Y-53595D01*
X91454Y-53576D01*
X91454Y-53529D01*
X91445Y-53510D01*
X91436Y-53501D01*
X91417Y-53492D01*
X91379Y-53492D01*
X91360Y-53501D01*
X91351Y-53510D01*
X91342Y-53529D01*
G54D13*
X88269Y-71454D02*
X88269Y-71060D01*
X88363Y-71060D01*
X88419Y-71079D01*
X88456Y-71116D01*
X88475Y-71154D01*
X88494Y-71229D01*
X88494Y-71285D01*
X88475Y-71360D01*
X88456Y-71397D01*
X88419Y-71435D01*
X88363Y-71454D01*
X88269Y-71454D01*
X88644Y-71097D02*
X88663Y-71079D01*
X88700Y-71060D01*
X88794Y-71060D01*
X88832Y-71079D01*
X88850Y-71097D01*
X88869Y-71135D01*
X88869Y-71172D01*
X88850Y-71229D01*
X88625Y-71454D01*
X88869Y-71454D01*
X87869Y-74014D02*
X87869Y-73620D01*
X87963Y-73620D01*
X88019Y-73639D01*
X88056Y-73676D01*
X88075Y-73714D01*
X88094Y-73789D01*
X88094Y-73845D01*
X88075Y-73920D01*
X88056Y-73957D01*
X88019Y-73995D01*
X87963Y-74014D01*
X87869Y-74014D01*
X88225Y-73620D02*
X88469Y-73620D01*
X88338Y-73770D01*
X88394Y-73770D01*
X88432Y-73789D01*
X88450Y-73807D01*
X88469Y-73845D01*
X88469Y-73939D01*
X88450Y-73976D01*
X88432Y-73995D01*
X88394Y-74014D01*
X88281Y-74014D01*
X88244Y-73995D01*
X88225Y-73976D01*
M02*
