G04 (created by PCBNEW (2013-mar-13)-testing) date Wed 22 May 2013 10:15:49 PM CEST*
%MOIN*%
G04 Gerber Fmt 3.4, Leading zero omitted, Abs format*
%FSLAX34Y34*%
G01*
G70*
G90*
G04 APERTURE LIST*
%ADD10C,0.005906*%
%ADD11R,0.196850X0.160000*%
%ADD12C,0.078740*%
%ADD13C,0.122047*%
%ADD14R,0.025000X0.045000*%
%ADD15R,0.045000X0.025000*%
%ADD16R,0.060000X0.060000*%
%ADD17C,0.060000*%
%ADD18C,0.056000*%
%ADD19R,0.035000X0.055000*%
%ADD20C,0.070000*%
%ADD21C,0.030000*%
%ADD22C,0.035000*%
%ADD23C,0.020000*%
%ADD24C,0.010000*%
%ADD25C,0.050000*%
%ADD26C,0.008000*%
G04 APERTURE END LIST*
G54D10*
G54D11*
X97605Y-55800D03*
G54D12*
X97650Y-55800D03*
G54D13*
X85236Y-59050D03*
G54D10*
G36*
X99249Y-52071D02*
X99981Y-50502D01*
X100891Y-50926D01*
X100159Y-52496D01*
X99249Y-52071D01*
X99249Y-52071D01*
G37*
G36*
X97108Y-51073D02*
X97840Y-49503D01*
X98750Y-49928D01*
X98018Y-51497D01*
X97108Y-51073D01*
X97108Y-51073D01*
G37*
G54D14*
X94900Y-53250D03*
X95500Y-53250D03*
G54D15*
X91275Y-51175D03*
X91275Y-51775D03*
G54D14*
X98550Y-61450D03*
X99150Y-61450D03*
G54D16*
X102850Y-60555D03*
G54D17*
X102850Y-59555D03*
X102850Y-58555D03*
X102850Y-57555D03*
G54D18*
X95007Y-64607D03*
X93592Y-63192D03*
G54D10*
G36*
X102342Y-55682D02*
X101117Y-54457D01*
X101827Y-53747D01*
X103052Y-54972D01*
X102342Y-55682D01*
X102342Y-55682D01*
G37*
G36*
X100672Y-57352D02*
X99447Y-56127D01*
X100157Y-55417D01*
X101382Y-56642D01*
X100672Y-57352D01*
X100672Y-57352D01*
G37*
G54D16*
X97950Y-65450D03*
G54D17*
X96950Y-65450D03*
X97950Y-66450D03*
X96950Y-66450D03*
X97950Y-67450D03*
X96950Y-67450D03*
G54D16*
X102260Y-63860D03*
G54D17*
X102260Y-62860D03*
G54D15*
X89500Y-64180D03*
X89500Y-64780D03*
G54D11*
X91319Y-55800D03*
G54D13*
X94256Y-68015D03*
X101386Y-58605D03*
G54D19*
X93025Y-52850D03*
X93775Y-52850D03*
G54D14*
X91300Y-50100D03*
X91900Y-50100D03*
G54D20*
X102457Y-53432D03*
G54D10*
G36*
X101750Y-53219D02*
X101255Y-52725D01*
X101750Y-52230D01*
X102244Y-52725D01*
X101750Y-53219D01*
X101750Y-53219D01*
G37*
G54D20*
X101042Y-52017D03*
G54D21*
X91880Y-49520D03*
X90840Y-50100D03*
G54D22*
X88150Y-54300D03*
X88160Y-52920D03*
X93425Y-62575D03*
X88320Y-63100D03*
X90660Y-64580D03*
G54D21*
X96300Y-66480D03*
G54D22*
X91220Y-65200D03*
X95850Y-65850D03*
X92050Y-65800D03*
G54D21*
X89920Y-63480D03*
G54D22*
X94300Y-50550D03*
X90880Y-50560D03*
G54D21*
X93180Y-49360D03*
X99180Y-62240D03*
X96320Y-67640D03*
X96300Y-67280D03*
G54D22*
X92220Y-54640D03*
X89625Y-54150D03*
X89625Y-54675D03*
X90300Y-54650D03*
X92675Y-55150D03*
X93475Y-55050D03*
X93550Y-54425D03*
X95450Y-54450D03*
X94825Y-55550D03*
X95500Y-55550D03*
X96100Y-55600D03*
X95720Y-48880D03*
X95700Y-50100D03*
X96200Y-63050D03*
X96200Y-63650D03*
X95700Y-64000D03*
X95700Y-63400D03*
X95400Y-62900D03*
X92450Y-53050D03*
X94440Y-64500D03*
X96500Y-51700D03*
X91900Y-51700D03*
X87220Y-64220D03*
X90875Y-51175D03*
X93025Y-52350D03*
X94850Y-53750D03*
X93050Y-51150D03*
X89000Y-64200D03*
G54D21*
X97780Y-57220D03*
G54D22*
X98200Y-61450D03*
G54D23*
X92500Y-49560D02*
X91920Y-49560D01*
X91920Y-49560D02*
X91880Y-49520D01*
G54D24*
X91300Y-50100D02*
X90840Y-50100D01*
X88150Y-54300D02*
X88160Y-52920D01*
X93425Y-62575D02*
X92900Y-63100D01*
X88320Y-63100D02*
X92900Y-63100D01*
X97950Y-65450D02*
X97950Y-65350D01*
X91740Y-65220D02*
X91360Y-64840D01*
X96340Y-65220D02*
X91740Y-65220D01*
X96620Y-64940D02*
X96340Y-65220D01*
X97540Y-64940D02*
X96620Y-64940D01*
X97950Y-65350D02*
X97540Y-64940D01*
X90920Y-64840D02*
X91360Y-64840D01*
X90660Y-64580D02*
X90920Y-64840D01*
X91220Y-65200D02*
X91460Y-65440D01*
X91460Y-65440D02*
X96020Y-65440D01*
X96380Y-65800D02*
X96020Y-65440D01*
X96300Y-66480D02*
X96380Y-66400D01*
X96380Y-66400D02*
X96380Y-65800D01*
G54D23*
X95800Y-65800D02*
X95850Y-65850D01*
X92050Y-65800D02*
X95800Y-65800D01*
G54D24*
X97460Y-66940D02*
X97950Y-66450D01*
X96260Y-66940D02*
X97460Y-66940D01*
X95500Y-66180D02*
X96260Y-66940D01*
X91720Y-66180D02*
X95500Y-66180D01*
X89920Y-64380D02*
X91720Y-66180D01*
X89920Y-63480D02*
X89920Y-64380D01*
X90880Y-50560D02*
X94290Y-50560D01*
X94290Y-50560D02*
X94300Y-50550D01*
G54D23*
X99150Y-61450D02*
X99150Y-62210D01*
X99150Y-62210D02*
X99180Y-62240D01*
G54D24*
X96280Y-67440D02*
X96320Y-67640D01*
X96300Y-67280D02*
X96280Y-67440D01*
X90275Y-54675D02*
X89625Y-54675D01*
X90300Y-54650D02*
X90275Y-54675D01*
X93475Y-54500D02*
X93475Y-55050D01*
X93550Y-54425D02*
X93475Y-54500D01*
X95450Y-54450D02*
X95450Y-54950D01*
X95500Y-55550D02*
X94825Y-55550D01*
X95450Y-54950D02*
X96100Y-55600D01*
G54D23*
X95720Y-48880D02*
X95700Y-50100D01*
X96050Y-63650D02*
X96200Y-63650D01*
X95700Y-64000D02*
X96050Y-63650D01*
X95700Y-63200D02*
X95700Y-63400D01*
X95400Y-62900D02*
X95700Y-63200D01*
G54D24*
X91900Y-51700D02*
X96500Y-51700D01*
X89020Y-64180D02*
X89500Y-64180D01*
X89000Y-64200D02*
X89020Y-64180D01*
X89020Y-64180D02*
X88980Y-64220D01*
X88980Y-64220D02*
X87220Y-64220D01*
X93050Y-52325D02*
X93025Y-52350D01*
X93025Y-52850D02*
X93025Y-52350D01*
X93025Y-52350D02*
X93050Y-52325D01*
X90850Y-51200D02*
X90875Y-51175D01*
X94900Y-53250D02*
X94850Y-53300D01*
X94850Y-53300D02*
X94850Y-53750D01*
G54D23*
X90875Y-51175D02*
X93025Y-51175D01*
X93025Y-51175D02*
X93050Y-51150D01*
X90850Y-51200D02*
X90875Y-51175D01*
G54D25*
X102085Y-54714D02*
X102457Y-54342D01*
X102457Y-54342D02*
X102457Y-53457D01*
X98200Y-57640D02*
X98200Y-57860D01*
X97780Y-57220D02*
X98200Y-57640D01*
X98200Y-57850D02*
X98200Y-61450D01*
X101042Y-52042D02*
X100614Y-52042D01*
X100614Y-52042D02*
X100070Y-51499D01*
G54D23*
X98550Y-61450D02*
X98200Y-61450D01*
G54D10*
G36*
X105167Y-59050D02*
X105162Y-59347D01*
X104902Y-61413D01*
X104244Y-63388D01*
X103290Y-65069D01*
X103290Y-59511D01*
X103290Y-58511D01*
X103290Y-57511D01*
X103273Y-57427D01*
X103240Y-57347D01*
X103192Y-57275D01*
X103192Y-57275D01*
X103192Y-54986D01*
X103192Y-54958D01*
X103187Y-54931D01*
X103176Y-54905D01*
X103161Y-54883D01*
X103141Y-54863D01*
X102801Y-54522D01*
X102815Y-54496D01*
X102816Y-54494D01*
X102817Y-54492D01*
X102827Y-54458D01*
X102838Y-54423D01*
X102838Y-54421D01*
X102839Y-54419D01*
X102843Y-54384D01*
X102847Y-54348D01*
X102847Y-54344D01*
X102847Y-54344D01*
X102847Y-54344D01*
X102847Y-54342D01*
X102847Y-53729D01*
X102885Y-53675D01*
X102924Y-53587D01*
X102945Y-53493D01*
X102947Y-53384D01*
X102928Y-53289D01*
X102891Y-53200D01*
X102838Y-53120D01*
X102770Y-53052D01*
X102691Y-52998D01*
X102602Y-52961D01*
X102508Y-52942D01*
X102412Y-52941D01*
X102384Y-52947D01*
X102384Y-52738D01*
X102384Y-52711D01*
X102379Y-52684D01*
X102369Y-52658D01*
X102353Y-52635D01*
X102334Y-52616D01*
X102163Y-52445D01*
X102114Y-52445D01*
X102029Y-52530D01*
X102029Y-52360D01*
X102029Y-52311D01*
X101858Y-52140D01*
X101839Y-52121D01*
X101816Y-52105D01*
X101790Y-52095D01*
X101763Y-52090D01*
X101736Y-52090D01*
X101709Y-52095D01*
X101683Y-52105D01*
X101660Y-52121D01*
X101532Y-52249D01*
X101532Y-51969D01*
X101514Y-51875D01*
X101477Y-51786D01*
X101424Y-51706D01*
X101356Y-51638D01*
X101277Y-51584D01*
X101188Y-51547D01*
X101094Y-51528D01*
X100998Y-51527D01*
X100903Y-51545D01*
X100814Y-51581D01*
X100748Y-51625D01*
X100728Y-51606D01*
X101024Y-50973D01*
X101030Y-50946D01*
X101031Y-50918D01*
X101027Y-50891D01*
X101018Y-50865D01*
X101003Y-50841D01*
X100985Y-50821D01*
X100962Y-50805D01*
X100937Y-50793D01*
X100028Y-50369D01*
X100001Y-50362D01*
X99973Y-50361D01*
X99946Y-50365D01*
X99920Y-50375D01*
X99896Y-50389D01*
X99876Y-50408D01*
X99860Y-50430D01*
X99848Y-50455D01*
X99116Y-52025D01*
X99110Y-52051D01*
X99108Y-52079D01*
X99113Y-52106D01*
X99122Y-52132D01*
X99136Y-52156D01*
X99155Y-52176D01*
X99177Y-52192D01*
X99202Y-52204D01*
X100112Y-52628D01*
X100139Y-52635D01*
X100166Y-52636D01*
X100194Y-52632D01*
X100220Y-52622D01*
X100243Y-52608D01*
X100264Y-52590D01*
X100280Y-52567D01*
X100292Y-52542D01*
X100380Y-52353D01*
X100393Y-52364D01*
X100395Y-52365D01*
X100397Y-52366D01*
X100428Y-52383D01*
X100460Y-52401D01*
X100462Y-52401D01*
X100464Y-52402D01*
X100498Y-52413D01*
X100533Y-52424D01*
X100535Y-52424D01*
X100537Y-52425D01*
X100572Y-52428D01*
X100608Y-52432D01*
X100612Y-52432D01*
X100612Y-52432D01*
X100612Y-52432D01*
X100614Y-52432D01*
X100781Y-52432D01*
X100802Y-52447D01*
X100890Y-52486D01*
X100984Y-52506D01*
X101080Y-52508D01*
X101175Y-52492D01*
X101264Y-52457D01*
X101346Y-52405D01*
X101415Y-52339D01*
X101471Y-52261D01*
X101510Y-52173D01*
X101531Y-52079D01*
X101532Y-51969D01*
X101532Y-52249D01*
X101470Y-52311D01*
X101470Y-52360D01*
X101750Y-52640D01*
X102029Y-52360D01*
X102029Y-52530D01*
X101834Y-52725D01*
X102114Y-53004D01*
X102163Y-53004D01*
X102353Y-52814D01*
X102369Y-52791D01*
X102379Y-52765D01*
X102384Y-52738D01*
X102384Y-52947D01*
X102318Y-52959D01*
X102228Y-52995D01*
X102148Y-53048D01*
X102079Y-53115D01*
X102029Y-53189D01*
X102029Y-53138D01*
X102029Y-53089D01*
X101750Y-52809D01*
X101665Y-52894D01*
X101665Y-52725D01*
X101385Y-52445D01*
X101336Y-52445D01*
X101146Y-52635D01*
X101130Y-52658D01*
X101120Y-52684D01*
X101115Y-52711D01*
X101115Y-52738D01*
X101120Y-52765D01*
X101130Y-52791D01*
X101146Y-52814D01*
X101165Y-52833D01*
X101336Y-53004D01*
X101385Y-53004D01*
X101665Y-52725D01*
X101665Y-52894D01*
X101470Y-53089D01*
X101470Y-53138D01*
X101641Y-53309D01*
X101660Y-53328D01*
X101683Y-53344D01*
X101709Y-53354D01*
X101736Y-53359D01*
X101763Y-53359D01*
X101790Y-53354D01*
X101816Y-53344D01*
X101839Y-53328D01*
X102029Y-53138D01*
X102029Y-53189D01*
X102025Y-53194D01*
X101987Y-53283D01*
X101967Y-53377D01*
X101966Y-53473D01*
X101983Y-53567D01*
X102019Y-53657D01*
X102067Y-53731D01*
X102067Y-53788D01*
X101916Y-53638D01*
X101894Y-53623D01*
X101868Y-53612D01*
X101841Y-53607D01*
X101813Y-53607D01*
X101786Y-53612D01*
X101761Y-53623D01*
X101738Y-53638D01*
X101718Y-53658D01*
X101009Y-54368D01*
X100993Y-54391D01*
X100983Y-54416D01*
X100977Y-54443D01*
X100977Y-54471D01*
X100983Y-54498D01*
X100993Y-54523D01*
X101009Y-54546D01*
X101028Y-54566D01*
X102253Y-55790D01*
X102276Y-55806D01*
X102301Y-55816D01*
X102328Y-55822D01*
X102356Y-55822D01*
X102383Y-55816D01*
X102408Y-55806D01*
X102431Y-55790D01*
X102451Y-55771D01*
X103161Y-55061D01*
X103176Y-55038D01*
X103187Y-55013D01*
X103192Y-54986D01*
X103192Y-57275D01*
X103131Y-57214D01*
X103060Y-57166D01*
X102980Y-57132D01*
X102896Y-57115D01*
X102809Y-57114D01*
X102725Y-57130D01*
X102645Y-57163D01*
X102572Y-57210D01*
X102511Y-57270D01*
X102462Y-57342D01*
X102428Y-57421D01*
X102410Y-57505D01*
X102409Y-57592D01*
X102424Y-57676D01*
X102456Y-57757D01*
X102503Y-57829D01*
X102563Y-57891D01*
X102634Y-57941D01*
X102713Y-57975D01*
X102797Y-57994D01*
X102883Y-57995D01*
X102968Y-57980D01*
X103049Y-57949D01*
X103122Y-57903D01*
X103184Y-57844D01*
X103234Y-57773D01*
X103269Y-57694D01*
X103288Y-57610D01*
X103290Y-57511D01*
X103290Y-58511D01*
X103273Y-58427D01*
X103240Y-58347D01*
X103192Y-58275D01*
X103131Y-58214D01*
X103060Y-58166D01*
X102980Y-58132D01*
X102896Y-58115D01*
X102809Y-58114D01*
X102725Y-58130D01*
X102645Y-58163D01*
X102572Y-58210D01*
X102511Y-58270D01*
X102462Y-58342D01*
X102428Y-58421D01*
X102421Y-58456D01*
X102390Y-58301D01*
X102312Y-58112D01*
X102199Y-57942D01*
X102054Y-57796D01*
X101885Y-57682D01*
X101696Y-57603D01*
X101522Y-57567D01*
X101522Y-56656D01*
X101522Y-56628D01*
X101516Y-56601D01*
X101506Y-56576D01*
X101490Y-56553D01*
X101471Y-56533D01*
X100936Y-55998D01*
X100886Y-55998D01*
X100801Y-56083D01*
X100801Y-55913D01*
X100801Y-55863D01*
X100266Y-55328D01*
X100246Y-55309D01*
X100223Y-55293D01*
X100198Y-55283D01*
X100171Y-55277D01*
X100143Y-55277D01*
X100116Y-55283D01*
X100091Y-55293D01*
X100068Y-55309D01*
X99770Y-55606D01*
X99770Y-55656D01*
X100414Y-56300D01*
X100801Y-55913D01*
X100801Y-56083D01*
X100499Y-56385D01*
X101143Y-57029D01*
X101193Y-57029D01*
X101490Y-56731D01*
X101506Y-56708D01*
X101516Y-56683D01*
X101522Y-56656D01*
X101522Y-57567D01*
X101495Y-57561D01*
X101291Y-57560D01*
X101090Y-57598D01*
X101059Y-57611D01*
X101059Y-57163D01*
X101059Y-57114D01*
X100414Y-56469D01*
X100330Y-56554D01*
X100330Y-56385D01*
X99685Y-55740D01*
X99636Y-55740D01*
X99338Y-56038D01*
X99323Y-56061D01*
X99312Y-56086D01*
X99307Y-56113D01*
X99307Y-56141D01*
X99312Y-56168D01*
X99323Y-56194D01*
X99338Y-56216D01*
X99358Y-56236D01*
X99893Y-56771D01*
X99943Y-56771D01*
X100330Y-56385D01*
X100330Y-56554D01*
X100028Y-56856D01*
X100028Y-56906D01*
X100563Y-57441D01*
X100583Y-57461D01*
X100605Y-57476D01*
X100631Y-57487D01*
X100658Y-57492D01*
X100686Y-57492D01*
X100713Y-57487D01*
X100738Y-57476D01*
X100761Y-57461D01*
X101059Y-57163D01*
X101059Y-57611D01*
X100900Y-57675D01*
X100728Y-57787D01*
X100582Y-57930D01*
X100466Y-58099D01*
X100386Y-58287D01*
X100343Y-58488D01*
X100340Y-58692D01*
X100377Y-58894D01*
X100453Y-59084D01*
X100564Y-59256D01*
X100706Y-59403D01*
X100874Y-59520D01*
X101062Y-59602D01*
X101262Y-59646D01*
X101466Y-59651D01*
X101668Y-59615D01*
X101859Y-59541D01*
X102032Y-59431D01*
X102180Y-59290D01*
X102298Y-59123D01*
X102381Y-58936D01*
X102426Y-58736D01*
X102427Y-58683D01*
X102456Y-58757D01*
X102503Y-58829D01*
X102563Y-58891D01*
X102634Y-58941D01*
X102713Y-58975D01*
X102797Y-58994D01*
X102883Y-58995D01*
X102968Y-58980D01*
X103049Y-58949D01*
X103122Y-58903D01*
X103184Y-58844D01*
X103234Y-58773D01*
X103269Y-58694D01*
X103288Y-58610D01*
X103290Y-58511D01*
X103290Y-59511D01*
X103273Y-59427D01*
X103240Y-59347D01*
X103192Y-59275D01*
X103131Y-59214D01*
X103060Y-59166D01*
X102980Y-59132D01*
X102896Y-59115D01*
X102809Y-59114D01*
X102725Y-59130D01*
X102645Y-59163D01*
X102572Y-59210D01*
X102511Y-59270D01*
X102462Y-59342D01*
X102428Y-59421D01*
X102410Y-59505D01*
X102409Y-59592D01*
X102424Y-59676D01*
X102456Y-59757D01*
X102503Y-59829D01*
X102563Y-59891D01*
X102634Y-59941D01*
X102713Y-59975D01*
X102797Y-59994D01*
X102883Y-59995D01*
X102968Y-59980D01*
X103049Y-59949D01*
X103122Y-59903D01*
X103184Y-59844D01*
X103234Y-59773D01*
X103269Y-59694D01*
X103288Y-59610D01*
X103290Y-59511D01*
X103290Y-65069D01*
X103290Y-65069D01*
X103290Y-60868D01*
X103290Y-60650D01*
X103290Y-60460D01*
X103290Y-60241D01*
X103284Y-60214D01*
X103274Y-60188D01*
X103258Y-60165D01*
X103239Y-60146D01*
X103216Y-60131D01*
X103190Y-60120D01*
X103163Y-60115D01*
X103136Y-60115D01*
X102945Y-60115D01*
X102910Y-60150D01*
X102910Y-60495D01*
X103255Y-60495D01*
X103290Y-60460D01*
X103290Y-60650D01*
X103255Y-60615D01*
X102910Y-60615D01*
X102910Y-60960D01*
X102945Y-60995D01*
X103136Y-60995D01*
X103163Y-60995D01*
X103190Y-60989D01*
X103216Y-60979D01*
X103239Y-60963D01*
X103258Y-60944D01*
X103274Y-60921D01*
X103284Y-60895D01*
X103290Y-60868D01*
X103290Y-65069D01*
X103216Y-65198D01*
X102790Y-65693D01*
X102790Y-60960D01*
X102790Y-60615D01*
X102790Y-60495D01*
X102790Y-60150D01*
X102755Y-60115D01*
X102563Y-60115D01*
X102536Y-60115D01*
X102509Y-60120D01*
X102483Y-60131D01*
X102460Y-60146D01*
X102441Y-60165D01*
X102425Y-60188D01*
X102415Y-60214D01*
X102410Y-60241D01*
X102410Y-60460D01*
X102445Y-60495D01*
X102790Y-60495D01*
X102790Y-60615D01*
X102445Y-60615D01*
X102410Y-60650D01*
X102410Y-60868D01*
X102415Y-60895D01*
X102425Y-60921D01*
X102441Y-60944D01*
X102460Y-60963D01*
X102483Y-60979D01*
X102509Y-60989D01*
X102536Y-60995D01*
X102563Y-60995D01*
X102755Y-60995D01*
X102790Y-60960D01*
X102790Y-65693D01*
X102700Y-65797D01*
X102700Y-62816D01*
X102683Y-62732D01*
X102650Y-62652D01*
X102602Y-62580D01*
X102541Y-62519D01*
X102470Y-62471D01*
X102390Y-62437D01*
X102306Y-62420D01*
X102219Y-62419D01*
X102135Y-62435D01*
X102055Y-62468D01*
X101982Y-62515D01*
X101921Y-62575D01*
X101872Y-62647D01*
X101838Y-62726D01*
X101820Y-62810D01*
X101819Y-62896D01*
X101834Y-62981D01*
X101866Y-63062D01*
X101913Y-63134D01*
X101973Y-63196D01*
X102044Y-63245D01*
X102123Y-63280D01*
X102207Y-63299D01*
X102293Y-63300D01*
X102378Y-63285D01*
X102459Y-63254D01*
X102532Y-63208D01*
X102594Y-63148D01*
X102644Y-63078D01*
X102679Y-62999D01*
X102698Y-62915D01*
X102700Y-62816D01*
X102700Y-65797D01*
X102700Y-65797D01*
X102700Y-64173D01*
X102700Y-64146D01*
X102700Y-63546D01*
X102694Y-63519D01*
X102684Y-63493D01*
X102668Y-63470D01*
X102649Y-63451D01*
X102626Y-63435D01*
X102600Y-63425D01*
X102573Y-63420D01*
X102546Y-63420D01*
X101946Y-63420D01*
X101919Y-63425D01*
X101893Y-63435D01*
X101870Y-63451D01*
X101851Y-63470D01*
X101835Y-63493D01*
X101825Y-63519D01*
X101820Y-63546D01*
X101820Y-63573D01*
X101820Y-64173D01*
X101825Y-64200D01*
X101835Y-64226D01*
X101851Y-64249D01*
X101870Y-64268D01*
X101893Y-64284D01*
X101919Y-64294D01*
X101946Y-64300D01*
X101973Y-64300D01*
X102573Y-64300D01*
X102600Y-64294D01*
X102626Y-64284D01*
X102649Y-64268D01*
X102668Y-64249D01*
X102684Y-64226D01*
X102694Y-64200D01*
X102700Y-64173D01*
X102700Y-65797D01*
X101856Y-66774D01*
X100215Y-68056D01*
X99415Y-68460D01*
X99415Y-61688D01*
X99415Y-61661D01*
X99415Y-61545D01*
X99415Y-61355D01*
X99415Y-61238D01*
X99415Y-61211D01*
X99409Y-61184D01*
X99399Y-61158D01*
X99383Y-61135D01*
X99364Y-61116D01*
X99341Y-61100D01*
X99315Y-61090D01*
X99288Y-61085D01*
X99245Y-61085D01*
X99210Y-61120D01*
X99210Y-61390D01*
X99380Y-61390D01*
X99415Y-61355D01*
X99415Y-61545D01*
X99380Y-61510D01*
X99210Y-61510D01*
X99210Y-61780D01*
X99245Y-61815D01*
X99288Y-61815D01*
X99315Y-61809D01*
X99341Y-61799D01*
X99364Y-61783D01*
X99383Y-61764D01*
X99399Y-61741D01*
X99409Y-61715D01*
X99415Y-61688D01*
X99415Y-68460D01*
X99090Y-68625D01*
X99090Y-61780D01*
X99090Y-61510D01*
X99090Y-61390D01*
X99090Y-61120D01*
X99055Y-61085D01*
X99011Y-61085D01*
X98984Y-61090D01*
X98958Y-61100D01*
X98935Y-61116D01*
X98916Y-61135D01*
X98900Y-61158D01*
X98891Y-61182D01*
X98891Y-49920D01*
X98886Y-49893D01*
X98877Y-49867D01*
X98863Y-49843D01*
X98844Y-49823D01*
X98822Y-49807D01*
X98440Y-49629D01*
X98394Y-49646D01*
X98285Y-49879D01*
X98285Y-49595D01*
X98268Y-49548D01*
X97887Y-49371D01*
X97860Y-49364D01*
X97833Y-49363D01*
X97805Y-49367D01*
X97779Y-49377D01*
X97756Y-49391D01*
X97735Y-49409D01*
X97719Y-49432D01*
X97707Y-49457D01*
X97387Y-50143D01*
X97404Y-50189D01*
X97900Y-50421D01*
X98285Y-49595D01*
X98285Y-49879D01*
X98009Y-50471D01*
X98505Y-50703D01*
X98551Y-50686D01*
X98871Y-49999D01*
X98883Y-49974D01*
X98889Y-49948D01*
X98891Y-49920D01*
X98891Y-61182D01*
X98890Y-61184D01*
X98885Y-61211D01*
X98885Y-61238D01*
X98885Y-61355D01*
X98920Y-61390D01*
X99090Y-61390D01*
X99090Y-61510D01*
X98920Y-61510D01*
X98885Y-61545D01*
X98885Y-61661D01*
X98885Y-61688D01*
X98890Y-61715D01*
X98900Y-61741D01*
X98916Y-61764D01*
X98935Y-61783D01*
X98958Y-61799D01*
X98984Y-61809D01*
X99011Y-61815D01*
X99055Y-61815D01*
X99090Y-61780D01*
X99090Y-68625D01*
X98815Y-68764D01*
X98815Y-61688D01*
X98815Y-61661D01*
X98815Y-61211D01*
X98809Y-61184D01*
X98799Y-61158D01*
X98783Y-61135D01*
X98764Y-61116D01*
X98741Y-61100D01*
X98729Y-61095D01*
X98729Y-56613D01*
X98729Y-56586D01*
X98729Y-54986D01*
X98723Y-54959D01*
X98713Y-54933D01*
X98698Y-54910D01*
X98678Y-54891D01*
X98655Y-54875D01*
X98630Y-54865D01*
X98603Y-54860D01*
X98575Y-54860D01*
X98471Y-54860D01*
X98471Y-50858D01*
X98454Y-50811D01*
X97958Y-50580D01*
X97849Y-50813D01*
X97849Y-50529D01*
X97354Y-50298D01*
X97307Y-50315D01*
X96987Y-51001D01*
X96975Y-51026D01*
X96969Y-51053D01*
X96968Y-51081D01*
X96972Y-51108D01*
X96981Y-51134D01*
X96996Y-51158D01*
X97014Y-51178D01*
X97037Y-51194D01*
X97418Y-51372D01*
X97464Y-51355D01*
X97849Y-50529D01*
X97849Y-50813D01*
X97573Y-51406D01*
X97590Y-51452D01*
X97971Y-51630D01*
X97998Y-51637D01*
X98026Y-51638D01*
X98053Y-51634D01*
X98079Y-51624D01*
X98103Y-51610D01*
X98123Y-51591D01*
X98139Y-51569D01*
X98151Y-51544D01*
X98471Y-50858D01*
X98471Y-54860D01*
X96815Y-54860D01*
X96815Y-51669D01*
X96803Y-51608D01*
X96779Y-51551D01*
X96745Y-51499D01*
X96701Y-51456D01*
X96650Y-51421D01*
X96593Y-51397D01*
X96533Y-51385D01*
X96471Y-51384D01*
X96410Y-51396D01*
X96353Y-51419D01*
X96301Y-51453D01*
X96257Y-51496D01*
X96248Y-51510D01*
X92151Y-51510D01*
X92145Y-51499D01*
X92101Y-51456D01*
X92050Y-51421D01*
X92034Y-51415D01*
X92879Y-51415D01*
X92895Y-51426D01*
X92952Y-51451D01*
X93012Y-51464D01*
X93074Y-51465D01*
X93135Y-51454D01*
X93192Y-51432D01*
X93244Y-51399D01*
X93289Y-51356D01*
X93325Y-51306D01*
X93350Y-51249D01*
X93364Y-51189D01*
X93365Y-51119D01*
X93353Y-51058D01*
X93329Y-51001D01*
X93295Y-50949D01*
X93251Y-50906D01*
X93200Y-50871D01*
X93143Y-50847D01*
X93083Y-50835D01*
X93021Y-50834D01*
X92960Y-50846D01*
X92903Y-50869D01*
X92851Y-50903D01*
X92819Y-50935D01*
X91579Y-50935D01*
X91566Y-50925D01*
X91540Y-50915D01*
X91513Y-50910D01*
X91486Y-50910D01*
X91045Y-50910D01*
X91025Y-50896D01*
X90968Y-50872D01*
X90946Y-50868D01*
X90965Y-50864D01*
X91022Y-50842D01*
X91074Y-50809D01*
X91119Y-50766D01*
X91131Y-50750D01*
X94055Y-50750D01*
X94094Y-50791D01*
X94145Y-50826D01*
X94202Y-50851D01*
X94262Y-50864D01*
X94324Y-50865D01*
X94385Y-50854D01*
X94442Y-50832D01*
X94494Y-50799D01*
X94539Y-50756D01*
X94575Y-50706D01*
X94600Y-50649D01*
X94614Y-50589D01*
X94615Y-50519D01*
X94603Y-50458D01*
X94579Y-50401D01*
X94545Y-50349D01*
X94501Y-50306D01*
X94450Y-50271D01*
X94393Y-50247D01*
X94333Y-50235D01*
X94271Y-50234D01*
X94210Y-50246D01*
X94153Y-50269D01*
X94101Y-50303D01*
X94057Y-50346D01*
X94041Y-50370D01*
X92739Y-50370D01*
X92739Y-49561D01*
X92735Y-49515D01*
X92722Y-49470D01*
X92700Y-49428D01*
X92671Y-49392D01*
X92635Y-49361D01*
X92594Y-49339D01*
X92549Y-49325D01*
X92503Y-49320D01*
X92500Y-49320D01*
X92090Y-49320D01*
X92065Y-49295D01*
X92018Y-49263D01*
X91966Y-49241D01*
X91910Y-49230D01*
X91853Y-49229D01*
X91797Y-49240D01*
X91744Y-49261D01*
X91697Y-49292D01*
X91656Y-49332D01*
X91624Y-49379D01*
X91602Y-49431D01*
X91590Y-49487D01*
X91589Y-49544D01*
X91599Y-49600D01*
X91620Y-49653D01*
X91651Y-49701D01*
X91691Y-49741D01*
X91706Y-49752D01*
X91685Y-49766D01*
X91666Y-49785D01*
X91650Y-49808D01*
X91640Y-49834D01*
X91635Y-49861D01*
X91635Y-49888D01*
X91635Y-50005D01*
X91670Y-50040D01*
X91840Y-50040D01*
X91840Y-50032D01*
X91960Y-50032D01*
X91960Y-50040D01*
X92130Y-50040D01*
X92165Y-50005D01*
X92165Y-49888D01*
X92165Y-49861D01*
X92159Y-49834D01*
X92149Y-49808D01*
X92143Y-49800D01*
X92500Y-49800D01*
X92546Y-49795D01*
X92591Y-49781D01*
X92632Y-49759D01*
X92669Y-49730D01*
X92698Y-49694D01*
X92721Y-49653D01*
X92735Y-49608D01*
X92739Y-49561D01*
X92739Y-50370D01*
X92157Y-50370D01*
X92159Y-50365D01*
X92165Y-50338D01*
X92165Y-50311D01*
X92165Y-50195D01*
X92130Y-50160D01*
X91960Y-50160D01*
X91960Y-50167D01*
X91840Y-50167D01*
X91840Y-50160D01*
X91670Y-50160D01*
X91635Y-50195D01*
X91635Y-50311D01*
X91635Y-50338D01*
X91640Y-50365D01*
X91642Y-50370D01*
X91557Y-50370D01*
X91559Y-50365D01*
X91565Y-50338D01*
X91565Y-50311D01*
X91565Y-49861D01*
X91559Y-49834D01*
X91549Y-49808D01*
X91533Y-49785D01*
X91514Y-49766D01*
X91491Y-49750D01*
X91465Y-49740D01*
X91438Y-49735D01*
X91411Y-49735D01*
X91161Y-49735D01*
X91134Y-49740D01*
X91108Y-49750D01*
X91085Y-49766D01*
X91066Y-49785D01*
X91050Y-49808D01*
X91040Y-49834D01*
X91035Y-49861D01*
X91035Y-49884D01*
X91025Y-49875D01*
X90978Y-49843D01*
X90926Y-49821D01*
X90870Y-49810D01*
X90813Y-49809D01*
X90757Y-49820D01*
X90704Y-49841D01*
X90657Y-49872D01*
X90616Y-49912D01*
X90584Y-49959D01*
X90562Y-50011D01*
X90550Y-50067D01*
X90549Y-50124D01*
X90559Y-50180D01*
X90580Y-50233D01*
X90611Y-50281D01*
X90651Y-50321D01*
X90663Y-50330D01*
X90637Y-50356D01*
X90602Y-50407D01*
X90578Y-50464D01*
X90565Y-50524D01*
X90564Y-50586D01*
X90575Y-50647D01*
X90598Y-50704D01*
X90631Y-50756D01*
X90674Y-50801D01*
X90725Y-50836D01*
X90782Y-50861D01*
X90808Y-50866D01*
X90785Y-50871D01*
X90728Y-50894D01*
X90676Y-50928D01*
X90632Y-50971D01*
X90597Y-51022D01*
X90573Y-51079D01*
X90560Y-51139D01*
X90559Y-51201D01*
X90570Y-51262D01*
X90593Y-51319D01*
X90626Y-51371D01*
X90669Y-51416D01*
X90720Y-51451D01*
X90777Y-51476D01*
X90837Y-51489D01*
X90899Y-51490D01*
X90960Y-51479D01*
X91017Y-51457D01*
X91045Y-51440D01*
X91063Y-51440D01*
X91513Y-51440D01*
X91540Y-51434D01*
X91566Y-51424D01*
X91579Y-51415D01*
X91764Y-51415D01*
X91753Y-51419D01*
X91701Y-51453D01*
X91657Y-51496D01*
X91622Y-51547D01*
X91613Y-51568D01*
X91608Y-51560D01*
X91589Y-51541D01*
X91566Y-51525D01*
X91540Y-51515D01*
X91513Y-51510D01*
X91486Y-51510D01*
X91370Y-51510D01*
X91335Y-51545D01*
X91335Y-51715D01*
X91342Y-51715D01*
X91342Y-51835D01*
X91335Y-51835D01*
X91335Y-52005D01*
X91370Y-52040D01*
X91486Y-52040D01*
X91513Y-52040D01*
X91540Y-52034D01*
X91566Y-52024D01*
X91589Y-52008D01*
X91608Y-51989D01*
X91624Y-51966D01*
X91634Y-51940D01*
X91640Y-51913D01*
X91640Y-51878D01*
X91651Y-51896D01*
X91694Y-51941D01*
X91745Y-51976D01*
X91802Y-52001D01*
X91862Y-52014D01*
X91924Y-52015D01*
X91985Y-52004D01*
X92042Y-51982D01*
X92094Y-51949D01*
X92139Y-51906D01*
X92151Y-51890D01*
X96247Y-51890D01*
X96251Y-51896D01*
X96294Y-51941D01*
X96345Y-51976D01*
X96402Y-52001D01*
X96462Y-52014D01*
X96524Y-52015D01*
X96585Y-52004D01*
X96642Y-51982D01*
X96694Y-51949D01*
X96739Y-51906D01*
X96775Y-51856D01*
X96800Y-51799D01*
X96814Y-51739D01*
X96815Y-51669D01*
X96815Y-54860D01*
X96607Y-54860D01*
X96580Y-54865D01*
X96554Y-54875D01*
X96531Y-54891D01*
X96512Y-54910D01*
X96496Y-54933D01*
X96486Y-54959D01*
X96480Y-54986D01*
X96480Y-55013D01*
X96480Y-56613D01*
X96486Y-56640D01*
X96496Y-56666D01*
X96512Y-56689D01*
X96531Y-56708D01*
X96554Y-56724D01*
X96580Y-56734D01*
X96607Y-56740D01*
X96634Y-56740D01*
X98603Y-56740D01*
X98630Y-56734D01*
X98655Y-56724D01*
X98678Y-56708D01*
X98698Y-56689D01*
X98713Y-56666D01*
X98723Y-56640D01*
X98729Y-56613D01*
X98729Y-61095D01*
X98715Y-61090D01*
X98688Y-61085D01*
X98661Y-61085D01*
X98590Y-61085D01*
X98590Y-57860D01*
X98590Y-57850D01*
X98590Y-57640D01*
X98586Y-57604D01*
X98583Y-57568D01*
X98582Y-57566D01*
X98582Y-57564D01*
X98572Y-57529D01*
X98562Y-57495D01*
X98561Y-57493D01*
X98560Y-57491D01*
X98543Y-57459D01*
X98527Y-57427D01*
X98525Y-57425D01*
X98524Y-57424D01*
X98502Y-57396D01*
X98479Y-57368D01*
X98476Y-57365D01*
X98476Y-57365D01*
X98476Y-57365D01*
X98475Y-57364D01*
X98055Y-56944D01*
X97996Y-56895D01*
X97929Y-56859D01*
X97857Y-56837D01*
X97781Y-56830D01*
X97705Y-56837D01*
X97632Y-56858D01*
X97565Y-56894D01*
X97506Y-56942D01*
X97457Y-57000D01*
X97421Y-57067D01*
X97398Y-57140D01*
X97390Y-57215D01*
X97396Y-57291D01*
X97417Y-57364D01*
X97452Y-57432D01*
X97500Y-57491D01*
X97504Y-57495D01*
X97810Y-57801D01*
X97810Y-57850D01*
X97810Y-57860D01*
X97810Y-61450D01*
X97817Y-61525D01*
X97839Y-61598D01*
X97875Y-61665D01*
X97923Y-61724D01*
X97981Y-61773D01*
X98048Y-61809D01*
X98121Y-61832D01*
X98197Y-61839D01*
X98273Y-61833D01*
X98346Y-61811D01*
X98365Y-61801D01*
X98384Y-61809D01*
X98411Y-61815D01*
X98438Y-61815D01*
X98688Y-61815D01*
X98715Y-61809D01*
X98741Y-61799D01*
X98764Y-61783D01*
X98783Y-61764D01*
X98799Y-61741D01*
X98809Y-61715D01*
X98815Y-61688D01*
X98815Y-68764D01*
X98390Y-68978D01*
X98390Y-67406D01*
X98390Y-66406D01*
X98373Y-66322D01*
X98340Y-66242D01*
X98292Y-66170D01*
X98231Y-66109D01*
X98160Y-66061D01*
X98080Y-66027D01*
X97996Y-66010D01*
X97909Y-66009D01*
X97825Y-66025D01*
X97745Y-66058D01*
X97672Y-66105D01*
X97611Y-66165D01*
X97562Y-66237D01*
X97528Y-66316D01*
X97510Y-66400D01*
X97509Y-66486D01*
X97524Y-66571D01*
X97534Y-66596D01*
X97381Y-66750D01*
X97273Y-66750D01*
X97284Y-66738D01*
X97334Y-66668D01*
X97369Y-66589D01*
X97388Y-66505D01*
X97390Y-66406D01*
X97373Y-66322D01*
X97340Y-66242D01*
X97292Y-66170D01*
X97231Y-66109D01*
X97160Y-66061D01*
X97080Y-66027D01*
X96996Y-66010D01*
X96909Y-66009D01*
X96825Y-66025D01*
X96745Y-66058D01*
X96672Y-66105D01*
X96611Y-66165D01*
X96570Y-66226D01*
X96570Y-65800D01*
X96568Y-65782D01*
X96566Y-65765D01*
X96566Y-65764D01*
X96566Y-65763D01*
X96561Y-65746D01*
X96556Y-65729D01*
X96555Y-65728D01*
X96555Y-65727D01*
X96547Y-65712D01*
X96539Y-65696D01*
X96538Y-65695D01*
X96538Y-65694D01*
X96527Y-65681D01*
X96516Y-65667D01*
X96514Y-65666D01*
X96514Y-65666D01*
X96514Y-65666D01*
X96514Y-65665D01*
X96258Y-65410D01*
X96340Y-65410D01*
X96357Y-65408D01*
X96374Y-65406D01*
X96375Y-65406D01*
X96376Y-65406D01*
X96393Y-65401D01*
X96410Y-65396D01*
X96411Y-65395D01*
X96412Y-65395D01*
X96427Y-65387D01*
X96443Y-65379D01*
X96444Y-65378D01*
X96445Y-65378D01*
X96458Y-65367D01*
X96472Y-65356D01*
X96473Y-65354D01*
X96473Y-65354D01*
X96473Y-65354D01*
X96474Y-65354D01*
X96540Y-65287D01*
X96528Y-65316D01*
X96510Y-65400D01*
X96509Y-65486D01*
X96524Y-65571D01*
X96556Y-65652D01*
X96603Y-65724D01*
X96663Y-65786D01*
X96734Y-65835D01*
X96813Y-65870D01*
X96897Y-65889D01*
X96983Y-65890D01*
X97068Y-65875D01*
X97149Y-65844D01*
X97222Y-65798D01*
X97284Y-65738D01*
X97334Y-65668D01*
X97369Y-65589D01*
X97388Y-65505D01*
X97390Y-65406D01*
X97373Y-65322D01*
X97340Y-65242D01*
X97292Y-65170D01*
X97252Y-65130D01*
X97461Y-65130D01*
X97510Y-65178D01*
X97510Y-65763D01*
X97515Y-65790D01*
X97525Y-65816D01*
X97541Y-65839D01*
X97560Y-65858D01*
X97583Y-65874D01*
X97609Y-65884D01*
X97636Y-65890D01*
X97663Y-65890D01*
X98263Y-65890D01*
X98290Y-65884D01*
X98316Y-65874D01*
X98339Y-65858D01*
X98358Y-65839D01*
X98374Y-65816D01*
X98384Y-65790D01*
X98390Y-65763D01*
X98390Y-65736D01*
X98390Y-65136D01*
X98384Y-65109D01*
X98374Y-65083D01*
X98358Y-65060D01*
X98339Y-65041D01*
X98316Y-65025D01*
X98290Y-65015D01*
X98263Y-65010D01*
X98236Y-65010D01*
X97878Y-65010D01*
X97674Y-64805D01*
X97660Y-64794D01*
X97647Y-64783D01*
X97646Y-64782D01*
X97645Y-64782D01*
X97630Y-64773D01*
X97614Y-64765D01*
X97613Y-64765D01*
X97613Y-64764D01*
X97609Y-64763D01*
X97609Y-59050D01*
X97608Y-58963D01*
X97532Y-58361D01*
X97340Y-57785D01*
X97041Y-57257D01*
X96644Y-56798D01*
X96166Y-56424D01*
X95765Y-56221D01*
X95765Y-53488D01*
X95765Y-53461D01*
X95765Y-53345D01*
X95765Y-53155D01*
X95765Y-53038D01*
X95765Y-53011D01*
X95759Y-52984D01*
X95749Y-52958D01*
X95733Y-52935D01*
X95714Y-52916D01*
X95691Y-52900D01*
X95665Y-52890D01*
X95638Y-52885D01*
X95595Y-52885D01*
X95560Y-52920D01*
X95560Y-53190D01*
X95730Y-53190D01*
X95765Y-53155D01*
X95765Y-53345D01*
X95730Y-53310D01*
X95560Y-53310D01*
X95560Y-53580D01*
X95595Y-53615D01*
X95638Y-53615D01*
X95665Y-53609D01*
X95691Y-53599D01*
X95714Y-53583D01*
X95733Y-53564D01*
X95749Y-53541D01*
X95759Y-53515D01*
X95765Y-53488D01*
X95765Y-56221D01*
X95624Y-56150D01*
X95440Y-56099D01*
X95440Y-53580D01*
X95440Y-53310D01*
X95440Y-53190D01*
X95440Y-52920D01*
X95405Y-52885D01*
X95361Y-52885D01*
X95334Y-52890D01*
X95308Y-52900D01*
X95285Y-52916D01*
X95266Y-52935D01*
X95250Y-52958D01*
X95240Y-52984D01*
X95235Y-53011D01*
X95235Y-53038D01*
X95235Y-53155D01*
X95270Y-53190D01*
X95440Y-53190D01*
X95440Y-53310D01*
X95270Y-53310D01*
X95235Y-53345D01*
X95235Y-53461D01*
X95235Y-53488D01*
X95240Y-53515D01*
X95250Y-53541D01*
X95266Y-53564D01*
X95285Y-53583D01*
X95308Y-53599D01*
X95334Y-53609D01*
X95361Y-53615D01*
X95405Y-53615D01*
X95440Y-53580D01*
X95440Y-56099D01*
X95165Y-56022D01*
X95165Y-53719D01*
X95153Y-53658D01*
X95129Y-53601D01*
X95116Y-53581D01*
X95133Y-53564D01*
X95149Y-53541D01*
X95159Y-53515D01*
X95165Y-53488D01*
X95165Y-53461D01*
X95165Y-53011D01*
X95159Y-52984D01*
X95149Y-52958D01*
X95133Y-52935D01*
X95114Y-52916D01*
X95091Y-52900D01*
X95065Y-52890D01*
X95038Y-52885D01*
X95011Y-52885D01*
X94761Y-52885D01*
X94734Y-52890D01*
X94708Y-52900D01*
X94685Y-52916D01*
X94666Y-52935D01*
X94650Y-52958D01*
X94640Y-52984D01*
X94635Y-53011D01*
X94635Y-53038D01*
X94635Y-53488D01*
X94640Y-53514D01*
X94607Y-53546D01*
X94572Y-53597D01*
X94548Y-53654D01*
X94535Y-53714D01*
X94534Y-53776D01*
X94545Y-53837D01*
X94568Y-53894D01*
X94601Y-53946D01*
X94644Y-53991D01*
X94695Y-54026D01*
X94752Y-54051D01*
X94812Y-54064D01*
X94874Y-54065D01*
X94935Y-54054D01*
X94992Y-54032D01*
X95044Y-53999D01*
X95089Y-53956D01*
X95125Y-53906D01*
X95150Y-53849D01*
X95164Y-53789D01*
X95165Y-53719D01*
X95165Y-56022D01*
X95039Y-55987D01*
X94434Y-55940D01*
X94090Y-55982D01*
X94090Y-53138D01*
X94090Y-53111D01*
X94090Y-52945D01*
X94090Y-52755D01*
X94090Y-52588D01*
X94090Y-52561D01*
X94084Y-52534D01*
X94074Y-52508D01*
X94058Y-52485D01*
X94039Y-52466D01*
X94016Y-52450D01*
X93990Y-52440D01*
X93963Y-52435D01*
X93870Y-52435D01*
X93835Y-52470D01*
X93835Y-52790D01*
X94055Y-52790D01*
X94090Y-52755D01*
X94090Y-52945D01*
X94055Y-52910D01*
X93835Y-52910D01*
X93835Y-53230D01*
X93870Y-53265D01*
X93963Y-53265D01*
X93990Y-53259D01*
X94016Y-53249D01*
X94039Y-53233D01*
X94058Y-53214D01*
X94074Y-53191D01*
X94084Y-53165D01*
X94090Y-53138D01*
X94090Y-55982D01*
X93832Y-56012D01*
X93715Y-56050D01*
X93715Y-53230D01*
X93715Y-52910D01*
X93715Y-52790D01*
X93715Y-52470D01*
X93680Y-52435D01*
X93586Y-52435D01*
X93559Y-52440D01*
X93533Y-52450D01*
X93510Y-52466D01*
X93491Y-52485D01*
X93475Y-52508D01*
X93465Y-52534D01*
X93460Y-52561D01*
X93460Y-52588D01*
X93460Y-52755D01*
X93495Y-52790D01*
X93715Y-52790D01*
X93715Y-52910D01*
X93495Y-52910D01*
X93460Y-52945D01*
X93460Y-53111D01*
X93460Y-53138D01*
X93465Y-53165D01*
X93475Y-53191D01*
X93491Y-53214D01*
X93510Y-53233D01*
X93533Y-53249D01*
X93559Y-53259D01*
X93586Y-53265D01*
X93680Y-53265D01*
X93715Y-53230D01*
X93715Y-56050D01*
X93340Y-56172D01*
X93340Y-52319D01*
X93328Y-52258D01*
X93304Y-52201D01*
X93270Y-52149D01*
X93226Y-52106D01*
X93175Y-52071D01*
X93118Y-52047D01*
X93058Y-52035D01*
X92996Y-52034D01*
X92935Y-52046D01*
X92878Y-52069D01*
X92826Y-52103D01*
X92782Y-52146D01*
X92747Y-52197D01*
X92723Y-52254D01*
X92710Y-52314D01*
X92709Y-52376D01*
X92720Y-52437D01*
X92740Y-52486D01*
X92725Y-52508D01*
X92715Y-52534D01*
X92710Y-52561D01*
X92710Y-52588D01*
X92710Y-53138D01*
X92715Y-53165D01*
X92725Y-53191D01*
X92741Y-53214D01*
X92760Y-53233D01*
X92783Y-53249D01*
X92809Y-53259D01*
X92836Y-53265D01*
X92863Y-53265D01*
X93213Y-53265D01*
X93240Y-53259D01*
X93266Y-53249D01*
X93289Y-53233D01*
X93308Y-53214D01*
X93324Y-53191D01*
X93334Y-53165D01*
X93340Y-53138D01*
X93340Y-53111D01*
X93340Y-52561D01*
X93334Y-52534D01*
X93324Y-52508D01*
X93309Y-52486D01*
X93325Y-52449D01*
X93339Y-52389D01*
X93340Y-52319D01*
X93340Y-56172D01*
X93255Y-56200D01*
X92725Y-56496D01*
X92444Y-56735D01*
X92444Y-56613D01*
X92444Y-56586D01*
X92444Y-54986D01*
X92438Y-54959D01*
X92428Y-54933D01*
X92412Y-54910D01*
X92393Y-54891D01*
X92370Y-54875D01*
X92344Y-54865D01*
X92317Y-54860D01*
X92290Y-54860D01*
X91215Y-54860D01*
X91215Y-52005D01*
X91215Y-51835D01*
X91215Y-51715D01*
X91215Y-51545D01*
X91180Y-51510D01*
X91063Y-51510D01*
X91036Y-51510D01*
X91009Y-51515D01*
X90983Y-51525D01*
X90960Y-51541D01*
X90941Y-51560D01*
X90925Y-51583D01*
X90915Y-51609D01*
X90910Y-51636D01*
X90910Y-51680D01*
X90945Y-51715D01*
X91215Y-51715D01*
X91215Y-51835D01*
X90945Y-51835D01*
X90910Y-51870D01*
X90910Y-51913D01*
X90915Y-51940D01*
X90925Y-51966D01*
X90941Y-51989D01*
X90960Y-52008D01*
X90983Y-52024D01*
X91009Y-52034D01*
X91036Y-52040D01*
X91063Y-52040D01*
X91180Y-52040D01*
X91215Y-52005D01*
X91215Y-54860D01*
X90321Y-54860D01*
X90294Y-54865D01*
X90269Y-54875D01*
X90246Y-54891D01*
X90226Y-54910D01*
X90211Y-54933D01*
X90201Y-54959D01*
X90195Y-54986D01*
X90195Y-55013D01*
X90195Y-56613D01*
X90201Y-56640D01*
X90211Y-56666D01*
X90226Y-56689D01*
X90246Y-56708D01*
X90269Y-56724D01*
X90294Y-56734D01*
X90321Y-56740D01*
X90349Y-56740D01*
X92317Y-56740D01*
X92344Y-56734D01*
X92370Y-56724D01*
X92393Y-56708D01*
X92412Y-56689D01*
X92428Y-56666D01*
X92438Y-56640D01*
X92444Y-56613D01*
X92444Y-56735D01*
X92263Y-56889D01*
X91886Y-57365D01*
X91608Y-57905D01*
X91441Y-58488D01*
X91390Y-59093D01*
X91458Y-59696D01*
X91641Y-60275D01*
X91934Y-60806D01*
X92324Y-61271D01*
X92797Y-61652D01*
X93335Y-61933D01*
X93917Y-62104D01*
X94521Y-62159D01*
X95125Y-62096D01*
X95705Y-61916D01*
X96238Y-61628D01*
X96706Y-61241D01*
X97090Y-60770D01*
X97375Y-60235D01*
X97550Y-59654D01*
X97609Y-59050D01*
X97609Y-64763D01*
X97596Y-64759D01*
X97579Y-64754D01*
X97578Y-64754D01*
X97577Y-64753D01*
X97560Y-64751D01*
X97542Y-64750D01*
X97540Y-64750D01*
X97540Y-64750D01*
X97540Y-64750D01*
X97540Y-64750D01*
X96620Y-64750D01*
X96602Y-64751D01*
X96585Y-64753D01*
X96584Y-64753D01*
X96583Y-64753D01*
X96566Y-64758D01*
X96549Y-64763D01*
X96548Y-64764D01*
X96547Y-64764D01*
X96532Y-64772D01*
X96516Y-64780D01*
X96515Y-64781D01*
X96514Y-64781D01*
X96501Y-64792D01*
X96487Y-64803D01*
X96486Y-64805D01*
X96486Y-64805D01*
X96486Y-64805D01*
X96485Y-64805D01*
X96261Y-65030D01*
X95427Y-65030D01*
X95427Y-64565D01*
X95411Y-64485D01*
X95379Y-64408D01*
X95334Y-64340D01*
X95276Y-64281D01*
X95207Y-64235D01*
X95131Y-64203D01*
X95051Y-64187D01*
X94968Y-64186D01*
X94887Y-64202D01*
X94811Y-64233D01*
X94742Y-64278D01*
X94683Y-64335D01*
X94637Y-64403D01*
X94604Y-64479D01*
X94587Y-64560D01*
X94586Y-64642D01*
X94601Y-64723D01*
X94631Y-64800D01*
X94676Y-64869D01*
X94733Y-64928D01*
X94801Y-64975D01*
X94876Y-65008D01*
X94957Y-65026D01*
X95039Y-65027D01*
X95120Y-65013D01*
X95197Y-64983D01*
X95266Y-64939D01*
X95326Y-64882D01*
X95374Y-64815D01*
X95407Y-64740D01*
X95425Y-64660D01*
X95427Y-64565D01*
X95427Y-65030D01*
X91818Y-65030D01*
X91494Y-64705D01*
X91480Y-64694D01*
X91467Y-64683D01*
X91466Y-64682D01*
X91465Y-64682D01*
X91450Y-64673D01*
X91434Y-64665D01*
X91433Y-64665D01*
X91433Y-64664D01*
X91416Y-64659D01*
X91399Y-64654D01*
X91398Y-64654D01*
X91397Y-64653D01*
X91380Y-64651D01*
X91362Y-64650D01*
X91360Y-64650D01*
X91360Y-64650D01*
X91360Y-64650D01*
X91360Y-64650D01*
X90998Y-64650D01*
X90972Y-64624D01*
X90974Y-64619D01*
X90975Y-64549D01*
X90963Y-64488D01*
X90939Y-64431D01*
X90905Y-64379D01*
X90861Y-64336D01*
X90810Y-64301D01*
X90753Y-64277D01*
X90693Y-64265D01*
X90631Y-64264D01*
X90570Y-64276D01*
X90513Y-64299D01*
X90461Y-64333D01*
X90417Y-64376D01*
X90382Y-64427D01*
X90358Y-64484D01*
X90346Y-64538D01*
X90110Y-64301D01*
X90110Y-63699D01*
X90140Y-63670D01*
X90173Y-63623D01*
X90196Y-63571D01*
X90209Y-63516D01*
X90210Y-63451D01*
X90198Y-63395D01*
X90177Y-63343D01*
X90145Y-63295D01*
X90140Y-63290D01*
X92900Y-63290D01*
X92917Y-63288D01*
X92934Y-63286D01*
X92935Y-63286D01*
X92936Y-63286D01*
X92953Y-63281D01*
X92970Y-63276D01*
X92971Y-63275D01*
X92972Y-63275D01*
X92987Y-63267D01*
X93003Y-63259D01*
X93004Y-63258D01*
X93005Y-63258D01*
X93018Y-63247D01*
X93032Y-63236D01*
X93033Y-63234D01*
X93033Y-63234D01*
X93033Y-63234D01*
X93034Y-63234D01*
X93187Y-63081D01*
X93173Y-63145D01*
X93172Y-63228D01*
X93187Y-63309D01*
X93217Y-63385D01*
X93262Y-63455D01*
X93319Y-63514D01*
X93387Y-63561D01*
X93462Y-63594D01*
X93542Y-63611D01*
X93625Y-63613D01*
X93706Y-63599D01*
X93783Y-63569D01*
X93852Y-63525D01*
X93912Y-63468D01*
X93959Y-63401D01*
X93993Y-63326D01*
X94011Y-63245D01*
X94012Y-63151D01*
X93996Y-63070D01*
X93965Y-62994D01*
X93919Y-62926D01*
X93861Y-62867D01*
X93793Y-62821D01*
X93717Y-62789D01*
X93666Y-62779D01*
X93700Y-62731D01*
X93725Y-62674D01*
X93739Y-62614D01*
X93740Y-62544D01*
X93728Y-62483D01*
X93704Y-62426D01*
X93670Y-62374D01*
X93626Y-62331D01*
X93575Y-62296D01*
X93518Y-62272D01*
X93458Y-62260D01*
X93396Y-62259D01*
X93335Y-62271D01*
X93278Y-62294D01*
X93226Y-62328D01*
X93182Y-62371D01*
X93147Y-62422D01*
X93123Y-62479D01*
X93110Y-62539D01*
X93109Y-62601D01*
X93112Y-62618D01*
X92821Y-62910D01*
X88571Y-62910D01*
X88565Y-62899D01*
X88521Y-62856D01*
X88475Y-62824D01*
X88475Y-52889D01*
X88463Y-52828D01*
X88439Y-52771D01*
X88405Y-52719D01*
X88361Y-52676D01*
X88310Y-52641D01*
X88253Y-52617D01*
X88193Y-52605D01*
X88131Y-52604D01*
X88070Y-52616D01*
X88013Y-52639D01*
X87961Y-52673D01*
X87917Y-52716D01*
X87882Y-52767D01*
X87858Y-52824D01*
X87845Y-52884D01*
X87844Y-52946D01*
X87855Y-53007D01*
X87878Y-53064D01*
X87911Y-53116D01*
X87954Y-53161D01*
X87968Y-53170D01*
X87961Y-54046D01*
X87951Y-54053D01*
X87907Y-54096D01*
X87872Y-54147D01*
X87848Y-54204D01*
X87835Y-54264D01*
X87834Y-54326D01*
X87845Y-54387D01*
X87868Y-54444D01*
X87901Y-54496D01*
X87944Y-54541D01*
X87995Y-54576D01*
X88052Y-54601D01*
X88112Y-54614D01*
X88174Y-54615D01*
X88235Y-54604D01*
X88292Y-54582D01*
X88344Y-54549D01*
X88389Y-54506D01*
X88425Y-54456D01*
X88450Y-54399D01*
X88464Y-54339D01*
X88465Y-54269D01*
X88453Y-54208D01*
X88429Y-54151D01*
X88395Y-54099D01*
X88351Y-54056D01*
X88341Y-54049D01*
X88348Y-53173D01*
X88354Y-53169D01*
X88399Y-53126D01*
X88435Y-53076D01*
X88460Y-53019D01*
X88474Y-52959D01*
X88475Y-52889D01*
X88475Y-62824D01*
X88470Y-62821D01*
X88413Y-62797D01*
X88353Y-62785D01*
X88291Y-62784D01*
X88230Y-62796D01*
X88173Y-62819D01*
X88121Y-62853D01*
X88077Y-62896D01*
X88042Y-62947D01*
X88018Y-63004D01*
X88005Y-63064D01*
X88004Y-63126D01*
X88015Y-63187D01*
X88038Y-63244D01*
X88071Y-63296D01*
X88114Y-63341D01*
X88165Y-63376D01*
X88222Y-63401D01*
X88282Y-63414D01*
X88344Y-63415D01*
X88405Y-63404D01*
X88462Y-63382D01*
X88514Y-63349D01*
X88559Y-63306D01*
X88571Y-63290D01*
X89699Y-63290D01*
X89696Y-63292D01*
X89664Y-63339D01*
X89642Y-63391D01*
X89630Y-63447D01*
X89629Y-63504D01*
X89639Y-63560D01*
X89660Y-63613D01*
X89691Y-63661D01*
X89730Y-63700D01*
X89730Y-63915D01*
X89711Y-63915D01*
X89261Y-63915D01*
X89234Y-63920D01*
X89208Y-63930D01*
X89186Y-63945D01*
X89150Y-63921D01*
X89093Y-63897D01*
X89033Y-63885D01*
X88971Y-63884D01*
X88910Y-63896D01*
X88853Y-63919D01*
X88801Y-63953D01*
X88757Y-63996D01*
X88734Y-64030D01*
X87471Y-64030D01*
X87465Y-64019D01*
X87421Y-63976D01*
X87370Y-63941D01*
X87313Y-63917D01*
X87253Y-63905D01*
X87191Y-63904D01*
X87130Y-63916D01*
X87073Y-63939D01*
X87021Y-63973D01*
X86977Y-64016D01*
X86942Y-64067D01*
X86918Y-64124D01*
X86905Y-64184D01*
X86904Y-64246D01*
X86915Y-64307D01*
X86938Y-64364D01*
X86971Y-64416D01*
X87014Y-64461D01*
X87065Y-64496D01*
X87122Y-64521D01*
X87182Y-64534D01*
X87244Y-64535D01*
X87305Y-64524D01*
X87362Y-64502D01*
X87414Y-64469D01*
X87459Y-64426D01*
X87471Y-64410D01*
X88764Y-64410D01*
X88794Y-64441D01*
X88845Y-64476D01*
X88902Y-64501D01*
X88962Y-64514D01*
X89024Y-64515D01*
X89085Y-64504D01*
X89142Y-64482D01*
X89194Y-64449D01*
X89213Y-64431D01*
X89234Y-64439D01*
X89261Y-64445D01*
X89288Y-64445D01*
X89738Y-64445D01*
X89741Y-64444D01*
X89743Y-64450D01*
X89744Y-64451D01*
X89744Y-64452D01*
X89752Y-64467D01*
X89760Y-64483D01*
X89761Y-64484D01*
X89761Y-64485D01*
X89772Y-64498D01*
X89783Y-64512D01*
X89785Y-64513D01*
X89785Y-64513D01*
X89785Y-64513D01*
X89785Y-64514D01*
X91585Y-66314D01*
X91599Y-66325D01*
X91612Y-66336D01*
X91613Y-66337D01*
X91614Y-66337D01*
X91629Y-66346D01*
X91645Y-66354D01*
X91646Y-66354D01*
X91646Y-66355D01*
X91663Y-66360D01*
X91680Y-66365D01*
X91681Y-66365D01*
X91682Y-66366D01*
X91699Y-66368D01*
X91717Y-66369D01*
X91719Y-66369D01*
X91719Y-66369D01*
X91719Y-66369D01*
X91720Y-66370D01*
X95421Y-66370D01*
X96125Y-67074D01*
X96139Y-67085D01*
X96152Y-67096D01*
X96153Y-67097D01*
X96154Y-67097D01*
X96169Y-67106D01*
X96185Y-67114D01*
X96186Y-67114D01*
X96186Y-67115D01*
X96203Y-67120D01*
X96220Y-67125D01*
X96221Y-67125D01*
X96222Y-67126D01*
X96239Y-67128D01*
X96257Y-67129D01*
X96259Y-67129D01*
X96259Y-67129D01*
X96259Y-67129D01*
X96260Y-67130D01*
X96714Y-67130D01*
X96950Y-67365D01*
X97185Y-67130D01*
X97460Y-67130D01*
X97477Y-67128D01*
X97494Y-67126D01*
X97495Y-67126D01*
X97496Y-67126D01*
X97513Y-67121D01*
X97530Y-67116D01*
X97531Y-67115D01*
X97532Y-67115D01*
X97547Y-67107D01*
X97563Y-67099D01*
X97564Y-67098D01*
X97565Y-67098D01*
X97578Y-67087D01*
X97592Y-67076D01*
X97593Y-67074D01*
X97593Y-67074D01*
X97593Y-67074D01*
X97594Y-67074D01*
X97802Y-66865D01*
X97813Y-66870D01*
X97897Y-66889D01*
X97983Y-66890D01*
X98068Y-66875D01*
X98149Y-66844D01*
X98222Y-66798D01*
X98284Y-66738D01*
X98334Y-66668D01*
X98369Y-66589D01*
X98388Y-66505D01*
X98390Y-66406D01*
X98390Y-67406D01*
X98373Y-67322D01*
X98340Y-67242D01*
X98292Y-67170D01*
X98231Y-67109D01*
X98160Y-67061D01*
X98080Y-67027D01*
X97996Y-67010D01*
X97909Y-67009D01*
X97825Y-67025D01*
X97745Y-67058D01*
X97672Y-67105D01*
X97611Y-67165D01*
X97562Y-67237D01*
X97528Y-67316D01*
X97510Y-67400D01*
X97509Y-67486D01*
X97524Y-67571D01*
X97556Y-67652D01*
X97603Y-67724D01*
X97663Y-67786D01*
X97734Y-67835D01*
X97813Y-67870D01*
X97897Y-67889D01*
X97983Y-67890D01*
X98068Y-67875D01*
X98149Y-67844D01*
X98222Y-67798D01*
X98284Y-67738D01*
X98334Y-67668D01*
X98369Y-67589D01*
X98388Y-67505D01*
X98390Y-67406D01*
X98390Y-68978D01*
X98357Y-68995D01*
X97390Y-69265D01*
X97390Y-67407D01*
X97373Y-67322D01*
X97340Y-67242D01*
X97339Y-67241D01*
X97277Y-67207D01*
X97034Y-67450D01*
X97277Y-67692D01*
X97339Y-67658D01*
X97372Y-67578D01*
X97389Y-67493D01*
X97390Y-67407D01*
X97390Y-69265D01*
X97192Y-69320D01*
X97192Y-67777D01*
X96950Y-67534D01*
X96865Y-67619D01*
X96865Y-67450D01*
X96622Y-67207D01*
X96560Y-67241D01*
X96527Y-67321D01*
X96510Y-67406D01*
X96509Y-67492D01*
X96526Y-67577D01*
X96559Y-67657D01*
X96560Y-67658D01*
X96622Y-67692D01*
X96865Y-67450D01*
X96865Y-67619D01*
X96707Y-67777D01*
X96741Y-67839D01*
X96821Y-67872D01*
X96906Y-67889D01*
X96992Y-67890D01*
X97077Y-67873D01*
X97157Y-67840D01*
X97158Y-67839D01*
X97192Y-67777D01*
X97192Y-69320D01*
X96352Y-69555D01*
X95300Y-69635D01*
X95300Y-67912D01*
X95260Y-67711D01*
X95182Y-67522D01*
X95069Y-67352D01*
X94924Y-67206D01*
X94755Y-67092D01*
X94566Y-67013D01*
X94365Y-66971D01*
X94161Y-66970D01*
X93960Y-67008D01*
X93770Y-67085D01*
X93598Y-67197D01*
X93452Y-67340D01*
X93336Y-67509D01*
X93256Y-67697D01*
X93213Y-67898D01*
X93210Y-68102D01*
X93247Y-68304D01*
X93323Y-68494D01*
X93434Y-68666D01*
X93576Y-68813D01*
X93744Y-68930D01*
X93932Y-69012D01*
X94132Y-69056D01*
X94336Y-69061D01*
X94538Y-69025D01*
X94729Y-68951D01*
X94902Y-68841D01*
X95050Y-68700D01*
X95168Y-68533D01*
X95251Y-68346D01*
X95296Y-68146D01*
X95300Y-67912D01*
X95300Y-69635D01*
X94276Y-69714D01*
X92209Y-69468D01*
X90229Y-68824D01*
X89865Y-68621D01*
X89865Y-64918D01*
X89865Y-64875D01*
X89865Y-64685D01*
X89865Y-64641D01*
X89859Y-64614D01*
X89849Y-64588D01*
X89833Y-64565D01*
X89814Y-64546D01*
X89791Y-64530D01*
X89765Y-64520D01*
X89738Y-64515D01*
X89711Y-64515D01*
X89595Y-64515D01*
X89560Y-64550D01*
X89560Y-64720D01*
X89830Y-64720D01*
X89865Y-64685D01*
X89865Y-64875D01*
X89830Y-64840D01*
X89560Y-64840D01*
X89560Y-65010D01*
X89595Y-65045D01*
X89711Y-65045D01*
X89738Y-65045D01*
X89765Y-65039D01*
X89791Y-65029D01*
X89814Y-65013D01*
X89833Y-64994D01*
X89849Y-64971D01*
X89859Y-64945D01*
X89865Y-64918D01*
X89865Y-68621D01*
X89440Y-68383D01*
X89440Y-65010D01*
X89440Y-64840D01*
X89440Y-64720D01*
X89440Y-64550D01*
X89405Y-64515D01*
X89288Y-64515D01*
X89261Y-64515D01*
X89234Y-64520D01*
X89208Y-64530D01*
X89185Y-64546D01*
X89166Y-64565D01*
X89150Y-64588D01*
X89140Y-64614D01*
X89135Y-64641D01*
X89135Y-64685D01*
X89170Y-64720D01*
X89440Y-64720D01*
X89440Y-64840D01*
X89170Y-64840D01*
X89135Y-64875D01*
X89135Y-64918D01*
X89140Y-64945D01*
X89150Y-64971D01*
X89166Y-64994D01*
X89185Y-65013D01*
X89208Y-65029D01*
X89234Y-65039D01*
X89261Y-65045D01*
X89288Y-65045D01*
X89405Y-65045D01*
X89440Y-65010D01*
X89440Y-68383D01*
X88412Y-67809D01*
X86826Y-66459D01*
X86280Y-65770D01*
X86280Y-58947D01*
X86240Y-58746D01*
X86162Y-58557D01*
X86049Y-58387D01*
X85904Y-58241D01*
X85735Y-58127D01*
X85546Y-58047D01*
X85345Y-58006D01*
X85141Y-58005D01*
X84940Y-58043D01*
X84750Y-58120D01*
X84578Y-58232D01*
X84432Y-58375D01*
X84316Y-58544D01*
X84236Y-58732D01*
X84193Y-58933D01*
X84190Y-59137D01*
X84227Y-59339D01*
X84303Y-59529D01*
X84414Y-59701D01*
X84556Y-59848D01*
X84724Y-59965D01*
X84912Y-60047D01*
X85112Y-60091D01*
X85316Y-60095D01*
X85518Y-60060D01*
X85709Y-59986D01*
X85882Y-59876D01*
X86030Y-59735D01*
X86148Y-59568D01*
X86231Y-59381D01*
X86276Y-59181D01*
X86280Y-58947D01*
X86280Y-65770D01*
X85533Y-64828D01*
X84581Y-62976D01*
X84008Y-60975D01*
X83833Y-58901D01*
X84066Y-56832D01*
X84695Y-54847D01*
X85698Y-53023D01*
X87036Y-51428D01*
X88659Y-50124D01*
X90504Y-49159D01*
X92501Y-48571D01*
X94574Y-48383D01*
X96644Y-48600D01*
X98633Y-49216D01*
X100464Y-50206D01*
X102069Y-51533D01*
X103384Y-53146D01*
X104362Y-54985D01*
X104963Y-56978D01*
X105167Y-59050D01*
X105167Y-59050D01*
G37*
G54D26*
X105167Y-59050D02*
X105162Y-59347D01*
X104902Y-61413D01*
X104244Y-63388D01*
X103290Y-65069D01*
X103290Y-59511D01*
X103290Y-58511D01*
X103290Y-57511D01*
X103273Y-57427D01*
X103240Y-57347D01*
X103192Y-57275D01*
X103192Y-57275D01*
X103192Y-54986D01*
X103192Y-54958D01*
X103187Y-54931D01*
X103176Y-54905D01*
X103161Y-54883D01*
X103141Y-54863D01*
X102801Y-54522D01*
X102815Y-54496D01*
X102816Y-54494D01*
X102817Y-54492D01*
X102827Y-54458D01*
X102838Y-54423D01*
X102838Y-54421D01*
X102839Y-54419D01*
X102843Y-54384D01*
X102847Y-54348D01*
X102847Y-54344D01*
X102847Y-54344D01*
X102847Y-54344D01*
X102847Y-54342D01*
X102847Y-53729D01*
X102885Y-53675D01*
X102924Y-53587D01*
X102945Y-53493D01*
X102947Y-53384D01*
X102928Y-53289D01*
X102891Y-53200D01*
X102838Y-53120D01*
X102770Y-53052D01*
X102691Y-52998D01*
X102602Y-52961D01*
X102508Y-52942D01*
X102412Y-52941D01*
X102384Y-52947D01*
X102384Y-52738D01*
X102384Y-52711D01*
X102379Y-52684D01*
X102369Y-52658D01*
X102353Y-52635D01*
X102334Y-52616D01*
X102163Y-52445D01*
X102114Y-52445D01*
X102029Y-52530D01*
X102029Y-52360D01*
X102029Y-52311D01*
X101858Y-52140D01*
X101839Y-52121D01*
X101816Y-52105D01*
X101790Y-52095D01*
X101763Y-52090D01*
X101736Y-52090D01*
X101709Y-52095D01*
X101683Y-52105D01*
X101660Y-52121D01*
X101532Y-52249D01*
X101532Y-51969D01*
X101514Y-51875D01*
X101477Y-51786D01*
X101424Y-51706D01*
X101356Y-51638D01*
X101277Y-51584D01*
X101188Y-51547D01*
X101094Y-51528D01*
X100998Y-51527D01*
X100903Y-51545D01*
X100814Y-51581D01*
X100748Y-51625D01*
X100728Y-51606D01*
X101024Y-50973D01*
X101030Y-50946D01*
X101031Y-50918D01*
X101027Y-50891D01*
X101018Y-50865D01*
X101003Y-50841D01*
X100985Y-50821D01*
X100962Y-50805D01*
X100937Y-50793D01*
X100028Y-50369D01*
X100001Y-50362D01*
X99973Y-50361D01*
X99946Y-50365D01*
X99920Y-50375D01*
X99896Y-50389D01*
X99876Y-50408D01*
X99860Y-50430D01*
X99848Y-50455D01*
X99116Y-52025D01*
X99110Y-52051D01*
X99108Y-52079D01*
X99113Y-52106D01*
X99122Y-52132D01*
X99136Y-52156D01*
X99155Y-52176D01*
X99177Y-52192D01*
X99202Y-52204D01*
X100112Y-52628D01*
X100139Y-52635D01*
X100166Y-52636D01*
X100194Y-52632D01*
X100220Y-52622D01*
X100243Y-52608D01*
X100264Y-52590D01*
X100280Y-52567D01*
X100292Y-52542D01*
X100380Y-52353D01*
X100393Y-52364D01*
X100395Y-52365D01*
X100397Y-52366D01*
X100428Y-52383D01*
X100460Y-52401D01*
X100462Y-52401D01*
X100464Y-52402D01*
X100498Y-52413D01*
X100533Y-52424D01*
X100535Y-52424D01*
X100537Y-52425D01*
X100572Y-52428D01*
X100608Y-52432D01*
X100612Y-52432D01*
X100612Y-52432D01*
X100612Y-52432D01*
X100614Y-52432D01*
X100781Y-52432D01*
X100802Y-52447D01*
X100890Y-52486D01*
X100984Y-52506D01*
X101080Y-52508D01*
X101175Y-52492D01*
X101264Y-52457D01*
X101346Y-52405D01*
X101415Y-52339D01*
X101471Y-52261D01*
X101510Y-52173D01*
X101531Y-52079D01*
X101532Y-51969D01*
X101532Y-52249D01*
X101470Y-52311D01*
X101470Y-52360D01*
X101750Y-52640D01*
X102029Y-52360D01*
X102029Y-52530D01*
X101834Y-52725D01*
X102114Y-53004D01*
X102163Y-53004D01*
X102353Y-52814D01*
X102369Y-52791D01*
X102379Y-52765D01*
X102384Y-52738D01*
X102384Y-52947D01*
X102318Y-52959D01*
X102228Y-52995D01*
X102148Y-53048D01*
X102079Y-53115D01*
X102029Y-53189D01*
X102029Y-53138D01*
X102029Y-53089D01*
X101750Y-52809D01*
X101665Y-52894D01*
X101665Y-52725D01*
X101385Y-52445D01*
X101336Y-52445D01*
X101146Y-52635D01*
X101130Y-52658D01*
X101120Y-52684D01*
X101115Y-52711D01*
X101115Y-52738D01*
X101120Y-52765D01*
X101130Y-52791D01*
X101146Y-52814D01*
X101165Y-52833D01*
X101336Y-53004D01*
X101385Y-53004D01*
X101665Y-52725D01*
X101665Y-52894D01*
X101470Y-53089D01*
X101470Y-53138D01*
X101641Y-53309D01*
X101660Y-53328D01*
X101683Y-53344D01*
X101709Y-53354D01*
X101736Y-53359D01*
X101763Y-53359D01*
X101790Y-53354D01*
X101816Y-53344D01*
X101839Y-53328D01*
X102029Y-53138D01*
X102029Y-53189D01*
X102025Y-53194D01*
X101987Y-53283D01*
X101967Y-53377D01*
X101966Y-53473D01*
X101983Y-53567D01*
X102019Y-53657D01*
X102067Y-53731D01*
X102067Y-53788D01*
X101916Y-53638D01*
X101894Y-53623D01*
X101868Y-53612D01*
X101841Y-53607D01*
X101813Y-53607D01*
X101786Y-53612D01*
X101761Y-53623D01*
X101738Y-53638D01*
X101718Y-53658D01*
X101009Y-54368D01*
X100993Y-54391D01*
X100983Y-54416D01*
X100977Y-54443D01*
X100977Y-54471D01*
X100983Y-54498D01*
X100993Y-54523D01*
X101009Y-54546D01*
X101028Y-54566D01*
X102253Y-55790D01*
X102276Y-55806D01*
X102301Y-55816D01*
X102328Y-55822D01*
X102356Y-55822D01*
X102383Y-55816D01*
X102408Y-55806D01*
X102431Y-55790D01*
X102451Y-55771D01*
X103161Y-55061D01*
X103176Y-55038D01*
X103187Y-55013D01*
X103192Y-54986D01*
X103192Y-57275D01*
X103131Y-57214D01*
X103060Y-57166D01*
X102980Y-57132D01*
X102896Y-57115D01*
X102809Y-57114D01*
X102725Y-57130D01*
X102645Y-57163D01*
X102572Y-57210D01*
X102511Y-57270D01*
X102462Y-57342D01*
X102428Y-57421D01*
X102410Y-57505D01*
X102409Y-57592D01*
X102424Y-57676D01*
X102456Y-57757D01*
X102503Y-57829D01*
X102563Y-57891D01*
X102634Y-57941D01*
X102713Y-57975D01*
X102797Y-57994D01*
X102883Y-57995D01*
X102968Y-57980D01*
X103049Y-57949D01*
X103122Y-57903D01*
X103184Y-57844D01*
X103234Y-57773D01*
X103269Y-57694D01*
X103288Y-57610D01*
X103290Y-57511D01*
X103290Y-58511D01*
X103273Y-58427D01*
X103240Y-58347D01*
X103192Y-58275D01*
X103131Y-58214D01*
X103060Y-58166D01*
X102980Y-58132D01*
X102896Y-58115D01*
X102809Y-58114D01*
X102725Y-58130D01*
X102645Y-58163D01*
X102572Y-58210D01*
X102511Y-58270D01*
X102462Y-58342D01*
X102428Y-58421D01*
X102421Y-58456D01*
X102390Y-58301D01*
X102312Y-58112D01*
X102199Y-57942D01*
X102054Y-57796D01*
X101885Y-57682D01*
X101696Y-57603D01*
X101522Y-57567D01*
X101522Y-56656D01*
X101522Y-56628D01*
X101516Y-56601D01*
X101506Y-56576D01*
X101490Y-56553D01*
X101471Y-56533D01*
X100936Y-55998D01*
X100886Y-55998D01*
X100801Y-56083D01*
X100801Y-55913D01*
X100801Y-55863D01*
X100266Y-55328D01*
X100246Y-55309D01*
X100223Y-55293D01*
X100198Y-55283D01*
X100171Y-55277D01*
X100143Y-55277D01*
X100116Y-55283D01*
X100091Y-55293D01*
X100068Y-55309D01*
X99770Y-55606D01*
X99770Y-55656D01*
X100414Y-56300D01*
X100801Y-55913D01*
X100801Y-56083D01*
X100499Y-56385D01*
X101143Y-57029D01*
X101193Y-57029D01*
X101490Y-56731D01*
X101506Y-56708D01*
X101516Y-56683D01*
X101522Y-56656D01*
X101522Y-57567D01*
X101495Y-57561D01*
X101291Y-57560D01*
X101090Y-57598D01*
X101059Y-57611D01*
X101059Y-57163D01*
X101059Y-57114D01*
X100414Y-56469D01*
X100330Y-56554D01*
X100330Y-56385D01*
X99685Y-55740D01*
X99636Y-55740D01*
X99338Y-56038D01*
X99323Y-56061D01*
X99312Y-56086D01*
X99307Y-56113D01*
X99307Y-56141D01*
X99312Y-56168D01*
X99323Y-56194D01*
X99338Y-56216D01*
X99358Y-56236D01*
X99893Y-56771D01*
X99943Y-56771D01*
X100330Y-56385D01*
X100330Y-56554D01*
X100028Y-56856D01*
X100028Y-56906D01*
X100563Y-57441D01*
X100583Y-57461D01*
X100605Y-57476D01*
X100631Y-57487D01*
X100658Y-57492D01*
X100686Y-57492D01*
X100713Y-57487D01*
X100738Y-57476D01*
X100761Y-57461D01*
X101059Y-57163D01*
X101059Y-57611D01*
X100900Y-57675D01*
X100728Y-57787D01*
X100582Y-57930D01*
X100466Y-58099D01*
X100386Y-58287D01*
X100343Y-58488D01*
X100340Y-58692D01*
X100377Y-58894D01*
X100453Y-59084D01*
X100564Y-59256D01*
X100706Y-59403D01*
X100874Y-59520D01*
X101062Y-59602D01*
X101262Y-59646D01*
X101466Y-59651D01*
X101668Y-59615D01*
X101859Y-59541D01*
X102032Y-59431D01*
X102180Y-59290D01*
X102298Y-59123D01*
X102381Y-58936D01*
X102426Y-58736D01*
X102427Y-58683D01*
X102456Y-58757D01*
X102503Y-58829D01*
X102563Y-58891D01*
X102634Y-58941D01*
X102713Y-58975D01*
X102797Y-58994D01*
X102883Y-58995D01*
X102968Y-58980D01*
X103049Y-58949D01*
X103122Y-58903D01*
X103184Y-58844D01*
X103234Y-58773D01*
X103269Y-58694D01*
X103288Y-58610D01*
X103290Y-58511D01*
X103290Y-59511D01*
X103273Y-59427D01*
X103240Y-59347D01*
X103192Y-59275D01*
X103131Y-59214D01*
X103060Y-59166D01*
X102980Y-59132D01*
X102896Y-59115D01*
X102809Y-59114D01*
X102725Y-59130D01*
X102645Y-59163D01*
X102572Y-59210D01*
X102511Y-59270D01*
X102462Y-59342D01*
X102428Y-59421D01*
X102410Y-59505D01*
X102409Y-59592D01*
X102424Y-59676D01*
X102456Y-59757D01*
X102503Y-59829D01*
X102563Y-59891D01*
X102634Y-59941D01*
X102713Y-59975D01*
X102797Y-59994D01*
X102883Y-59995D01*
X102968Y-59980D01*
X103049Y-59949D01*
X103122Y-59903D01*
X103184Y-59844D01*
X103234Y-59773D01*
X103269Y-59694D01*
X103288Y-59610D01*
X103290Y-59511D01*
X103290Y-65069D01*
X103290Y-65069D01*
X103290Y-60868D01*
X103290Y-60650D01*
X103290Y-60460D01*
X103290Y-60241D01*
X103284Y-60214D01*
X103274Y-60188D01*
X103258Y-60165D01*
X103239Y-60146D01*
X103216Y-60131D01*
X103190Y-60120D01*
X103163Y-60115D01*
X103136Y-60115D01*
X102945Y-60115D01*
X102910Y-60150D01*
X102910Y-60495D01*
X103255Y-60495D01*
X103290Y-60460D01*
X103290Y-60650D01*
X103255Y-60615D01*
X102910Y-60615D01*
X102910Y-60960D01*
X102945Y-60995D01*
X103136Y-60995D01*
X103163Y-60995D01*
X103190Y-60989D01*
X103216Y-60979D01*
X103239Y-60963D01*
X103258Y-60944D01*
X103274Y-60921D01*
X103284Y-60895D01*
X103290Y-60868D01*
X103290Y-65069D01*
X103216Y-65198D01*
X102790Y-65693D01*
X102790Y-60960D01*
X102790Y-60615D01*
X102790Y-60495D01*
X102790Y-60150D01*
X102755Y-60115D01*
X102563Y-60115D01*
X102536Y-60115D01*
X102509Y-60120D01*
X102483Y-60131D01*
X102460Y-60146D01*
X102441Y-60165D01*
X102425Y-60188D01*
X102415Y-60214D01*
X102410Y-60241D01*
X102410Y-60460D01*
X102445Y-60495D01*
X102790Y-60495D01*
X102790Y-60615D01*
X102445Y-60615D01*
X102410Y-60650D01*
X102410Y-60868D01*
X102415Y-60895D01*
X102425Y-60921D01*
X102441Y-60944D01*
X102460Y-60963D01*
X102483Y-60979D01*
X102509Y-60989D01*
X102536Y-60995D01*
X102563Y-60995D01*
X102755Y-60995D01*
X102790Y-60960D01*
X102790Y-65693D01*
X102700Y-65797D01*
X102700Y-62816D01*
X102683Y-62732D01*
X102650Y-62652D01*
X102602Y-62580D01*
X102541Y-62519D01*
X102470Y-62471D01*
X102390Y-62437D01*
X102306Y-62420D01*
X102219Y-62419D01*
X102135Y-62435D01*
X102055Y-62468D01*
X101982Y-62515D01*
X101921Y-62575D01*
X101872Y-62647D01*
X101838Y-62726D01*
X101820Y-62810D01*
X101819Y-62896D01*
X101834Y-62981D01*
X101866Y-63062D01*
X101913Y-63134D01*
X101973Y-63196D01*
X102044Y-63245D01*
X102123Y-63280D01*
X102207Y-63299D01*
X102293Y-63300D01*
X102378Y-63285D01*
X102459Y-63254D01*
X102532Y-63208D01*
X102594Y-63148D01*
X102644Y-63078D01*
X102679Y-62999D01*
X102698Y-62915D01*
X102700Y-62816D01*
X102700Y-65797D01*
X102700Y-65797D01*
X102700Y-64173D01*
X102700Y-64146D01*
X102700Y-63546D01*
X102694Y-63519D01*
X102684Y-63493D01*
X102668Y-63470D01*
X102649Y-63451D01*
X102626Y-63435D01*
X102600Y-63425D01*
X102573Y-63420D01*
X102546Y-63420D01*
X101946Y-63420D01*
X101919Y-63425D01*
X101893Y-63435D01*
X101870Y-63451D01*
X101851Y-63470D01*
X101835Y-63493D01*
X101825Y-63519D01*
X101820Y-63546D01*
X101820Y-63573D01*
X101820Y-64173D01*
X101825Y-64200D01*
X101835Y-64226D01*
X101851Y-64249D01*
X101870Y-64268D01*
X101893Y-64284D01*
X101919Y-64294D01*
X101946Y-64300D01*
X101973Y-64300D01*
X102573Y-64300D01*
X102600Y-64294D01*
X102626Y-64284D01*
X102649Y-64268D01*
X102668Y-64249D01*
X102684Y-64226D01*
X102694Y-64200D01*
X102700Y-64173D01*
X102700Y-65797D01*
X101856Y-66774D01*
X100215Y-68056D01*
X99415Y-68460D01*
X99415Y-61688D01*
X99415Y-61661D01*
X99415Y-61545D01*
X99415Y-61355D01*
X99415Y-61238D01*
X99415Y-61211D01*
X99409Y-61184D01*
X99399Y-61158D01*
X99383Y-61135D01*
X99364Y-61116D01*
X99341Y-61100D01*
X99315Y-61090D01*
X99288Y-61085D01*
X99245Y-61085D01*
X99210Y-61120D01*
X99210Y-61390D01*
X99380Y-61390D01*
X99415Y-61355D01*
X99415Y-61545D01*
X99380Y-61510D01*
X99210Y-61510D01*
X99210Y-61780D01*
X99245Y-61815D01*
X99288Y-61815D01*
X99315Y-61809D01*
X99341Y-61799D01*
X99364Y-61783D01*
X99383Y-61764D01*
X99399Y-61741D01*
X99409Y-61715D01*
X99415Y-61688D01*
X99415Y-68460D01*
X99090Y-68625D01*
X99090Y-61780D01*
X99090Y-61510D01*
X99090Y-61390D01*
X99090Y-61120D01*
X99055Y-61085D01*
X99011Y-61085D01*
X98984Y-61090D01*
X98958Y-61100D01*
X98935Y-61116D01*
X98916Y-61135D01*
X98900Y-61158D01*
X98891Y-61182D01*
X98891Y-49920D01*
X98886Y-49893D01*
X98877Y-49867D01*
X98863Y-49843D01*
X98844Y-49823D01*
X98822Y-49807D01*
X98440Y-49629D01*
X98394Y-49646D01*
X98285Y-49879D01*
X98285Y-49595D01*
X98268Y-49548D01*
X97887Y-49371D01*
X97860Y-49364D01*
X97833Y-49363D01*
X97805Y-49367D01*
X97779Y-49377D01*
X97756Y-49391D01*
X97735Y-49409D01*
X97719Y-49432D01*
X97707Y-49457D01*
X97387Y-50143D01*
X97404Y-50189D01*
X97900Y-50421D01*
X98285Y-49595D01*
X98285Y-49879D01*
X98009Y-50471D01*
X98505Y-50703D01*
X98551Y-50686D01*
X98871Y-49999D01*
X98883Y-49974D01*
X98889Y-49948D01*
X98891Y-49920D01*
X98891Y-61182D01*
X98890Y-61184D01*
X98885Y-61211D01*
X98885Y-61238D01*
X98885Y-61355D01*
X98920Y-61390D01*
X99090Y-61390D01*
X99090Y-61510D01*
X98920Y-61510D01*
X98885Y-61545D01*
X98885Y-61661D01*
X98885Y-61688D01*
X98890Y-61715D01*
X98900Y-61741D01*
X98916Y-61764D01*
X98935Y-61783D01*
X98958Y-61799D01*
X98984Y-61809D01*
X99011Y-61815D01*
X99055Y-61815D01*
X99090Y-61780D01*
X99090Y-68625D01*
X98815Y-68764D01*
X98815Y-61688D01*
X98815Y-61661D01*
X98815Y-61211D01*
X98809Y-61184D01*
X98799Y-61158D01*
X98783Y-61135D01*
X98764Y-61116D01*
X98741Y-61100D01*
X98729Y-61095D01*
X98729Y-56613D01*
X98729Y-56586D01*
X98729Y-54986D01*
X98723Y-54959D01*
X98713Y-54933D01*
X98698Y-54910D01*
X98678Y-54891D01*
X98655Y-54875D01*
X98630Y-54865D01*
X98603Y-54860D01*
X98575Y-54860D01*
X98471Y-54860D01*
X98471Y-50858D01*
X98454Y-50811D01*
X97958Y-50580D01*
X97849Y-50813D01*
X97849Y-50529D01*
X97354Y-50298D01*
X97307Y-50315D01*
X96987Y-51001D01*
X96975Y-51026D01*
X96969Y-51053D01*
X96968Y-51081D01*
X96972Y-51108D01*
X96981Y-51134D01*
X96996Y-51158D01*
X97014Y-51178D01*
X97037Y-51194D01*
X97418Y-51372D01*
X97464Y-51355D01*
X97849Y-50529D01*
X97849Y-50813D01*
X97573Y-51406D01*
X97590Y-51452D01*
X97971Y-51630D01*
X97998Y-51637D01*
X98026Y-51638D01*
X98053Y-51634D01*
X98079Y-51624D01*
X98103Y-51610D01*
X98123Y-51591D01*
X98139Y-51569D01*
X98151Y-51544D01*
X98471Y-50858D01*
X98471Y-54860D01*
X96815Y-54860D01*
X96815Y-51669D01*
X96803Y-51608D01*
X96779Y-51551D01*
X96745Y-51499D01*
X96701Y-51456D01*
X96650Y-51421D01*
X96593Y-51397D01*
X96533Y-51385D01*
X96471Y-51384D01*
X96410Y-51396D01*
X96353Y-51419D01*
X96301Y-51453D01*
X96257Y-51496D01*
X96248Y-51510D01*
X92151Y-51510D01*
X92145Y-51499D01*
X92101Y-51456D01*
X92050Y-51421D01*
X92034Y-51415D01*
X92879Y-51415D01*
X92895Y-51426D01*
X92952Y-51451D01*
X93012Y-51464D01*
X93074Y-51465D01*
X93135Y-51454D01*
X93192Y-51432D01*
X93244Y-51399D01*
X93289Y-51356D01*
X93325Y-51306D01*
X93350Y-51249D01*
X93364Y-51189D01*
X93365Y-51119D01*
X93353Y-51058D01*
X93329Y-51001D01*
X93295Y-50949D01*
X93251Y-50906D01*
X93200Y-50871D01*
X93143Y-50847D01*
X93083Y-50835D01*
X93021Y-50834D01*
X92960Y-50846D01*
X92903Y-50869D01*
X92851Y-50903D01*
X92819Y-50935D01*
X91579Y-50935D01*
X91566Y-50925D01*
X91540Y-50915D01*
X91513Y-50910D01*
X91486Y-50910D01*
X91045Y-50910D01*
X91025Y-50896D01*
X90968Y-50872D01*
X90946Y-50868D01*
X90965Y-50864D01*
X91022Y-50842D01*
X91074Y-50809D01*
X91119Y-50766D01*
X91131Y-50750D01*
X94055Y-50750D01*
X94094Y-50791D01*
X94145Y-50826D01*
X94202Y-50851D01*
X94262Y-50864D01*
X94324Y-50865D01*
X94385Y-50854D01*
X94442Y-50832D01*
X94494Y-50799D01*
X94539Y-50756D01*
X94575Y-50706D01*
X94600Y-50649D01*
X94614Y-50589D01*
X94615Y-50519D01*
X94603Y-50458D01*
X94579Y-50401D01*
X94545Y-50349D01*
X94501Y-50306D01*
X94450Y-50271D01*
X94393Y-50247D01*
X94333Y-50235D01*
X94271Y-50234D01*
X94210Y-50246D01*
X94153Y-50269D01*
X94101Y-50303D01*
X94057Y-50346D01*
X94041Y-50370D01*
X92739Y-50370D01*
X92739Y-49561D01*
X92735Y-49515D01*
X92722Y-49470D01*
X92700Y-49428D01*
X92671Y-49392D01*
X92635Y-49361D01*
X92594Y-49339D01*
X92549Y-49325D01*
X92503Y-49320D01*
X92500Y-49320D01*
X92090Y-49320D01*
X92065Y-49295D01*
X92018Y-49263D01*
X91966Y-49241D01*
X91910Y-49230D01*
X91853Y-49229D01*
X91797Y-49240D01*
X91744Y-49261D01*
X91697Y-49292D01*
X91656Y-49332D01*
X91624Y-49379D01*
X91602Y-49431D01*
X91590Y-49487D01*
X91589Y-49544D01*
X91599Y-49600D01*
X91620Y-49653D01*
X91651Y-49701D01*
X91691Y-49741D01*
X91706Y-49752D01*
X91685Y-49766D01*
X91666Y-49785D01*
X91650Y-49808D01*
X91640Y-49834D01*
X91635Y-49861D01*
X91635Y-49888D01*
X91635Y-50005D01*
X91670Y-50040D01*
X91840Y-50040D01*
X91840Y-50032D01*
X91960Y-50032D01*
X91960Y-50040D01*
X92130Y-50040D01*
X92165Y-50005D01*
X92165Y-49888D01*
X92165Y-49861D01*
X92159Y-49834D01*
X92149Y-49808D01*
X92143Y-49800D01*
X92500Y-49800D01*
X92546Y-49795D01*
X92591Y-49781D01*
X92632Y-49759D01*
X92669Y-49730D01*
X92698Y-49694D01*
X92721Y-49653D01*
X92735Y-49608D01*
X92739Y-49561D01*
X92739Y-50370D01*
X92157Y-50370D01*
X92159Y-50365D01*
X92165Y-50338D01*
X92165Y-50311D01*
X92165Y-50195D01*
X92130Y-50160D01*
X91960Y-50160D01*
X91960Y-50167D01*
X91840Y-50167D01*
X91840Y-50160D01*
X91670Y-50160D01*
X91635Y-50195D01*
X91635Y-50311D01*
X91635Y-50338D01*
X91640Y-50365D01*
X91642Y-50370D01*
X91557Y-50370D01*
X91559Y-50365D01*
X91565Y-50338D01*
X91565Y-50311D01*
X91565Y-49861D01*
X91559Y-49834D01*
X91549Y-49808D01*
X91533Y-49785D01*
X91514Y-49766D01*
X91491Y-49750D01*
X91465Y-49740D01*
X91438Y-49735D01*
X91411Y-49735D01*
X91161Y-49735D01*
X91134Y-49740D01*
X91108Y-49750D01*
X91085Y-49766D01*
X91066Y-49785D01*
X91050Y-49808D01*
X91040Y-49834D01*
X91035Y-49861D01*
X91035Y-49884D01*
X91025Y-49875D01*
X90978Y-49843D01*
X90926Y-49821D01*
X90870Y-49810D01*
X90813Y-49809D01*
X90757Y-49820D01*
X90704Y-49841D01*
X90657Y-49872D01*
X90616Y-49912D01*
X90584Y-49959D01*
X90562Y-50011D01*
X90550Y-50067D01*
X90549Y-50124D01*
X90559Y-50180D01*
X90580Y-50233D01*
X90611Y-50281D01*
X90651Y-50321D01*
X90663Y-50330D01*
X90637Y-50356D01*
X90602Y-50407D01*
X90578Y-50464D01*
X90565Y-50524D01*
X90564Y-50586D01*
X90575Y-50647D01*
X90598Y-50704D01*
X90631Y-50756D01*
X90674Y-50801D01*
X90725Y-50836D01*
X90782Y-50861D01*
X90808Y-50866D01*
X90785Y-50871D01*
X90728Y-50894D01*
X90676Y-50928D01*
X90632Y-50971D01*
X90597Y-51022D01*
X90573Y-51079D01*
X90560Y-51139D01*
X90559Y-51201D01*
X90570Y-51262D01*
X90593Y-51319D01*
X90626Y-51371D01*
X90669Y-51416D01*
X90720Y-51451D01*
X90777Y-51476D01*
X90837Y-51489D01*
X90899Y-51490D01*
X90960Y-51479D01*
X91017Y-51457D01*
X91045Y-51440D01*
X91063Y-51440D01*
X91513Y-51440D01*
X91540Y-51434D01*
X91566Y-51424D01*
X91579Y-51415D01*
X91764Y-51415D01*
X91753Y-51419D01*
X91701Y-51453D01*
X91657Y-51496D01*
X91622Y-51547D01*
X91613Y-51568D01*
X91608Y-51560D01*
X91589Y-51541D01*
X91566Y-51525D01*
X91540Y-51515D01*
X91513Y-51510D01*
X91486Y-51510D01*
X91370Y-51510D01*
X91335Y-51545D01*
X91335Y-51715D01*
X91342Y-51715D01*
X91342Y-51835D01*
X91335Y-51835D01*
X91335Y-52005D01*
X91370Y-52040D01*
X91486Y-52040D01*
X91513Y-52040D01*
X91540Y-52034D01*
X91566Y-52024D01*
X91589Y-52008D01*
X91608Y-51989D01*
X91624Y-51966D01*
X91634Y-51940D01*
X91640Y-51913D01*
X91640Y-51878D01*
X91651Y-51896D01*
X91694Y-51941D01*
X91745Y-51976D01*
X91802Y-52001D01*
X91862Y-52014D01*
X91924Y-52015D01*
X91985Y-52004D01*
X92042Y-51982D01*
X92094Y-51949D01*
X92139Y-51906D01*
X92151Y-51890D01*
X96247Y-51890D01*
X96251Y-51896D01*
X96294Y-51941D01*
X96345Y-51976D01*
X96402Y-52001D01*
X96462Y-52014D01*
X96524Y-52015D01*
X96585Y-52004D01*
X96642Y-51982D01*
X96694Y-51949D01*
X96739Y-51906D01*
X96775Y-51856D01*
X96800Y-51799D01*
X96814Y-51739D01*
X96815Y-51669D01*
X96815Y-54860D01*
X96607Y-54860D01*
X96580Y-54865D01*
X96554Y-54875D01*
X96531Y-54891D01*
X96512Y-54910D01*
X96496Y-54933D01*
X96486Y-54959D01*
X96480Y-54986D01*
X96480Y-55013D01*
X96480Y-56613D01*
X96486Y-56640D01*
X96496Y-56666D01*
X96512Y-56689D01*
X96531Y-56708D01*
X96554Y-56724D01*
X96580Y-56734D01*
X96607Y-56740D01*
X96634Y-56740D01*
X98603Y-56740D01*
X98630Y-56734D01*
X98655Y-56724D01*
X98678Y-56708D01*
X98698Y-56689D01*
X98713Y-56666D01*
X98723Y-56640D01*
X98729Y-56613D01*
X98729Y-61095D01*
X98715Y-61090D01*
X98688Y-61085D01*
X98661Y-61085D01*
X98590Y-61085D01*
X98590Y-57860D01*
X98590Y-57850D01*
X98590Y-57640D01*
X98586Y-57604D01*
X98583Y-57568D01*
X98582Y-57566D01*
X98582Y-57564D01*
X98572Y-57529D01*
X98562Y-57495D01*
X98561Y-57493D01*
X98560Y-57491D01*
X98543Y-57459D01*
X98527Y-57427D01*
X98525Y-57425D01*
X98524Y-57424D01*
X98502Y-57396D01*
X98479Y-57368D01*
X98476Y-57365D01*
X98476Y-57365D01*
X98476Y-57365D01*
X98475Y-57364D01*
X98055Y-56944D01*
X97996Y-56895D01*
X97929Y-56859D01*
X97857Y-56837D01*
X97781Y-56830D01*
X97705Y-56837D01*
X97632Y-56858D01*
X97565Y-56894D01*
X97506Y-56942D01*
X97457Y-57000D01*
X97421Y-57067D01*
X97398Y-57140D01*
X97390Y-57215D01*
X97396Y-57291D01*
X97417Y-57364D01*
X97452Y-57432D01*
X97500Y-57491D01*
X97504Y-57495D01*
X97810Y-57801D01*
X97810Y-57850D01*
X97810Y-57860D01*
X97810Y-61450D01*
X97817Y-61525D01*
X97839Y-61598D01*
X97875Y-61665D01*
X97923Y-61724D01*
X97981Y-61773D01*
X98048Y-61809D01*
X98121Y-61832D01*
X98197Y-61839D01*
X98273Y-61833D01*
X98346Y-61811D01*
X98365Y-61801D01*
X98384Y-61809D01*
X98411Y-61815D01*
X98438Y-61815D01*
X98688Y-61815D01*
X98715Y-61809D01*
X98741Y-61799D01*
X98764Y-61783D01*
X98783Y-61764D01*
X98799Y-61741D01*
X98809Y-61715D01*
X98815Y-61688D01*
X98815Y-68764D01*
X98390Y-68978D01*
X98390Y-67406D01*
X98390Y-66406D01*
X98373Y-66322D01*
X98340Y-66242D01*
X98292Y-66170D01*
X98231Y-66109D01*
X98160Y-66061D01*
X98080Y-66027D01*
X97996Y-66010D01*
X97909Y-66009D01*
X97825Y-66025D01*
X97745Y-66058D01*
X97672Y-66105D01*
X97611Y-66165D01*
X97562Y-66237D01*
X97528Y-66316D01*
X97510Y-66400D01*
X97509Y-66486D01*
X97524Y-66571D01*
X97534Y-66596D01*
X97381Y-66750D01*
X97273Y-66750D01*
X97284Y-66738D01*
X97334Y-66668D01*
X97369Y-66589D01*
X97388Y-66505D01*
X97390Y-66406D01*
X97373Y-66322D01*
X97340Y-66242D01*
X97292Y-66170D01*
X97231Y-66109D01*
X97160Y-66061D01*
X97080Y-66027D01*
X96996Y-66010D01*
X96909Y-66009D01*
X96825Y-66025D01*
X96745Y-66058D01*
X96672Y-66105D01*
X96611Y-66165D01*
X96570Y-66226D01*
X96570Y-65800D01*
X96568Y-65782D01*
X96566Y-65765D01*
X96566Y-65764D01*
X96566Y-65763D01*
X96561Y-65746D01*
X96556Y-65729D01*
X96555Y-65728D01*
X96555Y-65727D01*
X96547Y-65712D01*
X96539Y-65696D01*
X96538Y-65695D01*
X96538Y-65694D01*
X96527Y-65681D01*
X96516Y-65667D01*
X96514Y-65666D01*
X96514Y-65666D01*
X96514Y-65666D01*
X96514Y-65665D01*
X96258Y-65410D01*
X96340Y-65410D01*
X96357Y-65408D01*
X96374Y-65406D01*
X96375Y-65406D01*
X96376Y-65406D01*
X96393Y-65401D01*
X96410Y-65396D01*
X96411Y-65395D01*
X96412Y-65395D01*
X96427Y-65387D01*
X96443Y-65379D01*
X96444Y-65378D01*
X96445Y-65378D01*
X96458Y-65367D01*
X96472Y-65356D01*
X96473Y-65354D01*
X96473Y-65354D01*
X96473Y-65354D01*
X96474Y-65354D01*
X96540Y-65287D01*
X96528Y-65316D01*
X96510Y-65400D01*
X96509Y-65486D01*
X96524Y-65571D01*
X96556Y-65652D01*
X96603Y-65724D01*
X96663Y-65786D01*
X96734Y-65835D01*
X96813Y-65870D01*
X96897Y-65889D01*
X96983Y-65890D01*
X97068Y-65875D01*
X97149Y-65844D01*
X97222Y-65798D01*
X97284Y-65738D01*
X97334Y-65668D01*
X97369Y-65589D01*
X97388Y-65505D01*
X97390Y-65406D01*
X97373Y-65322D01*
X97340Y-65242D01*
X97292Y-65170D01*
X97252Y-65130D01*
X97461Y-65130D01*
X97510Y-65178D01*
X97510Y-65763D01*
X97515Y-65790D01*
X97525Y-65816D01*
X97541Y-65839D01*
X97560Y-65858D01*
X97583Y-65874D01*
X97609Y-65884D01*
X97636Y-65890D01*
X97663Y-65890D01*
X98263Y-65890D01*
X98290Y-65884D01*
X98316Y-65874D01*
X98339Y-65858D01*
X98358Y-65839D01*
X98374Y-65816D01*
X98384Y-65790D01*
X98390Y-65763D01*
X98390Y-65736D01*
X98390Y-65136D01*
X98384Y-65109D01*
X98374Y-65083D01*
X98358Y-65060D01*
X98339Y-65041D01*
X98316Y-65025D01*
X98290Y-65015D01*
X98263Y-65010D01*
X98236Y-65010D01*
X97878Y-65010D01*
X97674Y-64805D01*
X97660Y-64794D01*
X97647Y-64783D01*
X97646Y-64782D01*
X97645Y-64782D01*
X97630Y-64773D01*
X97614Y-64765D01*
X97613Y-64765D01*
X97613Y-64764D01*
X97609Y-64763D01*
X97609Y-59050D01*
X97608Y-58963D01*
X97532Y-58361D01*
X97340Y-57785D01*
X97041Y-57257D01*
X96644Y-56798D01*
X96166Y-56424D01*
X95765Y-56221D01*
X95765Y-53488D01*
X95765Y-53461D01*
X95765Y-53345D01*
X95765Y-53155D01*
X95765Y-53038D01*
X95765Y-53011D01*
X95759Y-52984D01*
X95749Y-52958D01*
X95733Y-52935D01*
X95714Y-52916D01*
X95691Y-52900D01*
X95665Y-52890D01*
X95638Y-52885D01*
X95595Y-52885D01*
X95560Y-52920D01*
X95560Y-53190D01*
X95730Y-53190D01*
X95765Y-53155D01*
X95765Y-53345D01*
X95730Y-53310D01*
X95560Y-53310D01*
X95560Y-53580D01*
X95595Y-53615D01*
X95638Y-53615D01*
X95665Y-53609D01*
X95691Y-53599D01*
X95714Y-53583D01*
X95733Y-53564D01*
X95749Y-53541D01*
X95759Y-53515D01*
X95765Y-53488D01*
X95765Y-56221D01*
X95624Y-56150D01*
X95440Y-56099D01*
X95440Y-53580D01*
X95440Y-53310D01*
X95440Y-53190D01*
X95440Y-52920D01*
X95405Y-52885D01*
X95361Y-52885D01*
X95334Y-52890D01*
X95308Y-52900D01*
X95285Y-52916D01*
X95266Y-52935D01*
X95250Y-52958D01*
X95240Y-52984D01*
X95235Y-53011D01*
X95235Y-53038D01*
X95235Y-53155D01*
X95270Y-53190D01*
X95440Y-53190D01*
X95440Y-53310D01*
X95270Y-53310D01*
X95235Y-53345D01*
X95235Y-53461D01*
X95235Y-53488D01*
X95240Y-53515D01*
X95250Y-53541D01*
X95266Y-53564D01*
X95285Y-53583D01*
X95308Y-53599D01*
X95334Y-53609D01*
X95361Y-53615D01*
X95405Y-53615D01*
X95440Y-53580D01*
X95440Y-56099D01*
X95165Y-56022D01*
X95165Y-53719D01*
X95153Y-53658D01*
X95129Y-53601D01*
X95116Y-53581D01*
X95133Y-53564D01*
X95149Y-53541D01*
X95159Y-53515D01*
X95165Y-53488D01*
X95165Y-53461D01*
X95165Y-53011D01*
X95159Y-52984D01*
X95149Y-52958D01*
X95133Y-52935D01*
X95114Y-52916D01*
X95091Y-52900D01*
X95065Y-52890D01*
X95038Y-52885D01*
X95011Y-52885D01*
X94761Y-52885D01*
X94734Y-52890D01*
X94708Y-52900D01*
X94685Y-52916D01*
X94666Y-52935D01*
X94650Y-52958D01*
X94640Y-52984D01*
X94635Y-53011D01*
X94635Y-53038D01*
X94635Y-53488D01*
X94640Y-53514D01*
X94607Y-53546D01*
X94572Y-53597D01*
X94548Y-53654D01*
X94535Y-53714D01*
X94534Y-53776D01*
X94545Y-53837D01*
X94568Y-53894D01*
X94601Y-53946D01*
X94644Y-53991D01*
X94695Y-54026D01*
X94752Y-54051D01*
X94812Y-54064D01*
X94874Y-54065D01*
X94935Y-54054D01*
X94992Y-54032D01*
X95044Y-53999D01*
X95089Y-53956D01*
X95125Y-53906D01*
X95150Y-53849D01*
X95164Y-53789D01*
X95165Y-53719D01*
X95165Y-56022D01*
X95039Y-55987D01*
X94434Y-55940D01*
X94090Y-55982D01*
X94090Y-53138D01*
X94090Y-53111D01*
X94090Y-52945D01*
X94090Y-52755D01*
X94090Y-52588D01*
X94090Y-52561D01*
X94084Y-52534D01*
X94074Y-52508D01*
X94058Y-52485D01*
X94039Y-52466D01*
X94016Y-52450D01*
X93990Y-52440D01*
X93963Y-52435D01*
X93870Y-52435D01*
X93835Y-52470D01*
X93835Y-52790D01*
X94055Y-52790D01*
X94090Y-52755D01*
X94090Y-52945D01*
X94055Y-52910D01*
X93835Y-52910D01*
X93835Y-53230D01*
X93870Y-53265D01*
X93963Y-53265D01*
X93990Y-53259D01*
X94016Y-53249D01*
X94039Y-53233D01*
X94058Y-53214D01*
X94074Y-53191D01*
X94084Y-53165D01*
X94090Y-53138D01*
X94090Y-55982D01*
X93832Y-56012D01*
X93715Y-56050D01*
X93715Y-53230D01*
X93715Y-52910D01*
X93715Y-52790D01*
X93715Y-52470D01*
X93680Y-52435D01*
X93586Y-52435D01*
X93559Y-52440D01*
X93533Y-52450D01*
X93510Y-52466D01*
X93491Y-52485D01*
X93475Y-52508D01*
X93465Y-52534D01*
X93460Y-52561D01*
X93460Y-52588D01*
X93460Y-52755D01*
X93495Y-52790D01*
X93715Y-52790D01*
X93715Y-52910D01*
X93495Y-52910D01*
X93460Y-52945D01*
X93460Y-53111D01*
X93460Y-53138D01*
X93465Y-53165D01*
X93475Y-53191D01*
X93491Y-53214D01*
X93510Y-53233D01*
X93533Y-53249D01*
X93559Y-53259D01*
X93586Y-53265D01*
X93680Y-53265D01*
X93715Y-53230D01*
X93715Y-56050D01*
X93340Y-56172D01*
X93340Y-52319D01*
X93328Y-52258D01*
X93304Y-52201D01*
X93270Y-52149D01*
X93226Y-52106D01*
X93175Y-52071D01*
X93118Y-52047D01*
X93058Y-52035D01*
X92996Y-52034D01*
X92935Y-52046D01*
X92878Y-52069D01*
X92826Y-52103D01*
X92782Y-52146D01*
X92747Y-52197D01*
X92723Y-52254D01*
X92710Y-52314D01*
X92709Y-52376D01*
X92720Y-52437D01*
X92740Y-52486D01*
X92725Y-52508D01*
X92715Y-52534D01*
X92710Y-52561D01*
X92710Y-52588D01*
X92710Y-53138D01*
X92715Y-53165D01*
X92725Y-53191D01*
X92741Y-53214D01*
X92760Y-53233D01*
X92783Y-53249D01*
X92809Y-53259D01*
X92836Y-53265D01*
X92863Y-53265D01*
X93213Y-53265D01*
X93240Y-53259D01*
X93266Y-53249D01*
X93289Y-53233D01*
X93308Y-53214D01*
X93324Y-53191D01*
X93334Y-53165D01*
X93340Y-53138D01*
X93340Y-53111D01*
X93340Y-52561D01*
X93334Y-52534D01*
X93324Y-52508D01*
X93309Y-52486D01*
X93325Y-52449D01*
X93339Y-52389D01*
X93340Y-52319D01*
X93340Y-56172D01*
X93255Y-56200D01*
X92725Y-56496D01*
X92444Y-56735D01*
X92444Y-56613D01*
X92444Y-56586D01*
X92444Y-54986D01*
X92438Y-54959D01*
X92428Y-54933D01*
X92412Y-54910D01*
X92393Y-54891D01*
X92370Y-54875D01*
X92344Y-54865D01*
X92317Y-54860D01*
X92290Y-54860D01*
X91215Y-54860D01*
X91215Y-52005D01*
X91215Y-51835D01*
X91215Y-51715D01*
X91215Y-51545D01*
X91180Y-51510D01*
X91063Y-51510D01*
X91036Y-51510D01*
X91009Y-51515D01*
X90983Y-51525D01*
X90960Y-51541D01*
X90941Y-51560D01*
X90925Y-51583D01*
X90915Y-51609D01*
X90910Y-51636D01*
X90910Y-51680D01*
X90945Y-51715D01*
X91215Y-51715D01*
X91215Y-51835D01*
X90945Y-51835D01*
X90910Y-51870D01*
X90910Y-51913D01*
X90915Y-51940D01*
X90925Y-51966D01*
X90941Y-51989D01*
X90960Y-52008D01*
X90983Y-52024D01*
X91009Y-52034D01*
X91036Y-52040D01*
X91063Y-52040D01*
X91180Y-52040D01*
X91215Y-52005D01*
X91215Y-54860D01*
X90321Y-54860D01*
X90294Y-54865D01*
X90269Y-54875D01*
X90246Y-54891D01*
X90226Y-54910D01*
X90211Y-54933D01*
X90201Y-54959D01*
X90195Y-54986D01*
X90195Y-55013D01*
X90195Y-56613D01*
X90201Y-56640D01*
X90211Y-56666D01*
X90226Y-56689D01*
X90246Y-56708D01*
X90269Y-56724D01*
X90294Y-56734D01*
X90321Y-56740D01*
X90349Y-56740D01*
X92317Y-56740D01*
X92344Y-56734D01*
X92370Y-56724D01*
X92393Y-56708D01*
X92412Y-56689D01*
X92428Y-56666D01*
X92438Y-56640D01*
X92444Y-56613D01*
X92444Y-56735D01*
X92263Y-56889D01*
X91886Y-57365D01*
X91608Y-57905D01*
X91441Y-58488D01*
X91390Y-59093D01*
X91458Y-59696D01*
X91641Y-60275D01*
X91934Y-60806D01*
X92324Y-61271D01*
X92797Y-61652D01*
X93335Y-61933D01*
X93917Y-62104D01*
X94521Y-62159D01*
X95125Y-62096D01*
X95705Y-61916D01*
X96238Y-61628D01*
X96706Y-61241D01*
X97090Y-60770D01*
X97375Y-60235D01*
X97550Y-59654D01*
X97609Y-59050D01*
X97609Y-64763D01*
X97596Y-64759D01*
X97579Y-64754D01*
X97578Y-64754D01*
X97577Y-64753D01*
X97560Y-64751D01*
X97542Y-64750D01*
X97540Y-64750D01*
X97540Y-64750D01*
X97540Y-64750D01*
X97540Y-64750D01*
X96620Y-64750D01*
X96602Y-64751D01*
X96585Y-64753D01*
X96584Y-64753D01*
X96583Y-64753D01*
X96566Y-64758D01*
X96549Y-64763D01*
X96548Y-64764D01*
X96547Y-64764D01*
X96532Y-64772D01*
X96516Y-64780D01*
X96515Y-64781D01*
X96514Y-64781D01*
X96501Y-64792D01*
X96487Y-64803D01*
X96486Y-64805D01*
X96486Y-64805D01*
X96486Y-64805D01*
X96485Y-64805D01*
X96261Y-65030D01*
X95427Y-65030D01*
X95427Y-64565D01*
X95411Y-64485D01*
X95379Y-64408D01*
X95334Y-64340D01*
X95276Y-64281D01*
X95207Y-64235D01*
X95131Y-64203D01*
X95051Y-64187D01*
X94968Y-64186D01*
X94887Y-64202D01*
X94811Y-64233D01*
X94742Y-64278D01*
X94683Y-64335D01*
X94637Y-64403D01*
X94604Y-64479D01*
X94587Y-64560D01*
X94586Y-64642D01*
X94601Y-64723D01*
X94631Y-64800D01*
X94676Y-64869D01*
X94733Y-64928D01*
X94801Y-64975D01*
X94876Y-65008D01*
X94957Y-65026D01*
X95039Y-65027D01*
X95120Y-65013D01*
X95197Y-64983D01*
X95266Y-64939D01*
X95326Y-64882D01*
X95374Y-64815D01*
X95407Y-64740D01*
X95425Y-64660D01*
X95427Y-64565D01*
X95427Y-65030D01*
X91818Y-65030D01*
X91494Y-64705D01*
X91480Y-64694D01*
X91467Y-64683D01*
X91466Y-64682D01*
X91465Y-64682D01*
X91450Y-64673D01*
X91434Y-64665D01*
X91433Y-64665D01*
X91433Y-64664D01*
X91416Y-64659D01*
X91399Y-64654D01*
X91398Y-64654D01*
X91397Y-64653D01*
X91380Y-64651D01*
X91362Y-64650D01*
X91360Y-64650D01*
X91360Y-64650D01*
X91360Y-64650D01*
X91360Y-64650D01*
X90998Y-64650D01*
X90972Y-64624D01*
X90974Y-64619D01*
X90975Y-64549D01*
X90963Y-64488D01*
X90939Y-64431D01*
X90905Y-64379D01*
X90861Y-64336D01*
X90810Y-64301D01*
X90753Y-64277D01*
X90693Y-64265D01*
X90631Y-64264D01*
X90570Y-64276D01*
X90513Y-64299D01*
X90461Y-64333D01*
X90417Y-64376D01*
X90382Y-64427D01*
X90358Y-64484D01*
X90346Y-64538D01*
X90110Y-64301D01*
X90110Y-63699D01*
X90140Y-63670D01*
X90173Y-63623D01*
X90196Y-63571D01*
X90209Y-63516D01*
X90210Y-63451D01*
X90198Y-63395D01*
X90177Y-63343D01*
X90145Y-63295D01*
X90140Y-63290D01*
X92900Y-63290D01*
X92917Y-63288D01*
X92934Y-63286D01*
X92935Y-63286D01*
X92936Y-63286D01*
X92953Y-63281D01*
X92970Y-63276D01*
X92971Y-63275D01*
X92972Y-63275D01*
X92987Y-63267D01*
X93003Y-63259D01*
X93004Y-63258D01*
X93005Y-63258D01*
X93018Y-63247D01*
X93032Y-63236D01*
X93033Y-63234D01*
X93033Y-63234D01*
X93033Y-63234D01*
X93034Y-63234D01*
X93187Y-63081D01*
X93173Y-63145D01*
X93172Y-63228D01*
X93187Y-63309D01*
X93217Y-63385D01*
X93262Y-63455D01*
X93319Y-63514D01*
X93387Y-63561D01*
X93462Y-63594D01*
X93542Y-63611D01*
X93625Y-63613D01*
X93706Y-63599D01*
X93783Y-63569D01*
X93852Y-63525D01*
X93912Y-63468D01*
X93959Y-63401D01*
X93993Y-63326D01*
X94011Y-63245D01*
X94012Y-63151D01*
X93996Y-63070D01*
X93965Y-62994D01*
X93919Y-62926D01*
X93861Y-62867D01*
X93793Y-62821D01*
X93717Y-62789D01*
X93666Y-62779D01*
X93700Y-62731D01*
X93725Y-62674D01*
X93739Y-62614D01*
X93740Y-62544D01*
X93728Y-62483D01*
X93704Y-62426D01*
X93670Y-62374D01*
X93626Y-62331D01*
X93575Y-62296D01*
X93518Y-62272D01*
X93458Y-62260D01*
X93396Y-62259D01*
X93335Y-62271D01*
X93278Y-62294D01*
X93226Y-62328D01*
X93182Y-62371D01*
X93147Y-62422D01*
X93123Y-62479D01*
X93110Y-62539D01*
X93109Y-62601D01*
X93112Y-62618D01*
X92821Y-62910D01*
X88571Y-62910D01*
X88565Y-62899D01*
X88521Y-62856D01*
X88475Y-62824D01*
X88475Y-52889D01*
X88463Y-52828D01*
X88439Y-52771D01*
X88405Y-52719D01*
X88361Y-52676D01*
X88310Y-52641D01*
X88253Y-52617D01*
X88193Y-52605D01*
X88131Y-52604D01*
X88070Y-52616D01*
X88013Y-52639D01*
X87961Y-52673D01*
X87917Y-52716D01*
X87882Y-52767D01*
X87858Y-52824D01*
X87845Y-52884D01*
X87844Y-52946D01*
X87855Y-53007D01*
X87878Y-53064D01*
X87911Y-53116D01*
X87954Y-53161D01*
X87968Y-53170D01*
X87961Y-54046D01*
X87951Y-54053D01*
X87907Y-54096D01*
X87872Y-54147D01*
X87848Y-54204D01*
X87835Y-54264D01*
X87834Y-54326D01*
X87845Y-54387D01*
X87868Y-54444D01*
X87901Y-54496D01*
X87944Y-54541D01*
X87995Y-54576D01*
X88052Y-54601D01*
X88112Y-54614D01*
X88174Y-54615D01*
X88235Y-54604D01*
X88292Y-54582D01*
X88344Y-54549D01*
X88389Y-54506D01*
X88425Y-54456D01*
X88450Y-54399D01*
X88464Y-54339D01*
X88465Y-54269D01*
X88453Y-54208D01*
X88429Y-54151D01*
X88395Y-54099D01*
X88351Y-54056D01*
X88341Y-54049D01*
X88348Y-53173D01*
X88354Y-53169D01*
X88399Y-53126D01*
X88435Y-53076D01*
X88460Y-53019D01*
X88474Y-52959D01*
X88475Y-52889D01*
X88475Y-62824D01*
X88470Y-62821D01*
X88413Y-62797D01*
X88353Y-62785D01*
X88291Y-62784D01*
X88230Y-62796D01*
X88173Y-62819D01*
X88121Y-62853D01*
X88077Y-62896D01*
X88042Y-62947D01*
X88018Y-63004D01*
X88005Y-63064D01*
X88004Y-63126D01*
X88015Y-63187D01*
X88038Y-63244D01*
X88071Y-63296D01*
X88114Y-63341D01*
X88165Y-63376D01*
X88222Y-63401D01*
X88282Y-63414D01*
X88344Y-63415D01*
X88405Y-63404D01*
X88462Y-63382D01*
X88514Y-63349D01*
X88559Y-63306D01*
X88571Y-63290D01*
X89699Y-63290D01*
X89696Y-63292D01*
X89664Y-63339D01*
X89642Y-63391D01*
X89630Y-63447D01*
X89629Y-63504D01*
X89639Y-63560D01*
X89660Y-63613D01*
X89691Y-63661D01*
X89730Y-63700D01*
X89730Y-63915D01*
X89711Y-63915D01*
X89261Y-63915D01*
X89234Y-63920D01*
X89208Y-63930D01*
X89186Y-63945D01*
X89150Y-63921D01*
X89093Y-63897D01*
X89033Y-63885D01*
X88971Y-63884D01*
X88910Y-63896D01*
X88853Y-63919D01*
X88801Y-63953D01*
X88757Y-63996D01*
X88734Y-64030D01*
X87471Y-64030D01*
X87465Y-64019D01*
X87421Y-63976D01*
X87370Y-63941D01*
X87313Y-63917D01*
X87253Y-63905D01*
X87191Y-63904D01*
X87130Y-63916D01*
X87073Y-63939D01*
X87021Y-63973D01*
X86977Y-64016D01*
X86942Y-64067D01*
X86918Y-64124D01*
X86905Y-64184D01*
X86904Y-64246D01*
X86915Y-64307D01*
X86938Y-64364D01*
X86971Y-64416D01*
X87014Y-64461D01*
X87065Y-64496D01*
X87122Y-64521D01*
X87182Y-64534D01*
X87244Y-64535D01*
X87305Y-64524D01*
X87362Y-64502D01*
X87414Y-64469D01*
X87459Y-64426D01*
X87471Y-64410D01*
X88764Y-64410D01*
X88794Y-64441D01*
X88845Y-64476D01*
X88902Y-64501D01*
X88962Y-64514D01*
X89024Y-64515D01*
X89085Y-64504D01*
X89142Y-64482D01*
X89194Y-64449D01*
X89213Y-64431D01*
X89234Y-64439D01*
X89261Y-64445D01*
X89288Y-64445D01*
X89738Y-64445D01*
X89741Y-64444D01*
X89743Y-64450D01*
X89744Y-64451D01*
X89744Y-64452D01*
X89752Y-64467D01*
X89760Y-64483D01*
X89761Y-64484D01*
X89761Y-64485D01*
X89772Y-64498D01*
X89783Y-64512D01*
X89785Y-64513D01*
X89785Y-64513D01*
X89785Y-64513D01*
X89785Y-64514D01*
X91585Y-66314D01*
X91599Y-66325D01*
X91612Y-66336D01*
X91613Y-66337D01*
X91614Y-66337D01*
X91629Y-66346D01*
X91645Y-66354D01*
X91646Y-66354D01*
X91646Y-66355D01*
X91663Y-66360D01*
X91680Y-66365D01*
X91681Y-66365D01*
X91682Y-66366D01*
X91699Y-66368D01*
X91717Y-66369D01*
X91719Y-66369D01*
X91719Y-66369D01*
X91719Y-66369D01*
X91720Y-66370D01*
X95421Y-66370D01*
X96125Y-67074D01*
X96139Y-67085D01*
X96152Y-67096D01*
X96153Y-67097D01*
X96154Y-67097D01*
X96169Y-67106D01*
X96185Y-67114D01*
X96186Y-67114D01*
X96186Y-67115D01*
X96203Y-67120D01*
X96220Y-67125D01*
X96221Y-67125D01*
X96222Y-67126D01*
X96239Y-67128D01*
X96257Y-67129D01*
X96259Y-67129D01*
X96259Y-67129D01*
X96259Y-67129D01*
X96260Y-67130D01*
X96714Y-67130D01*
X96950Y-67365D01*
X97185Y-67130D01*
X97460Y-67130D01*
X97477Y-67128D01*
X97494Y-67126D01*
X97495Y-67126D01*
X97496Y-67126D01*
X97513Y-67121D01*
X97530Y-67116D01*
X97531Y-67115D01*
X97532Y-67115D01*
X97547Y-67107D01*
X97563Y-67099D01*
X97564Y-67098D01*
X97565Y-67098D01*
X97578Y-67087D01*
X97592Y-67076D01*
X97593Y-67074D01*
X97593Y-67074D01*
X97593Y-67074D01*
X97594Y-67074D01*
X97802Y-66865D01*
X97813Y-66870D01*
X97897Y-66889D01*
X97983Y-66890D01*
X98068Y-66875D01*
X98149Y-66844D01*
X98222Y-66798D01*
X98284Y-66738D01*
X98334Y-66668D01*
X98369Y-66589D01*
X98388Y-66505D01*
X98390Y-66406D01*
X98390Y-67406D01*
X98373Y-67322D01*
X98340Y-67242D01*
X98292Y-67170D01*
X98231Y-67109D01*
X98160Y-67061D01*
X98080Y-67027D01*
X97996Y-67010D01*
X97909Y-67009D01*
X97825Y-67025D01*
X97745Y-67058D01*
X97672Y-67105D01*
X97611Y-67165D01*
X97562Y-67237D01*
X97528Y-67316D01*
X97510Y-67400D01*
X97509Y-67486D01*
X97524Y-67571D01*
X97556Y-67652D01*
X97603Y-67724D01*
X97663Y-67786D01*
X97734Y-67835D01*
X97813Y-67870D01*
X97897Y-67889D01*
X97983Y-67890D01*
X98068Y-67875D01*
X98149Y-67844D01*
X98222Y-67798D01*
X98284Y-67738D01*
X98334Y-67668D01*
X98369Y-67589D01*
X98388Y-67505D01*
X98390Y-67406D01*
X98390Y-68978D01*
X98357Y-68995D01*
X97390Y-69265D01*
X97390Y-67407D01*
X97373Y-67322D01*
X97340Y-67242D01*
X97339Y-67241D01*
X97277Y-67207D01*
X97034Y-67450D01*
X97277Y-67692D01*
X97339Y-67658D01*
X97372Y-67578D01*
X97389Y-67493D01*
X97390Y-67407D01*
X97390Y-69265D01*
X97192Y-69320D01*
X97192Y-67777D01*
X96950Y-67534D01*
X96865Y-67619D01*
X96865Y-67450D01*
X96622Y-67207D01*
X96560Y-67241D01*
X96527Y-67321D01*
X96510Y-67406D01*
X96509Y-67492D01*
X96526Y-67577D01*
X96559Y-67657D01*
X96560Y-67658D01*
X96622Y-67692D01*
X96865Y-67450D01*
X96865Y-67619D01*
X96707Y-67777D01*
X96741Y-67839D01*
X96821Y-67872D01*
X96906Y-67889D01*
X96992Y-67890D01*
X97077Y-67873D01*
X97157Y-67840D01*
X97158Y-67839D01*
X97192Y-67777D01*
X97192Y-69320D01*
X96352Y-69555D01*
X95300Y-69635D01*
X95300Y-67912D01*
X95260Y-67711D01*
X95182Y-67522D01*
X95069Y-67352D01*
X94924Y-67206D01*
X94755Y-67092D01*
X94566Y-67013D01*
X94365Y-66971D01*
X94161Y-66970D01*
X93960Y-67008D01*
X93770Y-67085D01*
X93598Y-67197D01*
X93452Y-67340D01*
X93336Y-67509D01*
X93256Y-67697D01*
X93213Y-67898D01*
X93210Y-68102D01*
X93247Y-68304D01*
X93323Y-68494D01*
X93434Y-68666D01*
X93576Y-68813D01*
X93744Y-68930D01*
X93932Y-69012D01*
X94132Y-69056D01*
X94336Y-69061D01*
X94538Y-69025D01*
X94729Y-68951D01*
X94902Y-68841D01*
X95050Y-68700D01*
X95168Y-68533D01*
X95251Y-68346D01*
X95296Y-68146D01*
X95300Y-67912D01*
X95300Y-69635D01*
X94276Y-69714D01*
X92209Y-69468D01*
X90229Y-68824D01*
X89865Y-68621D01*
X89865Y-64918D01*
X89865Y-64875D01*
X89865Y-64685D01*
X89865Y-64641D01*
X89859Y-64614D01*
X89849Y-64588D01*
X89833Y-64565D01*
X89814Y-64546D01*
X89791Y-64530D01*
X89765Y-64520D01*
X89738Y-64515D01*
X89711Y-64515D01*
X89595Y-64515D01*
X89560Y-64550D01*
X89560Y-64720D01*
X89830Y-64720D01*
X89865Y-64685D01*
X89865Y-64875D01*
X89830Y-64840D01*
X89560Y-64840D01*
X89560Y-65010D01*
X89595Y-65045D01*
X89711Y-65045D01*
X89738Y-65045D01*
X89765Y-65039D01*
X89791Y-65029D01*
X89814Y-65013D01*
X89833Y-64994D01*
X89849Y-64971D01*
X89859Y-64945D01*
X89865Y-64918D01*
X89865Y-68621D01*
X89440Y-68383D01*
X89440Y-65010D01*
X89440Y-64840D01*
X89440Y-64720D01*
X89440Y-64550D01*
X89405Y-64515D01*
X89288Y-64515D01*
X89261Y-64515D01*
X89234Y-64520D01*
X89208Y-64530D01*
X89185Y-64546D01*
X89166Y-64565D01*
X89150Y-64588D01*
X89140Y-64614D01*
X89135Y-64641D01*
X89135Y-64685D01*
X89170Y-64720D01*
X89440Y-64720D01*
X89440Y-64840D01*
X89170Y-64840D01*
X89135Y-64875D01*
X89135Y-64918D01*
X89140Y-64945D01*
X89150Y-64971D01*
X89166Y-64994D01*
X89185Y-65013D01*
X89208Y-65029D01*
X89234Y-65039D01*
X89261Y-65045D01*
X89288Y-65045D01*
X89405Y-65045D01*
X89440Y-65010D01*
X89440Y-68383D01*
X88412Y-67809D01*
X86826Y-66459D01*
X86280Y-65770D01*
X86280Y-58947D01*
X86240Y-58746D01*
X86162Y-58557D01*
X86049Y-58387D01*
X85904Y-58241D01*
X85735Y-58127D01*
X85546Y-58047D01*
X85345Y-58006D01*
X85141Y-58005D01*
X84940Y-58043D01*
X84750Y-58120D01*
X84578Y-58232D01*
X84432Y-58375D01*
X84316Y-58544D01*
X84236Y-58732D01*
X84193Y-58933D01*
X84190Y-59137D01*
X84227Y-59339D01*
X84303Y-59529D01*
X84414Y-59701D01*
X84556Y-59848D01*
X84724Y-59965D01*
X84912Y-60047D01*
X85112Y-60091D01*
X85316Y-60095D01*
X85518Y-60060D01*
X85709Y-59986D01*
X85882Y-59876D01*
X86030Y-59735D01*
X86148Y-59568D01*
X86231Y-59381D01*
X86276Y-59181D01*
X86280Y-58947D01*
X86280Y-65770D01*
X85533Y-64828D01*
X84581Y-62976D01*
X84008Y-60975D01*
X83833Y-58901D01*
X84066Y-56832D01*
X84695Y-54847D01*
X85698Y-53023D01*
X87036Y-51428D01*
X88659Y-50124D01*
X90504Y-49159D01*
X92501Y-48571D01*
X94574Y-48383D01*
X96644Y-48600D01*
X98633Y-49216D01*
X100464Y-50206D01*
X102069Y-51533D01*
X103384Y-53146D01*
X104362Y-54985D01*
X104963Y-56978D01*
X105167Y-59050D01*
M02*
