G04 (created by PCBNEW (2013-mar-13)-testing) date Wed 22 May 2013 10:15:49 PM CEST*
%MOIN*%
G04 Gerber Fmt 3.4, Leading zero omitted, Abs format*
%FSLAX34Y34*%
G01*
G70*
G90*
G04 APERTURE LIST*
%ADD10C,0.005906*%
%ADD11C,0.078740*%
%ADD12C,0.122047*%
%ADD13R,0.015000X0.050000*%
%ADD14R,0.023600X0.039400*%
%ADD15R,0.025000X0.045000*%
%ADD16R,0.045000X0.025000*%
%ADD17R,0.028000X0.018000*%
%ADD18R,0.035000X0.055000*%
%ADD19R,0.060000X0.060000*%
%ADD20C,0.060000*%
%ADD21C,0.056000*%
%ADD22R,0.020000X0.045000*%
%ADD23R,0.078700X0.017700*%
%ADD24R,0.017700X0.078700*%
%ADD25R,0.063000X0.086600*%
%ADD26C,0.070000*%
%ADD27C,0.030000*%
%ADD28C,0.035000*%
%ADD29C,0.010000*%
%ADD30C,0.020000*%
%ADD31C,0.050000*%
G04 APERTURE END LIST*
G54D10*
G54D11*
X97650Y-55800D03*
G54D12*
X85236Y-59050D03*
G54D13*
X94141Y-54675D03*
X94397Y-54675D03*
X94653Y-54675D03*
X94909Y-54675D03*
X94909Y-52975D03*
X94653Y-52975D03*
X94397Y-52975D03*
X94141Y-52975D03*
G54D14*
X93025Y-53534D03*
X92650Y-54366D03*
X92275Y-53534D03*
G54D15*
X101725Y-55850D03*
X101125Y-55850D03*
G54D16*
X104800Y-53620D03*
X104800Y-53020D03*
G54D15*
X101075Y-54400D03*
X101675Y-54400D03*
G54D10*
G36*
X100191Y-51190D02*
X100509Y-51508D01*
X100332Y-51685D01*
X100014Y-51367D01*
X100191Y-51190D01*
X100191Y-51190D01*
G37*
G36*
X99767Y-51614D02*
X100085Y-51932D01*
X99908Y-52109D01*
X99590Y-51791D01*
X99767Y-51614D01*
X99767Y-51614D01*
G37*
G36*
X98541Y-49740D02*
X98859Y-50058D01*
X98682Y-50235D01*
X98364Y-49917D01*
X98541Y-49740D01*
X98541Y-49740D01*
G37*
G36*
X98117Y-50164D02*
X98435Y-50482D01*
X98258Y-50659D01*
X97940Y-50341D01*
X98117Y-50164D01*
X98117Y-50164D01*
G37*
G54D16*
X97400Y-49500D03*
X97400Y-50100D03*
X96500Y-49500D03*
X96500Y-50100D03*
G54D15*
X94200Y-62900D03*
X94800Y-62900D03*
G54D16*
X95000Y-64050D03*
X95000Y-63450D03*
G54D15*
X100500Y-61650D03*
X101100Y-61650D03*
G54D17*
X99725Y-55390D03*
X99725Y-55910D03*
X100525Y-55650D03*
G54D18*
X101750Y-55150D03*
X101000Y-55150D03*
G54D10*
G36*
X100083Y-50844D02*
X99694Y-51233D01*
X99446Y-50985D01*
X99835Y-50596D01*
X100083Y-50844D01*
X100083Y-50844D01*
G37*
G36*
X99553Y-50314D02*
X99164Y-50703D01*
X98916Y-50455D01*
X99305Y-50066D01*
X99553Y-50314D01*
X99553Y-50314D01*
G37*
G54D19*
X102850Y-60555D03*
G54D20*
X102850Y-59555D03*
X102850Y-58555D03*
X102850Y-57555D03*
G54D21*
X95007Y-64607D03*
X93592Y-63192D03*
G54D22*
X100000Y-62350D03*
X100500Y-62350D03*
X101000Y-62350D03*
X101500Y-62350D03*
X101500Y-64850D03*
X101000Y-64850D03*
X100500Y-64850D03*
X100000Y-64850D03*
G54D18*
X95175Y-51100D03*
X95925Y-51100D03*
G54D19*
X97950Y-65450D03*
G54D20*
X96950Y-65450D03*
X97950Y-66450D03*
X96950Y-66450D03*
X97950Y-67450D03*
X96950Y-67450D03*
G54D19*
X102260Y-63860D03*
G54D20*
X102260Y-62860D03*
G54D16*
X96050Y-55050D03*
X96050Y-54450D03*
X100125Y-54950D03*
X100125Y-54350D03*
G54D15*
X93725Y-51225D03*
X94325Y-51225D03*
G54D16*
X103000Y-63380D03*
X103000Y-63980D03*
X95250Y-65200D03*
X95250Y-65800D03*
G54D13*
X91566Y-52700D03*
X91822Y-52700D03*
X92078Y-52700D03*
X92334Y-52700D03*
X92334Y-51000D03*
X92078Y-51000D03*
X91822Y-51000D03*
X91566Y-51000D03*
G54D23*
X93696Y-63857D03*
X93696Y-64172D03*
X93696Y-64487D03*
X93696Y-64802D03*
X93696Y-65117D03*
X93696Y-65432D03*
X93696Y-65747D03*
X93696Y-66062D03*
X89930Y-66060D03*
X89930Y-63850D03*
X89930Y-64170D03*
X89930Y-64490D03*
X89930Y-64800D03*
X89930Y-65120D03*
X89930Y-65430D03*
X89930Y-65750D03*
G54D24*
X92912Y-66850D03*
X92598Y-66850D03*
X92282Y-66850D03*
X91968Y-66850D03*
X91652Y-66850D03*
X91338Y-66850D03*
X91022Y-66850D03*
X90708Y-66850D03*
X92910Y-63070D03*
X92600Y-63070D03*
X92280Y-63070D03*
X91970Y-63070D03*
X91660Y-63070D03*
X91340Y-63070D03*
X91020Y-63070D03*
X90700Y-63070D03*
G54D10*
G36*
X104176Y-56454D02*
X103391Y-56820D01*
X103091Y-56177D01*
X103876Y-55811D01*
X104176Y-56454D01*
X104176Y-56454D01*
G37*
G36*
X103508Y-55022D02*
X102723Y-55388D01*
X102423Y-54745D01*
X103208Y-54379D01*
X103508Y-55022D01*
X103508Y-55022D01*
G37*
G54D12*
X94256Y-68015D03*
X101386Y-58605D03*
G54D16*
X90300Y-53650D03*
X90300Y-54250D03*
G54D15*
X107550Y-56700D03*
X108150Y-56700D03*
X105750Y-55250D03*
X106350Y-55250D03*
X105750Y-54500D03*
X106350Y-54500D03*
X95400Y-52750D03*
X96000Y-52750D03*
G54D16*
X92500Y-49560D03*
X92500Y-50160D03*
G54D15*
X91900Y-50100D03*
X91300Y-50100D03*
X90850Y-52650D03*
X90250Y-52650D03*
G54D16*
X99425Y-54950D03*
X99425Y-54350D03*
G54D18*
X95175Y-51950D03*
X95925Y-51950D03*
X93650Y-51975D03*
X94400Y-51975D03*
X90925Y-54250D03*
X91675Y-54250D03*
X91675Y-53400D03*
X90925Y-53400D03*
G54D25*
X87812Y-72300D03*
X89308Y-72300D03*
X87412Y-74860D03*
X88908Y-74860D03*
G54D26*
X102457Y-53432D03*
G54D10*
G36*
X101750Y-53219D02*
X101255Y-52725D01*
X101750Y-52230D01*
X102244Y-52725D01*
X101750Y-53219D01*
X101750Y-53219D01*
G37*
G54D26*
X101042Y-52017D03*
G54D27*
X91880Y-49520D03*
X90840Y-50100D03*
G54D28*
X88150Y-54300D03*
X88160Y-52920D03*
X93425Y-62575D03*
X88320Y-63100D03*
X90660Y-64580D03*
G54D27*
X96300Y-66480D03*
G54D28*
X91220Y-65200D03*
X95850Y-65850D03*
X92050Y-65800D03*
G54D27*
X89920Y-63480D03*
G54D28*
X94300Y-50550D03*
X90880Y-50560D03*
G54D27*
X93180Y-49360D03*
X99180Y-62240D03*
X96320Y-67640D03*
X96300Y-67280D03*
G54D28*
X92220Y-54640D03*
X89625Y-54150D03*
X89625Y-54675D03*
X90300Y-54650D03*
X92675Y-55150D03*
X93475Y-55050D03*
X93550Y-54425D03*
X95450Y-54450D03*
X94825Y-55550D03*
X95500Y-55550D03*
X96100Y-55600D03*
X95720Y-48880D03*
X95700Y-50100D03*
X96200Y-63050D03*
X96200Y-63650D03*
X95700Y-64000D03*
X95700Y-63400D03*
X95400Y-62900D03*
X92450Y-53050D03*
X94440Y-64500D03*
X96500Y-51700D03*
X91900Y-51700D03*
X87220Y-64220D03*
X90875Y-51175D03*
X93025Y-52350D03*
X94850Y-53750D03*
X93050Y-51150D03*
X89000Y-64200D03*
G54D27*
X97780Y-57220D03*
G54D28*
X98200Y-61450D03*
G54D29*
X97400Y-68230D02*
X96110Y-68230D01*
X93122Y-66640D02*
X92912Y-66850D01*
X95299Y-66640D02*
X93122Y-66640D01*
X95598Y-66938D02*
X95299Y-66640D01*
X95598Y-67718D02*
X95598Y-66938D01*
X96110Y-68230D02*
X95598Y-67718D01*
X101000Y-64850D02*
X101000Y-66350D01*
X98420Y-68230D02*
X97400Y-68230D01*
X99220Y-67430D02*
X98420Y-68230D01*
X99920Y-67430D02*
X99220Y-67430D01*
X101000Y-66350D02*
X99920Y-67430D01*
X100500Y-64850D02*
X101000Y-64850D01*
G54D30*
X103660Y-62160D02*
X103660Y-62600D01*
X103535Y-59555D02*
X103660Y-59680D01*
X103660Y-59680D02*
X103660Y-62160D01*
X102850Y-59555D02*
X103535Y-59555D01*
X103400Y-62860D02*
X102260Y-62860D01*
X103660Y-62600D02*
X103400Y-62860D01*
X101000Y-62350D02*
X101000Y-62520D01*
X101340Y-62860D02*
X102260Y-62860D01*
X101000Y-62520D02*
X101340Y-62860D01*
G54D29*
X87800Y-60225D02*
X87800Y-61620D01*
X87800Y-63460D02*
X87800Y-65375D01*
X87800Y-61620D02*
X87800Y-63460D01*
X87800Y-65375D02*
X87800Y-65400D01*
X87800Y-65400D02*
X87800Y-65375D01*
X90300Y-53650D02*
X88325Y-53650D01*
X88175Y-65750D02*
X89930Y-65750D01*
X87800Y-65375D02*
X88175Y-65750D01*
X87800Y-54175D02*
X87800Y-60225D01*
X88325Y-53650D02*
X87800Y-54175D01*
X90250Y-52650D02*
X90250Y-53600D01*
X90250Y-53600D02*
X90300Y-53650D01*
X90520Y-50560D02*
X90520Y-50420D01*
X90520Y-50420D02*
X90840Y-50100D01*
X91300Y-50100D02*
X90840Y-50100D01*
X88160Y-52920D02*
X90520Y-50560D01*
X90520Y-50560D02*
X90520Y-50560D01*
X88050Y-63700D02*
X88050Y-64590D01*
X88050Y-63120D02*
X88050Y-63700D01*
X88050Y-64590D02*
X88260Y-64800D01*
X88320Y-63100D02*
X88300Y-63120D01*
X88300Y-63120D02*
X88050Y-63120D01*
X88050Y-63120D02*
X88050Y-60300D01*
X88050Y-60300D02*
X88050Y-54400D01*
X88050Y-54400D02*
X88150Y-54300D01*
X97980Y-60360D02*
X97980Y-60520D01*
X96150Y-62350D02*
X93650Y-62350D01*
X93650Y-62350D02*
X93425Y-62575D01*
X97980Y-57620D02*
X97980Y-60360D01*
X98900Y-55475D02*
X99425Y-54950D01*
X98900Y-56700D02*
X98450Y-57150D01*
X98900Y-55475D02*
X98900Y-56700D01*
X98450Y-57150D02*
X97980Y-57620D01*
X97950Y-60550D02*
X96150Y-62350D01*
X97980Y-60520D02*
X97950Y-60550D01*
X88320Y-63100D02*
X88270Y-63100D01*
X89930Y-64800D02*
X88260Y-64800D01*
G54D30*
X99425Y-54950D02*
X100125Y-54950D01*
X100125Y-54950D02*
X100125Y-54990D01*
X100125Y-54990D02*
X99725Y-55390D01*
X104000Y-62760D02*
X103640Y-63120D01*
X103320Y-63980D02*
X103000Y-63980D01*
X103640Y-63660D02*
X103320Y-63980D01*
X103640Y-63120D02*
X103640Y-63660D01*
X100500Y-62350D02*
X100500Y-62660D01*
X100500Y-62660D02*
X101020Y-63180D01*
X101020Y-63180D02*
X101420Y-63180D01*
X101420Y-63180D02*
X101740Y-63500D01*
X101740Y-63500D02*
X101740Y-64300D01*
X101740Y-64300D02*
X101900Y-64460D01*
X101900Y-64460D02*
X102720Y-64460D01*
X102720Y-64460D02*
X103000Y-64180D01*
X103000Y-64180D02*
X103000Y-63980D01*
X104000Y-61840D02*
X104000Y-62760D01*
X102850Y-58555D02*
X103005Y-58555D01*
X103005Y-58555D02*
X104000Y-59550D01*
X104000Y-61900D02*
X104000Y-61840D01*
X104000Y-61840D02*
X104000Y-61900D01*
X104000Y-59550D02*
X104000Y-61900D01*
G54D29*
X94400Y-51975D02*
X94400Y-52972D01*
X94400Y-52972D02*
X94397Y-52975D01*
G54D30*
X95175Y-51950D02*
X94425Y-51950D01*
X94425Y-51950D02*
X94400Y-51975D01*
G54D29*
X90700Y-63070D02*
X90700Y-64540D01*
X90700Y-64540D02*
X90660Y-64580D01*
X96950Y-66450D02*
X96330Y-66450D01*
X96330Y-66450D02*
X96300Y-66480D01*
X91020Y-65000D02*
X91020Y-63070D01*
X91220Y-65200D02*
X91020Y-65000D01*
X97950Y-67450D02*
X97950Y-67410D01*
X95850Y-66530D02*
X95850Y-65850D01*
X96260Y-66940D02*
X95850Y-66530D01*
X97480Y-66940D02*
X96260Y-66940D01*
X97950Y-67410D02*
X97480Y-66940D01*
G54D30*
X91968Y-66850D02*
X91968Y-65882D01*
X95300Y-65850D02*
X95250Y-65800D01*
X95850Y-65850D02*
X95300Y-65850D01*
X91968Y-65882D02*
X92050Y-65800D01*
G54D29*
X96180Y-67980D02*
X96200Y-68000D01*
X96200Y-68000D02*
X97280Y-68000D01*
X95400Y-66400D02*
X93200Y-66400D01*
X95820Y-66820D02*
X95400Y-66400D01*
X95820Y-67620D02*
X95820Y-66820D01*
X96180Y-67980D02*
X95820Y-67620D01*
X100000Y-64850D02*
X100000Y-65100D01*
X98300Y-68000D02*
X97280Y-68000D01*
X99100Y-67200D02*
X98300Y-68000D01*
X99750Y-67200D02*
X99100Y-67200D01*
X100750Y-66200D02*
X99750Y-67200D01*
X100750Y-65850D02*
X100750Y-66200D01*
X100000Y-65100D02*
X100750Y-65850D01*
X92282Y-66418D02*
X92282Y-66850D01*
X92500Y-66200D02*
X92282Y-66418D01*
X93000Y-66200D02*
X92500Y-66200D01*
X93200Y-66400D02*
X93000Y-66200D01*
X97280Y-68000D02*
X97200Y-68000D01*
X89930Y-63850D02*
X89920Y-63840D01*
X89920Y-63840D02*
X89920Y-63480D01*
G54D30*
X102260Y-63860D02*
X102740Y-63380D01*
X102740Y-63380D02*
X103000Y-63380D01*
G54D29*
X94397Y-54675D02*
X94397Y-55228D01*
X91444Y-55675D02*
X91319Y-55800D01*
X93950Y-55675D02*
X91444Y-55675D01*
X94397Y-55228D02*
X93950Y-55675D01*
G54D30*
X97605Y-55800D02*
X96855Y-55050D01*
X96855Y-55050D02*
X96050Y-55050D01*
G54D29*
X94653Y-54675D02*
X94650Y-54678D01*
X94650Y-54678D02*
X94650Y-55025D01*
X94650Y-55025D02*
X94800Y-55175D01*
X94800Y-55175D02*
X95925Y-55175D01*
X95925Y-55175D02*
X96050Y-55050D01*
X97500Y-68440D02*
X96000Y-68440D01*
X92760Y-67520D02*
X92598Y-67358D01*
X93140Y-67520D02*
X92760Y-67520D01*
X93280Y-67380D02*
X93140Y-67520D01*
X93280Y-67020D02*
X93280Y-67380D01*
X93440Y-66860D02*
X93280Y-67020D01*
X95199Y-66860D02*
X93440Y-66860D01*
X95380Y-67040D02*
X95199Y-66860D01*
X95380Y-67820D02*
X95380Y-67040D01*
X96000Y-68440D02*
X95380Y-67820D01*
X101500Y-64850D02*
X101500Y-66150D01*
X92598Y-67358D02*
X92598Y-66850D01*
X98510Y-68440D02*
X97500Y-68440D01*
X99310Y-67640D02*
X98510Y-68440D01*
X100010Y-67640D02*
X99310Y-67640D01*
X101500Y-66150D02*
X100010Y-67640D01*
X88531Y-52831D02*
X88548Y-52831D01*
X88548Y-52831D02*
X90720Y-50660D01*
X88375Y-53175D02*
X88531Y-53018D01*
X88531Y-53018D02*
X88531Y-52831D01*
X90880Y-50560D02*
X90780Y-50660D01*
X90780Y-50660D02*
X90720Y-50660D01*
X94325Y-50575D02*
X94300Y-50550D01*
X94325Y-50575D02*
X94325Y-51225D01*
X87550Y-54000D02*
X88375Y-53175D01*
X87550Y-58075D02*
X87550Y-54000D01*
X87550Y-60100D02*
X87550Y-65450D01*
X87560Y-65440D02*
X87560Y-65460D01*
X87550Y-65450D02*
X87560Y-65440D01*
X89930Y-66060D02*
X88160Y-66060D01*
X87560Y-65460D02*
X88160Y-66060D01*
X87550Y-58050D02*
X87550Y-58075D01*
X87550Y-58075D02*
X87550Y-60100D01*
G54D30*
X94325Y-51225D02*
X94450Y-51100D01*
X94450Y-51100D02*
X95175Y-51100D01*
X92500Y-49560D02*
X92980Y-49560D01*
X92980Y-49560D02*
X93180Y-49360D01*
G54D29*
X96950Y-67450D02*
X96290Y-67450D01*
X96290Y-67450D02*
X96300Y-67280D01*
X92650Y-54366D02*
X92376Y-54640D01*
X92376Y-54640D02*
X92220Y-54640D01*
X90300Y-54250D02*
X90300Y-54650D01*
X89625Y-54675D02*
X89625Y-54150D01*
X94141Y-54675D02*
X93800Y-54675D01*
X93375Y-55150D02*
X92675Y-55150D01*
X93475Y-55050D02*
X93375Y-55150D01*
X93800Y-54675D02*
X93550Y-54425D01*
X95325Y-54575D02*
X95450Y-54450D01*
X94909Y-54575D02*
X95325Y-54575D01*
X96050Y-55550D02*
X95500Y-55550D01*
X96100Y-55600D02*
X96050Y-55550D01*
G54D30*
X95700Y-50100D02*
X96500Y-50100D01*
X95000Y-63450D02*
X95000Y-63300D01*
X96200Y-63650D02*
X96200Y-63050D01*
X95700Y-63400D02*
X95700Y-64000D01*
X95000Y-63300D02*
X95400Y-62900D01*
G54D29*
X92334Y-52700D02*
X92334Y-52084D01*
X92300Y-52050D02*
X90900Y-52100D01*
X92334Y-52084D02*
X92300Y-52050D01*
X92334Y-52700D02*
X92334Y-52934D01*
X92334Y-52934D02*
X92450Y-53050D01*
G54D30*
X93696Y-64802D02*
X94298Y-64802D01*
X94298Y-64802D02*
X94440Y-64500D01*
G54D29*
X92334Y-52700D02*
X92334Y-52166D01*
X92334Y-52166D02*
X92350Y-52150D01*
G54D30*
X92500Y-50160D02*
X91960Y-50160D01*
X91960Y-50160D02*
X91900Y-50100D01*
G54D29*
X92334Y-51000D02*
X92334Y-50326D01*
X92334Y-50326D02*
X92500Y-50160D01*
X91960Y-50160D02*
X91900Y-50100D01*
X95400Y-52750D02*
X95400Y-52600D01*
X94653Y-52547D02*
X94653Y-52875D01*
X94750Y-52450D02*
X94653Y-52547D01*
X95250Y-52450D02*
X94750Y-52450D01*
X95400Y-52600D02*
X95250Y-52450D01*
G54D31*
X102850Y-57555D02*
X102850Y-57099D01*
X102850Y-57099D02*
X103633Y-56315D01*
G54D29*
X94141Y-52875D02*
X94141Y-52391D01*
X94141Y-52391D02*
X93725Y-51975D01*
X93725Y-51975D02*
X93725Y-51225D01*
X91822Y-51622D02*
X91900Y-51700D01*
X91822Y-51000D02*
X91822Y-51622D01*
G54D30*
X96175Y-51700D02*
X96500Y-51700D01*
X96175Y-51700D02*
X95925Y-51950D01*
X96050Y-54350D02*
X96000Y-54300D01*
X96000Y-54300D02*
X96000Y-52750D01*
X96000Y-52750D02*
X96000Y-52025D01*
X96000Y-52025D02*
X95925Y-51950D01*
G54D29*
X92078Y-51000D02*
X91822Y-51000D01*
X92078Y-52700D02*
X92078Y-53337D01*
X92078Y-53337D02*
X92275Y-53534D01*
X91822Y-52700D02*
X91822Y-53278D01*
X91822Y-53278D02*
X91750Y-53350D01*
X91750Y-53350D02*
X91750Y-54100D01*
X90850Y-52650D02*
X90850Y-53325D01*
X90850Y-53325D02*
X90925Y-53400D01*
X91566Y-52700D02*
X91566Y-52759D01*
X91566Y-52759D02*
X90925Y-53400D01*
G54D30*
X100125Y-54350D02*
X99425Y-54350D01*
X101075Y-54400D02*
X100175Y-54400D01*
X100175Y-54400D02*
X100125Y-54350D01*
X101075Y-54400D02*
X101075Y-55075D01*
X101075Y-55075D02*
X101000Y-55150D01*
G54D29*
X94200Y-62900D02*
X93907Y-63192D01*
X93907Y-63192D02*
X93592Y-63192D01*
X93696Y-63857D02*
X93696Y-63296D01*
X93696Y-63296D02*
X93592Y-63192D01*
X95007Y-64607D02*
X95000Y-64600D01*
X95000Y-64600D02*
X95000Y-64050D01*
X93696Y-64172D02*
X94572Y-64172D01*
X94572Y-64172D02*
X95007Y-64607D01*
X92200Y-49180D02*
X92720Y-49180D01*
X92720Y-49180D02*
X92880Y-49020D01*
X91760Y-49180D02*
X92200Y-49180D01*
X88060Y-52480D02*
X88268Y-52480D01*
X88268Y-52480D02*
X90288Y-50460D01*
X90280Y-50280D02*
X90460Y-50111D01*
X93620Y-49020D02*
X94100Y-49500D01*
X90280Y-50451D02*
X90280Y-50280D01*
X90288Y-50460D02*
X90280Y-50451D01*
X91300Y-49640D02*
X91760Y-49180D01*
X92880Y-49020D02*
X93620Y-49020D01*
X90820Y-49640D02*
X91300Y-49640D01*
X90711Y-49640D02*
X90820Y-49640D01*
X90460Y-49891D02*
X90711Y-49640D01*
X90460Y-50111D02*
X90460Y-49891D01*
X87820Y-52720D02*
X88060Y-52480D01*
X87320Y-60020D02*
X87320Y-64120D01*
X87320Y-64120D02*
X87220Y-64220D01*
X89000Y-64200D02*
X89030Y-64170D01*
X89030Y-64170D02*
X89930Y-64170D01*
X87820Y-53400D02*
X87820Y-52720D01*
X87320Y-53900D02*
X87820Y-53400D01*
X87320Y-60020D02*
X87320Y-53900D01*
X91566Y-51000D02*
X91391Y-51175D01*
X91391Y-51175D02*
X90875Y-51175D01*
X93025Y-52350D02*
X93025Y-52225D01*
X93025Y-52225D02*
X93000Y-52225D01*
X93000Y-52225D02*
X93025Y-52225D01*
G54D31*
X94100Y-49500D02*
X94025Y-49500D01*
X93025Y-50500D02*
X93025Y-52225D01*
X94025Y-49500D02*
X93025Y-50500D01*
G54D29*
X94850Y-53750D02*
X94900Y-53750D01*
X94909Y-52875D02*
X94900Y-52884D01*
G54D31*
X94900Y-53750D02*
X93241Y-53750D01*
X93241Y-53750D02*
X93025Y-53534D01*
G54D29*
X94900Y-52884D02*
X94900Y-53750D01*
X93050Y-52325D02*
X93025Y-52325D01*
X93025Y-52325D02*
X93050Y-52325D01*
X93050Y-52325D02*
X93025Y-52325D01*
G54D31*
X96500Y-49500D02*
X94100Y-49500D01*
X94100Y-49500D02*
X94050Y-49500D01*
X93025Y-52225D02*
X93025Y-52325D01*
X93025Y-52325D02*
X93025Y-53534D01*
G54D30*
X89930Y-64170D02*
X89030Y-64170D01*
X89030Y-64170D02*
X89000Y-64200D01*
G54D31*
X97400Y-49500D02*
X96500Y-49500D01*
X98612Y-49987D02*
X98124Y-49500D01*
X98124Y-49500D02*
X97400Y-49500D01*
X99234Y-50384D02*
X98837Y-49987D01*
X98837Y-49987D02*
X98612Y-49987D01*
X102966Y-54884D02*
X102598Y-54884D01*
X102598Y-54884D02*
X102457Y-54742D01*
X102457Y-53457D02*
X102457Y-54742D01*
X101725Y-55750D02*
X101725Y-55850D01*
X101725Y-55850D02*
X101725Y-55175D01*
X101725Y-55175D02*
X101750Y-55150D01*
G54D30*
X101800Y-55200D02*
X101750Y-55150D01*
G54D31*
X99260Y-53840D02*
X98880Y-53840D01*
X101042Y-52017D02*
X101042Y-52057D01*
X101042Y-52057D02*
X99260Y-53840D01*
X98880Y-53840D02*
X98675Y-54045D01*
X98675Y-54045D02*
X98675Y-55105D01*
X98480Y-56520D02*
X97780Y-57220D01*
X98480Y-55300D02*
X98480Y-56520D01*
X98675Y-55105D02*
X98480Y-55300D01*
X97350Y-62300D02*
X97350Y-63900D01*
X98200Y-61450D02*
X97350Y-62300D01*
X98200Y-61450D02*
X98400Y-61650D01*
X97350Y-63900D02*
X96600Y-64650D01*
X96000Y-65300D02*
X96000Y-65250D01*
X96000Y-65250D02*
X96600Y-64650D01*
G54D30*
X96950Y-65000D02*
X96600Y-64650D01*
X96600Y-64650D02*
X96600Y-64600D01*
X96600Y-64600D02*
X96600Y-64650D01*
G54D31*
X98400Y-61650D02*
X100000Y-61650D01*
X95950Y-65300D02*
X96000Y-65300D01*
G54D29*
X100000Y-62350D02*
X100000Y-61650D01*
X100000Y-61650D02*
X100000Y-61700D01*
X100000Y-61700D02*
X100000Y-61650D01*
G54D31*
X100000Y-61650D02*
X100500Y-61650D01*
G54D30*
X96950Y-65450D02*
X96950Y-65000D01*
G54D31*
X101042Y-52057D02*
X100000Y-53100D01*
X101042Y-52042D02*
X101042Y-52057D01*
G54D30*
X93696Y-65117D02*
X95167Y-65117D01*
X95167Y-65117D02*
X95250Y-65200D01*
G54D31*
X96000Y-65300D02*
X95350Y-65300D01*
X95350Y-65300D02*
X95250Y-65200D01*
G54D30*
X93696Y-64487D02*
X93063Y-64487D01*
X93117Y-65117D02*
X93696Y-65117D01*
X92900Y-64900D02*
X93117Y-65117D01*
X92900Y-64650D02*
X92900Y-64900D01*
X93063Y-64487D02*
X92900Y-64650D01*
G54D31*
X101042Y-52042D02*
X100867Y-52042D01*
X100867Y-52042D02*
X100262Y-51437D01*
X99765Y-50915D02*
X99765Y-50940D01*
X99765Y-50940D02*
X100262Y-51437D01*
G54D10*
G36*
X92631Y-50435D02*
X92629Y-50457D01*
X92625Y-50494D01*
X92625Y-50498D01*
X92625Y-50498D01*
X92625Y-50498D01*
X92625Y-50500D01*
X92625Y-52225D01*
X92625Y-52323D01*
X92603Y-52290D01*
X92568Y-52255D01*
X92527Y-52228D01*
X92481Y-52209D01*
X92433Y-52200D01*
X92371Y-52262D01*
X92371Y-52650D01*
X92391Y-52650D01*
X92391Y-52750D01*
X92371Y-52750D01*
X92371Y-52757D01*
X92303Y-52757D01*
X92303Y-52435D01*
X92297Y-52406D01*
X92296Y-52404D01*
X92296Y-52262D01*
X92234Y-52200D01*
X92186Y-52209D01*
X92140Y-52228D01*
X92099Y-52255D01*
X92064Y-52290D01*
X92058Y-52300D01*
X91988Y-52300D01*
X91959Y-52305D01*
X91950Y-52309D01*
X91940Y-52305D01*
X91911Y-52300D01*
X91882Y-52300D01*
X91732Y-52300D01*
X91703Y-52305D01*
X91694Y-52309D01*
X91684Y-52305D01*
X91655Y-52300D01*
X91626Y-52300D01*
X91476Y-52300D01*
X91447Y-52305D01*
X91419Y-52317D01*
X91395Y-52333D01*
X91374Y-52354D01*
X91358Y-52378D01*
X91346Y-52406D01*
X91341Y-52435D01*
X91341Y-52464D01*
X91341Y-52701D01*
X91116Y-52925D01*
X91119Y-52918D01*
X91125Y-52889D01*
X91125Y-52860D01*
X91125Y-52410D01*
X91119Y-52381D01*
X91107Y-52353D01*
X91091Y-52329D01*
X91070Y-52308D01*
X91046Y-52292D01*
X91018Y-52280D01*
X90989Y-52275D01*
X90960Y-52275D01*
X90710Y-52275D01*
X90681Y-52280D01*
X90653Y-52292D01*
X90629Y-52308D01*
X90608Y-52329D01*
X90592Y-52353D01*
X90580Y-52381D01*
X90575Y-52410D01*
X90575Y-52439D01*
X90575Y-52889D01*
X90580Y-52918D01*
X90592Y-52946D01*
X90608Y-52970D01*
X90629Y-52991D01*
X90650Y-53005D01*
X90650Y-53012D01*
X90633Y-53029D01*
X90617Y-53053D01*
X90605Y-53081D01*
X90600Y-53110D01*
X90600Y-53139D01*
X90600Y-53394D01*
X90596Y-53392D01*
X90568Y-53380D01*
X90539Y-53375D01*
X90510Y-53375D01*
X90450Y-53375D01*
X90450Y-53005D01*
X90470Y-52991D01*
X90491Y-52970D01*
X90507Y-52946D01*
X90519Y-52918D01*
X90525Y-52889D01*
X90525Y-52860D01*
X90525Y-52410D01*
X90519Y-52381D01*
X90507Y-52353D01*
X90491Y-52329D01*
X90470Y-52308D01*
X90446Y-52292D01*
X90418Y-52280D01*
X90389Y-52275D01*
X90360Y-52275D01*
X90110Y-52275D01*
X90081Y-52280D01*
X90053Y-52292D01*
X90029Y-52308D01*
X90008Y-52329D01*
X89992Y-52353D01*
X89980Y-52381D01*
X89975Y-52410D01*
X89975Y-52439D01*
X89975Y-52889D01*
X89980Y-52918D01*
X89992Y-52946D01*
X90008Y-52970D01*
X90029Y-52991D01*
X90050Y-53005D01*
X90050Y-53377D01*
X90031Y-53380D01*
X90003Y-53392D01*
X89979Y-53408D01*
X89958Y-53429D01*
X89944Y-53450D01*
X88382Y-53450D01*
X88516Y-53316D01*
X88516Y-53316D01*
X88516Y-53316D01*
X88672Y-53159D01*
X88684Y-53145D01*
X88696Y-53131D01*
X88696Y-53130D01*
X88697Y-53129D01*
X88706Y-53113D01*
X88715Y-53097D01*
X88715Y-53096D01*
X88716Y-53095D01*
X88721Y-53077D01*
X88727Y-53060D01*
X88727Y-53059D01*
X88727Y-53058D01*
X88729Y-53039D01*
X88731Y-53021D01*
X88731Y-53019D01*
X88731Y-53019D01*
X88731Y-53019D01*
X88731Y-53018D01*
X88731Y-52931D01*
X90557Y-51105D01*
X90550Y-51138D01*
X90549Y-51202D01*
X90561Y-51265D01*
X90584Y-51324D01*
X90619Y-51377D01*
X90663Y-51423D01*
X90715Y-51460D01*
X90774Y-51485D01*
X90836Y-51499D01*
X90900Y-51500D01*
X90962Y-51489D01*
X91022Y-51466D01*
X91076Y-51432D01*
X91122Y-51388D01*
X91131Y-51375D01*
X91391Y-51375D01*
X91405Y-51373D01*
X91419Y-51382D01*
X91447Y-51394D01*
X91476Y-51400D01*
X91505Y-51400D01*
X91622Y-51400D01*
X91622Y-51530D01*
X91613Y-51542D01*
X91588Y-51601D01*
X91575Y-51663D01*
X91574Y-51727D01*
X91586Y-51790D01*
X91609Y-51849D01*
X91644Y-51902D01*
X91688Y-51948D01*
X91740Y-51985D01*
X91799Y-52010D01*
X91861Y-52024D01*
X91925Y-52025D01*
X91987Y-52014D01*
X92047Y-51991D01*
X92101Y-51957D01*
X92147Y-51913D01*
X92183Y-51861D01*
X92209Y-51803D01*
X92223Y-51740D01*
X92225Y-51668D01*
X92212Y-51605D01*
X92188Y-51546D01*
X92153Y-51493D01*
X92108Y-51448D01*
X92055Y-51412D01*
X92025Y-51400D01*
X92167Y-51400D01*
X92196Y-51394D01*
X92205Y-51390D01*
X92215Y-51394D01*
X92244Y-51400D01*
X92273Y-51400D01*
X92423Y-51400D01*
X92452Y-51394D01*
X92480Y-51382D01*
X92504Y-51366D01*
X92525Y-51345D01*
X92541Y-51321D01*
X92553Y-51293D01*
X92559Y-51264D01*
X92559Y-51235D01*
X92559Y-50735D01*
X92553Y-50706D01*
X92541Y-50678D01*
X92534Y-50667D01*
X92534Y-50435D01*
X92631Y-50435D01*
X92631Y-50435D01*
G37*
G54D29*
X92631Y-50435D02*
X92629Y-50457D01*
X92625Y-50494D01*
X92625Y-50498D01*
X92625Y-50498D01*
X92625Y-50498D01*
X92625Y-50500D01*
X92625Y-52225D01*
X92625Y-52323D01*
X92603Y-52290D01*
X92568Y-52255D01*
X92527Y-52228D01*
X92481Y-52209D01*
X92433Y-52200D01*
X92371Y-52262D01*
X92371Y-52650D01*
X92391Y-52650D01*
X92391Y-52750D01*
X92371Y-52750D01*
X92371Y-52757D01*
X92303Y-52757D01*
X92303Y-52435D01*
X92297Y-52406D01*
X92296Y-52404D01*
X92296Y-52262D01*
X92234Y-52200D01*
X92186Y-52209D01*
X92140Y-52228D01*
X92099Y-52255D01*
X92064Y-52290D01*
X92058Y-52300D01*
X91988Y-52300D01*
X91959Y-52305D01*
X91950Y-52309D01*
X91940Y-52305D01*
X91911Y-52300D01*
X91882Y-52300D01*
X91732Y-52300D01*
X91703Y-52305D01*
X91694Y-52309D01*
X91684Y-52305D01*
X91655Y-52300D01*
X91626Y-52300D01*
X91476Y-52300D01*
X91447Y-52305D01*
X91419Y-52317D01*
X91395Y-52333D01*
X91374Y-52354D01*
X91358Y-52378D01*
X91346Y-52406D01*
X91341Y-52435D01*
X91341Y-52464D01*
X91341Y-52701D01*
X91116Y-52925D01*
X91119Y-52918D01*
X91125Y-52889D01*
X91125Y-52860D01*
X91125Y-52410D01*
X91119Y-52381D01*
X91107Y-52353D01*
X91091Y-52329D01*
X91070Y-52308D01*
X91046Y-52292D01*
X91018Y-52280D01*
X90989Y-52275D01*
X90960Y-52275D01*
X90710Y-52275D01*
X90681Y-52280D01*
X90653Y-52292D01*
X90629Y-52308D01*
X90608Y-52329D01*
X90592Y-52353D01*
X90580Y-52381D01*
X90575Y-52410D01*
X90575Y-52439D01*
X90575Y-52889D01*
X90580Y-52918D01*
X90592Y-52946D01*
X90608Y-52970D01*
X90629Y-52991D01*
X90650Y-53005D01*
X90650Y-53012D01*
X90633Y-53029D01*
X90617Y-53053D01*
X90605Y-53081D01*
X90600Y-53110D01*
X90600Y-53139D01*
X90600Y-53394D01*
X90596Y-53392D01*
X90568Y-53380D01*
X90539Y-53375D01*
X90510Y-53375D01*
X90450Y-53375D01*
X90450Y-53005D01*
X90470Y-52991D01*
X90491Y-52970D01*
X90507Y-52946D01*
X90519Y-52918D01*
X90525Y-52889D01*
X90525Y-52860D01*
X90525Y-52410D01*
X90519Y-52381D01*
X90507Y-52353D01*
X90491Y-52329D01*
X90470Y-52308D01*
X90446Y-52292D01*
X90418Y-52280D01*
X90389Y-52275D01*
X90360Y-52275D01*
X90110Y-52275D01*
X90081Y-52280D01*
X90053Y-52292D01*
X90029Y-52308D01*
X90008Y-52329D01*
X89992Y-52353D01*
X89980Y-52381D01*
X89975Y-52410D01*
X89975Y-52439D01*
X89975Y-52889D01*
X89980Y-52918D01*
X89992Y-52946D01*
X90008Y-52970D01*
X90029Y-52991D01*
X90050Y-53005D01*
X90050Y-53377D01*
X90031Y-53380D01*
X90003Y-53392D01*
X89979Y-53408D01*
X89958Y-53429D01*
X89944Y-53450D01*
X88382Y-53450D01*
X88516Y-53316D01*
X88516Y-53316D01*
X88516Y-53316D01*
X88672Y-53159D01*
X88684Y-53145D01*
X88696Y-53131D01*
X88696Y-53130D01*
X88697Y-53129D01*
X88706Y-53113D01*
X88715Y-53097D01*
X88715Y-53096D01*
X88716Y-53095D01*
X88721Y-53077D01*
X88727Y-53060D01*
X88727Y-53059D01*
X88727Y-53058D01*
X88729Y-53039D01*
X88731Y-53021D01*
X88731Y-53019D01*
X88731Y-53019D01*
X88731Y-53019D01*
X88731Y-53018D01*
X88731Y-52931D01*
X90557Y-51105D01*
X90550Y-51138D01*
X90549Y-51202D01*
X90561Y-51265D01*
X90584Y-51324D01*
X90619Y-51377D01*
X90663Y-51423D01*
X90715Y-51460D01*
X90774Y-51485D01*
X90836Y-51499D01*
X90900Y-51500D01*
X90962Y-51489D01*
X91022Y-51466D01*
X91076Y-51432D01*
X91122Y-51388D01*
X91131Y-51375D01*
X91391Y-51375D01*
X91405Y-51373D01*
X91419Y-51382D01*
X91447Y-51394D01*
X91476Y-51400D01*
X91505Y-51400D01*
X91622Y-51400D01*
X91622Y-51530D01*
X91613Y-51542D01*
X91588Y-51601D01*
X91575Y-51663D01*
X91574Y-51727D01*
X91586Y-51790D01*
X91609Y-51849D01*
X91644Y-51902D01*
X91688Y-51948D01*
X91740Y-51985D01*
X91799Y-52010D01*
X91861Y-52024D01*
X91925Y-52025D01*
X91987Y-52014D01*
X92047Y-51991D01*
X92101Y-51957D01*
X92147Y-51913D01*
X92183Y-51861D01*
X92209Y-51803D01*
X92223Y-51740D01*
X92225Y-51668D01*
X92212Y-51605D01*
X92188Y-51546D01*
X92153Y-51493D01*
X92108Y-51448D01*
X92055Y-51412D01*
X92025Y-51400D01*
X92167Y-51400D01*
X92196Y-51394D01*
X92205Y-51390D01*
X92215Y-51394D01*
X92244Y-51400D01*
X92273Y-51400D01*
X92423Y-51400D01*
X92452Y-51394D01*
X92480Y-51382D01*
X92504Y-51366D01*
X92525Y-51345D01*
X92541Y-51321D01*
X92553Y-51293D01*
X92559Y-51264D01*
X92559Y-51235D01*
X92559Y-50735D01*
X92553Y-50706D01*
X92541Y-50678D01*
X92534Y-50667D01*
X92534Y-50435D01*
X92631Y-50435D01*
G54D10*
G36*
X93638Y-49321D02*
X92875Y-50084D01*
X92875Y-50020D01*
X92869Y-49991D01*
X92857Y-49963D01*
X92841Y-49939D01*
X92820Y-49918D01*
X92818Y-49916D01*
X92843Y-49906D01*
X92884Y-49879D01*
X92919Y-49844D01*
X92946Y-49803D01*
X92965Y-49757D01*
X92975Y-49709D01*
X92975Y-49672D01*
X92912Y-49610D01*
X92550Y-49610D01*
X92550Y-49617D01*
X92450Y-49617D01*
X92450Y-49610D01*
X92442Y-49610D01*
X92442Y-49510D01*
X92450Y-49510D01*
X92450Y-49502D01*
X92550Y-49502D01*
X92550Y-49510D01*
X92912Y-49510D01*
X92975Y-49447D01*
X92975Y-49410D01*
X92965Y-49362D01*
X92946Y-49316D01*
X92919Y-49275D01*
X92913Y-49269D01*
X92962Y-49220D01*
X93537Y-49220D01*
X93638Y-49321D01*
X93638Y-49321D01*
G37*
G54D29*
X93638Y-49321D02*
X92875Y-50084D01*
X92875Y-50020D01*
X92869Y-49991D01*
X92857Y-49963D01*
X92841Y-49939D01*
X92820Y-49918D01*
X92818Y-49916D01*
X92843Y-49906D01*
X92884Y-49879D01*
X92919Y-49844D01*
X92946Y-49803D01*
X92965Y-49757D01*
X92975Y-49709D01*
X92975Y-49672D01*
X92912Y-49610D01*
X92550Y-49610D01*
X92550Y-49617D01*
X92450Y-49617D01*
X92450Y-49610D01*
X92442Y-49610D01*
X92442Y-49510D01*
X92450Y-49510D01*
X92450Y-49502D01*
X92550Y-49502D01*
X92550Y-49510D01*
X92912Y-49510D01*
X92975Y-49447D01*
X92975Y-49410D01*
X92965Y-49362D01*
X92946Y-49316D01*
X92919Y-49275D01*
X92913Y-49269D01*
X92962Y-49220D01*
X93537Y-49220D01*
X93638Y-49321D01*
G54D10*
G36*
X94663Y-64867D02*
X94339Y-64867D01*
X94297Y-64867D01*
X94277Y-64846D01*
X93746Y-64846D01*
X93746Y-64859D01*
X93646Y-64859D01*
X93646Y-64846D01*
X93638Y-64846D01*
X93638Y-64757D01*
X93646Y-64757D01*
X93646Y-64744D01*
X93746Y-64744D01*
X93746Y-64757D01*
X94277Y-64757D01*
X94339Y-64695D01*
X94339Y-64688D01*
X94329Y-64640D01*
X94311Y-64595D01*
X94283Y-64554D01*
X94248Y-64519D01*
X94239Y-64513D01*
X94239Y-64383D01*
X94237Y-64372D01*
X94489Y-64372D01*
X94594Y-64477D01*
X94577Y-64558D01*
X94576Y-64643D01*
X94591Y-64726D01*
X94622Y-64804D01*
X94663Y-64867D01*
X94663Y-64867D01*
G37*
G54D29*
X94663Y-64867D02*
X94339Y-64867D01*
X94297Y-64867D01*
X94277Y-64846D01*
X93746Y-64846D01*
X93746Y-64859D01*
X93646Y-64859D01*
X93646Y-64846D01*
X93638Y-64846D01*
X93638Y-64757D01*
X93646Y-64757D01*
X93646Y-64744D01*
X93746Y-64744D01*
X93746Y-64757D01*
X94277Y-64757D01*
X94339Y-64695D01*
X94339Y-64688D01*
X94329Y-64640D01*
X94311Y-64595D01*
X94283Y-64554D01*
X94248Y-64519D01*
X94239Y-64513D01*
X94239Y-64383D01*
X94237Y-64372D01*
X94489Y-64372D01*
X94594Y-64477D01*
X94577Y-64558D01*
X94576Y-64643D01*
X94591Y-64726D01*
X94622Y-64804D01*
X94663Y-64867D01*
G54D10*
G36*
X96569Y-67759D02*
X96529Y-67800D01*
X96282Y-67800D01*
X96020Y-67537D01*
X96020Y-66982D01*
X96118Y-67081D01*
X96132Y-67093D01*
X96147Y-67105D01*
X96147Y-67105D01*
X96148Y-67106D01*
X96165Y-67114D01*
X96181Y-67123D01*
X96182Y-67124D01*
X96183Y-67124D01*
X96200Y-67130D01*
X96218Y-67135D01*
X96219Y-67135D01*
X96220Y-67136D01*
X96238Y-67137D01*
X96257Y-67139D01*
X96259Y-67139D01*
X96259Y-67139D01*
X96259Y-67139D01*
X96260Y-67140D01*
X96569Y-67140D01*
X96569Y-67140D01*
X96475Y-67166D01*
X96429Y-67264D01*
X96403Y-67370D01*
X96398Y-67478D01*
X96414Y-67585D01*
X96450Y-67687D01*
X96475Y-67733D01*
X96569Y-67759D01*
X96569Y-67759D01*
G37*
G54D29*
X96569Y-67759D02*
X96529Y-67800D01*
X96282Y-67800D01*
X96020Y-67537D01*
X96020Y-66982D01*
X96118Y-67081D01*
X96132Y-67093D01*
X96147Y-67105D01*
X96147Y-67105D01*
X96148Y-67106D01*
X96165Y-67114D01*
X96181Y-67123D01*
X96182Y-67124D01*
X96183Y-67124D01*
X96200Y-67130D01*
X96218Y-67135D01*
X96219Y-67135D01*
X96220Y-67136D01*
X96238Y-67137D01*
X96257Y-67139D01*
X96259Y-67139D01*
X96259Y-67139D01*
X96259Y-67139D01*
X96260Y-67140D01*
X96569Y-67140D01*
X96569Y-67140D01*
X96475Y-67166D01*
X96429Y-67264D01*
X96403Y-67370D01*
X96398Y-67478D01*
X96414Y-67585D01*
X96450Y-67687D01*
X96475Y-67733D01*
X96569Y-67759D01*
G54D10*
G36*
X97026Y-67455D02*
X96955Y-67526D01*
X96950Y-67520D01*
X96944Y-67526D01*
X96879Y-67461D01*
X96873Y-67455D01*
X96879Y-67450D01*
X96873Y-67444D01*
X96944Y-67373D01*
X96950Y-67379D01*
X96955Y-67373D01*
X97026Y-67444D01*
X97020Y-67450D01*
X97026Y-67455D01*
X97026Y-67455D01*
G37*
G54D29*
X97026Y-67455D02*
X96955Y-67526D01*
X96950Y-67520D01*
X96944Y-67526D01*
X96879Y-67461D01*
X96873Y-67455D01*
X96879Y-67450D01*
X96873Y-67444D01*
X96944Y-67373D01*
X96950Y-67379D01*
X96955Y-67373D01*
X97026Y-67444D01*
X97020Y-67450D01*
X97026Y-67455D01*
G54D10*
G36*
X100396Y-52137D02*
X100094Y-52440D01*
X100094Y-52277D01*
X100094Y-52189D01*
X99837Y-51932D01*
X99767Y-52003D01*
X99767Y-51862D01*
X99510Y-51605D01*
X99422Y-51605D01*
X99396Y-51632D01*
X99368Y-51673D01*
X99349Y-51718D01*
X99340Y-51766D01*
X99340Y-51816D01*
X99349Y-51864D01*
X99368Y-51909D01*
X99396Y-51950D01*
X99431Y-51985D01*
X99493Y-52047D01*
X99581Y-52047D01*
X99767Y-51862D01*
X99767Y-52003D01*
X99652Y-52118D01*
X99652Y-52206D01*
X99714Y-52268D01*
X99749Y-52303D01*
X99790Y-52331D01*
X99835Y-52350D01*
X99883Y-52359D01*
X99933Y-52359D01*
X99981Y-52350D01*
X100026Y-52331D01*
X100067Y-52303D01*
X100094Y-52277D01*
X100094Y-52440D01*
X99094Y-53440D01*
X98880Y-53440D01*
X98843Y-53443D01*
X98806Y-53446D01*
X98804Y-53447D01*
X98802Y-53447D01*
X98766Y-53458D01*
X98731Y-53468D01*
X98729Y-53469D01*
X98727Y-53470D01*
X98694Y-53487D01*
X98662Y-53504D01*
X98660Y-53505D01*
X98658Y-53506D01*
X98630Y-53530D01*
X98601Y-53553D01*
X98598Y-53556D01*
X98598Y-53556D01*
X98598Y-53556D01*
X98597Y-53557D01*
X98444Y-53710D01*
X98444Y-50827D01*
X98444Y-50739D01*
X98187Y-50482D01*
X98117Y-50553D01*
X98117Y-50412D01*
X97860Y-50155D01*
X97818Y-50155D01*
X97812Y-50150D01*
X97450Y-50150D01*
X97450Y-50412D01*
X97512Y-50475D01*
X97600Y-50475D01*
X97649Y-50475D01*
X97697Y-50465D01*
X97717Y-50457D01*
X97718Y-50459D01*
X97746Y-50500D01*
X97781Y-50535D01*
X97843Y-50597D01*
X97931Y-50597D01*
X98117Y-50412D01*
X98117Y-50553D01*
X98002Y-50668D01*
X98002Y-50756D01*
X98064Y-50818D01*
X98099Y-50853D01*
X98140Y-50881D01*
X98185Y-50900D01*
X98233Y-50909D01*
X98283Y-50909D01*
X98331Y-50900D01*
X98376Y-50881D01*
X98417Y-50853D01*
X98444Y-50827D01*
X98444Y-53710D01*
X98392Y-53762D01*
X98368Y-53790D01*
X98344Y-53819D01*
X98343Y-53820D01*
X98342Y-53822D01*
X98325Y-53855D01*
X98307Y-53887D01*
X98306Y-53889D01*
X98305Y-53891D01*
X98294Y-53926D01*
X98283Y-53961D01*
X98283Y-53963D01*
X98282Y-53965D01*
X98279Y-54002D01*
X98275Y-54039D01*
X98275Y-54043D01*
X98275Y-54043D01*
X98275Y-54043D01*
X98275Y-54045D01*
X98275Y-54939D01*
X98197Y-55017D01*
X98173Y-55045D01*
X98149Y-55074D01*
X98148Y-55075D01*
X98147Y-55077D01*
X98130Y-55110D01*
X98112Y-55142D01*
X98111Y-55144D01*
X98110Y-55146D01*
X98099Y-55181D01*
X98088Y-55216D01*
X98088Y-55218D01*
X98087Y-55220D01*
X98084Y-55257D01*
X98080Y-55294D01*
X98080Y-55298D01*
X98080Y-55298D01*
X98080Y-55298D01*
X98080Y-55300D01*
X98080Y-55464D01*
X98073Y-55454D01*
X97998Y-55379D01*
X97909Y-55319D01*
X97811Y-55278D01*
X97707Y-55256D01*
X97600Y-55255D01*
X97495Y-55275D01*
X97452Y-55293D01*
X97350Y-55191D01*
X97350Y-50412D01*
X97350Y-50150D01*
X96987Y-50150D01*
X96950Y-50187D01*
X96912Y-50150D01*
X96550Y-50150D01*
X96550Y-50412D01*
X96612Y-50475D01*
X96700Y-50475D01*
X96749Y-50475D01*
X96797Y-50465D01*
X96843Y-50446D01*
X96884Y-50419D01*
X96919Y-50384D01*
X96946Y-50343D01*
X96950Y-50335D01*
X96953Y-50343D01*
X96980Y-50384D01*
X97015Y-50419D01*
X97056Y-50446D01*
X97102Y-50465D01*
X97150Y-50475D01*
X97199Y-50475D01*
X97287Y-50475D01*
X97350Y-50412D01*
X97350Y-55191D01*
X97031Y-54873D01*
X97014Y-54858D01*
X96996Y-54843D01*
X96995Y-54843D01*
X96994Y-54842D01*
X96973Y-54831D01*
X96953Y-54820D01*
X96952Y-54819D01*
X96951Y-54819D01*
X96929Y-54812D01*
X96907Y-54805D01*
X96905Y-54805D01*
X96904Y-54804D01*
X96881Y-54802D01*
X96858Y-54800D01*
X96856Y-54800D01*
X96855Y-54800D01*
X96855Y-54800D01*
X96855Y-54800D01*
X96357Y-54800D01*
X96346Y-54792D01*
X96318Y-54780D01*
X96289Y-54775D01*
X96260Y-54775D01*
X95810Y-54775D01*
X95781Y-54780D01*
X95753Y-54792D01*
X95729Y-54808D01*
X95708Y-54829D01*
X95692Y-54853D01*
X95680Y-54881D01*
X95675Y-54910D01*
X95675Y-54939D01*
X95675Y-54975D01*
X95228Y-54975D01*
X95234Y-54949D01*
X95234Y-54900D01*
X95234Y-54787D01*
X95234Y-54562D01*
X95234Y-54449D01*
X95234Y-54400D01*
X95224Y-54352D01*
X95205Y-54306D01*
X95178Y-54265D01*
X95143Y-54230D01*
X95102Y-54203D01*
X95056Y-54184D01*
X95008Y-54175D01*
X94946Y-54237D01*
X94946Y-54625D01*
X95171Y-54625D01*
X95234Y-54562D01*
X95234Y-54787D01*
X95171Y-54725D01*
X94946Y-54725D01*
X94946Y-54732D01*
X94878Y-54732D01*
X94878Y-54410D01*
X94872Y-54381D01*
X94871Y-54379D01*
X94871Y-54237D01*
X94809Y-54175D01*
X94761Y-54184D01*
X94715Y-54203D01*
X94674Y-54230D01*
X94639Y-54265D01*
X94633Y-54275D01*
X94563Y-54275D01*
X94534Y-54280D01*
X94525Y-54284D01*
X94515Y-54280D01*
X94486Y-54275D01*
X94457Y-54275D01*
X94416Y-54275D01*
X94410Y-54265D01*
X94375Y-54230D01*
X94334Y-54203D01*
X94288Y-54184D01*
X94240Y-54175D01*
X94178Y-54237D01*
X94178Y-54379D01*
X94177Y-54381D01*
X94172Y-54410D01*
X94172Y-54439D01*
X94172Y-54939D01*
X94177Y-54968D01*
X94178Y-54970D01*
X94178Y-55112D01*
X94197Y-55131D01*
X94197Y-55145D01*
X94103Y-55238D01*
X94103Y-55112D01*
X94103Y-54725D01*
X94103Y-54625D01*
X94103Y-54237D01*
X94041Y-54175D01*
X93993Y-54184D01*
X93947Y-54203D01*
X93906Y-54230D01*
X93871Y-54265D01*
X93844Y-54306D01*
X93825Y-54352D01*
X93816Y-54400D01*
X93816Y-54449D01*
X93816Y-54562D01*
X93878Y-54625D01*
X94103Y-54625D01*
X94103Y-54725D01*
X93878Y-54725D01*
X93816Y-54787D01*
X93816Y-54900D01*
X93816Y-54949D01*
X93825Y-54997D01*
X93844Y-55043D01*
X93871Y-55084D01*
X93906Y-55119D01*
X93947Y-55146D01*
X93993Y-55165D01*
X94041Y-55174D01*
X94103Y-55112D01*
X94103Y-55238D01*
X93867Y-55475D01*
X93018Y-55475D01*
X93018Y-54587D01*
X93018Y-54538D01*
X93018Y-54478D01*
X92955Y-54416D01*
X92700Y-54416D01*
X92700Y-54750D01*
X92762Y-54813D01*
X92792Y-54813D01*
X92840Y-54803D01*
X92886Y-54784D01*
X92927Y-54757D01*
X92962Y-54722D01*
X92989Y-54681D01*
X93008Y-54635D01*
X93018Y-54587D01*
X93018Y-55475D01*
X92600Y-55475D01*
X92600Y-54750D01*
X92600Y-54416D01*
X92600Y-54316D01*
X92600Y-53981D01*
X92537Y-53919D01*
X92507Y-53919D01*
X92459Y-53928D01*
X92413Y-53947D01*
X92372Y-53974D01*
X92337Y-54009D01*
X92310Y-54050D01*
X92291Y-54096D01*
X92282Y-54144D01*
X92282Y-54193D01*
X92282Y-54253D01*
X92344Y-54316D01*
X92600Y-54316D01*
X92600Y-54416D01*
X92344Y-54416D01*
X92282Y-54478D01*
X92282Y-54538D01*
X92282Y-54587D01*
X92291Y-54635D01*
X92310Y-54681D01*
X92337Y-54722D01*
X92372Y-54757D01*
X92413Y-54784D01*
X92459Y-54803D01*
X92507Y-54813D01*
X92537Y-54813D01*
X92600Y-54750D01*
X92600Y-55475D01*
X91444Y-55475D01*
X91426Y-55476D01*
X91408Y-55478D01*
X91407Y-55478D01*
X91406Y-55478D01*
X91388Y-55484D01*
X91370Y-55489D01*
X91369Y-55489D01*
X91368Y-55490D01*
X91352Y-55498D01*
X91335Y-55507D01*
X91335Y-55507D01*
X91334Y-55508D01*
X91319Y-55520D01*
X91305Y-55531D01*
X91303Y-55533D01*
X91303Y-55533D01*
X91303Y-55533D01*
X91303Y-55533D01*
X91178Y-55658D01*
X91153Y-55688D01*
X91135Y-55723D01*
X91123Y-55760D01*
X91119Y-55799D01*
X91123Y-55838D01*
X91134Y-55875D01*
X91152Y-55910D01*
X91177Y-55940D01*
X91207Y-55965D01*
X91241Y-55984D01*
X91278Y-55995D01*
X91317Y-55999D01*
X91356Y-55996D01*
X91394Y-55985D01*
X91428Y-55967D01*
X91459Y-55943D01*
X91461Y-55941D01*
X91527Y-55875D01*
X93950Y-55875D01*
X93968Y-55873D01*
X93986Y-55871D01*
X93987Y-55871D01*
X93988Y-55871D01*
X94006Y-55865D01*
X94024Y-55860D01*
X94025Y-55860D01*
X94026Y-55859D01*
X94042Y-55851D01*
X94058Y-55842D01*
X94059Y-55842D01*
X94060Y-55841D01*
X94075Y-55829D01*
X94089Y-55818D01*
X94090Y-55816D01*
X94090Y-55816D01*
X94090Y-55816D01*
X94091Y-55816D01*
X94538Y-55369D01*
X94550Y-55355D01*
X94562Y-55340D01*
X94562Y-55340D01*
X94563Y-55339D01*
X94571Y-55322D01*
X94580Y-55306D01*
X94581Y-55305D01*
X94581Y-55304D01*
X94587Y-55287D01*
X94592Y-55269D01*
X94592Y-55268D01*
X94593Y-55267D01*
X94594Y-55252D01*
X94658Y-55316D01*
X94672Y-55328D01*
X94687Y-55340D01*
X94687Y-55340D01*
X94688Y-55341D01*
X94705Y-55349D01*
X94721Y-55358D01*
X94722Y-55359D01*
X94723Y-55359D01*
X94740Y-55365D01*
X94758Y-55370D01*
X94759Y-55370D01*
X94760Y-55371D01*
X94778Y-55372D01*
X94797Y-55374D01*
X94799Y-55374D01*
X94799Y-55374D01*
X94799Y-55374D01*
X94800Y-55375D01*
X95925Y-55375D01*
X95943Y-55373D01*
X95961Y-55371D01*
X95962Y-55371D01*
X95963Y-55371D01*
X95981Y-55365D01*
X95999Y-55360D01*
X96000Y-55360D01*
X96001Y-55359D01*
X96017Y-55351D01*
X96033Y-55342D01*
X96034Y-55342D01*
X96035Y-55341D01*
X96050Y-55329D01*
X96056Y-55325D01*
X96289Y-55325D01*
X96318Y-55319D01*
X96346Y-55307D01*
X96357Y-55300D01*
X96751Y-55300D01*
X97121Y-55670D01*
X97107Y-55739D01*
X97105Y-55845D01*
X97124Y-55950D01*
X97164Y-56049D01*
X97221Y-56139D01*
X97295Y-56216D01*
X97383Y-56276D01*
X97481Y-56319D01*
X97585Y-56342D01*
X97691Y-56344D01*
X97796Y-56326D01*
X97896Y-56287D01*
X97986Y-56230D01*
X98063Y-56156D01*
X98080Y-56133D01*
X98080Y-56354D01*
X97497Y-56937D01*
X97447Y-56997D01*
X97410Y-57066D01*
X97387Y-57140D01*
X97380Y-57218D01*
X97387Y-57296D01*
X97409Y-57371D01*
X97446Y-57440D01*
X97495Y-57500D01*
X97555Y-57550D01*
X97623Y-57588D01*
X97698Y-57611D01*
X97775Y-57619D01*
X97780Y-57619D01*
X97780Y-57620D01*
X97780Y-60360D01*
X97780Y-60437D01*
X96067Y-62150D01*
X94708Y-62150D01*
X95127Y-62105D01*
X95708Y-61925D01*
X96244Y-61636D01*
X96713Y-61248D01*
X97098Y-60776D01*
X97384Y-60238D01*
X97560Y-59655D01*
X97619Y-59050D01*
X97618Y-58962D01*
X97542Y-58358D01*
X97349Y-57781D01*
X97049Y-57251D01*
X96651Y-56790D01*
X96171Y-56415D01*
X95628Y-56141D01*
X95041Y-55977D01*
X94434Y-55930D01*
X93830Y-56003D01*
X93251Y-56191D01*
X92719Y-56488D01*
X92255Y-56882D01*
X91877Y-57360D01*
X91599Y-57901D01*
X91431Y-58486D01*
X91380Y-59093D01*
X91448Y-59698D01*
X91632Y-60278D01*
X91925Y-60812D01*
X92317Y-61278D01*
X92791Y-61660D01*
X93331Y-61942D01*
X93915Y-62114D01*
X94306Y-62150D01*
X93650Y-62150D01*
X93631Y-62151D01*
X93613Y-62153D01*
X93612Y-62153D01*
X93611Y-62153D01*
X93593Y-62159D01*
X93575Y-62164D01*
X93574Y-62164D01*
X93573Y-62165D01*
X93557Y-62173D01*
X93541Y-62182D01*
X93540Y-62182D01*
X93539Y-62183D01*
X93524Y-62195D01*
X93510Y-62206D01*
X93509Y-62208D01*
X93509Y-62208D01*
X93509Y-62208D01*
X93508Y-62208D01*
X93465Y-62251D01*
X93459Y-62250D01*
X93395Y-62249D01*
X93332Y-62261D01*
X93273Y-62285D01*
X93220Y-62320D01*
X93174Y-62365D01*
X93138Y-62417D01*
X93113Y-62476D01*
X93100Y-62538D01*
X93100Y-62565D01*
X93094Y-62559D01*
X93069Y-62543D01*
X93042Y-62532D01*
X93013Y-62526D01*
X92983Y-62526D01*
X92806Y-62526D01*
X92777Y-62532D01*
X92755Y-62541D01*
X92732Y-62532D01*
X92703Y-62526D01*
X92673Y-62526D01*
X92496Y-62526D01*
X92467Y-62532D01*
X92440Y-62543D01*
X92440Y-62543D01*
X92439Y-62543D01*
X92412Y-62532D01*
X92383Y-62526D01*
X92353Y-62526D01*
X92176Y-62526D01*
X92147Y-62532D01*
X92125Y-62541D01*
X92102Y-62532D01*
X92073Y-62526D01*
X92043Y-62526D01*
X91866Y-62526D01*
X91837Y-62532D01*
X91815Y-62541D01*
X91792Y-62532D01*
X91763Y-62526D01*
X91733Y-62526D01*
X91556Y-62526D01*
X91527Y-62532D01*
X91500Y-62543D01*
X91500Y-62543D01*
X91499Y-62543D01*
X91472Y-62532D01*
X91443Y-62526D01*
X91413Y-62526D01*
X91236Y-62526D01*
X91207Y-62532D01*
X91180Y-62543D01*
X91180Y-62543D01*
X91179Y-62543D01*
X91152Y-62532D01*
X91123Y-62526D01*
X91093Y-62526D01*
X90916Y-62526D01*
X90887Y-62532D01*
X90875Y-62537D01*
X90875Y-54712D01*
X90875Y-54300D01*
X90712Y-54300D01*
X90562Y-54300D01*
X90350Y-54300D01*
X90350Y-54562D01*
X90412Y-54625D01*
X90500Y-54625D01*
X90520Y-54625D01*
X90528Y-54643D01*
X90555Y-54684D01*
X90590Y-54719D01*
X90631Y-54746D01*
X90677Y-54765D01*
X90725Y-54775D01*
X90812Y-54775D01*
X90875Y-54712D01*
X90875Y-62537D01*
X90860Y-62543D01*
X90860Y-62543D01*
X90859Y-62543D01*
X90832Y-62532D01*
X90803Y-62526D01*
X90773Y-62526D01*
X90596Y-62526D01*
X90567Y-62532D01*
X90540Y-62543D01*
X90515Y-62559D01*
X90494Y-62580D01*
X90478Y-62605D01*
X90467Y-62632D01*
X90461Y-62661D01*
X90461Y-62691D01*
X90461Y-63478D01*
X90467Y-63507D01*
X90478Y-63534D01*
X90494Y-63559D01*
X90500Y-63564D01*
X90500Y-64296D01*
X90459Y-64323D01*
X90467Y-64302D01*
X90473Y-64273D01*
X90473Y-64243D01*
X90473Y-64066D01*
X90467Y-64037D01*
X90456Y-64010D01*
X90456Y-64010D01*
X90456Y-64009D01*
X90467Y-63982D01*
X90473Y-63953D01*
X90473Y-63923D01*
X90473Y-63746D01*
X90467Y-63717D01*
X90456Y-63690D01*
X90440Y-63665D01*
X90419Y-63644D01*
X90394Y-63628D01*
X90367Y-63617D01*
X90338Y-63611D01*
X90308Y-63611D01*
X90250Y-63611D01*
X90250Y-54562D01*
X90250Y-54300D01*
X89887Y-54300D01*
X89825Y-54362D01*
X89825Y-54399D01*
X89834Y-54447D01*
X89853Y-54493D01*
X89880Y-54534D01*
X89915Y-54569D01*
X89956Y-54596D01*
X90002Y-54615D01*
X90050Y-54625D01*
X90099Y-54625D01*
X90187Y-54625D01*
X90250Y-54562D01*
X90250Y-63611D01*
X90189Y-63611D01*
X90206Y-63575D01*
X90219Y-63517D01*
X90220Y-63450D01*
X90208Y-63392D01*
X90186Y-63338D01*
X90153Y-63289D01*
X90112Y-63247D01*
X90063Y-63214D01*
X90009Y-63192D01*
X89951Y-63180D01*
X89892Y-63179D01*
X89834Y-63190D01*
X89780Y-63212D01*
X89731Y-63245D01*
X89689Y-63286D01*
X89655Y-63334D01*
X89632Y-63388D01*
X89620Y-63446D01*
X89619Y-63505D01*
X89630Y-63563D01*
X89649Y-63611D01*
X89521Y-63611D01*
X89492Y-63617D01*
X89465Y-63628D01*
X89440Y-63644D01*
X89419Y-63665D01*
X89403Y-63690D01*
X89392Y-63717D01*
X89386Y-63746D01*
X89386Y-63776D01*
X89386Y-63920D01*
X89166Y-63920D01*
X89155Y-63912D01*
X89096Y-63888D01*
X89034Y-63875D01*
X88970Y-63874D01*
X88907Y-63886D01*
X88848Y-63910D01*
X88795Y-63945D01*
X88749Y-63990D01*
X88713Y-64042D01*
X88688Y-64101D01*
X88675Y-64163D01*
X88674Y-64227D01*
X88686Y-64290D01*
X88709Y-64349D01*
X88744Y-64402D01*
X88788Y-64448D01*
X88840Y-64485D01*
X88899Y-64510D01*
X88961Y-64524D01*
X89025Y-64525D01*
X89087Y-64514D01*
X89147Y-64491D01*
X89201Y-64457D01*
X89240Y-64420D01*
X89386Y-64420D01*
X89386Y-64593D01*
X89387Y-64600D01*
X88342Y-64600D01*
X88250Y-64507D01*
X88250Y-63700D01*
X88250Y-63417D01*
X88281Y-63424D01*
X88345Y-63425D01*
X88407Y-63414D01*
X88467Y-63391D01*
X88521Y-63357D01*
X88567Y-63313D01*
X88603Y-63261D01*
X88629Y-63203D01*
X88643Y-63140D01*
X88645Y-63068D01*
X88632Y-63005D01*
X88608Y-62946D01*
X88573Y-62893D01*
X88528Y-62848D01*
X88475Y-62812D01*
X88416Y-62788D01*
X88354Y-62775D01*
X88290Y-62774D01*
X88250Y-62782D01*
X88250Y-60300D01*
X88250Y-54609D01*
X88297Y-54591D01*
X88351Y-54557D01*
X88397Y-54513D01*
X88433Y-54461D01*
X88459Y-54403D01*
X88473Y-54340D01*
X88475Y-54268D01*
X88462Y-54205D01*
X88438Y-54146D01*
X88403Y-54093D01*
X88358Y-54048D01*
X88305Y-54012D01*
X88262Y-53994D01*
X88407Y-53850D01*
X89944Y-53850D01*
X89958Y-53870D01*
X89979Y-53891D01*
X89981Y-53893D01*
X89956Y-53903D01*
X89915Y-53930D01*
X89880Y-53965D01*
X89853Y-54006D01*
X89834Y-54052D01*
X89825Y-54100D01*
X89825Y-54137D01*
X89887Y-54200D01*
X90250Y-54200D01*
X90250Y-54192D01*
X90350Y-54192D01*
X90350Y-54200D01*
X90562Y-54200D01*
X90712Y-54200D01*
X90875Y-54200D01*
X90875Y-54192D01*
X90975Y-54192D01*
X90975Y-54200D01*
X90982Y-54200D01*
X90982Y-54300D01*
X90975Y-54300D01*
X90975Y-54712D01*
X91037Y-54775D01*
X91124Y-54775D01*
X91172Y-54765D01*
X91218Y-54746D01*
X91259Y-54719D01*
X91294Y-54684D01*
X91321Y-54643D01*
X91340Y-54597D01*
X91350Y-54549D01*
X91350Y-54539D01*
X91355Y-54568D01*
X91367Y-54596D01*
X91383Y-54620D01*
X91404Y-54641D01*
X91428Y-54657D01*
X91456Y-54669D01*
X91485Y-54675D01*
X91514Y-54675D01*
X91864Y-54675D01*
X91893Y-54669D01*
X91921Y-54657D01*
X91945Y-54641D01*
X91966Y-54620D01*
X91982Y-54596D01*
X91994Y-54568D01*
X92000Y-54539D01*
X92000Y-54510D01*
X92000Y-53960D01*
X91994Y-53931D01*
X91982Y-53903D01*
X91966Y-53879D01*
X91950Y-53862D01*
X91950Y-53787D01*
X91966Y-53770D01*
X91982Y-53746D01*
X91994Y-53718D01*
X92000Y-53689D01*
X92000Y-53660D01*
X92000Y-53541D01*
X92007Y-53548D01*
X92007Y-53745D01*
X92012Y-53774D01*
X92024Y-53802D01*
X92040Y-53826D01*
X92061Y-53847D01*
X92085Y-53863D01*
X92113Y-53875D01*
X92142Y-53881D01*
X92171Y-53881D01*
X92407Y-53881D01*
X92436Y-53875D01*
X92464Y-53863D01*
X92488Y-53847D01*
X92509Y-53826D01*
X92525Y-53802D01*
X92537Y-53774D01*
X92543Y-53745D01*
X92543Y-53716D01*
X92543Y-53322D01*
X92537Y-53293D01*
X92525Y-53265D01*
X92509Y-53241D01*
X92488Y-53220D01*
X92464Y-53204D01*
X92447Y-53197D01*
X92481Y-53190D01*
X92527Y-53171D01*
X92568Y-53144D01*
X92603Y-53109D01*
X92625Y-53076D01*
X92625Y-53534D01*
X92628Y-53570D01*
X92631Y-53607D01*
X92632Y-53609D01*
X92632Y-53611D01*
X92643Y-53647D01*
X92653Y-53682D01*
X92654Y-53684D01*
X92655Y-53686D01*
X92672Y-53719D01*
X92689Y-53751D01*
X92690Y-53753D01*
X92691Y-53755D01*
X92715Y-53783D01*
X92738Y-53812D01*
X92741Y-53815D01*
X92741Y-53815D01*
X92741Y-53815D01*
X92742Y-53816D01*
X92863Y-53937D01*
X92840Y-53928D01*
X92792Y-53919D01*
X92762Y-53919D01*
X92700Y-53981D01*
X92700Y-54316D01*
X92955Y-54316D01*
X93018Y-54253D01*
X93018Y-54193D01*
X93018Y-54144D01*
X93008Y-54096D01*
X92994Y-54062D01*
X93015Y-54080D01*
X93016Y-54081D01*
X93018Y-54082D01*
X93051Y-54099D01*
X93083Y-54117D01*
X93085Y-54118D01*
X93087Y-54119D01*
X93122Y-54130D01*
X93157Y-54141D01*
X93159Y-54141D01*
X93161Y-54142D01*
X93198Y-54145D01*
X93235Y-54149D01*
X93239Y-54149D01*
X93239Y-54149D01*
X93239Y-54149D01*
X93241Y-54150D01*
X94900Y-54150D01*
X94977Y-54142D01*
X95052Y-54119D01*
X95121Y-54083D01*
X95181Y-54033D01*
X95231Y-53973D01*
X95268Y-53905D01*
X95291Y-53830D01*
X95299Y-53752D01*
X95292Y-53675D01*
X95270Y-53600D01*
X95234Y-53530D01*
X95185Y-53470D01*
X95125Y-53419D01*
X95100Y-53405D01*
X95100Y-53321D01*
X95100Y-53320D01*
X95116Y-53296D01*
X95128Y-53268D01*
X95134Y-53239D01*
X95134Y-53210D01*
X95134Y-53026D01*
X95142Y-53046D01*
X95158Y-53070D01*
X95179Y-53091D01*
X95203Y-53107D01*
X95231Y-53119D01*
X95260Y-53125D01*
X95289Y-53125D01*
X95539Y-53125D01*
X95568Y-53119D01*
X95596Y-53107D01*
X95620Y-53091D01*
X95641Y-53070D01*
X95657Y-53046D01*
X95669Y-53018D01*
X95675Y-52989D01*
X95675Y-52960D01*
X95675Y-52510D01*
X95669Y-52481D01*
X95657Y-52453D01*
X95641Y-52429D01*
X95620Y-52408D01*
X95596Y-52392D01*
X95568Y-52380D01*
X95539Y-52375D01*
X95510Y-52375D01*
X95457Y-52375D01*
X95432Y-52350D01*
X95445Y-52341D01*
X95466Y-52320D01*
X95482Y-52296D01*
X95494Y-52268D01*
X95500Y-52239D01*
X95500Y-52210D01*
X95500Y-51660D01*
X95494Y-51631D01*
X95482Y-51603D01*
X95466Y-51579D01*
X95445Y-51558D01*
X95421Y-51542D01*
X95393Y-51530D01*
X95364Y-51525D01*
X95393Y-51519D01*
X95421Y-51507D01*
X95445Y-51491D01*
X95466Y-51470D01*
X95482Y-51446D01*
X95494Y-51418D01*
X95500Y-51389D01*
X95500Y-51399D01*
X95509Y-51447D01*
X95528Y-51493D01*
X95555Y-51534D01*
X95590Y-51569D01*
X95624Y-51592D01*
X95617Y-51603D01*
X95605Y-51631D01*
X95600Y-51660D01*
X95600Y-51689D01*
X95600Y-52239D01*
X95605Y-52268D01*
X95617Y-52296D01*
X95633Y-52320D01*
X95654Y-52341D01*
X95678Y-52357D01*
X95706Y-52369D01*
X95735Y-52375D01*
X95750Y-52375D01*
X95750Y-52442D01*
X95742Y-52453D01*
X95730Y-52481D01*
X95725Y-52510D01*
X95725Y-52539D01*
X95725Y-52989D01*
X95730Y-53018D01*
X95742Y-53046D01*
X95750Y-53057D01*
X95750Y-54194D01*
X95729Y-54208D01*
X95708Y-54229D01*
X95692Y-54253D01*
X95680Y-54281D01*
X95675Y-54310D01*
X95675Y-54339D01*
X95675Y-54589D01*
X95680Y-54618D01*
X95692Y-54646D01*
X95708Y-54670D01*
X95729Y-54691D01*
X95753Y-54707D01*
X95781Y-54719D01*
X95810Y-54725D01*
X95839Y-54725D01*
X96289Y-54725D01*
X96318Y-54719D01*
X96346Y-54707D01*
X96370Y-54691D01*
X96391Y-54670D01*
X96407Y-54646D01*
X96419Y-54618D01*
X96425Y-54589D01*
X96425Y-54560D01*
X96425Y-54310D01*
X96419Y-54281D01*
X96407Y-54253D01*
X96391Y-54229D01*
X96370Y-54208D01*
X96346Y-54192D01*
X96318Y-54180D01*
X96289Y-54175D01*
X96260Y-54175D01*
X96250Y-54175D01*
X96250Y-53057D01*
X96257Y-53046D01*
X96269Y-53018D01*
X96275Y-52989D01*
X96275Y-52960D01*
X96275Y-52510D01*
X96269Y-52481D01*
X96257Y-52453D01*
X96250Y-52442D01*
X96250Y-52239D01*
X96250Y-52210D01*
X96250Y-52025D01*
X96250Y-51978D01*
X96278Y-51950D01*
X96290Y-51950D01*
X96340Y-51985D01*
X96399Y-52010D01*
X96461Y-52024D01*
X96525Y-52025D01*
X96587Y-52014D01*
X96647Y-51991D01*
X96701Y-51957D01*
X96747Y-51913D01*
X96783Y-51861D01*
X96809Y-51803D01*
X96823Y-51740D01*
X96825Y-51668D01*
X96812Y-51605D01*
X96788Y-51546D01*
X96753Y-51493D01*
X96708Y-51448D01*
X96655Y-51412D01*
X96596Y-51388D01*
X96534Y-51375D01*
X96470Y-51374D01*
X96450Y-51378D01*
X96450Y-50412D01*
X96450Y-50150D01*
X96087Y-50150D01*
X96025Y-50212D01*
X96025Y-50249D01*
X96034Y-50297D01*
X96053Y-50343D01*
X96080Y-50384D01*
X96115Y-50419D01*
X96156Y-50446D01*
X96202Y-50465D01*
X96250Y-50475D01*
X96299Y-50475D01*
X96387Y-50475D01*
X96450Y-50412D01*
X96450Y-51378D01*
X96407Y-51386D01*
X96348Y-51410D01*
X96347Y-51411D01*
X96350Y-51399D01*
X96350Y-51350D01*
X96350Y-51212D01*
X96350Y-50987D01*
X96350Y-50849D01*
X96350Y-50800D01*
X96340Y-50752D01*
X96321Y-50706D01*
X96294Y-50665D01*
X96259Y-50630D01*
X96218Y-50603D01*
X96172Y-50584D01*
X96124Y-50575D01*
X96037Y-50575D01*
X95975Y-50637D01*
X95975Y-51050D01*
X96287Y-51050D01*
X96350Y-50987D01*
X96350Y-51212D01*
X96287Y-51150D01*
X95975Y-51150D01*
X95975Y-51157D01*
X95875Y-51157D01*
X95875Y-51150D01*
X95562Y-51150D01*
X95500Y-51212D01*
X95500Y-50987D01*
X95562Y-51050D01*
X95875Y-51050D01*
X95875Y-50637D01*
X95812Y-50575D01*
X95725Y-50575D01*
X95677Y-50584D01*
X95631Y-50603D01*
X95590Y-50630D01*
X95555Y-50665D01*
X95528Y-50706D01*
X95509Y-50752D01*
X95500Y-50800D01*
X95500Y-50810D01*
X95494Y-50781D01*
X95482Y-50753D01*
X95466Y-50729D01*
X95445Y-50708D01*
X95421Y-50692D01*
X95393Y-50680D01*
X95364Y-50675D01*
X95335Y-50675D01*
X94985Y-50675D01*
X94956Y-50680D01*
X94928Y-50692D01*
X94904Y-50708D01*
X94883Y-50729D01*
X94867Y-50753D01*
X94855Y-50781D01*
X94850Y-50810D01*
X94850Y-50839D01*
X94850Y-50850D01*
X94525Y-50850D01*
X94525Y-50784D01*
X94547Y-50763D01*
X94583Y-50711D01*
X94609Y-50653D01*
X94623Y-50590D01*
X94625Y-50518D01*
X94612Y-50455D01*
X94588Y-50396D01*
X94553Y-50343D01*
X94508Y-50298D01*
X94455Y-50262D01*
X94396Y-50238D01*
X94334Y-50225D01*
X94270Y-50224D01*
X94207Y-50236D01*
X94148Y-50260D01*
X94095Y-50295D01*
X94049Y-50340D01*
X94013Y-50392D01*
X93988Y-50451D01*
X93975Y-50513D01*
X93974Y-50577D01*
X93986Y-50640D01*
X94009Y-50699D01*
X94044Y-50752D01*
X94088Y-50798D01*
X94125Y-50824D01*
X94125Y-50869D01*
X94104Y-50883D01*
X94083Y-50904D01*
X94067Y-50928D01*
X94055Y-50956D01*
X94050Y-50985D01*
X94050Y-51014D01*
X94050Y-51464D01*
X94055Y-51493D01*
X94067Y-51521D01*
X94083Y-51545D01*
X94104Y-51566D01*
X94128Y-51582D01*
X94129Y-51583D01*
X94129Y-51583D01*
X94108Y-51604D01*
X94092Y-51628D01*
X94080Y-51656D01*
X94075Y-51685D01*
X94075Y-51714D01*
X94075Y-52042D01*
X93975Y-51942D01*
X93975Y-51685D01*
X93969Y-51656D01*
X93957Y-51628D01*
X93941Y-51604D01*
X93925Y-51587D01*
X93925Y-51580D01*
X93945Y-51566D01*
X93966Y-51545D01*
X93982Y-51521D01*
X93994Y-51493D01*
X94000Y-51464D01*
X94000Y-51435D01*
X94000Y-50985D01*
X93994Y-50956D01*
X93982Y-50928D01*
X93966Y-50904D01*
X93945Y-50883D01*
X93921Y-50867D01*
X93893Y-50855D01*
X93864Y-50850D01*
X93835Y-50850D01*
X93585Y-50850D01*
X93556Y-50855D01*
X93528Y-50867D01*
X93504Y-50883D01*
X93483Y-50904D01*
X93467Y-50928D01*
X93455Y-50956D01*
X93450Y-50985D01*
X93450Y-51014D01*
X93450Y-51464D01*
X93455Y-51493D01*
X93467Y-51521D01*
X93483Y-51545D01*
X93487Y-51550D01*
X93460Y-51550D01*
X93431Y-51555D01*
X93425Y-51558D01*
X93425Y-50665D01*
X94190Y-49900D01*
X96035Y-49900D01*
X96034Y-49902D01*
X96025Y-49950D01*
X96025Y-49987D01*
X96087Y-50050D01*
X96450Y-50050D01*
X96450Y-50042D01*
X96550Y-50042D01*
X96550Y-50050D01*
X96912Y-50050D01*
X96950Y-50012D01*
X96987Y-50050D01*
X97350Y-50050D01*
X97350Y-50042D01*
X97450Y-50042D01*
X97450Y-50050D01*
X97812Y-50050D01*
X97875Y-49987D01*
X97875Y-49950D01*
X97865Y-49902D01*
X97864Y-49900D01*
X97958Y-49900D01*
X98000Y-49942D01*
X97998Y-49943D01*
X97957Y-49970D01*
X97931Y-49996D01*
X97931Y-50085D01*
X98187Y-50341D01*
X98193Y-50335D01*
X98264Y-50406D01*
X98258Y-50412D01*
X98514Y-50668D01*
X98603Y-50668D01*
X98629Y-50642D01*
X98656Y-50601D01*
X98675Y-50555D01*
X98685Y-50507D01*
X98685Y-50458D01*
X98675Y-50409D01*
X98666Y-50387D01*
X98672Y-50387D01*
X98769Y-50485D01*
X98772Y-50499D01*
X98783Y-50526D01*
X98800Y-50551D01*
X98821Y-50572D01*
X99068Y-50819D01*
X99093Y-50835D01*
X99120Y-50847D01*
X99149Y-50853D01*
X99178Y-50853D01*
X99207Y-50847D01*
X99235Y-50835D01*
X99259Y-50819D01*
X99280Y-50798D01*
X99300Y-50778D01*
X99311Y-50777D01*
X99385Y-50755D01*
X99404Y-50745D01*
X99397Y-50757D01*
X99373Y-50832D01*
X99372Y-50848D01*
X99330Y-50890D01*
X99314Y-50914D01*
X99302Y-50942D01*
X99296Y-50971D01*
X99296Y-51000D01*
X99302Y-51029D01*
X99314Y-51056D01*
X99330Y-51081D01*
X99351Y-51102D01*
X99598Y-51349D01*
X99623Y-51366D01*
X99625Y-51367D01*
X99650Y-51392D01*
X99648Y-51393D01*
X99607Y-51420D01*
X99581Y-51446D01*
X99581Y-51535D01*
X99837Y-51791D01*
X99843Y-51785D01*
X99914Y-51856D01*
X99908Y-51862D01*
X100164Y-52118D01*
X100253Y-52118D01*
X100279Y-52092D01*
X100306Y-52051D01*
X100307Y-52049D01*
X100396Y-52137D01*
X100396Y-52137D01*
X100396Y-52137D01*
G37*
G54D29*
X100396Y-52137D02*
X100094Y-52440D01*
X100094Y-52277D01*
X100094Y-52189D01*
X99837Y-51932D01*
X99767Y-52003D01*
X99767Y-51862D01*
X99510Y-51605D01*
X99422Y-51605D01*
X99396Y-51632D01*
X99368Y-51673D01*
X99349Y-51718D01*
X99340Y-51766D01*
X99340Y-51816D01*
X99349Y-51864D01*
X99368Y-51909D01*
X99396Y-51950D01*
X99431Y-51985D01*
X99493Y-52047D01*
X99581Y-52047D01*
X99767Y-51862D01*
X99767Y-52003D01*
X99652Y-52118D01*
X99652Y-52206D01*
X99714Y-52268D01*
X99749Y-52303D01*
X99790Y-52331D01*
X99835Y-52350D01*
X99883Y-52359D01*
X99933Y-52359D01*
X99981Y-52350D01*
X100026Y-52331D01*
X100067Y-52303D01*
X100094Y-52277D01*
X100094Y-52440D01*
X99094Y-53440D01*
X98880Y-53440D01*
X98843Y-53443D01*
X98806Y-53446D01*
X98804Y-53447D01*
X98802Y-53447D01*
X98766Y-53458D01*
X98731Y-53468D01*
X98729Y-53469D01*
X98727Y-53470D01*
X98694Y-53487D01*
X98662Y-53504D01*
X98660Y-53505D01*
X98658Y-53506D01*
X98630Y-53530D01*
X98601Y-53553D01*
X98598Y-53556D01*
X98598Y-53556D01*
X98598Y-53556D01*
X98597Y-53557D01*
X98444Y-53710D01*
X98444Y-50827D01*
X98444Y-50739D01*
X98187Y-50482D01*
X98117Y-50553D01*
X98117Y-50412D01*
X97860Y-50155D01*
X97818Y-50155D01*
X97812Y-50150D01*
X97450Y-50150D01*
X97450Y-50412D01*
X97512Y-50475D01*
X97600Y-50475D01*
X97649Y-50475D01*
X97697Y-50465D01*
X97717Y-50457D01*
X97718Y-50459D01*
X97746Y-50500D01*
X97781Y-50535D01*
X97843Y-50597D01*
X97931Y-50597D01*
X98117Y-50412D01*
X98117Y-50553D01*
X98002Y-50668D01*
X98002Y-50756D01*
X98064Y-50818D01*
X98099Y-50853D01*
X98140Y-50881D01*
X98185Y-50900D01*
X98233Y-50909D01*
X98283Y-50909D01*
X98331Y-50900D01*
X98376Y-50881D01*
X98417Y-50853D01*
X98444Y-50827D01*
X98444Y-53710D01*
X98392Y-53762D01*
X98368Y-53790D01*
X98344Y-53819D01*
X98343Y-53820D01*
X98342Y-53822D01*
X98325Y-53855D01*
X98307Y-53887D01*
X98306Y-53889D01*
X98305Y-53891D01*
X98294Y-53926D01*
X98283Y-53961D01*
X98283Y-53963D01*
X98282Y-53965D01*
X98279Y-54002D01*
X98275Y-54039D01*
X98275Y-54043D01*
X98275Y-54043D01*
X98275Y-54043D01*
X98275Y-54045D01*
X98275Y-54939D01*
X98197Y-55017D01*
X98173Y-55045D01*
X98149Y-55074D01*
X98148Y-55075D01*
X98147Y-55077D01*
X98130Y-55110D01*
X98112Y-55142D01*
X98111Y-55144D01*
X98110Y-55146D01*
X98099Y-55181D01*
X98088Y-55216D01*
X98088Y-55218D01*
X98087Y-55220D01*
X98084Y-55257D01*
X98080Y-55294D01*
X98080Y-55298D01*
X98080Y-55298D01*
X98080Y-55298D01*
X98080Y-55300D01*
X98080Y-55464D01*
X98073Y-55454D01*
X97998Y-55379D01*
X97909Y-55319D01*
X97811Y-55278D01*
X97707Y-55256D01*
X97600Y-55255D01*
X97495Y-55275D01*
X97452Y-55293D01*
X97350Y-55191D01*
X97350Y-50412D01*
X97350Y-50150D01*
X96987Y-50150D01*
X96950Y-50187D01*
X96912Y-50150D01*
X96550Y-50150D01*
X96550Y-50412D01*
X96612Y-50475D01*
X96700Y-50475D01*
X96749Y-50475D01*
X96797Y-50465D01*
X96843Y-50446D01*
X96884Y-50419D01*
X96919Y-50384D01*
X96946Y-50343D01*
X96950Y-50335D01*
X96953Y-50343D01*
X96980Y-50384D01*
X97015Y-50419D01*
X97056Y-50446D01*
X97102Y-50465D01*
X97150Y-50475D01*
X97199Y-50475D01*
X97287Y-50475D01*
X97350Y-50412D01*
X97350Y-55191D01*
X97031Y-54873D01*
X97014Y-54858D01*
X96996Y-54843D01*
X96995Y-54843D01*
X96994Y-54842D01*
X96973Y-54831D01*
X96953Y-54820D01*
X96952Y-54819D01*
X96951Y-54819D01*
X96929Y-54812D01*
X96907Y-54805D01*
X96905Y-54805D01*
X96904Y-54804D01*
X96881Y-54802D01*
X96858Y-54800D01*
X96856Y-54800D01*
X96855Y-54800D01*
X96855Y-54800D01*
X96855Y-54800D01*
X96357Y-54800D01*
X96346Y-54792D01*
X96318Y-54780D01*
X96289Y-54775D01*
X96260Y-54775D01*
X95810Y-54775D01*
X95781Y-54780D01*
X95753Y-54792D01*
X95729Y-54808D01*
X95708Y-54829D01*
X95692Y-54853D01*
X95680Y-54881D01*
X95675Y-54910D01*
X95675Y-54939D01*
X95675Y-54975D01*
X95228Y-54975D01*
X95234Y-54949D01*
X95234Y-54900D01*
X95234Y-54787D01*
X95234Y-54562D01*
X95234Y-54449D01*
X95234Y-54400D01*
X95224Y-54352D01*
X95205Y-54306D01*
X95178Y-54265D01*
X95143Y-54230D01*
X95102Y-54203D01*
X95056Y-54184D01*
X95008Y-54175D01*
X94946Y-54237D01*
X94946Y-54625D01*
X95171Y-54625D01*
X95234Y-54562D01*
X95234Y-54787D01*
X95171Y-54725D01*
X94946Y-54725D01*
X94946Y-54732D01*
X94878Y-54732D01*
X94878Y-54410D01*
X94872Y-54381D01*
X94871Y-54379D01*
X94871Y-54237D01*
X94809Y-54175D01*
X94761Y-54184D01*
X94715Y-54203D01*
X94674Y-54230D01*
X94639Y-54265D01*
X94633Y-54275D01*
X94563Y-54275D01*
X94534Y-54280D01*
X94525Y-54284D01*
X94515Y-54280D01*
X94486Y-54275D01*
X94457Y-54275D01*
X94416Y-54275D01*
X94410Y-54265D01*
X94375Y-54230D01*
X94334Y-54203D01*
X94288Y-54184D01*
X94240Y-54175D01*
X94178Y-54237D01*
X94178Y-54379D01*
X94177Y-54381D01*
X94172Y-54410D01*
X94172Y-54439D01*
X94172Y-54939D01*
X94177Y-54968D01*
X94178Y-54970D01*
X94178Y-55112D01*
X94197Y-55131D01*
X94197Y-55145D01*
X94103Y-55238D01*
X94103Y-55112D01*
X94103Y-54725D01*
X94103Y-54625D01*
X94103Y-54237D01*
X94041Y-54175D01*
X93993Y-54184D01*
X93947Y-54203D01*
X93906Y-54230D01*
X93871Y-54265D01*
X93844Y-54306D01*
X93825Y-54352D01*
X93816Y-54400D01*
X93816Y-54449D01*
X93816Y-54562D01*
X93878Y-54625D01*
X94103Y-54625D01*
X94103Y-54725D01*
X93878Y-54725D01*
X93816Y-54787D01*
X93816Y-54900D01*
X93816Y-54949D01*
X93825Y-54997D01*
X93844Y-55043D01*
X93871Y-55084D01*
X93906Y-55119D01*
X93947Y-55146D01*
X93993Y-55165D01*
X94041Y-55174D01*
X94103Y-55112D01*
X94103Y-55238D01*
X93867Y-55475D01*
X93018Y-55475D01*
X93018Y-54587D01*
X93018Y-54538D01*
X93018Y-54478D01*
X92955Y-54416D01*
X92700Y-54416D01*
X92700Y-54750D01*
X92762Y-54813D01*
X92792Y-54813D01*
X92840Y-54803D01*
X92886Y-54784D01*
X92927Y-54757D01*
X92962Y-54722D01*
X92989Y-54681D01*
X93008Y-54635D01*
X93018Y-54587D01*
X93018Y-55475D01*
X92600Y-55475D01*
X92600Y-54750D01*
X92600Y-54416D01*
X92600Y-54316D01*
X92600Y-53981D01*
X92537Y-53919D01*
X92507Y-53919D01*
X92459Y-53928D01*
X92413Y-53947D01*
X92372Y-53974D01*
X92337Y-54009D01*
X92310Y-54050D01*
X92291Y-54096D01*
X92282Y-54144D01*
X92282Y-54193D01*
X92282Y-54253D01*
X92344Y-54316D01*
X92600Y-54316D01*
X92600Y-54416D01*
X92344Y-54416D01*
X92282Y-54478D01*
X92282Y-54538D01*
X92282Y-54587D01*
X92291Y-54635D01*
X92310Y-54681D01*
X92337Y-54722D01*
X92372Y-54757D01*
X92413Y-54784D01*
X92459Y-54803D01*
X92507Y-54813D01*
X92537Y-54813D01*
X92600Y-54750D01*
X92600Y-55475D01*
X91444Y-55475D01*
X91426Y-55476D01*
X91408Y-55478D01*
X91407Y-55478D01*
X91406Y-55478D01*
X91388Y-55484D01*
X91370Y-55489D01*
X91369Y-55489D01*
X91368Y-55490D01*
X91352Y-55498D01*
X91335Y-55507D01*
X91335Y-55507D01*
X91334Y-55508D01*
X91319Y-55520D01*
X91305Y-55531D01*
X91303Y-55533D01*
X91303Y-55533D01*
X91303Y-55533D01*
X91303Y-55533D01*
X91178Y-55658D01*
X91153Y-55688D01*
X91135Y-55723D01*
X91123Y-55760D01*
X91119Y-55799D01*
X91123Y-55838D01*
X91134Y-55875D01*
X91152Y-55910D01*
X91177Y-55940D01*
X91207Y-55965D01*
X91241Y-55984D01*
X91278Y-55995D01*
X91317Y-55999D01*
X91356Y-55996D01*
X91394Y-55985D01*
X91428Y-55967D01*
X91459Y-55943D01*
X91461Y-55941D01*
X91527Y-55875D01*
X93950Y-55875D01*
X93968Y-55873D01*
X93986Y-55871D01*
X93987Y-55871D01*
X93988Y-55871D01*
X94006Y-55865D01*
X94024Y-55860D01*
X94025Y-55860D01*
X94026Y-55859D01*
X94042Y-55851D01*
X94058Y-55842D01*
X94059Y-55842D01*
X94060Y-55841D01*
X94075Y-55829D01*
X94089Y-55818D01*
X94090Y-55816D01*
X94090Y-55816D01*
X94090Y-55816D01*
X94091Y-55816D01*
X94538Y-55369D01*
X94550Y-55355D01*
X94562Y-55340D01*
X94562Y-55340D01*
X94563Y-55339D01*
X94571Y-55322D01*
X94580Y-55306D01*
X94581Y-55305D01*
X94581Y-55304D01*
X94587Y-55287D01*
X94592Y-55269D01*
X94592Y-55268D01*
X94593Y-55267D01*
X94594Y-55252D01*
X94658Y-55316D01*
X94672Y-55328D01*
X94687Y-55340D01*
X94687Y-55340D01*
X94688Y-55341D01*
X94705Y-55349D01*
X94721Y-55358D01*
X94722Y-55359D01*
X94723Y-55359D01*
X94740Y-55365D01*
X94758Y-55370D01*
X94759Y-55370D01*
X94760Y-55371D01*
X94778Y-55372D01*
X94797Y-55374D01*
X94799Y-55374D01*
X94799Y-55374D01*
X94799Y-55374D01*
X94800Y-55375D01*
X95925Y-55375D01*
X95943Y-55373D01*
X95961Y-55371D01*
X95962Y-55371D01*
X95963Y-55371D01*
X95981Y-55365D01*
X95999Y-55360D01*
X96000Y-55360D01*
X96001Y-55359D01*
X96017Y-55351D01*
X96033Y-55342D01*
X96034Y-55342D01*
X96035Y-55341D01*
X96050Y-55329D01*
X96056Y-55325D01*
X96289Y-55325D01*
X96318Y-55319D01*
X96346Y-55307D01*
X96357Y-55300D01*
X96751Y-55300D01*
X97121Y-55670D01*
X97107Y-55739D01*
X97105Y-55845D01*
X97124Y-55950D01*
X97164Y-56049D01*
X97221Y-56139D01*
X97295Y-56216D01*
X97383Y-56276D01*
X97481Y-56319D01*
X97585Y-56342D01*
X97691Y-56344D01*
X97796Y-56326D01*
X97896Y-56287D01*
X97986Y-56230D01*
X98063Y-56156D01*
X98080Y-56133D01*
X98080Y-56354D01*
X97497Y-56937D01*
X97447Y-56997D01*
X97410Y-57066D01*
X97387Y-57140D01*
X97380Y-57218D01*
X97387Y-57296D01*
X97409Y-57371D01*
X97446Y-57440D01*
X97495Y-57500D01*
X97555Y-57550D01*
X97623Y-57588D01*
X97698Y-57611D01*
X97775Y-57619D01*
X97780Y-57619D01*
X97780Y-57620D01*
X97780Y-60360D01*
X97780Y-60437D01*
X96067Y-62150D01*
X94708Y-62150D01*
X95127Y-62105D01*
X95708Y-61925D01*
X96244Y-61636D01*
X96713Y-61248D01*
X97098Y-60776D01*
X97384Y-60238D01*
X97560Y-59655D01*
X97619Y-59050D01*
X97618Y-58962D01*
X97542Y-58358D01*
X97349Y-57781D01*
X97049Y-57251D01*
X96651Y-56790D01*
X96171Y-56415D01*
X95628Y-56141D01*
X95041Y-55977D01*
X94434Y-55930D01*
X93830Y-56003D01*
X93251Y-56191D01*
X92719Y-56488D01*
X92255Y-56882D01*
X91877Y-57360D01*
X91599Y-57901D01*
X91431Y-58486D01*
X91380Y-59093D01*
X91448Y-59698D01*
X91632Y-60278D01*
X91925Y-60812D01*
X92317Y-61278D01*
X92791Y-61660D01*
X93331Y-61942D01*
X93915Y-62114D01*
X94306Y-62150D01*
X93650Y-62150D01*
X93631Y-62151D01*
X93613Y-62153D01*
X93612Y-62153D01*
X93611Y-62153D01*
X93593Y-62159D01*
X93575Y-62164D01*
X93574Y-62164D01*
X93573Y-62165D01*
X93557Y-62173D01*
X93541Y-62182D01*
X93540Y-62182D01*
X93539Y-62183D01*
X93524Y-62195D01*
X93510Y-62206D01*
X93509Y-62208D01*
X93509Y-62208D01*
X93509Y-62208D01*
X93508Y-62208D01*
X93465Y-62251D01*
X93459Y-62250D01*
X93395Y-62249D01*
X93332Y-62261D01*
X93273Y-62285D01*
X93220Y-62320D01*
X93174Y-62365D01*
X93138Y-62417D01*
X93113Y-62476D01*
X93100Y-62538D01*
X93100Y-62565D01*
X93094Y-62559D01*
X93069Y-62543D01*
X93042Y-62532D01*
X93013Y-62526D01*
X92983Y-62526D01*
X92806Y-62526D01*
X92777Y-62532D01*
X92755Y-62541D01*
X92732Y-62532D01*
X92703Y-62526D01*
X92673Y-62526D01*
X92496Y-62526D01*
X92467Y-62532D01*
X92440Y-62543D01*
X92440Y-62543D01*
X92439Y-62543D01*
X92412Y-62532D01*
X92383Y-62526D01*
X92353Y-62526D01*
X92176Y-62526D01*
X92147Y-62532D01*
X92125Y-62541D01*
X92102Y-62532D01*
X92073Y-62526D01*
X92043Y-62526D01*
X91866Y-62526D01*
X91837Y-62532D01*
X91815Y-62541D01*
X91792Y-62532D01*
X91763Y-62526D01*
X91733Y-62526D01*
X91556Y-62526D01*
X91527Y-62532D01*
X91500Y-62543D01*
X91500Y-62543D01*
X91499Y-62543D01*
X91472Y-62532D01*
X91443Y-62526D01*
X91413Y-62526D01*
X91236Y-62526D01*
X91207Y-62532D01*
X91180Y-62543D01*
X91180Y-62543D01*
X91179Y-62543D01*
X91152Y-62532D01*
X91123Y-62526D01*
X91093Y-62526D01*
X90916Y-62526D01*
X90887Y-62532D01*
X90875Y-62537D01*
X90875Y-54712D01*
X90875Y-54300D01*
X90712Y-54300D01*
X90562Y-54300D01*
X90350Y-54300D01*
X90350Y-54562D01*
X90412Y-54625D01*
X90500Y-54625D01*
X90520Y-54625D01*
X90528Y-54643D01*
X90555Y-54684D01*
X90590Y-54719D01*
X90631Y-54746D01*
X90677Y-54765D01*
X90725Y-54775D01*
X90812Y-54775D01*
X90875Y-54712D01*
X90875Y-62537D01*
X90860Y-62543D01*
X90860Y-62543D01*
X90859Y-62543D01*
X90832Y-62532D01*
X90803Y-62526D01*
X90773Y-62526D01*
X90596Y-62526D01*
X90567Y-62532D01*
X90540Y-62543D01*
X90515Y-62559D01*
X90494Y-62580D01*
X90478Y-62605D01*
X90467Y-62632D01*
X90461Y-62661D01*
X90461Y-62691D01*
X90461Y-63478D01*
X90467Y-63507D01*
X90478Y-63534D01*
X90494Y-63559D01*
X90500Y-63564D01*
X90500Y-64296D01*
X90459Y-64323D01*
X90467Y-64302D01*
X90473Y-64273D01*
X90473Y-64243D01*
X90473Y-64066D01*
X90467Y-64037D01*
X90456Y-64010D01*
X90456Y-64010D01*
X90456Y-64009D01*
X90467Y-63982D01*
X90473Y-63953D01*
X90473Y-63923D01*
X90473Y-63746D01*
X90467Y-63717D01*
X90456Y-63690D01*
X90440Y-63665D01*
X90419Y-63644D01*
X90394Y-63628D01*
X90367Y-63617D01*
X90338Y-63611D01*
X90308Y-63611D01*
X90250Y-63611D01*
X90250Y-54562D01*
X90250Y-54300D01*
X89887Y-54300D01*
X89825Y-54362D01*
X89825Y-54399D01*
X89834Y-54447D01*
X89853Y-54493D01*
X89880Y-54534D01*
X89915Y-54569D01*
X89956Y-54596D01*
X90002Y-54615D01*
X90050Y-54625D01*
X90099Y-54625D01*
X90187Y-54625D01*
X90250Y-54562D01*
X90250Y-63611D01*
X90189Y-63611D01*
X90206Y-63575D01*
X90219Y-63517D01*
X90220Y-63450D01*
X90208Y-63392D01*
X90186Y-63338D01*
X90153Y-63289D01*
X90112Y-63247D01*
X90063Y-63214D01*
X90009Y-63192D01*
X89951Y-63180D01*
X89892Y-63179D01*
X89834Y-63190D01*
X89780Y-63212D01*
X89731Y-63245D01*
X89689Y-63286D01*
X89655Y-63334D01*
X89632Y-63388D01*
X89620Y-63446D01*
X89619Y-63505D01*
X89630Y-63563D01*
X89649Y-63611D01*
X89521Y-63611D01*
X89492Y-63617D01*
X89465Y-63628D01*
X89440Y-63644D01*
X89419Y-63665D01*
X89403Y-63690D01*
X89392Y-63717D01*
X89386Y-63746D01*
X89386Y-63776D01*
X89386Y-63920D01*
X89166Y-63920D01*
X89155Y-63912D01*
X89096Y-63888D01*
X89034Y-63875D01*
X88970Y-63874D01*
X88907Y-63886D01*
X88848Y-63910D01*
X88795Y-63945D01*
X88749Y-63990D01*
X88713Y-64042D01*
X88688Y-64101D01*
X88675Y-64163D01*
X88674Y-64227D01*
X88686Y-64290D01*
X88709Y-64349D01*
X88744Y-64402D01*
X88788Y-64448D01*
X88840Y-64485D01*
X88899Y-64510D01*
X88961Y-64524D01*
X89025Y-64525D01*
X89087Y-64514D01*
X89147Y-64491D01*
X89201Y-64457D01*
X89240Y-64420D01*
X89386Y-64420D01*
X89386Y-64593D01*
X89387Y-64600D01*
X88342Y-64600D01*
X88250Y-64507D01*
X88250Y-63700D01*
X88250Y-63417D01*
X88281Y-63424D01*
X88345Y-63425D01*
X88407Y-63414D01*
X88467Y-63391D01*
X88521Y-63357D01*
X88567Y-63313D01*
X88603Y-63261D01*
X88629Y-63203D01*
X88643Y-63140D01*
X88645Y-63068D01*
X88632Y-63005D01*
X88608Y-62946D01*
X88573Y-62893D01*
X88528Y-62848D01*
X88475Y-62812D01*
X88416Y-62788D01*
X88354Y-62775D01*
X88290Y-62774D01*
X88250Y-62782D01*
X88250Y-60300D01*
X88250Y-54609D01*
X88297Y-54591D01*
X88351Y-54557D01*
X88397Y-54513D01*
X88433Y-54461D01*
X88459Y-54403D01*
X88473Y-54340D01*
X88475Y-54268D01*
X88462Y-54205D01*
X88438Y-54146D01*
X88403Y-54093D01*
X88358Y-54048D01*
X88305Y-54012D01*
X88262Y-53994D01*
X88407Y-53850D01*
X89944Y-53850D01*
X89958Y-53870D01*
X89979Y-53891D01*
X89981Y-53893D01*
X89956Y-53903D01*
X89915Y-53930D01*
X89880Y-53965D01*
X89853Y-54006D01*
X89834Y-54052D01*
X89825Y-54100D01*
X89825Y-54137D01*
X89887Y-54200D01*
X90250Y-54200D01*
X90250Y-54192D01*
X90350Y-54192D01*
X90350Y-54200D01*
X90562Y-54200D01*
X90712Y-54200D01*
X90875Y-54200D01*
X90875Y-54192D01*
X90975Y-54192D01*
X90975Y-54200D01*
X90982Y-54200D01*
X90982Y-54300D01*
X90975Y-54300D01*
X90975Y-54712D01*
X91037Y-54775D01*
X91124Y-54775D01*
X91172Y-54765D01*
X91218Y-54746D01*
X91259Y-54719D01*
X91294Y-54684D01*
X91321Y-54643D01*
X91340Y-54597D01*
X91350Y-54549D01*
X91350Y-54539D01*
X91355Y-54568D01*
X91367Y-54596D01*
X91383Y-54620D01*
X91404Y-54641D01*
X91428Y-54657D01*
X91456Y-54669D01*
X91485Y-54675D01*
X91514Y-54675D01*
X91864Y-54675D01*
X91893Y-54669D01*
X91921Y-54657D01*
X91945Y-54641D01*
X91966Y-54620D01*
X91982Y-54596D01*
X91994Y-54568D01*
X92000Y-54539D01*
X92000Y-54510D01*
X92000Y-53960D01*
X91994Y-53931D01*
X91982Y-53903D01*
X91966Y-53879D01*
X91950Y-53862D01*
X91950Y-53787D01*
X91966Y-53770D01*
X91982Y-53746D01*
X91994Y-53718D01*
X92000Y-53689D01*
X92000Y-53660D01*
X92000Y-53541D01*
X92007Y-53548D01*
X92007Y-53745D01*
X92012Y-53774D01*
X92024Y-53802D01*
X92040Y-53826D01*
X92061Y-53847D01*
X92085Y-53863D01*
X92113Y-53875D01*
X92142Y-53881D01*
X92171Y-53881D01*
X92407Y-53881D01*
X92436Y-53875D01*
X92464Y-53863D01*
X92488Y-53847D01*
X92509Y-53826D01*
X92525Y-53802D01*
X92537Y-53774D01*
X92543Y-53745D01*
X92543Y-53716D01*
X92543Y-53322D01*
X92537Y-53293D01*
X92525Y-53265D01*
X92509Y-53241D01*
X92488Y-53220D01*
X92464Y-53204D01*
X92447Y-53197D01*
X92481Y-53190D01*
X92527Y-53171D01*
X92568Y-53144D01*
X92603Y-53109D01*
X92625Y-53076D01*
X92625Y-53534D01*
X92628Y-53570D01*
X92631Y-53607D01*
X92632Y-53609D01*
X92632Y-53611D01*
X92643Y-53647D01*
X92653Y-53682D01*
X92654Y-53684D01*
X92655Y-53686D01*
X92672Y-53719D01*
X92689Y-53751D01*
X92690Y-53753D01*
X92691Y-53755D01*
X92715Y-53783D01*
X92738Y-53812D01*
X92741Y-53815D01*
X92741Y-53815D01*
X92741Y-53815D01*
X92742Y-53816D01*
X92863Y-53937D01*
X92840Y-53928D01*
X92792Y-53919D01*
X92762Y-53919D01*
X92700Y-53981D01*
X92700Y-54316D01*
X92955Y-54316D01*
X93018Y-54253D01*
X93018Y-54193D01*
X93018Y-54144D01*
X93008Y-54096D01*
X92994Y-54062D01*
X93015Y-54080D01*
X93016Y-54081D01*
X93018Y-54082D01*
X93051Y-54099D01*
X93083Y-54117D01*
X93085Y-54118D01*
X93087Y-54119D01*
X93122Y-54130D01*
X93157Y-54141D01*
X93159Y-54141D01*
X93161Y-54142D01*
X93198Y-54145D01*
X93235Y-54149D01*
X93239Y-54149D01*
X93239Y-54149D01*
X93239Y-54149D01*
X93241Y-54150D01*
X94900Y-54150D01*
X94977Y-54142D01*
X95052Y-54119D01*
X95121Y-54083D01*
X95181Y-54033D01*
X95231Y-53973D01*
X95268Y-53905D01*
X95291Y-53830D01*
X95299Y-53752D01*
X95292Y-53675D01*
X95270Y-53600D01*
X95234Y-53530D01*
X95185Y-53470D01*
X95125Y-53419D01*
X95100Y-53405D01*
X95100Y-53321D01*
X95100Y-53320D01*
X95116Y-53296D01*
X95128Y-53268D01*
X95134Y-53239D01*
X95134Y-53210D01*
X95134Y-53026D01*
X95142Y-53046D01*
X95158Y-53070D01*
X95179Y-53091D01*
X95203Y-53107D01*
X95231Y-53119D01*
X95260Y-53125D01*
X95289Y-53125D01*
X95539Y-53125D01*
X95568Y-53119D01*
X95596Y-53107D01*
X95620Y-53091D01*
X95641Y-53070D01*
X95657Y-53046D01*
X95669Y-53018D01*
X95675Y-52989D01*
X95675Y-52960D01*
X95675Y-52510D01*
X95669Y-52481D01*
X95657Y-52453D01*
X95641Y-52429D01*
X95620Y-52408D01*
X95596Y-52392D01*
X95568Y-52380D01*
X95539Y-52375D01*
X95510Y-52375D01*
X95457Y-52375D01*
X95432Y-52350D01*
X95445Y-52341D01*
X95466Y-52320D01*
X95482Y-52296D01*
X95494Y-52268D01*
X95500Y-52239D01*
X95500Y-52210D01*
X95500Y-51660D01*
X95494Y-51631D01*
X95482Y-51603D01*
X95466Y-51579D01*
X95445Y-51558D01*
X95421Y-51542D01*
X95393Y-51530D01*
X95364Y-51525D01*
X95393Y-51519D01*
X95421Y-51507D01*
X95445Y-51491D01*
X95466Y-51470D01*
X95482Y-51446D01*
X95494Y-51418D01*
X95500Y-51389D01*
X95500Y-51399D01*
X95509Y-51447D01*
X95528Y-51493D01*
X95555Y-51534D01*
X95590Y-51569D01*
X95624Y-51592D01*
X95617Y-51603D01*
X95605Y-51631D01*
X95600Y-51660D01*
X95600Y-51689D01*
X95600Y-52239D01*
X95605Y-52268D01*
X95617Y-52296D01*
X95633Y-52320D01*
X95654Y-52341D01*
X95678Y-52357D01*
X95706Y-52369D01*
X95735Y-52375D01*
X95750Y-52375D01*
X95750Y-52442D01*
X95742Y-52453D01*
X95730Y-52481D01*
X95725Y-52510D01*
X95725Y-52539D01*
X95725Y-52989D01*
X95730Y-53018D01*
X95742Y-53046D01*
X95750Y-53057D01*
X95750Y-54194D01*
X95729Y-54208D01*
X95708Y-54229D01*
X95692Y-54253D01*
X95680Y-54281D01*
X95675Y-54310D01*
X95675Y-54339D01*
X95675Y-54589D01*
X95680Y-54618D01*
X95692Y-54646D01*
X95708Y-54670D01*
X95729Y-54691D01*
X95753Y-54707D01*
X95781Y-54719D01*
X95810Y-54725D01*
X95839Y-54725D01*
X96289Y-54725D01*
X96318Y-54719D01*
X96346Y-54707D01*
X96370Y-54691D01*
X96391Y-54670D01*
X96407Y-54646D01*
X96419Y-54618D01*
X96425Y-54589D01*
X96425Y-54560D01*
X96425Y-54310D01*
X96419Y-54281D01*
X96407Y-54253D01*
X96391Y-54229D01*
X96370Y-54208D01*
X96346Y-54192D01*
X96318Y-54180D01*
X96289Y-54175D01*
X96260Y-54175D01*
X96250Y-54175D01*
X96250Y-53057D01*
X96257Y-53046D01*
X96269Y-53018D01*
X96275Y-52989D01*
X96275Y-52960D01*
X96275Y-52510D01*
X96269Y-52481D01*
X96257Y-52453D01*
X96250Y-52442D01*
X96250Y-52239D01*
X96250Y-52210D01*
X96250Y-52025D01*
X96250Y-51978D01*
X96278Y-51950D01*
X96290Y-51950D01*
X96340Y-51985D01*
X96399Y-52010D01*
X96461Y-52024D01*
X96525Y-52025D01*
X96587Y-52014D01*
X96647Y-51991D01*
X96701Y-51957D01*
X96747Y-51913D01*
X96783Y-51861D01*
X96809Y-51803D01*
X96823Y-51740D01*
X96825Y-51668D01*
X96812Y-51605D01*
X96788Y-51546D01*
X96753Y-51493D01*
X96708Y-51448D01*
X96655Y-51412D01*
X96596Y-51388D01*
X96534Y-51375D01*
X96470Y-51374D01*
X96450Y-51378D01*
X96450Y-50412D01*
X96450Y-50150D01*
X96087Y-50150D01*
X96025Y-50212D01*
X96025Y-50249D01*
X96034Y-50297D01*
X96053Y-50343D01*
X96080Y-50384D01*
X96115Y-50419D01*
X96156Y-50446D01*
X96202Y-50465D01*
X96250Y-50475D01*
X96299Y-50475D01*
X96387Y-50475D01*
X96450Y-50412D01*
X96450Y-51378D01*
X96407Y-51386D01*
X96348Y-51410D01*
X96347Y-51411D01*
X96350Y-51399D01*
X96350Y-51350D01*
X96350Y-51212D01*
X96350Y-50987D01*
X96350Y-50849D01*
X96350Y-50800D01*
X96340Y-50752D01*
X96321Y-50706D01*
X96294Y-50665D01*
X96259Y-50630D01*
X96218Y-50603D01*
X96172Y-50584D01*
X96124Y-50575D01*
X96037Y-50575D01*
X95975Y-50637D01*
X95975Y-51050D01*
X96287Y-51050D01*
X96350Y-50987D01*
X96350Y-51212D01*
X96287Y-51150D01*
X95975Y-51150D01*
X95975Y-51157D01*
X95875Y-51157D01*
X95875Y-51150D01*
X95562Y-51150D01*
X95500Y-51212D01*
X95500Y-50987D01*
X95562Y-51050D01*
X95875Y-51050D01*
X95875Y-50637D01*
X95812Y-50575D01*
X95725Y-50575D01*
X95677Y-50584D01*
X95631Y-50603D01*
X95590Y-50630D01*
X95555Y-50665D01*
X95528Y-50706D01*
X95509Y-50752D01*
X95500Y-50800D01*
X95500Y-50810D01*
X95494Y-50781D01*
X95482Y-50753D01*
X95466Y-50729D01*
X95445Y-50708D01*
X95421Y-50692D01*
X95393Y-50680D01*
X95364Y-50675D01*
X95335Y-50675D01*
X94985Y-50675D01*
X94956Y-50680D01*
X94928Y-50692D01*
X94904Y-50708D01*
X94883Y-50729D01*
X94867Y-50753D01*
X94855Y-50781D01*
X94850Y-50810D01*
X94850Y-50839D01*
X94850Y-50850D01*
X94525Y-50850D01*
X94525Y-50784D01*
X94547Y-50763D01*
X94583Y-50711D01*
X94609Y-50653D01*
X94623Y-50590D01*
X94625Y-50518D01*
X94612Y-50455D01*
X94588Y-50396D01*
X94553Y-50343D01*
X94508Y-50298D01*
X94455Y-50262D01*
X94396Y-50238D01*
X94334Y-50225D01*
X94270Y-50224D01*
X94207Y-50236D01*
X94148Y-50260D01*
X94095Y-50295D01*
X94049Y-50340D01*
X94013Y-50392D01*
X93988Y-50451D01*
X93975Y-50513D01*
X93974Y-50577D01*
X93986Y-50640D01*
X94009Y-50699D01*
X94044Y-50752D01*
X94088Y-50798D01*
X94125Y-50824D01*
X94125Y-50869D01*
X94104Y-50883D01*
X94083Y-50904D01*
X94067Y-50928D01*
X94055Y-50956D01*
X94050Y-50985D01*
X94050Y-51014D01*
X94050Y-51464D01*
X94055Y-51493D01*
X94067Y-51521D01*
X94083Y-51545D01*
X94104Y-51566D01*
X94128Y-51582D01*
X94129Y-51583D01*
X94129Y-51583D01*
X94108Y-51604D01*
X94092Y-51628D01*
X94080Y-51656D01*
X94075Y-51685D01*
X94075Y-51714D01*
X94075Y-52042D01*
X93975Y-51942D01*
X93975Y-51685D01*
X93969Y-51656D01*
X93957Y-51628D01*
X93941Y-51604D01*
X93925Y-51587D01*
X93925Y-51580D01*
X93945Y-51566D01*
X93966Y-51545D01*
X93982Y-51521D01*
X93994Y-51493D01*
X94000Y-51464D01*
X94000Y-51435D01*
X94000Y-50985D01*
X93994Y-50956D01*
X93982Y-50928D01*
X93966Y-50904D01*
X93945Y-50883D01*
X93921Y-50867D01*
X93893Y-50855D01*
X93864Y-50850D01*
X93835Y-50850D01*
X93585Y-50850D01*
X93556Y-50855D01*
X93528Y-50867D01*
X93504Y-50883D01*
X93483Y-50904D01*
X93467Y-50928D01*
X93455Y-50956D01*
X93450Y-50985D01*
X93450Y-51014D01*
X93450Y-51464D01*
X93455Y-51493D01*
X93467Y-51521D01*
X93483Y-51545D01*
X93487Y-51550D01*
X93460Y-51550D01*
X93431Y-51555D01*
X93425Y-51558D01*
X93425Y-50665D01*
X94190Y-49900D01*
X96035Y-49900D01*
X96034Y-49902D01*
X96025Y-49950D01*
X96025Y-49987D01*
X96087Y-50050D01*
X96450Y-50050D01*
X96450Y-50042D01*
X96550Y-50042D01*
X96550Y-50050D01*
X96912Y-50050D01*
X96950Y-50012D01*
X96987Y-50050D01*
X97350Y-50050D01*
X97350Y-50042D01*
X97450Y-50042D01*
X97450Y-50050D01*
X97812Y-50050D01*
X97875Y-49987D01*
X97875Y-49950D01*
X97865Y-49902D01*
X97864Y-49900D01*
X97958Y-49900D01*
X98000Y-49942D01*
X97998Y-49943D01*
X97957Y-49970D01*
X97931Y-49996D01*
X97931Y-50085D01*
X98187Y-50341D01*
X98193Y-50335D01*
X98264Y-50406D01*
X98258Y-50412D01*
X98514Y-50668D01*
X98603Y-50668D01*
X98629Y-50642D01*
X98656Y-50601D01*
X98675Y-50555D01*
X98685Y-50507D01*
X98685Y-50458D01*
X98675Y-50409D01*
X98666Y-50387D01*
X98672Y-50387D01*
X98769Y-50485D01*
X98772Y-50499D01*
X98783Y-50526D01*
X98800Y-50551D01*
X98821Y-50572D01*
X99068Y-50819D01*
X99093Y-50835D01*
X99120Y-50847D01*
X99149Y-50853D01*
X99178Y-50853D01*
X99207Y-50847D01*
X99235Y-50835D01*
X99259Y-50819D01*
X99280Y-50798D01*
X99300Y-50778D01*
X99311Y-50777D01*
X99385Y-50755D01*
X99404Y-50745D01*
X99397Y-50757D01*
X99373Y-50832D01*
X99372Y-50848D01*
X99330Y-50890D01*
X99314Y-50914D01*
X99302Y-50942D01*
X99296Y-50971D01*
X99296Y-51000D01*
X99302Y-51029D01*
X99314Y-51056D01*
X99330Y-51081D01*
X99351Y-51102D01*
X99598Y-51349D01*
X99623Y-51366D01*
X99625Y-51367D01*
X99650Y-51392D01*
X99648Y-51393D01*
X99607Y-51420D01*
X99581Y-51446D01*
X99581Y-51535D01*
X99837Y-51791D01*
X99843Y-51785D01*
X99914Y-51856D01*
X99908Y-51862D01*
X100164Y-52118D01*
X100253Y-52118D01*
X100279Y-52092D01*
X100306Y-52051D01*
X100307Y-52049D01*
X100396Y-52137D01*
X100396Y-52137D01*
G54D10*
G36*
X101561Y-64475D02*
X101385Y-64475D01*
X101356Y-64480D01*
X101328Y-64492D01*
X101304Y-64508D01*
X101283Y-64529D01*
X101267Y-64553D01*
X101255Y-64581D01*
X101250Y-64610D01*
X101244Y-64581D01*
X101232Y-64553D01*
X101216Y-64529D01*
X101195Y-64508D01*
X101171Y-64492D01*
X101143Y-64480D01*
X101114Y-64475D01*
X101085Y-64475D01*
X100885Y-64475D01*
X100856Y-64480D01*
X100828Y-64492D01*
X100804Y-64508D01*
X100783Y-64529D01*
X100767Y-64553D01*
X100755Y-64581D01*
X100750Y-64610D01*
X100744Y-64581D01*
X100732Y-64553D01*
X100716Y-64529D01*
X100695Y-64508D01*
X100671Y-64492D01*
X100643Y-64480D01*
X100614Y-64475D01*
X100585Y-64475D01*
X100385Y-64475D01*
X100356Y-64480D01*
X100328Y-64492D01*
X100304Y-64508D01*
X100283Y-64529D01*
X100267Y-64553D01*
X100255Y-64581D01*
X100250Y-64610D01*
X100244Y-64581D01*
X100232Y-64553D01*
X100216Y-64529D01*
X100195Y-64508D01*
X100171Y-64492D01*
X100143Y-64480D01*
X100114Y-64475D01*
X100085Y-64475D01*
X99885Y-64475D01*
X99856Y-64480D01*
X99828Y-64492D01*
X99804Y-64508D01*
X99783Y-64529D01*
X99767Y-64553D01*
X99755Y-64581D01*
X99750Y-64610D01*
X99750Y-64639D01*
X99750Y-65089D01*
X99755Y-65118D01*
X99767Y-65146D01*
X99783Y-65170D01*
X99804Y-65191D01*
X99828Y-65207D01*
X99832Y-65209D01*
X99832Y-65209D01*
X99833Y-65210D01*
X99845Y-65225D01*
X99856Y-65239D01*
X99858Y-65240D01*
X99858Y-65240D01*
X99858Y-65240D01*
X99858Y-65241D01*
X100550Y-65932D01*
X100550Y-66117D01*
X99667Y-67000D01*
X99100Y-67000D01*
X99081Y-67001D01*
X99063Y-67003D01*
X99062Y-67003D01*
X99061Y-67003D01*
X99043Y-67009D01*
X99025Y-67014D01*
X99024Y-67014D01*
X99023Y-67015D01*
X99007Y-67023D01*
X98991Y-67032D01*
X98990Y-67032D01*
X98989Y-67033D01*
X98974Y-67045D01*
X98960Y-67056D01*
X98959Y-67058D01*
X98959Y-67058D01*
X98959Y-67058D01*
X98958Y-67058D01*
X98341Y-67675D01*
X98343Y-67673D01*
X98379Y-67592D01*
X98398Y-67506D01*
X98400Y-67405D01*
X98400Y-66405D01*
X98400Y-66405D01*
X98400Y-65764D01*
X98400Y-65735D01*
X98400Y-65135D01*
X98394Y-65106D01*
X98382Y-65078D01*
X98366Y-65054D01*
X98345Y-65033D01*
X98321Y-65017D01*
X98293Y-65005D01*
X98264Y-65000D01*
X98235Y-65000D01*
X97635Y-65000D01*
X97606Y-65005D01*
X97578Y-65017D01*
X97554Y-65033D01*
X97533Y-65054D01*
X97517Y-65078D01*
X97505Y-65106D01*
X97500Y-65135D01*
X97500Y-65164D01*
X97500Y-65764D01*
X97505Y-65793D01*
X97517Y-65821D01*
X97533Y-65845D01*
X97554Y-65866D01*
X97578Y-65882D01*
X97606Y-65894D01*
X97635Y-65900D01*
X97664Y-65900D01*
X98264Y-65900D01*
X98293Y-65894D01*
X98321Y-65882D01*
X98345Y-65866D01*
X98366Y-65845D01*
X98382Y-65821D01*
X98394Y-65793D01*
X98400Y-65764D01*
X98400Y-66405D01*
X98382Y-66319D01*
X98349Y-66237D01*
X98300Y-66164D01*
X98238Y-66101D01*
X98165Y-66052D01*
X98083Y-66018D01*
X97997Y-66000D01*
X97909Y-65999D01*
X97822Y-66016D01*
X97740Y-66049D01*
X97666Y-66097D01*
X97603Y-66159D01*
X97553Y-66232D01*
X97518Y-66313D01*
X97500Y-66399D01*
X97499Y-66487D01*
X97515Y-66574D01*
X97547Y-66656D01*
X97595Y-66730D01*
X97656Y-66794D01*
X97729Y-66844D01*
X97810Y-66880D01*
X97896Y-66898D01*
X97984Y-66900D01*
X98071Y-66885D01*
X98153Y-66853D01*
X98228Y-66806D01*
X98292Y-66745D01*
X98343Y-66673D01*
X98379Y-66592D01*
X98398Y-66506D01*
X98400Y-66405D01*
X98400Y-67405D01*
X98382Y-67319D01*
X98349Y-67237D01*
X98300Y-67164D01*
X98238Y-67101D01*
X98165Y-67052D01*
X98083Y-67018D01*
X97997Y-67000D01*
X97909Y-66999D01*
X97836Y-67013D01*
X97621Y-66798D01*
X97607Y-66786D01*
X97592Y-66774D01*
X97592Y-66774D01*
X97591Y-66773D01*
X97574Y-66765D01*
X97558Y-66756D01*
X97557Y-66755D01*
X97556Y-66755D01*
X97539Y-66749D01*
X97521Y-66744D01*
X97520Y-66744D01*
X97519Y-66743D01*
X97501Y-66742D01*
X97482Y-66740D01*
X97480Y-66740D01*
X97480Y-66740D01*
X97480Y-66740D01*
X97480Y-66740D01*
X97296Y-66740D01*
X97343Y-66673D01*
X97379Y-66592D01*
X97398Y-66506D01*
X97400Y-66405D01*
X97382Y-66319D01*
X97349Y-66237D01*
X97300Y-66164D01*
X97238Y-66101D01*
X97165Y-66052D01*
X97083Y-66018D01*
X96997Y-66000D01*
X96909Y-65999D01*
X96822Y-66016D01*
X96740Y-66049D01*
X96666Y-66097D01*
X96603Y-66159D01*
X96553Y-66232D01*
X96546Y-66250D01*
X96494Y-66250D01*
X96492Y-66247D01*
X96443Y-66214D01*
X96389Y-66192D01*
X96331Y-66180D01*
X96272Y-66179D01*
X96214Y-66190D01*
X96160Y-66212D01*
X96111Y-66245D01*
X96069Y-66286D01*
X96050Y-66314D01*
X96050Y-66108D01*
X96051Y-66107D01*
X96097Y-66063D01*
X96133Y-66011D01*
X96159Y-65953D01*
X96173Y-65890D01*
X96175Y-65818D01*
X96162Y-65755D01*
X96138Y-65696D01*
X96125Y-65677D01*
X96149Y-65670D01*
X96151Y-65670D01*
X96152Y-65669D01*
X96185Y-65652D01*
X96219Y-65634D01*
X96220Y-65633D01*
X96221Y-65633D01*
X96250Y-65609D01*
X96279Y-65585D01*
X96280Y-65584D01*
X96281Y-65583D01*
X96305Y-65554D01*
X96330Y-65525D01*
X96330Y-65524D01*
X96331Y-65523D01*
X96349Y-65490D01*
X96367Y-65457D01*
X96368Y-65456D01*
X96368Y-65455D01*
X96372Y-65443D01*
X96531Y-65284D01*
X96518Y-65313D01*
X96500Y-65399D01*
X96499Y-65487D01*
X96515Y-65574D01*
X96547Y-65656D01*
X96595Y-65730D01*
X96656Y-65794D01*
X96729Y-65844D01*
X96810Y-65880D01*
X96896Y-65898D01*
X96984Y-65900D01*
X97071Y-65885D01*
X97153Y-65853D01*
X97228Y-65806D01*
X97292Y-65745D01*
X97343Y-65673D01*
X97379Y-65592D01*
X97398Y-65506D01*
X97400Y-65405D01*
X97382Y-65319D01*
X97349Y-65237D01*
X97300Y-65164D01*
X97238Y-65101D01*
X97200Y-65075D01*
X97200Y-65000D01*
X97197Y-64977D01*
X97195Y-64954D01*
X97195Y-64952D01*
X97195Y-64951D01*
X97188Y-64929D01*
X97182Y-64907D01*
X97181Y-64905D01*
X97181Y-64904D01*
X97170Y-64884D01*
X97159Y-64863D01*
X97158Y-64862D01*
X97158Y-64861D01*
X97143Y-64843D01*
X97129Y-64825D01*
X97127Y-64823D01*
X97127Y-64823D01*
X97127Y-64823D01*
X97126Y-64823D01*
X97059Y-64756D01*
X97632Y-64182D01*
X97656Y-64154D01*
X97680Y-64125D01*
X97681Y-64124D01*
X97682Y-64122D01*
X97699Y-64089D01*
X97717Y-64057D01*
X97718Y-64055D01*
X97719Y-64053D01*
X97730Y-64018D01*
X97741Y-63983D01*
X97741Y-63981D01*
X97742Y-63979D01*
X97745Y-63942D01*
X97749Y-63905D01*
X97749Y-63901D01*
X97749Y-63901D01*
X97749Y-63901D01*
X97750Y-63900D01*
X97750Y-62465D01*
X98213Y-62001D01*
X98242Y-62017D01*
X98244Y-62018D01*
X98246Y-62019D01*
X98281Y-62030D01*
X98316Y-62041D01*
X98318Y-62041D01*
X98320Y-62042D01*
X98357Y-62045D01*
X98394Y-62049D01*
X98398Y-62049D01*
X98398Y-62049D01*
X98398Y-62049D01*
X98400Y-62050D01*
X99769Y-62050D01*
X99767Y-62053D01*
X99755Y-62081D01*
X99750Y-62110D01*
X99750Y-62139D01*
X99750Y-62589D01*
X99755Y-62618D01*
X99767Y-62646D01*
X99783Y-62670D01*
X99804Y-62691D01*
X99828Y-62707D01*
X99856Y-62719D01*
X99885Y-62725D01*
X99914Y-62725D01*
X100114Y-62725D01*
X100143Y-62719D01*
X100171Y-62707D01*
X100195Y-62691D01*
X100216Y-62670D01*
X100232Y-62646D01*
X100244Y-62618D01*
X100250Y-62589D01*
X100250Y-62660D01*
X100252Y-62682D01*
X100254Y-62705D01*
X100254Y-62707D01*
X100254Y-62708D01*
X100261Y-62730D01*
X100267Y-62752D01*
X100268Y-62754D01*
X100268Y-62755D01*
X100279Y-62775D01*
X100290Y-62796D01*
X100291Y-62797D01*
X100291Y-62798D01*
X100306Y-62816D01*
X100320Y-62834D01*
X100322Y-62836D01*
X100322Y-62836D01*
X100322Y-62836D01*
X100323Y-62836D01*
X100843Y-63356D01*
X100861Y-63371D01*
X100878Y-63386D01*
X100879Y-63386D01*
X100880Y-63387D01*
X100901Y-63398D01*
X100921Y-63409D01*
X100922Y-63410D01*
X100923Y-63410D01*
X100946Y-63417D01*
X100968Y-63424D01*
X100969Y-63424D01*
X100970Y-63425D01*
X100993Y-63427D01*
X101016Y-63429D01*
X101019Y-63429D01*
X101019Y-63429D01*
X101019Y-63429D01*
X101020Y-63430D01*
X101316Y-63430D01*
X101490Y-63603D01*
X101490Y-64300D01*
X101492Y-64322D01*
X101494Y-64345D01*
X101494Y-64347D01*
X101494Y-64348D01*
X101501Y-64370D01*
X101507Y-64392D01*
X101508Y-64394D01*
X101508Y-64395D01*
X101519Y-64415D01*
X101530Y-64436D01*
X101531Y-64437D01*
X101531Y-64438D01*
X101546Y-64456D01*
X101560Y-64474D01*
X101561Y-64475D01*
X101561Y-64475D01*
G37*
G54D29*
X101561Y-64475D02*
X101385Y-64475D01*
X101356Y-64480D01*
X101328Y-64492D01*
X101304Y-64508D01*
X101283Y-64529D01*
X101267Y-64553D01*
X101255Y-64581D01*
X101250Y-64610D01*
X101244Y-64581D01*
X101232Y-64553D01*
X101216Y-64529D01*
X101195Y-64508D01*
X101171Y-64492D01*
X101143Y-64480D01*
X101114Y-64475D01*
X101085Y-64475D01*
X100885Y-64475D01*
X100856Y-64480D01*
X100828Y-64492D01*
X100804Y-64508D01*
X100783Y-64529D01*
X100767Y-64553D01*
X100755Y-64581D01*
X100750Y-64610D01*
X100744Y-64581D01*
X100732Y-64553D01*
X100716Y-64529D01*
X100695Y-64508D01*
X100671Y-64492D01*
X100643Y-64480D01*
X100614Y-64475D01*
X100585Y-64475D01*
X100385Y-64475D01*
X100356Y-64480D01*
X100328Y-64492D01*
X100304Y-64508D01*
X100283Y-64529D01*
X100267Y-64553D01*
X100255Y-64581D01*
X100250Y-64610D01*
X100244Y-64581D01*
X100232Y-64553D01*
X100216Y-64529D01*
X100195Y-64508D01*
X100171Y-64492D01*
X100143Y-64480D01*
X100114Y-64475D01*
X100085Y-64475D01*
X99885Y-64475D01*
X99856Y-64480D01*
X99828Y-64492D01*
X99804Y-64508D01*
X99783Y-64529D01*
X99767Y-64553D01*
X99755Y-64581D01*
X99750Y-64610D01*
X99750Y-64639D01*
X99750Y-65089D01*
X99755Y-65118D01*
X99767Y-65146D01*
X99783Y-65170D01*
X99804Y-65191D01*
X99828Y-65207D01*
X99832Y-65209D01*
X99832Y-65209D01*
X99833Y-65210D01*
X99845Y-65225D01*
X99856Y-65239D01*
X99858Y-65240D01*
X99858Y-65240D01*
X99858Y-65240D01*
X99858Y-65241D01*
X100550Y-65932D01*
X100550Y-66117D01*
X99667Y-67000D01*
X99100Y-67000D01*
X99081Y-67001D01*
X99063Y-67003D01*
X99062Y-67003D01*
X99061Y-67003D01*
X99043Y-67009D01*
X99025Y-67014D01*
X99024Y-67014D01*
X99023Y-67015D01*
X99007Y-67023D01*
X98991Y-67032D01*
X98990Y-67032D01*
X98989Y-67033D01*
X98974Y-67045D01*
X98960Y-67056D01*
X98959Y-67058D01*
X98959Y-67058D01*
X98959Y-67058D01*
X98958Y-67058D01*
X98341Y-67675D01*
X98343Y-67673D01*
X98379Y-67592D01*
X98398Y-67506D01*
X98400Y-67405D01*
X98400Y-66405D01*
X98400Y-66405D01*
X98400Y-65764D01*
X98400Y-65735D01*
X98400Y-65135D01*
X98394Y-65106D01*
X98382Y-65078D01*
X98366Y-65054D01*
X98345Y-65033D01*
X98321Y-65017D01*
X98293Y-65005D01*
X98264Y-65000D01*
X98235Y-65000D01*
X97635Y-65000D01*
X97606Y-65005D01*
X97578Y-65017D01*
X97554Y-65033D01*
X97533Y-65054D01*
X97517Y-65078D01*
X97505Y-65106D01*
X97500Y-65135D01*
X97500Y-65164D01*
X97500Y-65764D01*
X97505Y-65793D01*
X97517Y-65821D01*
X97533Y-65845D01*
X97554Y-65866D01*
X97578Y-65882D01*
X97606Y-65894D01*
X97635Y-65900D01*
X97664Y-65900D01*
X98264Y-65900D01*
X98293Y-65894D01*
X98321Y-65882D01*
X98345Y-65866D01*
X98366Y-65845D01*
X98382Y-65821D01*
X98394Y-65793D01*
X98400Y-65764D01*
X98400Y-66405D01*
X98382Y-66319D01*
X98349Y-66237D01*
X98300Y-66164D01*
X98238Y-66101D01*
X98165Y-66052D01*
X98083Y-66018D01*
X97997Y-66000D01*
X97909Y-65999D01*
X97822Y-66016D01*
X97740Y-66049D01*
X97666Y-66097D01*
X97603Y-66159D01*
X97553Y-66232D01*
X97518Y-66313D01*
X97500Y-66399D01*
X97499Y-66487D01*
X97515Y-66574D01*
X97547Y-66656D01*
X97595Y-66730D01*
X97656Y-66794D01*
X97729Y-66844D01*
X97810Y-66880D01*
X97896Y-66898D01*
X97984Y-66900D01*
X98071Y-66885D01*
X98153Y-66853D01*
X98228Y-66806D01*
X98292Y-66745D01*
X98343Y-66673D01*
X98379Y-66592D01*
X98398Y-66506D01*
X98400Y-66405D01*
X98400Y-67405D01*
X98382Y-67319D01*
X98349Y-67237D01*
X98300Y-67164D01*
X98238Y-67101D01*
X98165Y-67052D01*
X98083Y-67018D01*
X97997Y-67000D01*
X97909Y-66999D01*
X97836Y-67013D01*
X97621Y-66798D01*
X97607Y-66786D01*
X97592Y-66774D01*
X97592Y-66774D01*
X97591Y-66773D01*
X97574Y-66765D01*
X97558Y-66756D01*
X97557Y-66755D01*
X97556Y-66755D01*
X97539Y-66749D01*
X97521Y-66744D01*
X97520Y-66744D01*
X97519Y-66743D01*
X97501Y-66742D01*
X97482Y-66740D01*
X97480Y-66740D01*
X97480Y-66740D01*
X97480Y-66740D01*
X97480Y-66740D01*
X97296Y-66740D01*
X97343Y-66673D01*
X97379Y-66592D01*
X97398Y-66506D01*
X97400Y-66405D01*
X97382Y-66319D01*
X97349Y-66237D01*
X97300Y-66164D01*
X97238Y-66101D01*
X97165Y-66052D01*
X97083Y-66018D01*
X96997Y-66000D01*
X96909Y-65999D01*
X96822Y-66016D01*
X96740Y-66049D01*
X96666Y-66097D01*
X96603Y-66159D01*
X96553Y-66232D01*
X96546Y-66250D01*
X96494Y-66250D01*
X96492Y-66247D01*
X96443Y-66214D01*
X96389Y-66192D01*
X96331Y-66180D01*
X96272Y-66179D01*
X96214Y-66190D01*
X96160Y-66212D01*
X96111Y-66245D01*
X96069Y-66286D01*
X96050Y-66314D01*
X96050Y-66108D01*
X96051Y-66107D01*
X96097Y-66063D01*
X96133Y-66011D01*
X96159Y-65953D01*
X96173Y-65890D01*
X96175Y-65818D01*
X96162Y-65755D01*
X96138Y-65696D01*
X96125Y-65677D01*
X96149Y-65670D01*
X96151Y-65670D01*
X96152Y-65669D01*
X96185Y-65652D01*
X96219Y-65634D01*
X96220Y-65633D01*
X96221Y-65633D01*
X96250Y-65609D01*
X96279Y-65585D01*
X96280Y-65584D01*
X96281Y-65583D01*
X96305Y-65554D01*
X96330Y-65525D01*
X96330Y-65524D01*
X96331Y-65523D01*
X96349Y-65490D01*
X96367Y-65457D01*
X96368Y-65456D01*
X96368Y-65455D01*
X96372Y-65443D01*
X96531Y-65284D01*
X96518Y-65313D01*
X96500Y-65399D01*
X96499Y-65487D01*
X96515Y-65574D01*
X96547Y-65656D01*
X96595Y-65730D01*
X96656Y-65794D01*
X96729Y-65844D01*
X96810Y-65880D01*
X96896Y-65898D01*
X96984Y-65900D01*
X97071Y-65885D01*
X97153Y-65853D01*
X97228Y-65806D01*
X97292Y-65745D01*
X97343Y-65673D01*
X97379Y-65592D01*
X97398Y-65506D01*
X97400Y-65405D01*
X97382Y-65319D01*
X97349Y-65237D01*
X97300Y-65164D01*
X97238Y-65101D01*
X97200Y-65075D01*
X97200Y-65000D01*
X97197Y-64977D01*
X97195Y-64954D01*
X97195Y-64952D01*
X97195Y-64951D01*
X97188Y-64929D01*
X97182Y-64907D01*
X97181Y-64905D01*
X97181Y-64904D01*
X97170Y-64884D01*
X97159Y-64863D01*
X97158Y-64862D01*
X97158Y-64861D01*
X97143Y-64843D01*
X97129Y-64825D01*
X97127Y-64823D01*
X97127Y-64823D01*
X97127Y-64823D01*
X97126Y-64823D01*
X97059Y-64756D01*
X97632Y-64182D01*
X97656Y-64154D01*
X97680Y-64125D01*
X97681Y-64124D01*
X97682Y-64122D01*
X97699Y-64089D01*
X97717Y-64057D01*
X97718Y-64055D01*
X97719Y-64053D01*
X97730Y-64018D01*
X97741Y-63983D01*
X97741Y-63981D01*
X97742Y-63979D01*
X97745Y-63942D01*
X97749Y-63905D01*
X97749Y-63901D01*
X97749Y-63901D01*
X97749Y-63901D01*
X97750Y-63900D01*
X97750Y-62465D01*
X98213Y-62001D01*
X98242Y-62017D01*
X98244Y-62018D01*
X98246Y-62019D01*
X98281Y-62030D01*
X98316Y-62041D01*
X98318Y-62041D01*
X98320Y-62042D01*
X98357Y-62045D01*
X98394Y-62049D01*
X98398Y-62049D01*
X98398Y-62049D01*
X98398Y-62049D01*
X98400Y-62050D01*
X99769Y-62050D01*
X99767Y-62053D01*
X99755Y-62081D01*
X99750Y-62110D01*
X99750Y-62139D01*
X99750Y-62589D01*
X99755Y-62618D01*
X99767Y-62646D01*
X99783Y-62670D01*
X99804Y-62691D01*
X99828Y-62707D01*
X99856Y-62719D01*
X99885Y-62725D01*
X99914Y-62725D01*
X100114Y-62725D01*
X100143Y-62719D01*
X100171Y-62707D01*
X100195Y-62691D01*
X100216Y-62670D01*
X100232Y-62646D01*
X100244Y-62618D01*
X100250Y-62589D01*
X100250Y-62660D01*
X100252Y-62682D01*
X100254Y-62705D01*
X100254Y-62707D01*
X100254Y-62708D01*
X100261Y-62730D01*
X100267Y-62752D01*
X100268Y-62754D01*
X100268Y-62755D01*
X100279Y-62775D01*
X100290Y-62796D01*
X100291Y-62797D01*
X100291Y-62798D01*
X100306Y-62816D01*
X100320Y-62834D01*
X100322Y-62836D01*
X100322Y-62836D01*
X100322Y-62836D01*
X100323Y-62836D01*
X100843Y-63356D01*
X100861Y-63371D01*
X100878Y-63386D01*
X100879Y-63386D01*
X100880Y-63387D01*
X100901Y-63398D01*
X100921Y-63409D01*
X100922Y-63410D01*
X100923Y-63410D01*
X100946Y-63417D01*
X100968Y-63424D01*
X100969Y-63424D01*
X100970Y-63425D01*
X100993Y-63427D01*
X101016Y-63429D01*
X101019Y-63429D01*
X101019Y-63429D01*
X101019Y-63429D01*
X101020Y-63430D01*
X101316Y-63430D01*
X101490Y-63603D01*
X101490Y-64300D01*
X101492Y-64322D01*
X101494Y-64345D01*
X101494Y-64347D01*
X101494Y-64348D01*
X101501Y-64370D01*
X101507Y-64392D01*
X101508Y-64394D01*
X101508Y-64395D01*
X101519Y-64415D01*
X101530Y-64436D01*
X101531Y-64437D01*
X101531Y-64438D01*
X101546Y-64456D01*
X101560Y-64474D01*
X101561Y-64475D01*
G54D10*
G36*
X105157Y-59050D02*
X105152Y-59347D01*
X104892Y-61411D01*
X104326Y-63111D01*
X104326Y-56462D01*
X104325Y-56432D01*
X104318Y-56404D01*
X104305Y-56377D01*
X104006Y-55734D01*
X103988Y-55711D01*
X103966Y-55691D01*
X103941Y-55675D01*
X103913Y-55665D01*
X103884Y-55661D01*
X103855Y-55662D01*
X103826Y-55669D01*
X103799Y-55682D01*
X103014Y-56047D01*
X102991Y-56065D01*
X102971Y-56087D01*
X102955Y-56112D01*
X102945Y-56140D01*
X102941Y-56169D01*
X102942Y-56198D01*
X102949Y-56227D01*
X102961Y-56254D01*
X103015Y-56368D01*
X102567Y-56817D01*
X102543Y-56845D01*
X102519Y-56873D01*
X102518Y-56875D01*
X102517Y-56877D01*
X102500Y-56909D01*
X102482Y-56942D01*
X102481Y-56944D01*
X102480Y-56946D01*
X102469Y-56981D01*
X102458Y-57016D01*
X102458Y-57018D01*
X102457Y-57020D01*
X102454Y-57057D01*
X102450Y-57094D01*
X102450Y-57098D01*
X102450Y-57098D01*
X102450Y-57098D01*
X102450Y-57099D01*
X102450Y-57346D01*
X102418Y-57418D01*
X102400Y-57504D01*
X102399Y-57592D01*
X102415Y-57679D01*
X102447Y-57761D01*
X102495Y-57835D01*
X102556Y-57899D01*
X102629Y-57949D01*
X102710Y-57985D01*
X102796Y-58004D01*
X102884Y-58005D01*
X102971Y-57990D01*
X103053Y-57958D01*
X103128Y-57911D01*
X103192Y-57850D01*
X103243Y-57778D01*
X103279Y-57697D01*
X103298Y-57611D01*
X103300Y-57510D01*
X103282Y-57424D01*
X103250Y-57344D01*
X103250Y-57265D01*
X103650Y-56864D01*
X104252Y-56583D01*
X104276Y-56566D01*
X104296Y-56544D01*
X104312Y-56519D01*
X104322Y-56491D01*
X104326Y-56462D01*
X104326Y-63111D01*
X104250Y-63341D01*
X104250Y-62760D01*
X104250Y-61900D01*
X104250Y-61840D01*
X104250Y-59550D01*
X104247Y-59527D01*
X104245Y-59504D01*
X104245Y-59502D01*
X104245Y-59501D01*
X104238Y-59479D01*
X104232Y-59457D01*
X104231Y-59455D01*
X104231Y-59454D01*
X104220Y-59434D01*
X104209Y-59413D01*
X104208Y-59412D01*
X104208Y-59411D01*
X104193Y-59393D01*
X104179Y-59375D01*
X104177Y-59373D01*
X104177Y-59373D01*
X104177Y-59373D01*
X104176Y-59373D01*
X103296Y-58492D01*
X103282Y-58424D01*
X103249Y-58342D01*
X103200Y-58269D01*
X103138Y-58206D01*
X103065Y-58157D01*
X102983Y-58123D01*
X102897Y-58105D01*
X102809Y-58104D01*
X102722Y-58121D01*
X102640Y-58154D01*
X102566Y-58202D01*
X102503Y-58264D01*
X102453Y-58337D01*
X102422Y-58410D01*
X102400Y-58299D01*
X102321Y-58107D01*
X102206Y-57935D01*
X102061Y-57789D01*
X101889Y-57673D01*
X101699Y-57593D01*
X101496Y-57551D01*
X101290Y-57550D01*
X101087Y-57589D01*
X100895Y-57666D01*
X100722Y-57779D01*
X100574Y-57924D01*
X100475Y-58070D01*
X100475Y-55927D01*
X100475Y-55695D01*
X100475Y-55605D01*
X100475Y-55372D01*
X100412Y-55310D01*
X100409Y-55310D01*
X100360Y-55310D01*
X100312Y-55319D01*
X100266Y-55338D01*
X100225Y-55365D01*
X100190Y-55400D01*
X100163Y-55441D01*
X100144Y-55487D01*
X100135Y-55535D01*
X100135Y-55542D01*
X100197Y-55605D01*
X100475Y-55605D01*
X100475Y-55695D01*
X100197Y-55695D01*
X100135Y-55757D01*
X100135Y-55764D01*
X100144Y-55812D01*
X100163Y-55858D01*
X100190Y-55899D01*
X100225Y-55934D01*
X100266Y-55961D01*
X100312Y-55980D01*
X100360Y-55990D01*
X100409Y-55990D01*
X100412Y-55990D01*
X100475Y-55927D01*
X100475Y-58070D01*
X100458Y-58094D01*
X100376Y-58284D01*
X100333Y-58487D01*
X100330Y-58693D01*
X100368Y-58897D01*
X100444Y-59089D01*
X100556Y-59262D01*
X100699Y-59411D01*
X100869Y-59529D01*
X101058Y-59612D01*
X101260Y-59656D01*
X101467Y-59661D01*
X101671Y-59625D01*
X101863Y-59550D01*
X102038Y-59439D01*
X102187Y-59297D01*
X102307Y-59128D01*
X102391Y-58939D01*
X102436Y-58737D01*
X102436Y-58734D01*
X102447Y-58761D01*
X102495Y-58835D01*
X102556Y-58899D01*
X102629Y-58949D01*
X102710Y-58985D01*
X102796Y-59004D01*
X102884Y-59005D01*
X102971Y-58990D01*
X103053Y-58958D01*
X103054Y-58958D01*
X103401Y-59305D01*
X103224Y-59305D01*
X103200Y-59269D01*
X103138Y-59206D01*
X103065Y-59157D01*
X102983Y-59123D01*
X102897Y-59105D01*
X102809Y-59104D01*
X102722Y-59121D01*
X102640Y-59154D01*
X102566Y-59202D01*
X102503Y-59264D01*
X102453Y-59337D01*
X102418Y-59418D01*
X102400Y-59504D01*
X102399Y-59592D01*
X102415Y-59679D01*
X102447Y-59761D01*
X102495Y-59835D01*
X102556Y-59899D01*
X102629Y-59949D01*
X102710Y-59985D01*
X102796Y-60004D01*
X102844Y-60005D01*
X102799Y-60005D01*
X102799Y-60067D01*
X102737Y-60005D01*
X102574Y-60005D01*
X102525Y-60005D01*
X102477Y-60014D01*
X102431Y-60033D01*
X102390Y-60060D01*
X102355Y-60095D01*
X102328Y-60136D01*
X102309Y-60182D01*
X102300Y-60230D01*
X102300Y-60442D01*
X102362Y-60505D01*
X102800Y-60505D01*
X102800Y-60497D01*
X102900Y-60497D01*
X102900Y-60505D01*
X103337Y-60505D01*
X103400Y-60442D01*
X103400Y-60230D01*
X103390Y-60182D01*
X103371Y-60136D01*
X103344Y-60095D01*
X103309Y-60060D01*
X103268Y-60033D01*
X103222Y-60014D01*
X103174Y-60005D01*
X103125Y-60005D01*
X102962Y-60005D01*
X102900Y-60067D01*
X102900Y-60005D01*
X102889Y-60005D01*
X102971Y-59990D01*
X103053Y-59958D01*
X103128Y-59911D01*
X103192Y-59850D01*
X103224Y-59805D01*
X103410Y-59805D01*
X103410Y-62160D01*
X103410Y-62496D01*
X103400Y-62506D01*
X103400Y-60879D01*
X103400Y-60667D01*
X103337Y-60605D01*
X102900Y-60605D01*
X102900Y-61042D01*
X102962Y-61105D01*
X103125Y-61105D01*
X103174Y-61105D01*
X103222Y-61095D01*
X103268Y-61076D01*
X103309Y-61049D01*
X103344Y-61014D01*
X103371Y-60973D01*
X103390Y-60928D01*
X103400Y-60879D01*
X103400Y-62506D01*
X103296Y-62610D01*
X102800Y-62610D01*
X102800Y-61042D01*
X102800Y-60605D01*
X102362Y-60605D01*
X102300Y-60667D01*
X102300Y-60879D01*
X102309Y-60928D01*
X102328Y-60973D01*
X102355Y-61014D01*
X102390Y-61049D01*
X102431Y-61076D01*
X102477Y-61095D01*
X102525Y-61105D01*
X102574Y-61105D01*
X102737Y-61105D01*
X102800Y-61042D01*
X102800Y-62610D01*
X102634Y-62610D01*
X102610Y-62574D01*
X102548Y-62511D01*
X102475Y-62462D01*
X102393Y-62428D01*
X102307Y-62410D01*
X102219Y-62409D01*
X102132Y-62426D01*
X102050Y-62459D01*
X101976Y-62507D01*
X101913Y-62569D01*
X101885Y-62610D01*
X101847Y-62610D01*
X101850Y-62599D01*
X101850Y-62550D01*
X101850Y-62462D01*
X101850Y-62237D01*
X101850Y-62149D01*
X101850Y-62100D01*
X101840Y-62052D01*
X101821Y-62006D01*
X101794Y-61965D01*
X101759Y-61930D01*
X101718Y-61903D01*
X101672Y-61884D01*
X101624Y-61875D01*
X101612Y-61875D01*
X101550Y-61937D01*
X101550Y-62300D01*
X101787Y-62300D01*
X101850Y-62237D01*
X101850Y-62462D01*
X101787Y-62400D01*
X101550Y-62400D01*
X101550Y-62407D01*
X101450Y-62407D01*
X101450Y-62400D01*
X101442Y-62400D01*
X101442Y-62300D01*
X101450Y-62300D01*
X101450Y-61985D01*
X101465Y-61947D01*
X101475Y-61899D01*
X101475Y-61850D01*
X101475Y-61762D01*
X101475Y-61537D01*
X101475Y-61449D01*
X101475Y-61400D01*
X101465Y-61352D01*
X101446Y-61306D01*
X101419Y-61265D01*
X101384Y-61230D01*
X101343Y-61203D01*
X101297Y-61184D01*
X101249Y-61175D01*
X101212Y-61175D01*
X101150Y-61237D01*
X101150Y-61600D01*
X101412Y-61600D01*
X101475Y-61537D01*
X101475Y-61762D01*
X101412Y-61700D01*
X101150Y-61700D01*
X101150Y-61707D01*
X101050Y-61707D01*
X101050Y-61700D01*
X101042Y-61700D01*
X101042Y-61600D01*
X101050Y-61600D01*
X101050Y-61237D01*
X100987Y-61175D01*
X100950Y-61175D01*
X100902Y-61184D01*
X100856Y-61203D01*
X100815Y-61230D01*
X100780Y-61265D01*
X100753Y-61306D01*
X100743Y-61331D01*
X100741Y-61329D01*
X100720Y-61308D01*
X100696Y-61292D01*
X100668Y-61280D01*
X100639Y-61275D01*
X100634Y-61275D01*
X100583Y-61258D01*
X100505Y-61250D01*
X100500Y-61250D01*
X100015Y-61250D01*
X100015Y-56014D01*
X100015Y-55985D01*
X100015Y-55805D01*
X100009Y-55776D01*
X99997Y-55748D01*
X99981Y-55724D01*
X99960Y-55703D01*
X99936Y-55687D01*
X99908Y-55675D01*
X99879Y-55670D01*
X99850Y-55670D01*
X99570Y-55670D01*
X99541Y-55675D01*
X99513Y-55687D01*
X99489Y-55703D01*
X99468Y-55724D01*
X99452Y-55748D01*
X99440Y-55776D01*
X99435Y-55805D01*
X99435Y-55834D01*
X99435Y-56014D01*
X99440Y-56043D01*
X99452Y-56071D01*
X99468Y-56095D01*
X99489Y-56116D01*
X99513Y-56132D01*
X99541Y-56144D01*
X99570Y-56150D01*
X99599Y-56150D01*
X99879Y-56150D01*
X99908Y-56144D01*
X99936Y-56132D01*
X99960Y-56116D01*
X99981Y-56095D01*
X99997Y-56071D01*
X100009Y-56043D01*
X100015Y-56014D01*
X100015Y-61250D01*
X100000Y-61250D01*
X98565Y-61250D01*
X98482Y-61167D01*
X98453Y-61143D01*
X98424Y-61119D01*
X98423Y-61118D01*
X98422Y-61117D01*
X98389Y-61099D01*
X98356Y-61081D01*
X98354Y-61081D01*
X98353Y-61080D01*
X98317Y-61069D01*
X98281Y-61058D01*
X98280Y-61058D01*
X98279Y-61057D01*
X98241Y-61054D01*
X98204Y-61050D01*
X98202Y-61050D01*
X98201Y-61050D01*
X98163Y-61053D01*
X98126Y-61056D01*
X98125Y-61057D01*
X98123Y-61057D01*
X98087Y-61068D01*
X98051Y-61078D01*
X98050Y-61079D01*
X98048Y-61079D01*
X98015Y-61097D01*
X97982Y-61114D01*
X97981Y-61115D01*
X97979Y-61116D01*
X97950Y-61139D01*
X97921Y-61163D01*
X97919Y-61165D01*
X97919Y-61165D01*
X97919Y-61165D01*
X97917Y-61167D01*
X97067Y-62017D01*
X97043Y-62045D01*
X97019Y-62074D01*
X97018Y-62075D01*
X97017Y-62077D01*
X97000Y-62110D01*
X96982Y-62142D01*
X96981Y-62144D01*
X96980Y-62146D01*
X96969Y-62181D01*
X96958Y-62216D01*
X96958Y-62218D01*
X96957Y-62220D01*
X96954Y-62257D01*
X96950Y-62294D01*
X96950Y-62298D01*
X96950Y-62298D01*
X96950Y-62298D01*
X96950Y-62300D01*
X96950Y-63734D01*
X96317Y-64367D01*
X96317Y-64367D01*
X95784Y-64900D01*
X95511Y-64900D01*
X95472Y-64867D01*
X95403Y-64830D01*
X95380Y-64823D01*
X95382Y-64820D01*
X95417Y-64743D01*
X95435Y-64661D01*
X95437Y-64564D01*
X95420Y-64482D01*
X95388Y-64404D01*
X95341Y-64334D01*
X95308Y-64299D01*
X95320Y-64291D01*
X95341Y-64270D01*
X95357Y-64246D01*
X95369Y-64218D01*
X95375Y-64189D01*
X95375Y-64160D01*
X95375Y-63910D01*
X95369Y-63881D01*
X95357Y-63853D01*
X95341Y-63829D01*
X95320Y-63808D01*
X95318Y-63806D01*
X95343Y-63796D01*
X95384Y-63769D01*
X95419Y-63734D01*
X95446Y-63693D01*
X95465Y-63647D01*
X95475Y-63599D01*
X95475Y-63562D01*
X95412Y-63500D01*
X95050Y-63500D01*
X95050Y-63507D01*
X94950Y-63507D01*
X94950Y-63500D01*
X94587Y-63500D01*
X94525Y-63562D01*
X94525Y-63599D01*
X94534Y-63647D01*
X94553Y-63693D01*
X94580Y-63734D01*
X94615Y-63769D01*
X94656Y-63796D01*
X94681Y-63806D01*
X94679Y-63808D01*
X94658Y-63829D01*
X94642Y-63853D01*
X94630Y-63881D01*
X94625Y-63910D01*
X94625Y-63939D01*
X94625Y-63979D01*
X94613Y-63976D01*
X94612Y-63976D01*
X94611Y-63975D01*
X94593Y-63974D01*
X94574Y-63972D01*
X94572Y-63972D01*
X94572Y-63972D01*
X94572Y-63972D01*
X94572Y-63972D01*
X94237Y-63972D01*
X94239Y-63960D01*
X94239Y-63930D01*
X94239Y-63753D01*
X94233Y-63724D01*
X94222Y-63697D01*
X94206Y-63672D01*
X94185Y-63651D01*
X94160Y-63635D01*
X94133Y-63624D01*
X94104Y-63618D01*
X94074Y-63618D01*
X93896Y-63618D01*
X93896Y-63498D01*
X93919Y-63475D01*
X93968Y-63406D01*
X93980Y-63378D01*
X93981Y-63378D01*
X93982Y-63378D01*
X93983Y-63377D01*
X93999Y-63369D01*
X94016Y-63360D01*
X94016Y-63359D01*
X94017Y-63359D01*
X94032Y-63347D01*
X94046Y-63336D01*
X94048Y-63334D01*
X94048Y-63334D01*
X94048Y-63334D01*
X94048Y-63334D01*
X94107Y-63275D01*
X94339Y-63275D01*
X94368Y-63269D01*
X94396Y-63257D01*
X94420Y-63241D01*
X94441Y-63220D01*
X94443Y-63218D01*
X94453Y-63243D01*
X94480Y-63284D01*
X94515Y-63319D01*
X94525Y-63325D01*
X94525Y-63337D01*
X94587Y-63400D01*
X94950Y-63400D01*
X94950Y-63392D01*
X95050Y-63392D01*
X95050Y-63400D01*
X95412Y-63400D01*
X95475Y-63337D01*
X95475Y-63300D01*
X95465Y-63252D01*
X95446Y-63206D01*
X95419Y-63165D01*
X95384Y-63130D01*
X95343Y-63103D01*
X95297Y-63084D01*
X95249Y-63075D01*
X95200Y-63075D01*
X95175Y-63075D01*
X95175Y-63012D01*
X95112Y-62950D01*
X94850Y-62950D01*
X94850Y-62957D01*
X94750Y-62957D01*
X94750Y-62950D01*
X94742Y-62950D01*
X94742Y-62850D01*
X94750Y-62850D01*
X94750Y-62842D01*
X94850Y-62842D01*
X94850Y-62850D01*
X95112Y-62850D01*
X95175Y-62787D01*
X95175Y-62699D01*
X95175Y-62650D01*
X95165Y-62602D01*
X95146Y-62556D01*
X95142Y-62550D01*
X96150Y-62550D01*
X96168Y-62548D01*
X96186Y-62546D01*
X96187Y-62546D01*
X96188Y-62546D01*
X96206Y-62540D01*
X96224Y-62535D01*
X96225Y-62535D01*
X96226Y-62534D01*
X96242Y-62526D01*
X96258Y-62517D01*
X96259Y-62517D01*
X96260Y-62516D01*
X96275Y-62504D01*
X96289Y-62493D01*
X96290Y-62491D01*
X96290Y-62491D01*
X96290Y-62491D01*
X96291Y-62491D01*
X98091Y-60691D01*
X98091Y-60691D01*
X98091Y-60691D01*
X98121Y-60661D01*
X98133Y-60647D01*
X98145Y-60632D01*
X98145Y-60632D01*
X98146Y-60631D01*
X98154Y-60614D01*
X98163Y-60598D01*
X98164Y-60597D01*
X98164Y-60596D01*
X98170Y-60579D01*
X98175Y-60561D01*
X98175Y-60560D01*
X98176Y-60559D01*
X98177Y-60541D01*
X98179Y-60522D01*
X98179Y-60520D01*
X98179Y-60520D01*
X98179Y-60520D01*
X98180Y-60520D01*
X98180Y-60360D01*
X98180Y-57702D01*
X98591Y-57291D01*
X99041Y-56841D01*
X99053Y-56827D01*
X99065Y-56812D01*
X99065Y-56812D01*
X99066Y-56811D01*
X99074Y-56794D01*
X99083Y-56778D01*
X99084Y-56777D01*
X99084Y-56776D01*
X99090Y-56759D01*
X99095Y-56741D01*
X99095Y-56740D01*
X99096Y-56739D01*
X99097Y-56721D01*
X99099Y-56702D01*
X99099Y-56700D01*
X99099Y-56700D01*
X99099Y-56700D01*
X99100Y-56700D01*
X99100Y-55557D01*
X99432Y-55225D01*
X99454Y-55225D01*
X99452Y-55228D01*
X99440Y-55256D01*
X99435Y-55285D01*
X99435Y-55314D01*
X99435Y-55494D01*
X99440Y-55523D01*
X99452Y-55551D01*
X99468Y-55575D01*
X99489Y-55596D01*
X99513Y-55612D01*
X99541Y-55624D01*
X99570Y-55630D01*
X99599Y-55630D01*
X99658Y-55630D01*
X99673Y-55634D01*
X99722Y-55639D01*
X99770Y-55635D01*
X99790Y-55630D01*
X99879Y-55630D01*
X99908Y-55624D01*
X99936Y-55612D01*
X99960Y-55596D01*
X99981Y-55575D01*
X99997Y-55551D01*
X100009Y-55523D01*
X100015Y-55494D01*
X100015Y-55465D01*
X100015Y-55453D01*
X100243Y-55225D01*
X100364Y-55225D01*
X100393Y-55219D01*
X100421Y-55207D01*
X100445Y-55191D01*
X100466Y-55170D01*
X100482Y-55146D01*
X100494Y-55118D01*
X100500Y-55089D01*
X100500Y-55060D01*
X100500Y-54810D01*
X100494Y-54781D01*
X100482Y-54753D01*
X100466Y-54729D01*
X100445Y-54708D01*
X100421Y-54692D01*
X100393Y-54680D01*
X100364Y-54675D01*
X100335Y-54675D01*
X99885Y-54675D01*
X99856Y-54680D01*
X99828Y-54692D01*
X99817Y-54700D01*
X99732Y-54700D01*
X99721Y-54692D01*
X99693Y-54680D01*
X99664Y-54675D01*
X99635Y-54675D01*
X99185Y-54675D01*
X99156Y-54680D01*
X99128Y-54692D01*
X99104Y-54708D01*
X99083Y-54729D01*
X99075Y-54742D01*
X99075Y-54557D01*
X99083Y-54570D01*
X99104Y-54591D01*
X99128Y-54607D01*
X99156Y-54619D01*
X99185Y-54625D01*
X99214Y-54625D01*
X99664Y-54625D01*
X99693Y-54619D01*
X99721Y-54607D01*
X99732Y-54600D01*
X99817Y-54600D01*
X99828Y-54607D01*
X99856Y-54619D01*
X99885Y-54625D01*
X99914Y-54625D01*
X100067Y-54625D01*
X100076Y-54629D01*
X100077Y-54630D01*
X100078Y-54630D01*
X100101Y-54637D01*
X100123Y-54644D01*
X100124Y-54644D01*
X100125Y-54645D01*
X100148Y-54647D01*
X100171Y-54649D01*
X100174Y-54649D01*
X100174Y-54649D01*
X100174Y-54649D01*
X100175Y-54650D01*
X100802Y-54650D01*
X100805Y-54668D01*
X100817Y-54696D01*
X100825Y-54707D01*
X100825Y-54725D01*
X100810Y-54725D01*
X100781Y-54730D01*
X100753Y-54742D01*
X100729Y-54758D01*
X100708Y-54779D01*
X100692Y-54803D01*
X100680Y-54831D01*
X100675Y-54860D01*
X100675Y-54889D01*
X100675Y-55310D01*
X100640Y-55310D01*
X100637Y-55310D01*
X100575Y-55372D01*
X100575Y-55605D01*
X100582Y-55605D01*
X100582Y-55695D01*
X100575Y-55695D01*
X100575Y-55927D01*
X100637Y-55990D01*
X100640Y-55990D01*
X100689Y-55990D01*
X100737Y-55980D01*
X100750Y-55975D01*
X100750Y-56050D01*
X100750Y-56099D01*
X100759Y-56147D01*
X100778Y-56193D01*
X100805Y-56234D01*
X100840Y-56269D01*
X100881Y-56296D01*
X100927Y-56315D01*
X100975Y-56325D01*
X101012Y-56325D01*
X101075Y-56262D01*
X101075Y-55900D01*
X101067Y-55900D01*
X101067Y-55800D01*
X101075Y-55800D01*
X101075Y-55792D01*
X101175Y-55792D01*
X101175Y-55800D01*
X101182Y-55800D01*
X101182Y-55900D01*
X101175Y-55900D01*
X101175Y-56262D01*
X101237Y-56325D01*
X101274Y-56325D01*
X101322Y-56315D01*
X101368Y-56296D01*
X101409Y-56269D01*
X101444Y-56234D01*
X101471Y-56193D01*
X101481Y-56168D01*
X101483Y-56170D01*
X101504Y-56191D01*
X101528Y-56207D01*
X101556Y-56219D01*
X101585Y-56225D01*
X101590Y-56225D01*
X101644Y-56241D01*
X101722Y-56249D01*
X101799Y-56242D01*
X101860Y-56225D01*
X101864Y-56225D01*
X101893Y-56219D01*
X101921Y-56207D01*
X101945Y-56191D01*
X101966Y-56170D01*
X101972Y-56161D01*
X102004Y-56135D01*
X102055Y-56075D01*
X102092Y-56007D01*
X102116Y-55933D01*
X102124Y-55855D01*
X102125Y-55850D01*
X102125Y-55750D01*
X102125Y-55285D01*
X102142Y-55229D01*
X102149Y-55151D01*
X102142Y-55073D01*
X102120Y-54998D01*
X102083Y-54929D01*
X102075Y-54918D01*
X102075Y-54860D01*
X102071Y-54843D01*
X102075Y-54855D01*
X102085Y-54891D01*
X102086Y-54893D01*
X102087Y-54895D01*
X102104Y-54927D01*
X102121Y-54960D01*
X102122Y-54962D01*
X102123Y-54964D01*
X102147Y-54992D01*
X102170Y-55021D01*
X102173Y-55024D01*
X102173Y-55024D01*
X102173Y-55024D01*
X102174Y-55025D01*
X102315Y-55166D01*
X102343Y-55190D01*
X102372Y-55214D01*
X102374Y-55215D01*
X102375Y-55216D01*
X102408Y-55233D01*
X102440Y-55251D01*
X102442Y-55252D01*
X102444Y-55253D01*
X102479Y-55264D01*
X102503Y-55271D01*
X102593Y-55465D01*
X102611Y-55488D01*
X102633Y-55508D01*
X102658Y-55524D01*
X102686Y-55534D01*
X102715Y-55538D01*
X102744Y-55537D01*
X102773Y-55530D01*
X102800Y-55517D01*
X103585Y-55152D01*
X103608Y-55134D01*
X103628Y-55112D01*
X103644Y-55087D01*
X103654Y-55059D01*
X103658Y-55030D01*
X103657Y-55001D01*
X103650Y-54972D01*
X103638Y-54945D01*
X103338Y-54302D01*
X103320Y-54279D01*
X103299Y-54259D01*
X103273Y-54243D01*
X103246Y-54233D01*
X103216Y-54229D01*
X103187Y-54230D01*
X103158Y-54237D01*
X103131Y-54250D01*
X102857Y-54378D01*
X102857Y-53732D01*
X102893Y-53680D01*
X102933Y-53590D01*
X102955Y-53495D01*
X102957Y-53383D01*
X102938Y-53286D01*
X102900Y-53196D01*
X102846Y-53114D01*
X102777Y-53044D01*
X102696Y-52990D01*
X102605Y-52952D01*
X102509Y-52932D01*
X102411Y-52931D01*
X102387Y-52936D01*
X102439Y-52884D01*
X102466Y-52843D01*
X102485Y-52797D01*
X102494Y-52749D01*
X102494Y-52700D01*
X102485Y-52652D01*
X102466Y-52606D01*
X102439Y-52565D01*
X102404Y-52530D01*
X102253Y-52380D01*
X102165Y-52380D01*
X101820Y-52725D01*
X101826Y-52730D01*
X101755Y-52801D01*
X101750Y-52795D01*
X101405Y-53140D01*
X101405Y-53228D01*
X101555Y-53379D01*
X101590Y-53414D01*
X101631Y-53441D01*
X101677Y-53460D01*
X101725Y-53469D01*
X101774Y-53469D01*
X101822Y-53460D01*
X101868Y-53441D01*
X101909Y-53414D01*
X101960Y-53362D01*
X101957Y-53376D01*
X101956Y-53474D01*
X101974Y-53570D01*
X102010Y-53661D01*
X102057Y-53734D01*
X102057Y-54742D01*
X102060Y-54779D01*
X102063Y-54816D01*
X102064Y-54818D01*
X102064Y-54820D01*
X102057Y-54803D01*
X102041Y-54779D01*
X102020Y-54758D01*
X102014Y-54754D01*
X102021Y-54743D01*
X102040Y-54697D01*
X102050Y-54649D01*
X102050Y-54600D01*
X102050Y-54512D01*
X102050Y-54287D01*
X102050Y-54199D01*
X102050Y-54150D01*
X102040Y-54102D01*
X102021Y-54056D01*
X101994Y-54015D01*
X101959Y-53980D01*
X101918Y-53953D01*
X101872Y-53934D01*
X101824Y-53925D01*
X101787Y-53925D01*
X101725Y-53987D01*
X101725Y-54350D01*
X101987Y-54350D01*
X102050Y-54287D01*
X102050Y-54512D01*
X101987Y-54450D01*
X101725Y-54450D01*
X101725Y-54457D01*
X101625Y-54457D01*
X101625Y-54450D01*
X101617Y-54450D01*
X101617Y-54350D01*
X101625Y-54350D01*
X101625Y-53987D01*
X101562Y-53925D01*
X101525Y-53925D01*
X101477Y-53934D01*
X101431Y-53953D01*
X101390Y-53980D01*
X101355Y-54015D01*
X101328Y-54056D01*
X101318Y-54081D01*
X101316Y-54079D01*
X101295Y-54058D01*
X101271Y-54042D01*
X101243Y-54030D01*
X101214Y-54025D01*
X101185Y-54025D01*
X100935Y-54025D01*
X100906Y-54030D01*
X100878Y-54042D01*
X100854Y-54058D01*
X100833Y-54079D01*
X100817Y-54103D01*
X100805Y-54131D01*
X100802Y-54150D01*
X100480Y-54150D01*
X100466Y-54129D01*
X100445Y-54108D01*
X100421Y-54092D01*
X100393Y-54080D01*
X100364Y-54075D01*
X100335Y-54075D01*
X99885Y-54075D01*
X99856Y-54080D01*
X99828Y-54092D01*
X99817Y-54100D01*
X99732Y-54100D01*
X99721Y-54092D01*
X99693Y-54080D01*
X99664Y-54075D01*
X99635Y-54075D01*
X99590Y-54075D01*
X100282Y-53382D01*
X101015Y-52650D01*
X101014Y-52652D01*
X101005Y-52700D01*
X101005Y-52749D01*
X101014Y-52797D01*
X101033Y-52843D01*
X101060Y-52884D01*
X101095Y-52919D01*
X101246Y-53069D01*
X101334Y-53069D01*
X101679Y-52725D01*
X101673Y-52719D01*
X101744Y-52648D01*
X101750Y-52654D01*
X102094Y-52309D01*
X102094Y-52221D01*
X101944Y-52070D01*
X101909Y-52035D01*
X101868Y-52008D01*
X101822Y-51989D01*
X101774Y-51980D01*
X101725Y-51980D01*
X101677Y-51989D01*
X101631Y-52008D01*
X101590Y-52035D01*
X101540Y-52086D01*
X101541Y-52080D01*
X101542Y-51968D01*
X101523Y-51872D01*
X101486Y-51782D01*
X101432Y-51700D01*
X101363Y-51630D01*
X101281Y-51575D01*
X101191Y-51537D01*
X101095Y-51518D01*
X100997Y-51517D01*
X100921Y-51531D01*
X100545Y-51155D01*
X100544Y-51155D01*
X100544Y-51155D01*
X100233Y-50843D01*
X100233Y-50829D01*
X100227Y-50800D01*
X100216Y-50773D01*
X100199Y-50748D01*
X100178Y-50727D01*
X99931Y-50480D01*
X99906Y-50464D01*
X99879Y-50452D01*
X99850Y-50446D01*
X99821Y-50446D01*
X99792Y-50452D01*
X99764Y-50464D01*
X99740Y-50480D01*
X99719Y-50501D01*
X99699Y-50521D01*
X99690Y-50522D01*
X99615Y-50544D01*
X99595Y-50554D01*
X99603Y-50541D01*
X99626Y-50466D01*
X99628Y-50451D01*
X99669Y-50409D01*
X99685Y-50385D01*
X99697Y-50357D01*
X99703Y-50328D01*
X99703Y-50299D01*
X99697Y-50270D01*
X99685Y-50243D01*
X99669Y-50218D01*
X99648Y-50197D01*
X99401Y-49950D01*
X99376Y-49933D01*
X99349Y-49922D01*
X99335Y-49919D01*
X99120Y-49705D01*
X99092Y-49681D01*
X99063Y-49657D01*
X99062Y-49656D01*
X99060Y-49655D01*
X99027Y-49638D01*
X98995Y-49620D01*
X98993Y-49619D01*
X98991Y-49618D01*
X98956Y-49607D01*
X98921Y-49596D01*
X98918Y-49596D01*
X98916Y-49595D01*
X98880Y-49592D01*
X98843Y-49587D01*
X98839Y-49587D01*
X98839Y-49587D01*
X98839Y-49587D01*
X98837Y-49587D01*
X98777Y-49587D01*
X98407Y-49217D01*
X98378Y-49193D01*
X98350Y-49169D01*
X98348Y-49168D01*
X98346Y-49167D01*
X98314Y-49150D01*
X98281Y-49132D01*
X98279Y-49131D01*
X98277Y-49130D01*
X98242Y-49119D01*
X98207Y-49108D01*
X98205Y-49108D01*
X98203Y-49107D01*
X98166Y-49104D01*
X98129Y-49100D01*
X98125Y-49100D01*
X98125Y-49100D01*
X98125Y-49100D01*
X98124Y-49100D01*
X97400Y-49100D01*
X96500Y-49100D01*
X94100Y-49100D01*
X94050Y-49100D01*
X94025Y-49100D01*
X93988Y-49103D01*
X93986Y-49103D01*
X93761Y-48878D01*
X93747Y-48866D01*
X93732Y-48854D01*
X93732Y-48854D01*
X93731Y-48853D01*
X93714Y-48845D01*
X93698Y-48836D01*
X93697Y-48835D01*
X93696Y-48835D01*
X93679Y-48829D01*
X93661Y-48824D01*
X93660Y-48824D01*
X93659Y-48823D01*
X93641Y-48822D01*
X93622Y-48820D01*
X93620Y-48820D01*
X93620Y-48820D01*
X93620Y-48820D01*
X93620Y-48820D01*
X92880Y-48820D01*
X92861Y-48821D01*
X92843Y-48823D01*
X92842Y-48823D01*
X92841Y-48823D01*
X92823Y-48829D01*
X92805Y-48834D01*
X92804Y-48834D01*
X92803Y-48835D01*
X92787Y-48843D01*
X92771Y-48852D01*
X92770Y-48852D01*
X92769Y-48853D01*
X92754Y-48865D01*
X92740Y-48876D01*
X92739Y-48878D01*
X92739Y-48878D01*
X92739Y-48878D01*
X92738Y-48878D01*
X92637Y-48980D01*
X92200Y-48980D01*
X91760Y-48980D01*
X91741Y-48981D01*
X91723Y-48983D01*
X91722Y-48983D01*
X91721Y-48983D01*
X91703Y-48989D01*
X91685Y-48994D01*
X91684Y-48994D01*
X91683Y-48995D01*
X91667Y-49003D01*
X91651Y-49012D01*
X91650Y-49012D01*
X91649Y-49013D01*
X91634Y-49025D01*
X91620Y-49036D01*
X91619Y-49038D01*
X91619Y-49038D01*
X91619Y-49038D01*
X91618Y-49038D01*
X91217Y-49440D01*
X90820Y-49440D01*
X90711Y-49440D01*
X90693Y-49441D01*
X90674Y-49443D01*
X90673Y-49443D01*
X90672Y-49443D01*
X90654Y-49449D01*
X90637Y-49454D01*
X90636Y-49454D01*
X90635Y-49455D01*
X90618Y-49463D01*
X90602Y-49472D01*
X90601Y-49472D01*
X90600Y-49473D01*
X90586Y-49485D01*
X90571Y-49496D01*
X90570Y-49498D01*
X90570Y-49498D01*
X90570Y-49498D01*
X90570Y-49498D01*
X90318Y-49750D01*
X90306Y-49764D01*
X90294Y-49778D01*
X90294Y-49779D01*
X90293Y-49780D01*
X90285Y-49796D01*
X90276Y-49812D01*
X90275Y-49813D01*
X90275Y-49814D01*
X90269Y-49832D01*
X90264Y-49849D01*
X90264Y-49850D01*
X90263Y-49851D01*
X90262Y-49870D01*
X90260Y-49888D01*
X90260Y-49890D01*
X90260Y-49890D01*
X90260Y-49890D01*
X90260Y-49891D01*
X90260Y-50024D01*
X90143Y-50134D01*
X90141Y-50135D01*
X90140Y-50137D01*
X90128Y-50150D01*
X90117Y-50163D01*
X90116Y-50165D01*
X90114Y-50167D01*
X90106Y-50182D01*
X90097Y-50197D01*
X90097Y-50199D01*
X90096Y-50201D01*
X90090Y-50217D01*
X90085Y-50234D01*
X90085Y-50236D01*
X90084Y-50238D01*
X90082Y-50255D01*
X90080Y-50272D01*
X90080Y-50274D01*
X90080Y-50277D01*
X90080Y-50280D01*
X90080Y-50385D01*
X88185Y-52280D01*
X88060Y-52280D01*
X88041Y-52281D01*
X88023Y-52283D01*
X88022Y-52283D01*
X88021Y-52283D01*
X88003Y-52289D01*
X87985Y-52294D01*
X87984Y-52294D01*
X87983Y-52295D01*
X87967Y-52303D01*
X87951Y-52312D01*
X87950Y-52312D01*
X87949Y-52313D01*
X87934Y-52325D01*
X87920Y-52336D01*
X87919Y-52338D01*
X87919Y-52338D01*
X87919Y-52338D01*
X87918Y-52338D01*
X87678Y-52578D01*
X87666Y-52592D01*
X87654Y-52607D01*
X87654Y-52607D01*
X87653Y-52608D01*
X87645Y-52625D01*
X87636Y-52641D01*
X87635Y-52642D01*
X87635Y-52643D01*
X87629Y-52660D01*
X87624Y-52678D01*
X87624Y-52679D01*
X87623Y-52680D01*
X87622Y-52698D01*
X87620Y-52717D01*
X87620Y-52719D01*
X87620Y-52719D01*
X87620Y-52719D01*
X87620Y-52720D01*
X87620Y-53317D01*
X87178Y-53758D01*
X87166Y-53772D01*
X87154Y-53787D01*
X87154Y-53787D01*
X87153Y-53788D01*
X87145Y-53805D01*
X87136Y-53821D01*
X87135Y-53822D01*
X87135Y-53823D01*
X87129Y-53840D01*
X87124Y-53858D01*
X87124Y-53859D01*
X87123Y-53860D01*
X87122Y-53878D01*
X87120Y-53897D01*
X87120Y-53899D01*
X87120Y-53899D01*
X87120Y-53899D01*
X87120Y-53900D01*
X87120Y-60020D01*
X87120Y-63909D01*
X87068Y-63930D01*
X87015Y-63965D01*
X86969Y-64010D01*
X86933Y-64062D01*
X86908Y-64121D01*
X86895Y-64183D01*
X86894Y-64247D01*
X86906Y-64310D01*
X86929Y-64369D01*
X86964Y-64422D01*
X87008Y-64468D01*
X87060Y-64505D01*
X87119Y-64530D01*
X87181Y-64544D01*
X87245Y-64545D01*
X87307Y-64534D01*
X87350Y-64518D01*
X87350Y-65450D01*
X87351Y-65469D01*
X87353Y-65488D01*
X87353Y-65488D01*
X87353Y-65488D01*
X87359Y-65507D01*
X87364Y-65525D01*
X87364Y-65525D01*
X87365Y-65526D01*
X87374Y-65543D01*
X87383Y-65560D01*
X87383Y-65560D01*
X87383Y-65560D01*
X87395Y-65575D01*
X87407Y-65590D01*
X87407Y-65590D01*
X87408Y-65590D01*
X87413Y-65595D01*
X87416Y-65599D01*
X87418Y-65600D01*
X87418Y-65600D01*
X87418Y-65600D01*
X87418Y-65601D01*
X88018Y-66201D01*
X88032Y-66213D01*
X88047Y-66225D01*
X88047Y-66225D01*
X88048Y-66226D01*
X88065Y-66234D01*
X88081Y-66243D01*
X88082Y-66244D01*
X88083Y-66244D01*
X88100Y-66250D01*
X88118Y-66255D01*
X88119Y-66255D01*
X88120Y-66256D01*
X88138Y-66257D01*
X88157Y-66259D01*
X88159Y-66259D01*
X88159Y-66259D01*
X88159Y-66259D01*
X88160Y-66260D01*
X89435Y-66260D01*
X89440Y-66265D01*
X89465Y-66281D01*
X89492Y-66292D01*
X89521Y-66298D01*
X89551Y-66298D01*
X90338Y-66298D01*
X90367Y-66292D01*
X90394Y-66281D01*
X90419Y-66265D01*
X90440Y-66244D01*
X90456Y-66219D01*
X90467Y-66192D01*
X90473Y-66163D01*
X90473Y-66133D01*
X90473Y-65956D01*
X90467Y-65927D01*
X90458Y-65905D01*
X90467Y-65882D01*
X90473Y-65853D01*
X90473Y-65823D01*
X90473Y-65646D01*
X90467Y-65617D01*
X90456Y-65590D01*
X90456Y-65590D01*
X90456Y-65589D01*
X90467Y-65562D01*
X90473Y-65533D01*
X90473Y-65503D01*
X90473Y-65408D01*
X90482Y-65402D01*
X90517Y-65367D01*
X90545Y-65326D01*
X90563Y-65281D01*
X90573Y-65233D01*
X90573Y-65226D01*
X90511Y-65164D01*
X89980Y-65164D01*
X89980Y-65177D01*
X89880Y-65177D01*
X89880Y-65164D01*
X89349Y-65164D01*
X89286Y-65226D01*
X89286Y-65233D01*
X89296Y-65281D01*
X89314Y-65326D01*
X89342Y-65367D01*
X89377Y-65402D01*
X89386Y-65408D01*
X89386Y-65533D01*
X89389Y-65550D01*
X88257Y-65550D01*
X88000Y-65292D01*
X88000Y-64822D01*
X88118Y-64941D01*
X88132Y-64953D01*
X88147Y-64965D01*
X88147Y-64965D01*
X88148Y-64966D01*
X88165Y-64974D01*
X88181Y-64983D01*
X88182Y-64984D01*
X88183Y-64984D01*
X88200Y-64990D01*
X88218Y-64995D01*
X88219Y-64995D01*
X88220Y-64996D01*
X88238Y-64997D01*
X88257Y-64999D01*
X88259Y-64999D01*
X88259Y-64999D01*
X88259Y-64999D01*
X88260Y-65000D01*
X89287Y-65000D01*
X89286Y-65006D01*
X89286Y-65013D01*
X89349Y-65075D01*
X89880Y-65075D01*
X89880Y-65062D01*
X89980Y-65062D01*
X89980Y-65075D01*
X90511Y-65075D01*
X90573Y-65013D01*
X90573Y-65006D01*
X90563Y-64958D01*
X90545Y-64913D01*
X90518Y-64872D01*
X90559Y-64890D01*
X90621Y-64904D01*
X90685Y-64905D01*
X90747Y-64894D01*
X90807Y-64871D01*
X90820Y-64863D01*
X90820Y-65000D01*
X90821Y-65018D01*
X90823Y-65036D01*
X90823Y-65037D01*
X90823Y-65038D01*
X90829Y-65056D01*
X90834Y-65074D01*
X90834Y-65075D01*
X90835Y-65076D01*
X90843Y-65092D01*
X90852Y-65108D01*
X90852Y-65109D01*
X90853Y-65110D01*
X90865Y-65125D01*
X90876Y-65139D01*
X90878Y-65140D01*
X90878Y-65140D01*
X90878Y-65140D01*
X90878Y-65141D01*
X90896Y-65159D01*
X90895Y-65163D01*
X90894Y-65227D01*
X90906Y-65290D01*
X90929Y-65349D01*
X90964Y-65402D01*
X91008Y-65448D01*
X91060Y-65485D01*
X91119Y-65510D01*
X91181Y-65524D01*
X91245Y-65525D01*
X91307Y-65514D01*
X91367Y-65491D01*
X91421Y-65457D01*
X91467Y-65413D01*
X91503Y-65361D01*
X91529Y-65303D01*
X91543Y-65240D01*
X91545Y-65168D01*
X91532Y-65105D01*
X91508Y-65046D01*
X91473Y-64993D01*
X91428Y-64948D01*
X91375Y-64912D01*
X91316Y-64888D01*
X91254Y-64875D01*
X91220Y-64874D01*
X91220Y-63610D01*
X91236Y-63613D01*
X91266Y-63613D01*
X91443Y-63613D01*
X91472Y-63607D01*
X91499Y-63596D01*
X91499Y-63596D01*
X91500Y-63596D01*
X91527Y-63607D01*
X91556Y-63613D01*
X91586Y-63613D01*
X91763Y-63613D01*
X91792Y-63607D01*
X91814Y-63598D01*
X91837Y-63607D01*
X91866Y-63613D01*
X91896Y-63613D01*
X92073Y-63613D01*
X92102Y-63607D01*
X92124Y-63598D01*
X92147Y-63607D01*
X92176Y-63613D01*
X92206Y-63613D01*
X92383Y-63613D01*
X92412Y-63607D01*
X92439Y-63596D01*
X92439Y-63596D01*
X92440Y-63596D01*
X92467Y-63607D01*
X92496Y-63613D01*
X92526Y-63613D01*
X92703Y-63613D01*
X92732Y-63607D01*
X92754Y-63598D01*
X92777Y-63607D01*
X92806Y-63613D01*
X92836Y-63613D01*
X93013Y-63613D01*
X93042Y-63607D01*
X93069Y-63596D01*
X93094Y-63580D01*
X93115Y-63559D01*
X93131Y-63534D01*
X93142Y-63507D01*
X93148Y-63478D01*
X93148Y-63448D01*
X93148Y-62745D01*
X93169Y-62777D01*
X93213Y-62823D01*
X93265Y-62860D01*
X93301Y-62875D01*
X93261Y-62915D01*
X93214Y-62984D01*
X93181Y-63062D01*
X93163Y-63144D01*
X93162Y-63229D01*
X93177Y-63311D01*
X93208Y-63390D01*
X93254Y-63461D01*
X93312Y-63521D01*
X93382Y-63570D01*
X93459Y-63603D01*
X93496Y-63611D01*
X93496Y-63618D01*
X93287Y-63618D01*
X93258Y-63624D01*
X93231Y-63635D01*
X93206Y-63651D01*
X93185Y-63672D01*
X93169Y-63697D01*
X93158Y-63724D01*
X93152Y-63753D01*
X93152Y-63783D01*
X93152Y-63960D01*
X93158Y-63989D01*
X93168Y-64014D01*
X93158Y-64039D01*
X93152Y-64068D01*
X93152Y-64098D01*
X93152Y-64237D01*
X93063Y-64237D01*
X93040Y-64239D01*
X93017Y-64241D01*
X93015Y-64241D01*
X93014Y-64241D01*
X92992Y-64248D01*
X92970Y-64254D01*
X92968Y-64255D01*
X92967Y-64255D01*
X92947Y-64266D01*
X92926Y-64277D01*
X92925Y-64278D01*
X92924Y-64278D01*
X92906Y-64293D01*
X92888Y-64307D01*
X92886Y-64309D01*
X92886Y-64309D01*
X92886Y-64309D01*
X92886Y-64310D01*
X92723Y-64473D01*
X92708Y-64491D01*
X92693Y-64508D01*
X92693Y-64509D01*
X92692Y-64510D01*
X92681Y-64531D01*
X92670Y-64551D01*
X92669Y-64552D01*
X92669Y-64553D01*
X92662Y-64576D01*
X92655Y-64598D01*
X92655Y-64599D01*
X92654Y-64600D01*
X92652Y-64623D01*
X92650Y-64646D01*
X92650Y-64649D01*
X92650Y-64649D01*
X92650Y-64649D01*
X92650Y-64650D01*
X92650Y-64900D01*
X92652Y-64922D01*
X92654Y-64945D01*
X92654Y-64947D01*
X92654Y-64948D01*
X92661Y-64970D01*
X92667Y-64992D01*
X92668Y-64994D01*
X92668Y-64995D01*
X92679Y-65015D01*
X92690Y-65036D01*
X92691Y-65037D01*
X92691Y-65038D01*
X92706Y-65056D01*
X92720Y-65074D01*
X92722Y-65076D01*
X92722Y-65076D01*
X92722Y-65076D01*
X92723Y-65076D01*
X92940Y-65293D01*
X92958Y-65308D01*
X92975Y-65323D01*
X92976Y-65323D01*
X92977Y-65324D01*
X92998Y-65335D01*
X93018Y-65346D01*
X93019Y-65347D01*
X93020Y-65347D01*
X93043Y-65354D01*
X93052Y-65357D01*
X93065Y-65361D01*
X93066Y-65361D01*
X93067Y-65362D01*
X93090Y-65364D01*
X93091Y-65364D01*
X93115Y-65387D01*
X93646Y-65387D01*
X93646Y-65374D01*
X93746Y-65374D01*
X93746Y-65387D01*
X94277Y-65387D01*
X94297Y-65367D01*
X94339Y-65367D01*
X94880Y-65367D01*
X94880Y-65368D01*
X94892Y-65396D01*
X94908Y-65420D01*
X94929Y-65441D01*
X94938Y-65447D01*
X94963Y-65478D01*
X94967Y-65482D01*
X95009Y-65525D01*
X94981Y-65530D01*
X94953Y-65542D01*
X94929Y-65558D01*
X94908Y-65579D01*
X94892Y-65603D01*
X94880Y-65631D01*
X94875Y-65660D01*
X94875Y-65689D01*
X94875Y-65939D01*
X94880Y-65968D01*
X94892Y-65996D01*
X94908Y-66020D01*
X94929Y-66041D01*
X94953Y-66057D01*
X94981Y-66069D01*
X95010Y-66075D01*
X95039Y-66075D01*
X95192Y-66075D01*
X95201Y-66079D01*
X95202Y-66080D01*
X95203Y-66080D01*
X95226Y-66087D01*
X95248Y-66094D01*
X95249Y-66094D01*
X95250Y-66095D01*
X95273Y-66097D01*
X95296Y-66099D01*
X95299Y-66099D01*
X95299Y-66099D01*
X95299Y-66099D01*
X95300Y-66100D01*
X95640Y-66100D01*
X95650Y-66106D01*
X95650Y-66367D01*
X95541Y-66258D01*
X95527Y-66246D01*
X95512Y-66234D01*
X95512Y-66234D01*
X95511Y-66233D01*
X95494Y-66225D01*
X95478Y-66216D01*
X95477Y-66215D01*
X95476Y-66215D01*
X95459Y-66209D01*
X95441Y-66204D01*
X95440Y-66204D01*
X95439Y-66203D01*
X95421Y-66202D01*
X95402Y-66200D01*
X95400Y-66200D01*
X95400Y-66200D01*
X95400Y-66200D01*
X95400Y-66200D01*
X94231Y-66200D01*
X94233Y-66194D01*
X94239Y-66165D01*
X94239Y-66135D01*
X94239Y-65958D01*
X94233Y-65929D01*
X94223Y-65904D01*
X94233Y-65879D01*
X94239Y-65850D01*
X94239Y-65820D01*
X94239Y-65720D01*
X94248Y-65714D01*
X94283Y-65679D01*
X94311Y-65638D01*
X94329Y-65593D01*
X94339Y-65545D01*
X94339Y-65538D01*
X94277Y-65476D01*
X93746Y-65476D01*
X93746Y-65489D01*
X93646Y-65489D01*
X93646Y-65476D01*
X93115Y-65476D01*
X93052Y-65538D01*
X93052Y-65545D01*
X93062Y-65593D01*
X93080Y-65638D01*
X93108Y-65679D01*
X93143Y-65714D01*
X93152Y-65720D01*
X93152Y-65850D01*
X93158Y-65879D01*
X93168Y-65904D01*
X93158Y-65929D01*
X93152Y-65958D01*
X93152Y-65988D01*
X93152Y-66069D01*
X93141Y-66058D01*
X93127Y-66046D01*
X93112Y-66034D01*
X93112Y-66034D01*
X93111Y-66033D01*
X93094Y-66025D01*
X93078Y-66016D01*
X93077Y-66015D01*
X93076Y-66015D01*
X93059Y-66009D01*
X93041Y-66004D01*
X93040Y-66004D01*
X93039Y-66003D01*
X93021Y-66002D01*
X93002Y-66000D01*
X93000Y-66000D01*
X93000Y-66000D01*
X93000Y-66000D01*
X93000Y-66000D01*
X92500Y-66000D01*
X92481Y-66001D01*
X92463Y-66003D01*
X92462Y-66003D01*
X92461Y-66003D01*
X92443Y-66009D01*
X92425Y-66014D01*
X92424Y-66014D01*
X92423Y-66015D01*
X92407Y-66023D01*
X92391Y-66032D01*
X92390Y-66032D01*
X92389Y-66033D01*
X92374Y-66045D01*
X92360Y-66056D01*
X92359Y-66058D01*
X92359Y-66058D01*
X92359Y-66058D01*
X92358Y-66058D01*
X92218Y-66199D01*
X92218Y-66078D01*
X92251Y-66057D01*
X92297Y-66013D01*
X92333Y-65961D01*
X92359Y-65903D01*
X92373Y-65840D01*
X92375Y-65768D01*
X92362Y-65705D01*
X92338Y-65646D01*
X92303Y-65593D01*
X92258Y-65548D01*
X92205Y-65512D01*
X92146Y-65488D01*
X92084Y-65475D01*
X92020Y-65474D01*
X91957Y-65486D01*
X91898Y-65510D01*
X91845Y-65545D01*
X91799Y-65590D01*
X91763Y-65642D01*
X91738Y-65701D01*
X91725Y-65763D01*
X91724Y-65826D01*
X91723Y-65830D01*
X91723Y-65831D01*
X91722Y-65832D01*
X91720Y-65855D01*
X91718Y-65878D01*
X91718Y-65881D01*
X91718Y-65881D01*
X91718Y-65881D01*
X91718Y-65882D01*
X91718Y-66306D01*
X91548Y-66306D01*
X91519Y-66312D01*
X91495Y-66322D01*
X91470Y-66312D01*
X91441Y-66306D01*
X91411Y-66306D01*
X91234Y-66306D01*
X91205Y-66312D01*
X91180Y-66322D01*
X91154Y-66312D01*
X91125Y-66306D01*
X91095Y-66306D01*
X90918Y-66306D01*
X90889Y-66312D01*
X90865Y-66322D01*
X90840Y-66312D01*
X90811Y-66306D01*
X90781Y-66306D01*
X90604Y-66306D01*
X90575Y-66312D01*
X90548Y-66323D01*
X90523Y-66339D01*
X90502Y-66360D01*
X90486Y-66385D01*
X90475Y-66412D01*
X90469Y-66441D01*
X90469Y-66471D01*
X90469Y-67258D01*
X90475Y-67287D01*
X90486Y-67314D01*
X90502Y-67339D01*
X90523Y-67360D01*
X90548Y-67376D01*
X90575Y-67387D01*
X90604Y-67393D01*
X90634Y-67393D01*
X90811Y-67393D01*
X90840Y-67387D01*
X90864Y-67377D01*
X90889Y-67387D01*
X90918Y-67393D01*
X90948Y-67393D01*
X91125Y-67393D01*
X91154Y-67387D01*
X91179Y-67377D01*
X91205Y-67387D01*
X91234Y-67393D01*
X91264Y-67393D01*
X91441Y-67393D01*
X91470Y-67387D01*
X91494Y-67377D01*
X91519Y-67387D01*
X91548Y-67393D01*
X91578Y-67393D01*
X91755Y-67393D01*
X91784Y-67387D01*
X91809Y-67377D01*
X91835Y-67387D01*
X91864Y-67393D01*
X91894Y-67393D01*
X92071Y-67393D01*
X92100Y-67387D01*
X92124Y-67377D01*
X92149Y-67387D01*
X92178Y-67393D01*
X92208Y-67393D01*
X92385Y-67393D01*
X92401Y-67390D01*
X92401Y-67394D01*
X92401Y-67395D01*
X92401Y-67396D01*
X92407Y-67414D01*
X92412Y-67432D01*
X92412Y-67433D01*
X92413Y-67434D01*
X92421Y-67450D01*
X92430Y-67466D01*
X92430Y-67467D01*
X92431Y-67468D01*
X92443Y-67483D01*
X92454Y-67497D01*
X92456Y-67498D01*
X92456Y-67498D01*
X92456Y-67498D01*
X92456Y-67499D01*
X92618Y-67661D01*
X92632Y-67673D01*
X92647Y-67685D01*
X92647Y-67685D01*
X92648Y-67686D01*
X92665Y-67694D01*
X92681Y-67703D01*
X92682Y-67704D01*
X92683Y-67704D01*
X92700Y-67710D01*
X92718Y-67715D01*
X92719Y-67715D01*
X92720Y-67716D01*
X92738Y-67717D01*
X92757Y-67719D01*
X92759Y-67719D01*
X92759Y-67719D01*
X92759Y-67719D01*
X92760Y-67720D01*
X93140Y-67720D01*
X93158Y-67718D01*
X93176Y-67716D01*
X93177Y-67716D01*
X93178Y-67716D01*
X93196Y-67710D01*
X93214Y-67705D01*
X93215Y-67705D01*
X93216Y-67704D01*
X93232Y-67696D01*
X93248Y-67687D01*
X93249Y-67687D01*
X93250Y-67686D01*
X93246Y-67694D01*
X93203Y-67897D01*
X93200Y-68103D01*
X93238Y-68307D01*
X93314Y-68499D01*
X93426Y-68672D01*
X93569Y-68821D01*
X93739Y-68939D01*
X93928Y-69022D01*
X94130Y-69066D01*
X94337Y-69071D01*
X94541Y-69035D01*
X94733Y-68960D01*
X94908Y-68849D01*
X95057Y-68707D01*
X95177Y-68538D01*
X95261Y-68349D01*
X95306Y-68147D01*
X95308Y-68031D01*
X95858Y-68581D01*
X95872Y-68593D01*
X95887Y-68605D01*
X95887Y-68605D01*
X95888Y-68606D01*
X95905Y-68614D01*
X95921Y-68623D01*
X95922Y-68624D01*
X95923Y-68624D01*
X95940Y-68630D01*
X95958Y-68635D01*
X95959Y-68635D01*
X95960Y-68636D01*
X95978Y-68637D01*
X95997Y-68639D01*
X95999Y-68639D01*
X95999Y-68639D01*
X95999Y-68639D01*
X96000Y-68640D01*
X97500Y-68640D01*
X98510Y-68640D01*
X98528Y-68638D01*
X98546Y-68636D01*
X98547Y-68636D01*
X98548Y-68636D01*
X98566Y-68630D01*
X98584Y-68625D01*
X98585Y-68625D01*
X98586Y-68624D01*
X98602Y-68616D01*
X98618Y-68607D01*
X98619Y-68607D01*
X98620Y-68606D01*
X98635Y-68594D01*
X98649Y-68583D01*
X98650Y-68581D01*
X98650Y-68581D01*
X98650Y-68581D01*
X98651Y-68581D01*
X99392Y-67840D01*
X100010Y-67840D01*
X100028Y-67838D01*
X100046Y-67836D01*
X100047Y-67836D01*
X100048Y-67836D01*
X100066Y-67830D01*
X100084Y-67825D01*
X100085Y-67825D01*
X100086Y-67824D01*
X100102Y-67816D01*
X100118Y-67807D01*
X100119Y-67807D01*
X100120Y-67806D01*
X100135Y-67794D01*
X100149Y-67783D01*
X100150Y-67781D01*
X100150Y-67781D01*
X100150Y-67781D01*
X100151Y-67781D01*
X101641Y-66291D01*
X101653Y-66277D01*
X101665Y-66262D01*
X101665Y-66262D01*
X101666Y-66261D01*
X101674Y-66244D01*
X101683Y-66228D01*
X101684Y-66227D01*
X101684Y-66226D01*
X101690Y-66209D01*
X101695Y-66191D01*
X101695Y-66190D01*
X101696Y-66189D01*
X101697Y-66171D01*
X101699Y-66152D01*
X101699Y-66150D01*
X101699Y-66150D01*
X101699Y-66150D01*
X101700Y-66150D01*
X101700Y-65187D01*
X101716Y-65170D01*
X101732Y-65146D01*
X101744Y-65118D01*
X101750Y-65089D01*
X101750Y-65060D01*
X101750Y-64658D01*
X101758Y-64666D01*
X101759Y-64666D01*
X101760Y-64667D01*
X101781Y-64678D01*
X101801Y-64689D01*
X101802Y-64690D01*
X101803Y-64690D01*
X101826Y-64697D01*
X101848Y-64704D01*
X101849Y-64704D01*
X101850Y-64705D01*
X101873Y-64707D01*
X101896Y-64709D01*
X101899Y-64709D01*
X101899Y-64709D01*
X101899Y-64709D01*
X101900Y-64710D01*
X102720Y-64710D01*
X102742Y-64707D01*
X102765Y-64705D01*
X102767Y-64705D01*
X102768Y-64705D01*
X102790Y-64698D01*
X102812Y-64692D01*
X102814Y-64691D01*
X102815Y-64691D01*
X102835Y-64680D01*
X102856Y-64669D01*
X102857Y-64668D01*
X102858Y-64668D01*
X102876Y-64653D01*
X102894Y-64639D01*
X102896Y-64637D01*
X102896Y-64637D01*
X102896Y-64637D01*
X102896Y-64636D01*
X103176Y-64356D01*
X103191Y-64338D01*
X103206Y-64321D01*
X103206Y-64320D01*
X103207Y-64319D01*
X103218Y-64298D01*
X103229Y-64278D01*
X103230Y-64277D01*
X103230Y-64276D01*
X103237Y-64255D01*
X103239Y-64255D01*
X103268Y-64249D01*
X103296Y-64237D01*
X103307Y-64230D01*
X103320Y-64230D01*
X103342Y-64227D01*
X103365Y-64225D01*
X103367Y-64225D01*
X103368Y-64225D01*
X103390Y-64218D01*
X103412Y-64212D01*
X103414Y-64211D01*
X103415Y-64211D01*
X103435Y-64200D01*
X103456Y-64189D01*
X103457Y-64188D01*
X103458Y-64188D01*
X103476Y-64173D01*
X103494Y-64159D01*
X103496Y-64157D01*
X103496Y-64157D01*
X103496Y-64157D01*
X103496Y-64156D01*
X103816Y-63836D01*
X103831Y-63818D01*
X103846Y-63801D01*
X103846Y-63800D01*
X103847Y-63799D01*
X103858Y-63778D01*
X103869Y-63758D01*
X103870Y-63757D01*
X103870Y-63756D01*
X103877Y-63733D01*
X103884Y-63711D01*
X103884Y-63710D01*
X103885Y-63709D01*
X103887Y-63686D01*
X103889Y-63663D01*
X103889Y-63660D01*
X103889Y-63660D01*
X103889Y-63660D01*
X103890Y-63660D01*
X103890Y-63223D01*
X104176Y-62936D01*
X104191Y-62918D01*
X104206Y-62901D01*
X104206Y-62900D01*
X104207Y-62899D01*
X104218Y-62878D01*
X104229Y-62858D01*
X104230Y-62857D01*
X104230Y-62856D01*
X104237Y-62833D01*
X104244Y-62811D01*
X104244Y-62810D01*
X104245Y-62809D01*
X104247Y-62786D01*
X104249Y-62763D01*
X104249Y-62760D01*
X104249Y-62760D01*
X104249Y-62760D01*
X104250Y-62760D01*
X104250Y-63341D01*
X104235Y-63384D01*
X103208Y-65193D01*
X101849Y-66767D01*
X100210Y-68048D01*
X98353Y-68985D01*
X96350Y-69545D01*
X94276Y-69704D01*
X92211Y-69458D01*
X90233Y-68815D01*
X88417Y-67801D01*
X86833Y-66453D01*
X86290Y-65767D01*
X86290Y-58946D01*
X86250Y-58743D01*
X86171Y-58552D01*
X86056Y-58380D01*
X85911Y-58233D01*
X85739Y-58118D01*
X85549Y-58038D01*
X85346Y-57996D01*
X85140Y-57995D01*
X84937Y-58034D01*
X84745Y-58111D01*
X84572Y-58224D01*
X84424Y-58369D01*
X84308Y-58539D01*
X84226Y-58729D01*
X84183Y-58931D01*
X84180Y-59138D01*
X84218Y-59341D01*
X84294Y-59534D01*
X84406Y-59707D01*
X84549Y-59856D01*
X84719Y-59974D01*
X84908Y-60057D01*
X85110Y-60101D01*
X85317Y-60105D01*
X85521Y-60070D01*
X85713Y-59995D01*
X85888Y-59884D01*
X86037Y-59741D01*
X86157Y-59573D01*
X86241Y-59384D01*
X86286Y-59182D01*
X86290Y-58946D01*
X86290Y-65767D01*
X85542Y-64823D01*
X84591Y-62973D01*
X84017Y-60973D01*
X83843Y-58901D01*
X84075Y-56834D01*
X84704Y-54851D01*
X85706Y-53029D01*
X87043Y-51435D01*
X88664Y-50132D01*
X90507Y-49168D01*
X92503Y-48581D01*
X94574Y-48393D01*
X96642Y-48610D01*
X98629Y-49225D01*
X100459Y-50214D01*
X102061Y-51540D01*
X103376Y-53152D01*
X104352Y-54988D01*
X104954Y-56980D01*
X105157Y-59050D01*
X105157Y-59050D01*
G37*
G54D29*
X105157Y-59050D02*
X105152Y-59347D01*
X104892Y-61411D01*
X104326Y-63111D01*
X104326Y-56462D01*
X104325Y-56432D01*
X104318Y-56404D01*
X104305Y-56377D01*
X104006Y-55734D01*
X103988Y-55711D01*
X103966Y-55691D01*
X103941Y-55675D01*
X103913Y-55665D01*
X103884Y-55661D01*
X103855Y-55662D01*
X103826Y-55669D01*
X103799Y-55682D01*
X103014Y-56047D01*
X102991Y-56065D01*
X102971Y-56087D01*
X102955Y-56112D01*
X102945Y-56140D01*
X102941Y-56169D01*
X102942Y-56198D01*
X102949Y-56227D01*
X102961Y-56254D01*
X103015Y-56368D01*
X102567Y-56817D01*
X102543Y-56845D01*
X102519Y-56873D01*
X102518Y-56875D01*
X102517Y-56877D01*
X102500Y-56909D01*
X102482Y-56942D01*
X102481Y-56944D01*
X102480Y-56946D01*
X102469Y-56981D01*
X102458Y-57016D01*
X102458Y-57018D01*
X102457Y-57020D01*
X102454Y-57057D01*
X102450Y-57094D01*
X102450Y-57098D01*
X102450Y-57098D01*
X102450Y-57098D01*
X102450Y-57099D01*
X102450Y-57346D01*
X102418Y-57418D01*
X102400Y-57504D01*
X102399Y-57592D01*
X102415Y-57679D01*
X102447Y-57761D01*
X102495Y-57835D01*
X102556Y-57899D01*
X102629Y-57949D01*
X102710Y-57985D01*
X102796Y-58004D01*
X102884Y-58005D01*
X102971Y-57990D01*
X103053Y-57958D01*
X103128Y-57911D01*
X103192Y-57850D01*
X103243Y-57778D01*
X103279Y-57697D01*
X103298Y-57611D01*
X103300Y-57510D01*
X103282Y-57424D01*
X103250Y-57344D01*
X103250Y-57265D01*
X103650Y-56864D01*
X104252Y-56583D01*
X104276Y-56566D01*
X104296Y-56544D01*
X104312Y-56519D01*
X104322Y-56491D01*
X104326Y-56462D01*
X104326Y-63111D01*
X104250Y-63341D01*
X104250Y-62760D01*
X104250Y-61900D01*
X104250Y-61840D01*
X104250Y-59550D01*
X104247Y-59527D01*
X104245Y-59504D01*
X104245Y-59502D01*
X104245Y-59501D01*
X104238Y-59479D01*
X104232Y-59457D01*
X104231Y-59455D01*
X104231Y-59454D01*
X104220Y-59434D01*
X104209Y-59413D01*
X104208Y-59412D01*
X104208Y-59411D01*
X104193Y-59393D01*
X104179Y-59375D01*
X104177Y-59373D01*
X104177Y-59373D01*
X104177Y-59373D01*
X104176Y-59373D01*
X103296Y-58492D01*
X103282Y-58424D01*
X103249Y-58342D01*
X103200Y-58269D01*
X103138Y-58206D01*
X103065Y-58157D01*
X102983Y-58123D01*
X102897Y-58105D01*
X102809Y-58104D01*
X102722Y-58121D01*
X102640Y-58154D01*
X102566Y-58202D01*
X102503Y-58264D01*
X102453Y-58337D01*
X102422Y-58410D01*
X102400Y-58299D01*
X102321Y-58107D01*
X102206Y-57935D01*
X102061Y-57789D01*
X101889Y-57673D01*
X101699Y-57593D01*
X101496Y-57551D01*
X101290Y-57550D01*
X101087Y-57589D01*
X100895Y-57666D01*
X100722Y-57779D01*
X100574Y-57924D01*
X100475Y-58070D01*
X100475Y-55927D01*
X100475Y-55695D01*
X100475Y-55605D01*
X100475Y-55372D01*
X100412Y-55310D01*
X100409Y-55310D01*
X100360Y-55310D01*
X100312Y-55319D01*
X100266Y-55338D01*
X100225Y-55365D01*
X100190Y-55400D01*
X100163Y-55441D01*
X100144Y-55487D01*
X100135Y-55535D01*
X100135Y-55542D01*
X100197Y-55605D01*
X100475Y-55605D01*
X100475Y-55695D01*
X100197Y-55695D01*
X100135Y-55757D01*
X100135Y-55764D01*
X100144Y-55812D01*
X100163Y-55858D01*
X100190Y-55899D01*
X100225Y-55934D01*
X100266Y-55961D01*
X100312Y-55980D01*
X100360Y-55990D01*
X100409Y-55990D01*
X100412Y-55990D01*
X100475Y-55927D01*
X100475Y-58070D01*
X100458Y-58094D01*
X100376Y-58284D01*
X100333Y-58487D01*
X100330Y-58693D01*
X100368Y-58897D01*
X100444Y-59089D01*
X100556Y-59262D01*
X100699Y-59411D01*
X100869Y-59529D01*
X101058Y-59612D01*
X101260Y-59656D01*
X101467Y-59661D01*
X101671Y-59625D01*
X101863Y-59550D01*
X102038Y-59439D01*
X102187Y-59297D01*
X102307Y-59128D01*
X102391Y-58939D01*
X102436Y-58737D01*
X102436Y-58734D01*
X102447Y-58761D01*
X102495Y-58835D01*
X102556Y-58899D01*
X102629Y-58949D01*
X102710Y-58985D01*
X102796Y-59004D01*
X102884Y-59005D01*
X102971Y-58990D01*
X103053Y-58958D01*
X103054Y-58958D01*
X103401Y-59305D01*
X103224Y-59305D01*
X103200Y-59269D01*
X103138Y-59206D01*
X103065Y-59157D01*
X102983Y-59123D01*
X102897Y-59105D01*
X102809Y-59104D01*
X102722Y-59121D01*
X102640Y-59154D01*
X102566Y-59202D01*
X102503Y-59264D01*
X102453Y-59337D01*
X102418Y-59418D01*
X102400Y-59504D01*
X102399Y-59592D01*
X102415Y-59679D01*
X102447Y-59761D01*
X102495Y-59835D01*
X102556Y-59899D01*
X102629Y-59949D01*
X102710Y-59985D01*
X102796Y-60004D01*
X102844Y-60005D01*
X102799Y-60005D01*
X102799Y-60067D01*
X102737Y-60005D01*
X102574Y-60005D01*
X102525Y-60005D01*
X102477Y-60014D01*
X102431Y-60033D01*
X102390Y-60060D01*
X102355Y-60095D01*
X102328Y-60136D01*
X102309Y-60182D01*
X102300Y-60230D01*
X102300Y-60442D01*
X102362Y-60505D01*
X102800Y-60505D01*
X102800Y-60497D01*
X102900Y-60497D01*
X102900Y-60505D01*
X103337Y-60505D01*
X103400Y-60442D01*
X103400Y-60230D01*
X103390Y-60182D01*
X103371Y-60136D01*
X103344Y-60095D01*
X103309Y-60060D01*
X103268Y-60033D01*
X103222Y-60014D01*
X103174Y-60005D01*
X103125Y-60005D01*
X102962Y-60005D01*
X102900Y-60067D01*
X102900Y-60005D01*
X102889Y-60005D01*
X102971Y-59990D01*
X103053Y-59958D01*
X103128Y-59911D01*
X103192Y-59850D01*
X103224Y-59805D01*
X103410Y-59805D01*
X103410Y-62160D01*
X103410Y-62496D01*
X103400Y-62506D01*
X103400Y-60879D01*
X103400Y-60667D01*
X103337Y-60605D01*
X102900Y-60605D01*
X102900Y-61042D01*
X102962Y-61105D01*
X103125Y-61105D01*
X103174Y-61105D01*
X103222Y-61095D01*
X103268Y-61076D01*
X103309Y-61049D01*
X103344Y-61014D01*
X103371Y-60973D01*
X103390Y-60928D01*
X103400Y-60879D01*
X103400Y-62506D01*
X103296Y-62610D01*
X102800Y-62610D01*
X102800Y-61042D01*
X102800Y-60605D01*
X102362Y-60605D01*
X102300Y-60667D01*
X102300Y-60879D01*
X102309Y-60928D01*
X102328Y-60973D01*
X102355Y-61014D01*
X102390Y-61049D01*
X102431Y-61076D01*
X102477Y-61095D01*
X102525Y-61105D01*
X102574Y-61105D01*
X102737Y-61105D01*
X102800Y-61042D01*
X102800Y-62610D01*
X102634Y-62610D01*
X102610Y-62574D01*
X102548Y-62511D01*
X102475Y-62462D01*
X102393Y-62428D01*
X102307Y-62410D01*
X102219Y-62409D01*
X102132Y-62426D01*
X102050Y-62459D01*
X101976Y-62507D01*
X101913Y-62569D01*
X101885Y-62610D01*
X101847Y-62610D01*
X101850Y-62599D01*
X101850Y-62550D01*
X101850Y-62462D01*
X101850Y-62237D01*
X101850Y-62149D01*
X101850Y-62100D01*
X101840Y-62052D01*
X101821Y-62006D01*
X101794Y-61965D01*
X101759Y-61930D01*
X101718Y-61903D01*
X101672Y-61884D01*
X101624Y-61875D01*
X101612Y-61875D01*
X101550Y-61937D01*
X101550Y-62300D01*
X101787Y-62300D01*
X101850Y-62237D01*
X101850Y-62462D01*
X101787Y-62400D01*
X101550Y-62400D01*
X101550Y-62407D01*
X101450Y-62407D01*
X101450Y-62400D01*
X101442Y-62400D01*
X101442Y-62300D01*
X101450Y-62300D01*
X101450Y-61985D01*
X101465Y-61947D01*
X101475Y-61899D01*
X101475Y-61850D01*
X101475Y-61762D01*
X101475Y-61537D01*
X101475Y-61449D01*
X101475Y-61400D01*
X101465Y-61352D01*
X101446Y-61306D01*
X101419Y-61265D01*
X101384Y-61230D01*
X101343Y-61203D01*
X101297Y-61184D01*
X101249Y-61175D01*
X101212Y-61175D01*
X101150Y-61237D01*
X101150Y-61600D01*
X101412Y-61600D01*
X101475Y-61537D01*
X101475Y-61762D01*
X101412Y-61700D01*
X101150Y-61700D01*
X101150Y-61707D01*
X101050Y-61707D01*
X101050Y-61700D01*
X101042Y-61700D01*
X101042Y-61600D01*
X101050Y-61600D01*
X101050Y-61237D01*
X100987Y-61175D01*
X100950Y-61175D01*
X100902Y-61184D01*
X100856Y-61203D01*
X100815Y-61230D01*
X100780Y-61265D01*
X100753Y-61306D01*
X100743Y-61331D01*
X100741Y-61329D01*
X100720Y-61308D01*
X100696Y-61292D01*
X100668Y-61280D01*
X100639Y-61275D01*
X100634Y-61275D01*
X100583Y-61258D01*
X100505Y-61250D01*
X100500Y-61250D01*
X100015Y-61250D01*
X100015Y-56014D01*
X100015Y-55985D01*
X100015Y-55805D01*
X100009Y-55776D01*
X99997Y-55748D01*
X99981Y-55724D01*
X99960Y-55703D01*
X99936Y-55687D01*
X99908Y-55675D01*
X99879Y-55670D01*
X99850Y-55670D01*
X99570Y-55670D01*
X99541Y-55675D01*
X99513Y-55687D01*
X99489Y-55703D01*
X99468Y-55724D01*
X99452Y-55748D01*
X99440Y-55776D01*
X99435Y-55805D01*
X99435Y-55834D01*
X99435Y-56014D01*
X99440Y-56043D01*
X99452Y-56071D01*
X99468Y-56095D01*
X99489Y-56116D01*
X99513Y-56132D01*
X99541Y-56144D01*
X99570Y-56150D01*
X99599Y-56150D01*
X99879Y-56150D01*
X99908Y-56144D01*
X99936Y-56132D01*
X99960Y-56116D01*
X99981Y-56095D01*
X99997Y-56071D01*
X100009Y-56043D01*
X100015Y-56014D01*
X100015Y-61250D01*
X100000Y-61250D01*
X98565Y-61250D01*
X98482Y-61167D01*
X98453Y-61143D01*
X98424Y-61119D01*
X98423Y-61118D01*
X98422Y-61117D01*
X98389Y-61099D01*
X98356Y-61081D01*
X98354Y-61081D01*
X98353Y-61080D01*
X98317Y-61069D01*
X98281Y-61058D01*
X98280Y-61058D01*
X98279Y-61057D01*
X98241Y-61054D01*
X98204Y-61050D01*
X98202Y-61050D01*
X98201Y-61050D01*
X98163Y-61053D01*
X98126Y-61056D01*
X98125Y-61057D01*
X98123Y-61057D01*
X98087Y-61068D01*
X98051Y-61078D01*
X98050Y-61079D01*
X98048Y-61079D01*
X98015Y-61097D01*
X97982Y-61114D01*
X97981Y-61115D01*
X97979Y-61116D01*
X97950Y-61139D01*
X97921Y-61163D01*
X97919Y-61165D01*
X97919Y-61165D01*
X97919Y-61165D01*
X97917Y-61167D01*
X97067Y-62017D01*
X97043Y-62045D01*
X97019Y-62074D01*
X97018Y-62075D01*
X97017Y-62077D01*
X97000Y-62110D01*
X96982Y-62142D01*
X96981Y-62144D01*
X96980Y-62146D01*
X96969Y-62181D01*
X96958Y-62216D01*
X96958Y-62218D01*
X96957Y-62220D01*
X96954Y-62257D01*
X96950Y-62294D01*
X96950Y-62298D01*
X96950Y-62298D01*
X96950Y-62298D01*
X96950Y-62300D01*
X96950Y-63734D01*
X96317Y-64367D01*
X96317Y-64367D01*
X95784Y-64900D01*
X95511Y-64900D01*
X95472Y-64867D01*
X95403Y-64830D01*
X95380Y-64823D01*
X95382Y-64820D01*
X95417Y-64743D01*
X95435Y-64661D01*
X95437Y-64564D01*
X95420Y-64482D01*
X95388Y-64404D01*
X95341Y-64334D01*
X95308Y-64299D01*
X95320Y-64291D01*
X95341Y-64270D01*
X95357Y-64246D01*
X95369Y-64218D01*
X95375Y-64189D01*
X95375Y-64160D01*
X95375Y-63910D01*
X95369Y-63881D01*
X95357Y-63853D01*
X95341Y-63829D01*
X95320Y-63808D01*
X95318Y-63806D01*
X95343Y-63796D01*
X95384Y-63769D01*
X95419Y-63734D01*
X95446Y-63693D01*
X95465Y-63647D01*
X95475Y-63599D01*
X95475Y-63562D01*
X95412Y-63500D01*
X95050Y-63500D01*
X95050Y-63507D01*
X94950Y-63507D01*
X94950Y-63500D01*
X94587Y-63500D01*
X94525Y-63562D01*
X94525Y-63599D01*
X94534Y-63647D01*
X94553Y-63693D01*
X94580Y-63734D01*
X94615Y-63769D01*
X94656Y-63796D01*
X94681Y-63806D01*
X94679Y-63808D01*
X94658Y-63829D01*
X94642Y-63853D01*
X94630Y-63881D01*
X94625Y-63910D01*
X94625Y-63939D01*
X94625Y-63979D01*
X94613Y-63976D01*
X94612Y-63976D01*
X94611Y-63975D01*
X94593Y-63974D01*
X94574Y-63972D01*
X94572Y-63972D01*
X94572Y-63972D01*
X94572Y-63972D01*
X94572Y-63972D01*
X94237Y-63972D01*
X94239Y-63960D01*
X94239Y-63930D01*
X94239Y-63753D01*
X94233Y-63724D01*
X94222Y-63697D01*
X94206Y-63672D01*
X94185Y-63651D01*
X94160Y-63635D01*
X94133Y-63624D01*
X94104Y-63618D01*
X94074Y-63618D01*
X93896Y-63618D01*
X93896Y-63498D01*
X93919Y-63475D01*
X93968Y-63406D01*
X93980Y-63378D01*
X93981Y-63378D01*
X93982Y-63378D01*
X93983Y-63377D01*
X93999Y-63369D01*
X94016Y-63360D01*
X94016Y-63359D01*
X94017Y-63359D01*
X94032Y-63347D01*
X94046Y-63336D01*
X94048Y-63334D01*
X94048Y-63334D01*
X94048Y-63334D01*
X94048Y-63334D01*
X94107Y-63275D01*
X94339Y-63275D01*
X94368Y-63269D01*
X94396Y-63257D01*
X94420Y-63241D01*
X94441Y-63220D01*
X94443Y-63218D01*
X94453Y-63243D01*
X94480Y-63284D01*
X94515Y-63319D01*
X94525Y-63325D01*
X94525Y-63337D01*
X94587Y-63400D01*
X94950Y-63400D01*
X94950Y-63392D01*
X95050Y-63392D01*
X95050Y-63400D01*
X95412Y-63400D01*
X95475Y-63337D01*
X95475Y-63300D01*
X95465Y-63252D01*
X95446Y-63206D01*
X95419Y-63165D01*
X95384Y-63130D01*
X95343Y-63103D01*
X95297Y-63084D01*
X95249Y-63075D01*
X95200Y-63075D01*
X95175Y-63075D01*
X95175Y-63012D01*
X95112Y-62950D01*
X94850Y-62950D01*
X94850Y-62957D01*
X94750Y-62957D01*
X94750Y-62950D01*
X94742Y-62950D01*
X94742Y-62850D01*
X94750Y-62850D01*
X94750Y-62842D01*
X94850Y-62842D01*
X94850Y-62850D01*
X95112Y-62850D01*
X95175Y-62787D01*
X95175Y-62699D01*
X95175Y-62650D01*
X95165Y-62602D01*
X95146Y-62556D01*
X95142Y-62550D01*
X96150Y-62550D01*
X96168Y-62548D01*
X96186Y-62546D01*
X96187Y-62546D01*
X96188Y-62546D01*
X96206Y-62540D01*
X96224Y-62535D01*
X96225Y-62535D01*
X96226Y-62534D01*
X96242Y-62526D01*
X96258Y-62517D01*
X96259Y-62517D01*
X96260Y-62516D01*
X96275Y-62504D01*
X96289Y-62493D01*
X96290Y-62491D01*
X96290Y-62491D01*
X96290Y-62491D01*
X96291Y-62491D01*
X98091Y-60691D01*
X98091Y-60691D01*
X98091Y-60691D01*
X98121Y-60661D01*
X98133Y-60647D01*
X98145Y-60632D01*
X98145Y-60632D01*
X98146Y-60631D01*
X98154Y-60614D01*
X98163Y-60598D01*
X98164Y-60597D01*
X98164Y-60596D01*
X98170Y-60579D01*
X98175Y-60561D01*
X98175Y-60560D01*
X98176Y-60559D01*
X98177Y-60541D01*
X98179Y-60522D01*
X98179Y-60520D01*
X98179Y-60520D01*
X98179Y-60520D01*
X98180Y-60520D01*
X98180Y-60360D01*
X98180Y-57702D01*
X98591Y-57291D01*
X99041Y-56841D01*
X99053Y-56827D01*
X99065Y-56812D01*
X99065Y-56812D01*
X99066Y-56811D01*
X99074Y-56794D01*
X99083Y-56778D01*
X99084Y-56777D01*
X99084Y-56776D01*
X99090Y-56759D01*
X99095Y-56741D01*
X99095Y-56740D01*
X99096Y-56739D01*
X99097Y-56721D01*
X99099Y-56702D01*
X99099Y-56700D01*
X99099Y-56700D01*
X99099Y-56700D01*
X99100Y-56700D01*
X99100Y-55557D01*
X99432Y-55225D01*
X99454Y-55225D01*
X99452Y-55228D01*
X99440Y-55256D01*
X99435Y-55285D01*
X99435Y-55314D01*
X99435Y-55494D01*
X99440Y-55523D01*
X99452Y-55551D01*
X99468Y-55575D01*
X99489Y-55596D01*
X99513Y-55612D01*
X99541Y-55624D01*
X99570Y-55630D01*
X99599Y-55630D01*
X99658Y-55630D01*
X99673Y-55634D01*
X99722Y-55639D01*
X99770Y-55635D01*
X99790Y-55630D01*
X99879Y-55630D01*
X99908Y-55624D01*
X99936Y-55612D01*
X99960Y-55596D01*
X99981Y-55575D01*
X99997Y-55551D01*
X100009Y-55523D01*
X100015Y-55494D01*
X100015Y-55465D01*
X100015Y-55453D01*
X100243Y-55225D01*
X100364Y-55225D01*
X100393Y-55219D01*
X100421Y-55207D01*
X100445Y-55191D01*
X100466Y-55170D01*
X100482Y-55146D01*
X100494Y-55118D01*
X100500Y-55089D01*
X100500Y-55060D01*
X100500Y-54810D01*
X100494Y-54781D01*
X100482Y-54753D01*
X100466Y-54729D01*
X100445Y-54708D01*
X100421Y-54692D01*
X100393Y-54680D01*
X100364Y-54675D01*
X100335Y-54675D01*
X99885Y-54675D01*
X99856Y-54680D01*
X99828Y-54692D01*
X99817Y-54700D01*
X99732Y-54700D01*
X99721Y-54692D01*
X99693Y-54680D01*
X99664Y-54675D01*
X99635Y-54675D01*
X99185Y-54675D01*
X99156Y-54680D01*
X99128Y-54692D01*
X99104Y-54708D01*
X99083Y-54729D01*
X99075Y-54742D01*
X99075Y-54557D01*
X99083Y-54570D01*
X99104Y-54591D01*
X99128Y-54607D01*
X99156Y-54619D01*
X99185Y-54625D01*
X99214Y-54625D01*
X99664Y-54625D01*
X99693Y-54619D01*
X99721Y-54607D01*
X99732Y-54600D01*
X99817Y-54600D01*
X99828Y-54607D01*
X99856Y-54619D01*
X99885Y-54625D01*
X99914Y-54625D01*
X100067Y-54625D01*
X100076Y-54629D01*
X100077Y-54630D01*
X100078Y-54630D01*
X100101Y-54637D01*
X100123Y-54644D01*
X100124Y-54644D01*
X100125Y-54645D01*
X100148Y-54647D01*
X100171Y-54649D01*
X100174Y-54649D01*
X100174Y-54649D01*
X100174Y-54649D01*
X100175Y-54650D01*
X100802Y-54650D01*
X100805Y-54668D01*
X100817Y-54696D01*
X100825Y-54707D01*
X100825Y-54725D01*
X100810Y-54725D01*
X100781Y-54730D01*
X100753Y-54742D01*
X100729Y-54758D01*
X100708Y-54779D01*
X100692Y-54803D01*
X100680Y-54831D01*
X100675Y-54860D01*
X100675Y-54889D01*
X100675Y-55310D01*
X100640Y-55310D01*
X100637Y-55310D01*
X100575Y-55372D01*
X100575Y-55605D01*
X100582Y-55605D01*
X100582Y-55695D01*
X100575Y-55695D01*
X100575Y-55927D01*
X100637Y-55990D01*
X100640Y-55990D01*
X100689Y-55990D01*
X100737Y-55980D01*
X100750Y-55975D01*
X100750Y-56050D01*
X100750Y-56099D01*
X100759Y-56147D01*
X100778Y-56193D01*
X100805Y-56234D01*
X100840Y-56269D01*
X100881Y-56296D01*
X100927Y-56315D01*
X100975Y-56325D01*
X101012Y-56325D01*
X101075Y-56262D01*
X101075Y-55900D01*
X101067Y-55900D01*
X101067Y-55800D01*
X101075Y-55800D01*
X101075Y-55792D01*
X101175Y-55792D01*
X101175Y-55800D01*
X101182Y-55800D01*
X101182Y-55900D01*
X101175Y-55900D01*
X101175Y-56262D01*
X101237Y-56325D01*
X101274Y-56325D01*
X101322Y-56315D01*
X101368Y-56296D01*
X101409Y-56269D01*
X101444Y-56234D01*
X101471Y-56193D01*
X101481Y-56168D01*
X101483Y-56170D01*
X101504Y-56191D01*
X101528Y-56207D01*
X101556Y-56219D01*
X101585Y-56225D01*
X101590Y-56225D01*
X101644Y-56241D01*
X101722Y-56249D01*
X101799Y-56242D01*
X101860Y-56225D01*
X101864Y-56225D01*
X101893Y-56219D01*
X101921Y-56207D01*
X101945Y-56191D01*
X101966Y-56170D01*
X101972Y-56161D01*
X102004Y-56135D01*
X102055Y-56075D01*
X102092Y-56007D01*
X102116Y-55933D01*
X102124Y-55855D01*
X102125Y-55850D01*
X102125Y-55750D01*
X102125Y-55285D01*
X102142Y-55229D01*
X102149Y-55151D01*
X102142Y-55073D01*
X102120Y-54998D01*
X102083Y-54929D01*
X102075Y-54918D01*
X102075Y-54860D01*
X102071Y-54843D01*
X102075Y-54855D01*
X102085Y-54891D01*
X102086Y-54893D01*
X102087Y-54895D01*
X102104Y-54927D01*
X102121Y-54960D01*
X102122Y-54962D01*
X102123Y-54964D01*
X102147Y-54992D01*
X102170Y-55021D01*
X102173Y-55024D01*
X102173Y-55024D01*
X102173Y-55024D01*
X102174Y-55025D01*
X102315Y-55166D01*
X102343Y-55190D01*
X102372Y-55214D01*
X102374Y-55215D01*
X102375Y-55216D01*
X102408Y-55233D01*
X102440Y-55251D01*
X102442Y-55252D01*
X102444Y-55253D01*
X102479Y-55264D01*
X102503Y-55271D01*
X102593Y-55465D01*
X102611Y-55488D01*
X102633Y-55508D01*
X102658Y-55524D01*
X102686Y-55534D01*
X102715Y-55538D01*
X102744Y-55537D01*
X102773Y-55530D01*
X102800Y-55517D01*
X103585Y-55152D01*
X103608Y-55134D01*
X103628Y-55112D01*
X103644Y-55087D01*
X103654Y-55059D01*
X103658Y-55030D01*
X103657Y-55001D01*
X103650Y-54972D01*
X103638Y-54945D01*
X103338Y-54302D01*
X103320Y-54279D01*
X103299Y-54259D01*
X103273Y-54243D01*
X103246Y-54233D01*
X103216Y-54229D01*
X103187Y-54230D01*
X103158Y-54237D01*
X103131Y-54250D01*
X102857Y-54378D01*
X102857Y-53732D01*
X102893Y-53680D01*
X102933Y-53590D01*
X102955Y-53495D01*
X102957Y-53383D01*
X102938Y-53286D01*
X102900Y-53196D01*
X102846Y-53114D01*
X102777Y-53044D01*
X102696Y-52990D01*
X102605Y-52952D01*
X102509Y-52932D01*
X102411Y-52931D01*
X102387Y-52936D01*
X102439Y-52884D01*
X102466Y-52843D01*
X102485Y-52797D01*
X102494Y-52749D01*
X102494Y-52700D01*
X102485Y-52652D01*
X102466Y-52606D01*
X102439Y-52565D01*
X102404Y-52530D01*
X102253Y-52380D01*
X102165Y-52380D01*
X101820Y-52725D01*
X101826Y-52730D01*
X101755Y-52801D01*
X101750Y-52795D01*
X101405Y-53140D01*
X101405Y-53228D01*
X101555Y-53379D01*
X101590Y-53414D01*
X101631Y-53441D01*
X101677Y-53460D01*
X101725Y-53469D01*
X101774Y-53469D01*
X101822Y-53460D01*
X101868Y-53441D01*
X101909Y-53414D01*
X101960Y-53362D01*
X101957Y-53376D01*
X101956Y-53474D01*
X101974Y-53570D01*
X102010Y-53661D01*
X102057Y-53734D01*
X102057Y-54742D01*
X102060Y-54779D01*
X102063Y-54816D01*
X102064Y-54818D01*
X102064Y-54820D01*
X102057Y-54803D01*
X102041Y-54779D01*
X102020Y-54758D01*
X102014Y-54754D01*
X102021Y-54743D01*
X102040Y-54697D01*
X102050Y-54649D01*
X102050Y-54600D01*
X102050Y-54512D01*
X102050Y-54287D01*
X102050Y-54199D01*
X102050Y-54150D01*
X102040Y-54102D01*
X102021Y-54056D01*
X101994Y-54015D01*
X101959Y-53980D01*
X101918Y-53953D01*
X101872Y-53934D01*
X101824Y-53925D01*
X101787Y-53925D01*
X101725Y-53987D01*
X101725Y-54350D01*
X101987Y-54350D01*
X102050Y-54287D01*
X102050Y-54512D01*
X101987Y-54450D01*
X101725Y-54450D01*
X101725Y-54457D01*
X101625Y-54457D01*
X101625Y-54450D01*
X101617Y-54450D01*
X101617Y-54350D01*
X101625Y-54350D01*
X101625Y-53987D01*
X101562Y-53925D01*
X101525Y-53925D01*
X101477Y-53934D01*
X101431Y-53953D01*
X101390Y-53980D01*
X101355Y-54015D01*
X101328Y-54056D01*
X101318Y-54081D01*
X101316Y-54079D01*
X101295Y-54058D01*
X101271Y-54042D01*
X101243Y-54030D01*
X101214Y-54025D01*
X101185Y-54025D01*
X100935Y-54025D01*
X100906Y-54030D01*
X100878Y-54042D01*
X100854Y-54058D01*
X100833Y-54079D01*
X100817Y-54103D01*
X100805Y-54131D01*
X100802Y-54150D01*
X100480Y-54150D01*
X100466Y-54129D01*
X100445Y-54108D01*
X100421Y-54092D01*
X100393Y-54080D01*
X100364Y-54075D01*
X100335Y-54075D01*
X99885Y-54075D01*
X99856Y-54080D01*
X99828Y-54092D01*
X99817Y-54100D01*
X99732Y-54100D01*
X99721Y-54092D01*
X99693Y-54080D01*
X99664Y-54075D01*
X99635Y-54075D01*
X99590Y-54075D01*
X100282Y-53382D01*
X101015Y-52650D01*
X101014Y-52652D01*
X101005Y-52700D01*
X101005Y-52749D01*
X101014Y-52797D01*
X101033Y-52843D01*
X101060Y-52884D01*
X101095Y-52919D01*
X101246Y-53069D01*
X101334Y-53069D01*
X101679Y-52725D01*
X101673Y-52719D01*
X101744Y-52648D01*
X101750Y-52654D01*
X102094Y-52309D01*
X102094Y-52221D01*
X101944Y-52070D01*
X101909Y-52035D01*
X101868Y-52008D01*
X101822Y-51989D01*
X101774Y-51980D01*
X101725Y-51980D01*
X101677Y-51989D01*
X101631Y-52008D01*
X101590Y-52035D01*
X101540Y-52086D01*
X101541Y-52080D01*
X101542Y-51968D01*
X101523Y-51872D01*
X101486Y-51782D01*
X101432Y-51700D01*
X101363Y-51630D01*
X101281Y-51575D01*
X101191Y-51537D01*
X101095Y-51518D01*
X100997Y-51517D01*
X100921Y-51531D01*
X100545Y-51155D01*
X100544Y-51155D01*
X100544Y-51155D01*
X100233Y-50843D01*
X100233Y-50829D01*
X100227Y-50800D01*
X100216Y-50773D01*
X100199Y-50748D01*
X100178Y-50727D01*
X99931Y-50480D01*
X99906Y-50464D01*
X99879Y-50452D01*
X99850Y-50446D01*
X99821Y-50446D01*
X99792Y-50452D01*
X99764Y-50464D01*
X99740Y-50480D01*
X99719Y-50501D01*
X99699Y-50521D01*
X99690Y-50522D01*
X99615Y-50544D01*
X99595Y-50554D01*
X99603Y-50541D01*
X99626Y-50466D01*
X99628Y-50451D01*
X99669Y-50409D01*
X99685Y-50385D01*
X99697Y-50357D01*
X99703Y-50328D01*
X99703Y-50299D01*
X99697Y-50270D01*
X99685Y-50243D01*
X99669Y-50218D01*
X99648Y-50197D01*
X99401Y-49950D01*
X99376Y-49933D01*
X99349Y-49922D01*
X99335Y-49919D01*
X99120Y-49705D01*
X99092Y-49681D01*
X99063Y-49657D01*
X99062Y-49656D01*
X99060Y-49655D01*
X99027Y-49638D01*
X98995Y-49620D01*
X98993Y-49619D01*
X98991Y-49618D01*
X98956Y-49607D01*
X98921Y-49596D01*
X98918Y-49596D01*
X98916Y-49595D01*
X98880Y-49592D01*
X98843Y-49587D01*
X98839Y-49587D01*
X98839Y-49587D01*
X98839Y-49587D01*
X98837Y-49587D01*
X98777Y-49587D01*
X98407Y-49217D01*
X98378Y-49193D01*
X98350Y-49169D01*
X98348Y-49168D01*
X98346Y-49167D01*
X98314Y-49150D01*
X98281Y-49132D01*
X98279Y-49131D01*
X98277Y-49130D01*
X98242Y-49119D01*
X98207Y-49108D01*
X98205Y-49108D01*
X98203Y-49107D01*
X98166Y-49104D01*
X98129Y-49100D01*
X98125Y-49100D01*
X98125Y-49100D01*
X98125Y-49100D01*
X98124Y-49100D01*
X97400Y-49100D01*
X96500Y-49100D01*
X94100Y-49100D01*
X94050Y-49100D01*
X94025Y-49100D01*
X93988Y-49103D01*
X93986Y-49103D01*
X93761Y-48878D01*
X93747Y-48866D01*
X93732Y-48854D01*
X93732Y-48854D01*
X93731Y-48853D01*
X93714Y-48845D01*
X93698Y-48836D01*
X93697Y-48835D01*
X93696Y-48835D01*
X93679Y-48829D01*
X93661Y-48824D01*
X93660Y-48824D01*
X93659Y-48823D01*
X93641Y-48822D01*
X93622Y-48820D01*
X93620Y-48820D01*
X93620Y-48820D01*
X93620Y-48820D01*
X93620Y-48820D01*
X92880Y-48820D01*
X92861Y-48821D01*
X92843Y-48823D01*
X92842Y-48823D01*
X92841Y-48823D01*
X92823Y-48829D01*
X92805Y-48834D01*
X92804Y-48834D01*
X92803Y-48835D01*
X92787Y-48843D01*
X92771Y-48852D01*
X92770Y-48852D01*
X92769Y-48853D01*
X92754Y-48865D01*
X92740Y-48876D01*
X92739Y-48878D01*
X92739Y-48878D01*
X92739Y-48878D01*
X92738Y-48878D01*
X92637Y-48980D01*
X92200Y-48980D01*
X91760Y-48980D01*
X91741Y-48981D01*
X91723Y-48983D01*
X91722Y-48983D01*
X91721Y-48983D01*
X91703Y-48989D01*
X91685Y-48994D01*
X91684Y-48994D01*
X91683Y-48995D01*
X91667Y-49003D01*
X91651Y-49012D01*
X91650Y-49012D01*
X91649Y-49013D01*
X91634Y-49025D01*
X91620Y-49036D01*
X91619Y-49038D01*
X91619Y-49038D01*
X91619Y-49038D01*
X91618Y-49038D01*
X91217Y-49440D01*
X90820Y-49440D01*
X90711Y-49440D01*
X90693Y-49441D01*
X90674Y-49443D01*
X90673Y-49443D01*
X90672Y-49443D01*
X90654Y-49449D01*
X90637Y-49454D01*
X90636Y-49454D01*
X90635Y-49455D01*
X90618Y-49463D01*
X90602Y-49472D01*
X90601Y-49472D01*
X90600Y-49473D01*
X90586Y-49485D01*
X90571Y-49496D01*
X90570Y-49498D01*
X90570Y-49498D01*
X90570Y-49498D01*
X90570Y-49498D01*
X90318Y-49750D01*
X90306Y-49764D01*
X90294Y-49778D01*
X90294Y-49779D01*
X90293Y-49780D01*
X90285Y-49796D01*
X90276Y-49812D01*
X90275Y-49813D01*
X90275Y-49814D01*
X90269Y-49832D01*
X90264Y-49849D01*
X90264Y-49850D01*
X90263Y-49851D01*
X90262Y-49870D01*
X90260Y-49888D01*
X90260Y-49890D01*
X90260Y-49890D01*
X90260Y-49890D01*
X90260Y-49891D01*
X90260Y-50024D01*
X90143Y-50134D01*
X90141Y-50135D01*
X90140Y-50137D01*
X90128Y-50150D01*
X90117Y-50163D01*
X90116Y-50165D01*
X90114Y-50167D01*
X90106Y-50182D01*
X90097Y-50197D01*
X90097Y-50199D01*
X90096Y-50201D01*
X90090Y-50217D01*
X90085Y-50234D01*
X90085Y-50236D01*
X90084Y-50238D01*
X90082Y-50255D01*
X90080Y-50272D01*
X90080Y-50274D01*
X90080Y-50277D01*
X90080Y-50280D01*
X90080Y-50385D01*
X88185Y-52280D01*
X88060Y-52280D01*
X88041Y-52281D01*
X88023Y-52283D01*
X88022Y-52283D01*
X88021Y-52283D01*
X88003Y-52289D01*
X87985Y-52294D01*
X87984Y-52294D01*
X87983Y-52295D01*
X87967Y-52303D01*
X87951Y-52312D01*
X87950Y-52312D01*
X87949Y-52313D01*
X87934Y-52325D01*
X87920Y-52336D01*
X87919Y-52338D01*
X87919Y-52338D01*
X87919Y-52338D01*
X87918Y-52338D01*
X87678Y-52578D01*
X87666Y-52592D01*
X87654Y-52607D01*
X87654Y-52607D01*
X87653Y-52608D01*
X87645Y-52625D01*
X87636Y-52641D01*
X87635Y-52642D01*
X87635Y-52643D01*
X87629Y-52660D01*
X87624Y-52678D01*
X87624Y-52679D01*
X87623Y-52680D01*
X87622Y-52698D01*
X87620Y-52717D01*
X87620Y-52719D01*
X87620Y-52719D01*
X87620Y-52719D01*
X87620Y-52720D01*
X87620Y-53317D01*
X87178Y-53758D01*
X87166Y-53772D01*
X87154Y-53787D01*
X87154Y-53787D01*
X87153Y-53788D01*
X87145Y-53805D01*
X87136Y-53821D01*
X87135Y-53822D01*
X87135Y-53823D01*
X87129Y-53840D01*
X87124Y-53858D01*
X87124Y-53859D01*
X87123Y-53860D01*
X87122Y-53878D01*
X87120Y-53897D01*
X87120Y-53899D01*
X87120Y-53899D01*
X87120Y-53899D01*
X87120Y-53900D01*
X87120Y-60020D01*
X87120Y-63909D01*
X87068Y-63930D01*
X87015Y-63965D01*
X86969Y-64010D01*
X86933Y-64062D01*
X86908Y-64121D01*
X86895Y-64183D01*
X86894Y-64247D01*
X86906Y-64310D01*
X86929Y-64369D01*
X86964Y-64422D01*
X87008Y-64468D01*
X87060Y-64505D01*
X87119Y-64530D01*
X87181Y-64544D01*
X87245Y-64545D01*
X87307Y-64534D01*
X87350Y-64518D01*
X87350Y-65450D01*
X87351Y-65469D01*
X87353Y-65488D01*
X87353Y-65488D01*
X87353Y-65488D01*
X87359Y-65507D01*
X87364Y-65525D01*
X87364Y-65525D01*
X87365Y-65526D01*
X87374Y-65543D01*
X87383Y-65560D01*
X87383Y-65560D01*
X87383Y-65560D01*
X87395Y-65575D01*
X87407Y-65590D01*
X87407Y-65590D01*
X87408Y-65590D01*
X87413Y-65595D01*
X87416Y-65599D01*
X87418Y-65600D01*
X87418Y-65600D01*
X87418Y-65600D01*
X87418Y-65601D01*
X88018Y-66201D01*
X88032Y-66213D01*
X88047Y-66225D01*
X88047Y-66225D01*
X88048Y-66226D01*
X88065Y-66234D01*
X88081Y-66243D01*
X88082Y-66244D01*
X88083Y-66244D01*
X88100Y-66250D01*
X88118Y-66255D01*
X88119Y-66255D01*
X88120Y-66256D01*
X88138Y-66257D01*
X88157Y-66259D01*
X88159Y-66259D01*
X88159Y-66259D01*
X88159Y-66259D01*
X88160Y-66260D01*
X89435Y-66260D01*
X89440Y-66265D01*
X89465Y-66281D01*
X89492Y-66292D01*
X89521Y-66298D01*
X89551Y-66298D01*
X90338Y-66298D01*
X90367Y-66292D01*
X90394Y-66281D01*
X90419Y-66265D01*
X90440Y-66244D01*
X90456Y-66219D01*
X90467Y-66192D01*
X90473Y-66163D01*
X90473Y-66133D01*
X90473Y-65956D01*
X90467Y-65927D01*
X90458Y-65905D01*
X90467Y-65882D01*
X90473Y-65853D01*
X90473Y-65823D01*
X90473Y-65646D01*
X90467Y-65617D01*
X90456Y-65590D01*
X90456Y-65590D01*
X90456Y-65589D01*
X90467Y-65562D01*
X90473Y-65533D01*
X90473Y-65503D01*
X90473Y-65408D01*
X90482Y-65402D01*
X90517Y-65367D01*
X90545Y-65326D01*
X90563Y-65281D01*
X90573Y-65233D01*
X90573Y-65226D01*
X90511Y-65164D01*
X89980Y-65164D01*
X89980Y-65177D01*
X89880Y-65177D01*
X89880Y-65164D01*
X89349Y-65164D01*
X89286Y-65226D01*
X89286Y-65233D01*
X89296Y-65281D01*
X89314Y-65326D01*
X89342Y-65367D01*
X89377Y-65402D01*
X89386Y-65408D01*
X89386Y-65533D01*
X89389Y-65550D01*
X88257Y-65550D01*
X88000Y-65292D01*
X88000Y-64822D01*
X88118Y-64941D01*
X88132Y-64953D01*
X88147Y-64965D01*
X88147Y-64965D01*
X88148Y-64966D01*
X88165Y-64974D01*
X88181Y-64983D01*
X88182Y-64984D01*
X88183Y-64984D01*
X88200Y-64990D01*
X88218Y-64995D01*
X88219Y-64995D01*
X88220Y-64996D01*
X88238Y-64997D01*
X88257Y-64999D01*
X88259Y-64999D01*
X88259Y-64999D01*
X88259Y-64999D01*
X88260Y-65000D01*
X89287Y-65000D01*
X89286Y-65006D01*
X89286Y-65013D01*
X89349Y-65075D01*
X89880Y-65075D01*
X89880Y-65062D01*
X89980Y-65062D01*
X89980Y-65075D01*
X90511Y-65075D01*
X90573Y-65013D01*
X90573Y-65006D01*
X90563Y-64958D01*
X90545Y-64913D01*
X90518Y-64872D01*
X90559Y-64890D01*
X90621Y-64904D01*
X90685Y-64905D01*
X90747Y-64894D01*
X90807Y-64871D01*
X90820Y-64863D01*
X90820Y-65000D01*
X90821Y-65018D01*
X90823Y-65036D01*
X90823Y-65037D01*
X90823Y-65038D01*
X90829Y-65056D01*
X90834Y-65074D01*
X90834Y-65075D01*
X90835Y-65076D01*
X90843Y-65092D01*
X90852Y-65108D01*
X90852Y-65109D01*
X90853Y-65110D01*
X90865Y-65125D01*
X90876Y-65139D01*
X90878Y-65140D01*
X90878Y-65140D01*
X90878Y-65140D01*
X90878Y-65141D01*
X90896Y-65159D01*
X90895Y-65163D01*
X90894Y-65227D01*
X90906Y-65290D01*
X90929Y-65349D01*
X90964Y-65402D01*
X91008Y-65448D01*
X91060Y-65485D01*
X91119Y-65510D01*
X91181Y-65524D01*
X91245Y-65525D01*
X91307Y-65514D01*
X91367Y-65491D01*
X91421Y-65457D01*
X91467Y-65413D01*
X91503Y-65361D01*
X91529Y-65303D01*
X91543Y-65240D01*
X91545Y-65168D01*
X91532Y-65105D01*
X91508Y-65046D01*
X91473Y-64993D01*
X91428Y-64948D01*
X91375Y-64912D01*
X91316Y-64888D01*
X91254Y-64875D01*
X91220Y-64874D01*
X91220Y-63610D01*
X91236Y-63613D01*
X91266Y-63613D01*
X91443Y-63613D01*
X91472Y-63607D01*
X91499Y-63596D01*
X91499Y-63596D01*
X91500Y-63596D01*
X91527Y-63607D01*
X91556Y-63613D01*
X91586Y-63613D01*
X91763Y-63613D01*
X91792Y-63607D01*
X91814Y-63598D01*
X91837Y-63607D01*
X91866Y-63613D01*
X91896Y-63613D01*
X92073Y-63613D01*
X92102Y-63607D01*
X92124Y-63598D01*
X92147Y-63607D01*
X92176Y-63613D01*
X92206Y-63613D01*
X92383Y-63613D01*
X92412Y-63607D01*
X92439Y-63596D01*
X92439Y-63596D01*
X92440Y-63596D01*
X92467Y-63607D01*
X92496Y-63613D01*
X92526Y-63613D01*
X92703Y-63613D01*
X92732Y-63607D01*
X92754Y-63598D01*
X92777Y-63607D01*
X92806Y-63613D01*
X92836Y-63613D01*
X93013Y-63613D01*
X93042Y-63607D01*
X93069Y-63596D01*
X93094Y-63580D01*
X93115Y-63559D01*
X93131Y-63534D01*
X93142Y-63507D01*
X93148Y-63478D01*
X93148Y-63448D01*
X93148Y-62745D01*
X93169Y-62777D01*
X93213Y-62823D01*
X93265Y-62860D01*
X93301Y-62875D01*
X93261Y-62915D01*
X93214Y-62984D01*
X93181Y-63062D01*
X93163Y-63144D01*
X93162Y-63229D01*
X93177Y-63311D01*
X93208Y-63390D01*
X93254Y-63461D01*
X93312Y-63521D01*
X93382Y-63570D01*
X93459Y-63603D01*
X93496Y-63611D01*
X93496Y-63618D01*
X93287Y-63618D01*
X93258Y-63624D01*
X93231Y-63635D01*
X93206Y-63651D01*
X93185Y-63672D01*
X93169Y-63697D01*
X93158Y-63724D01*
X93152Y-63753D01*
X93152Y-63783D01*
X93152Y-63960D01*
X93158Y-63989D01*
X93168Y-64014D01*
X93158Y-64039D01*
X93152Y-64068D01*
X93152Y-64098D01*
X93152Y-64237D01*
X93063Y-64237D01*
X93040Y-64239D01*
X93017Y-64241D01*
X93015Y-64241D01*
X93014Y-64241D01*
X92992Y-64248D01*
X92970Y-64254D01*
X92968Y-64255D01*
X92967Y-64255D01*
X92947Y-64266D01*
X92926Y-64277D01*
X92925Y-64278D01*
X92924Y-64278D01*
X92906Y-64293D01*
X92888Y-64307D01*
X92886Y-64309D01*
X92886Y-64309D01*
X92886Y-64309D01*
X92886Y-64310D01*
X92723Y-64473D01*
X92708Y-64491D01*
X92693Y-64508D01*
X92693Y-64509D01*
X92692Y-64510D01*
X92681Y-64531D01*
X92670Y-64551D01*
X92669Y-64552D01*
X92669Y-64553D01*
X92662Y-64576D01*
X92655Y-64598D01*
X92655Y-64599D01*
X92654Y-64600D01*
X92652Y-64623D01*
X92650Y-64646D01*
X92650Y-64649D01*
X92650Y-64649D01*
X92650Y-64649D01*
X92650Y-64650D01*
X92650Y-64900D01*
X92652Y-64922D01*
X92654Y-64945D01*
X92654Y-64947D01*
X92654Y-64948D01*
X92661Y-64970D01*
X92667Y-64992D01*
X92668Y-64994D01*
X92668Y-64995D01*
X92679Y-65015D01*
X92690Y-65036D01*
X92691Y-65037D01*
X92691Y-65038D01*
X92706Y-65056D01*
X92720Y-65074D01*
X92722Y-65076D01*
X92722Y-65076D01*
X92722Y-65076D01*
X92723Y-65076D01*
X92940Y-65293D01*
X92958Y-65308D01*
X92975Y-65323D01*
X92976Y-65323D01*
X92977Y-65324D01*
X92998Y-65335D01*
X93018Y-65346D01*
X93019Y-65347D01*
X93020Y-65347D01*
X93043Y-65354D01*
X93052Y-65357D01*
X93065Y-65361D01*
X93066Y-65361D01*
X93067Y-65362D01*
X93090Y-65364D01*
X93091Y-65364D01*
X93115Y-65387D01*
X93646Y-65387D01*
X93646Y-65374D01*
X93746Y-65374D01*
X93746Y-65387D01*
X94277Y-65387D01*
X94297Y-65367D01*
X94339Y-65367D01*
X94880Y-65367D01*
X94880Y-65368D01*
X94892Y-65396D01*
X94908Y-65420D01*
X94929Y-65441D01*
X94938Y-65447D01*
X94963Y-65478D01*
X94967Y-65482D01*
X95009Y-65525D01*
X94981Y-65530D01*
X94953Y-65542D01*
X94929Y-65558D01*
X94908Y-65579D01*
X94892Y-65603D01*
X94880Y-65631D01*
X94875Y-65660D01*
X94875Y-65689D01*
X94875Y-65939D01*
X94880Y-65968D01*
X94892Y-65996D01*
X94908Y-66020D01*
X94929Y-66041D01*
X94953Y-66057D01*
X94981Y-66069D01*
X95010Y-66075D01*
X95039Y-66075D01*
X95192Y-66075D01*
X95201Y-66079D01*
X95202Y-66080D01*
X95203Y-66080D01*
X95226Y-66087D01*
X95248Y-66094D01*
X95249Y-66094D01*
X95250Y-66095D01*
X95273Y-66097D01*
X95296Y-66099D01*
X95299Y-66099D01*
X95299Y-66099D01*
X95299Y-66099D01*
X95300Y-66100D01*
X95640Y-66100D01*
X95650Y-66106D01*
X95650Y-66367D01*
X95541Y-66258D01*
X95527Y-66246D01*
X95512Y-66234D01*
X95512Y-66234D01*
X95511Y-66233D01*
X95494Y-66225D01*
X95478Y-66216D01*
X95477Y-66215D01*
X95476Y-66215D01*
X95459Y-66209D01*
X95441Y-66204D01*
X95440Y-66204D01*
X95439Y-66203D01*
X95421Y-66202D01*
X95402Y-66200D01*
X95400Y-66200D01*
X95400Y-66200D01*
X95400Y-66200D01*
X95400Y-66200D01*
X94231Y-66200D01*
X94233Y-66194D01*
X94239Y-66165D01*
X94239Y-66135D01*
X94239Y-65958D01*
X94233Y-65929D01*
X94223Y-65904D01*
X94233Y-65879D01*
X94239Y-65850D01*
X94239Y-65820D01*
X94239Y-65720D01*
X94248Y-65714D01*
X94283Y-65679D01*
X94311Y-65638D01*
X94329Y-65593D01*
X94339Y-65545D01*
X94339Y-65538D01*
X94277Y-65476D01*
X93746Y-65476D01*
X93746Y-65489D01*
X93646Y-65489D01*
X93646Y-65476D01*
X93115Y-65476D01*
X93052Y-65538D01*
X93052Y-65545D01*
X93062Y-65593D01*
X93080Y-65638D01*
X93108Y-65679D01*
X93143Y-65714D01*
X93152Y-65720D01*
X93152Y-65850D01*
X93158Y-65879D01*
X93168Y-65904D01*
X93158Y-65929D01*
X93152Y-65958D01*
X93152Y-65988D01*
X93152Y-66069D01*
X93141Y-66058D01*
X93127Y-66046D01*
X93112Y-66034D01*
X93112Y-66034D01*
X93111Y-66033D01*
X93094Y-66025D01*
X93078Y-66016D01*
X93077Y-66015D01*
X93076Y-66015D01*
X93059Y-66009D01*
X93041Y-66004D01*
X93040Y-66004D01*
X93039Y-66003D01*
X93021Y-66002D01*
X93002Y-66000D01*
X93000Y-66000D01*
X93000Y-66000D01*
X93000Y-66000D01*
X93000Y-66000D01*
X92500Y-66000D01*
X92481Y-66001D01*
X92463Y-66003D01*
X92462Y-66003D01*
X92461Y-66003D01*
X92443Y-66009D01*
X92425Y-66014D01*
X92424Y-66014D01*
X92423Y-66015D01*
X92407Y-66023D01*
X92391Y-66032D01*
X92390Y-66032D01*
X92389Y-66033D01*
X92374Y-66045D01*
X92360Y-66056D01*
X92359Y-66058D01*
X92359Y-66058D01*
X92359Y-66058D01*
X92358Y-66058D01*
X92218Y-66199D01*
X92218Y-66078D01*
X92251Y-66057D01*
X92297Y-66013D01*
X92333Y-65961D01*
X92359Y-65903D01*
X92373Y-65840D01*
X92375Y-65768D01*
X92362Y-65705D01*
X92338Y-65646D01*
X92303Y-65593D01*
X92258Y-65548D01*
X92205Y-65512D01*
X92146Y-65488D01*
X92084Y-65475D01*
X92020Y-65474D01*
X91957Y-65486D01*
X91898Y-65510D01*
X91845Y-65545D01*
X91799Y-65590D01*
X91763Y-65642D01*
X91738Y-65701D01*
X91725Y-65763D01*
X91724Y-65826D01*
X91723Y-65830D01*
X91723Y-65831D01*
X91722Y-65832D01*
X91720Y-65855D01*
X91718Y-65878D01*
X91718Y-65881D01*
X91718Y-65881D01*
X91718Y-65881D01*
X91718Y-65882D01*
X91718Y-66306D01*
X91548Y-66306D01*
X91519Y-66312D01*
X91495Y-66322D01*
X91470Y-66312D01*
X91441Y-66306D01*
X91411Y-66306D01*
X91234Y-66306D01*
X91205Y-66312D01*
X91180Y-66322D01*
X91154Y-66312D01*
X91125Y-66306D01*
X91095Y-66306D01*
X90918Y-66306D01*
X90889Y-66312D01*
X90865Y-66322D01*
X90840Y-66312D01*
X90811Y-66306D01*
X90781Y-66306D01*
X90604Y-66306D01*
X90575Y-66312D01*
X90548Y-66323D01*
X90523Y-66339D01*
X90502Y-66360D01*
X90486Y-66385D01*
X90475Y-66412D01*
X90469Y-66441D01*
X90469Y-66471D01*
X90469Y-67258D01*
X90475Y-67287D01*
X90486Y-67314D01*
X90502Y-67339D01*
X90523Y-67360D01*
X90548Y-67376D01*
X90575Y-67387D01*
X90604Y-67393D01*
X90634Y-67393D01*
X90811Y-67393D01*
X90840Y-67387D01*
X90864Y-67377D01*
X90889Y-67387D01*
X90918Y-67393D01*
X90948Y-67393D01*
X91125Y-67393D01*
X91154Y-67387D01*
X91179Y-67377D01*
X91205Y-67387D01*
X91234Y-67393D01*
X91264Y-67393D01*
X91441Y-67393D01*
X91470Y-67387D01*
X91494Y-67377D01*
X91519Y-67387D01*
X91548Y-67393D01*
X91578Y-67393D01*
X91755Y-67393D01*
X91784Y-67387D01*
X91809Y-67377D01*
X91835Y-67387D01*
X91864Y-67393D01*
X91894Y-67393D01*
X92071Y-67393D01*
X92100Y-67387D01*
X92124Y-67377D01*
X92149Y-67387D01*
X92178Y-67393D01*
X92208Y-67393D01*
X92385Y-67393D01*
X92401Y-67390D01*
X92401Y-67394D01*
X92401Y-67395D01*
X92401Y-67396D01*
X92407Y-67414D01*
X92412Y-67432D01*
X92412Y-67433D01*
X92413Y-67434D01*
X92421Y-67450D01*
X92430Y-67466D01*
X92430Y-67467D01*
X92431Y-67468D01*
X92443Y-67483D01*
X92454Y-67497D01*
X92456Y-67498D01*
X92456Y-67498D01*
X92456Y-67498D01*
X92456Y-67499D01*
X92618Y-67661D01*
X92632Y-67673D01*
X92647Y-67685D01*
X92647Y-67685D01*
X92648Y-67686D01*
X92665Y-67694D01*
X92681Y-67703D01*
X92682Y-67704D01*
X92683Y-67704D01*
X92700Y-67710D01*
X92718Y-67715D01*
X92719Y-67715D01*
X92720Y-67716D01*
X92738Y-67717D01*
X92757Y-67719D01*
X92759Y-67719D01*
X92759Y-67719D01*
X92759Y-67719D01*
X92760Y-67720D01*
X93140Y-67720D01*
X93158Y-67718D01*
X93176Y-67716D01*
X93177Y-67716D01*
X93178Y-67716D01*
X93196Y-67710D01*
X93214Y-67705D01*
X93215Y-67705D01*
X93216Y-67704D01*
X93232Y-67696D01*
X93248Y-67687D01*
X93249Y-67687D01*
X93250Y-67686D01*
X93246Y-67694D01*
X93203Y-67897D01*
X93200Y-68103D01*
X93238Y-68307D01*
X93314Y-68499D01*
X93426Y-68672D01*
X93569Y-68821D01*
X93739Y-68939D01*
X93928Y-69022D01*
X94130Y-69066D01*
X94337Y-69071D01*
X94541Y-69035D01*
X94733Y-68960D01*
X94908Y-68849D01*
X95057Y-68707D01*
X95177Y-68538D01*
X95261Y-68349D01*
X95306Y-68147D01*
X95308Y-68031D01*
X95858Y-68581D01*
X95872Y-68593D01*
X95887Y-68605D01*
X95887Y-68605D01*
X95888Y-68606D01*
X95905Y-68614D01*
X95921Y-68623D01*
X95922Y-68624D01*
X95923Y-68624D01*
X95940Y-68630D01*
X95958Y-68635D01*
X95959Y-68635D01*
X95960Y-68636D01*
X95978Y-68637D01*
X95997Y-68639D01*
X95999Y-68639D01*
X95999Y-68639D01*
X95999Y-68639D01*
X96000Y-68640D01*
X97500Y-68640D01*
X98510Y-68640D01*
X98528Y-68638D01*
X98546Y-68636D01*
X98547Y-68636D01*
X98548Y-68636D01*
X98566Y-68630D01*
X98584Y-68625D01*
X98585Y-68625D01*
X98586Y-68624D01*
X98602Y-68616D01*
X98618Y-68607D01*
X98619Y-68607D01*
X98620Y-68606D01*
X98635Y-68594D01*
X98649Y-68583D01*
X98650Y-68581D01*
X98650Y-68581D01*
X98650Y-68581D01*
X98651Y-68581D01*
X99392Y-67840D01*
X100010Y-67840D01*
X100028Y-67838D01*
X100046Y-67836D01*
X100047Y-67836D01*
X100048Y-67836D01*
X100066Y-67830D01*
X100084Y-67825D01*
X100085Y-67825D01*
X100086Y-67824D01*
X100102Y-67816D01*
X100118Y-67807D01*
X100119Y-67807D01*
X100120Y-67806D01*
X100135Y-67794D01*
X100149Y-67783D01*
X100150Y-67781D01*
X100150Y-67781D01*
X100150Y-67781D01*
X100151Y-67781D01*
X101641Y-66291D01*
X101653Y-66277D01*
X101665Y-66262D01*
X101665Y-66262D01*
X101666Y-66261D01*
X101674Y-66244D01*
X101683Y-66228D01*
X101684Y-66227D01*
X101684Y-66226D01*
X101690Y-66209D01*
X101695Y-66191D01*
X101695Y-66190D01*
X101696Y-66189D01*
X101697Y-66171D01*
X101699Y-66152D01*
X101699Y-66150D01*
X101699Y-66150D01*
X101699Y-66150D01*
X101700Y-66150D01*
X101700Y-65187D01*
X101716Y-65170D01*
X101732Y-65146D01*
X101744Y-65118D01*
X101750Y-65089D01*
X101750Y-65060D01*
X101750Y-64658D01*
X101758Y-64666D01*
X101759Y-64666D01*
X101760Y-64667D01*
X101781Y-64678D01*
X101801Y-64689D01*
X101802Y-64690D01*
X101803Y-64690D01*
X101826Y-64697D01*
X101848Y-64704D01*
X101849Y-64704D01*
X101850Y-64705D01*
X101873Y-64707D01*
X101896Y-64709D01*
X101899Y-64709D01*
X101899Y-64709D01*
X101899Y-64709D01*
X101900Y-64710D01*
X102720Y-64710D01*
X102742Y-64707D01*
X102765Y-64705D01*
X102767Y-64705D01*
X102768Y-64705D01*
X102790Y-64698D01*
X102812Y-64692D01*
X102814Y-64691D01*
X102815Y-64691D01*
X102835Y-64680D01*
X102856Y-64669D01*
X102857Y-64668D01*
X102858Y-64668D01*
X102876Y-64653D01*
X102894Y-64639D01*
X102896Y-64637D01*
X102896Y-64637D01*
X102896Y-64637D01*
X102896Y-64636D01*
X103176Y-64356D01*
X103191Y-64338D01*
X103206Y-64321D01*
X103206Y-64320D01*
X103207Y-64319D01*
X103218Y-64298D01*
X103229Y-64278D01*
X103230Y-64277D01*
X103230Y-64276D01*
X103237Y-64255D01*
X103239Y-64255D01*
X103268Y-64249D01*
X103296Y-64237D01*
X103307Y-64230D01*
X103320Y-64230D01*
X103342Y-64227D01*
X103365Y-64225D01*
X103367Y-64225D01*
X103368Y-64225D01*
X103390Y-64218D01*
X103412Y-64212D01*
X103414Y-64211D01*
X103415Y-64211D01*
X103435Y-64200D01*
X103456Y-64189D01*
X103457Y-64188D01*
X103458Y-64188D01*
X103476Y-64173D01*
X103494Y-64159D01*
X103496Y-64157D01*
X103496Y-64157D01*
X103496Y-64157D01*
X103496Y-64156D01*
X103816Y-63836D01*
X103831Y-63818D01*
X103846Y-63801D01*
X103846Y-63800D01*
X103847Y-63799D01*
X103858Y-63778D01*
X103869Y-63758D01*
X103870Y-63757D01*
X103870Y-63756D01*
X103877Y-63733D01*
X103884Y-63711D01*
X103884Y-63710D01*
X103885Y-63709D01*
X103887Y-63686D01*
X103889Y-63663D01*
X103889Y-63660D01*
X103889Y-63660D01*
X103889Y-63660D01*
X103890Y-63660D01*
X103890Y-63223D01*
X104176Y-62936D01*
X104191Y-62918D01*
X104206Y-62901D01*
X104206Y-62900D01*
X104207Y-62899D01*
X104218Y-62878D01*
X104229Y-62858D01*
X104230Y-62857D01*
X104230Y-62856D01*
X104237Y-62833D01*
X104244Y-62811D01*
X104244Y-62810D01*
X104245Y-62809D01*
X104247Y-62786D01*
X104249Y-62763D01*
X104249Y-62760D01*
X104249Y-62760D01*
X104249Y-62760D01*
X104250Y-62760D01*
X104250Y-63341D01*
X104235Y-63384D01*
X103208Y-65193D01*
X101849Y-66767D01*
X100210Y-68048D01*
X98353Y-68985D01*
X96350Y-69545D01*
X94276Y-69704D01*
X92211Y-69458D01*
X90233Y-68815D01*
X88417Y-67801D01*
X86833Y-66453D01*
X86290Y-65767D01*
X86290Y-58946D01*
X86250Y-58743D01*
X86171Y-58552D01*
X86056Y-58380D01*
X85911Y-58233D01*
X85739Y-58118D01*
X85549Y-58038D01*
X85346Y-57996D01*
X85140Y-57995D01*
X84937Y-58034D01*
X84745Y-58111D01*
X84572Y-58224D01*
X84424Y-58369D01*
X84308Y-58539D01*
X84226Y-58729D01*
X84183Y-58931D01*
X84180Y-59138D01*
X84218Y-59341D01*
X84294Y-59534D01*
X84406Y-59707D01*
X84549Y-59856D01*
X84719Y-59974D01*
X84908Y-60057D01*
X85110Y-60101D01*
X85317Y-60105D01*
X85521Y-60070D01*
X85713Y-59995D01*
X85888Y-59884D01*
X86037Y-59741D01*
X86157Y-59573D01*
X86241Y-59384D01*
X86286Y-59182D01*
X86290Y-58946D01*
X86290Y-65767D01*
X85542Y-64823D01*
X84591Y-62973D01*
X84017Y-60973D01*
X83843Y-58901D01*
X84075Y-56834D01*
X84704Y-54851D01*
X85706Y-53029D01*
X87043Y-51435D01*
X88664Y-50132D01*
X90507Y-49168D01*
X92503Y-48581D01*
X94574Y-48393D01*
X96642Y-48610D01*
X98629Y-49225D01*
X100459Y-50214D01*
X102061Y-51540D01*
X103376Y-53152D01*
X104352Y-54988D01*
X104954Y-56980D01*
X105157Y-59050D01*
G54D10*
G36*
X106424Y-71795D02*
X82650Y-69953D01*
X82789Y-48105D01*
X92617Y-48252D01*
X92138Y-48310D01*
X90097Y-48973D01*
X88224Y-50020D01*
X86589Y-51411D01*
X85256Y-53093D01*
X84275Y-55001D01*
X83684Y-57064D01*
X83504Y-59203D01*
X83743Y-61336D01*
X84392Y-63381D01*
X85426Y-65262D01*
X86806Y-66906D01*
X88478Y-68251D01*
X90380Y-69245D01*
X92439Y-69851D01*
X94576Y-70046D01*
X96711Y-69821D01*
X98761Y-69187D01*
X100649Y-68166D01*
X102302Y-66798D01*
X103659Y-65135D01*
X104666Y-63240D01*
X105287Y-61185D01*
X105496Y-59050D01*
X105492Y-58742D01*
X105275Y-57023D01*
X105275Y-53169D01*
X105275Y-53132D01*
X105275Y-52907D01*
X105275Y-52870D01*
X105265Y-52822D01*
X105246Y-52776D01*
X105219Y-52735D01*
X105184Y-52700D01*
X105143Y-52673D01*
X105097Y-52654D01*
X105049Y-52645D01*
X105000Y-52645D01*
X104912Y-52645D01*
X104850Y-52707D01*
X104850Y-52970D01*
X105212Y-52970D01*
X105275Y-52907D01*
X105275Y-53132D01*
X105212Y-53070D01*
X104850Y-53070D01*
X104850Y-53077D01*
X104750Y-53077D01*
X104750Y-53070D01*
X104750Y-52970D01*
X104750Y-52707D01*
X104687Y-52645D01*
X104599Y-52645D01*
X104550Y-52645D01*
X104502Y-52654D01*
X104456Y-52673D01*
X104415Y-52700D01*
X104380Y-52735D01*
X104353Y-52776D01*
X104334Y-52822D01*
X104325Y-52870D01*
X104325Y-52907D01*
X104387Y-52970D01*
X104750Y-52970D01*
X104750Y-53070D01*
X104387Y-53070D01*
X104325Y-53132D01*
X104325Y-53169D01*
X104334Y-53217D01*
X104353Y-53263D01*
X104380Y-53304D01*
X104415Y-53339D01*
X104456Y-53366D01*
X104481Y-53376D01*
X104479Y-53378D01*
X104458Y-53399D01*
X104442Y-53423D01*
X104430Y-53451D01*
X104425Y-53480D01*
X104425Y-53509D01*
X104425Y-53759D01*
X104430Y-53788D01*
X104442Y-53816D01*
X104458Y-53840D01*
X104479Y-53861D01*
X104503Y-53877D01*
X104531Y-53889D01*
X104560Y-53895D01*
X104589Y-53895D01*
X105039Y-53895D01*
X105068Y-53889D01*
X105096Y-53877D01*
X105120Y-53861D01*
X105141Y-53840D01*
X105157Y-53816D01*
X105169Y-53788D01*
X105175Y-53759D01*
X105175Y-53730D01*
X105175Y-53480D01*
X105169Y-53451D01*
X105157Y-53423D01*
X105141Y-53399D01*
X105120Y-53378D01*
X105118Y-53376D01*
X105143Y-53366D01*
X105184Y-53339D01*
X105219Y-53304D01*
X105246Y-53263D01*
X105265Y-53217D01*
X105275Y-53169D01*
X105275Y-57023D01*
X105223Y-56613D01*
X104545Y-54577D01*
X103485Y-52711D01*
X102083Y-51086D01*
X100392Y-49765D01*
X98476Y-48797D01*
X96746Y-48314D01*
X106065Y-48454D01*
X106151Y-54034D01*
X106106Y-54053D01*
X106065Y-54080D01*
X106030Y-54115D01*
X106003Y-54156D01*
X105993Y-54181D01*
X105991Y-54179D01*
X105970Y-54158D01*
X105946Y-54142D01*
X105918Y-54130D01*
X105889Y-54125D01*
X105860Y-54125D01*
X105610Y-54125D01*
X105581Y-54130D01*
X105553Y-54142D01*
X105529Y-54158D01*
X105508Y-54179D01*
X105492Y-54203D01*
X105480Y-54231D01*
X105475Y-54260D01*
X105475Y-54289D01*
X105475Y-54739D01*
X105480Y-54768D01*
X105492Y-54796D01*
X105508Y-54820D01*
X105529Y-54841D01*
X105553Y-54857D01*
X105581Y-54869D01*
X105610Y-54875D01*
X105581Y-54880D01*
X105553Y-54892D01*
X105529Y-54908D01*
X105508Y-54929D01*
X105492Y-54953D01*
X105480Y-54981D01*
X105475Y-55010D01*
X105475Y-55039D01*
X105475Y-55489D01*
X105480Y-55518D01*
X105492Y-55546D01*
X105508Y-55570D01*
X105529Y-55591D01*
X105553Y-55607D01*
X105581Y-55619D01*
X105610Y-55625D01*
X105639Y-55625D01*
X105889Y-55625D01*
X105918Y-55619D01*
X105946Y-55607D01*
X105970Y-55591D01*
X105991Y-55570D01*
X105993Y-55568D01*
X106003Y-55593D01*
X106030Y-55634D01*
X106065Y-55669D01*
X106106Y-55696D01*
X106152Y-55715D01*
X106177Y-55720D01*
X106424Y-71795D01*
X106424Y-71795D01*
G37*
G54D29*
X106424Y-71795D02*
X82650Y-69953D01*
X82789Y-48105D01*
X92617Y-48252D01*
X92138Y-48310D01*
X90097Y-48973D01*
X88224Y-50020D01*
X86589Y-51411D01*
X85256Y-53093D01*
X84275Y-55001D01*
X83684Y-57064D01*
X83504Y-59203D01*
X83743Y-61336D01*
X84392Y-63381D01*
X85426Y-65262D01*
X86806Y-66906D01*
X88478Y-68251D01*
X90380Y-69245D01*
X92439Y-69851D01*
X94576Y-70046D01*
X96711Y-69821D01*
X98761Y-69187D01*
X100649Y-68166D01*
X102302Y-66798D01*
X103659Y-65135D01*
X104666Y-63240D01*
X105287Y-61185D01*
X105496Y-59050D01*
X105492Y-58742D01*
X105275Y-57023D01*
X105275Y-53169D01*
X105275Y-53132D01*
X105275Y-52907D01*
X105275Y-52870D01*
X105265Y-52822D01*
X105246Y-52776D01*
X105219Y-52735D01*
X105184Y-52700D01*
X105143Y-52673D01*
X105097Y-52654D01*
X105049Y-52645D01*
X105000Y-52645D01*
X104912Y-52645D01*
X104850Y-52707D01*
X104850Y-52970D01*
X105212Y-52970D01*
X105275Y-52907D01*
X105275Y-53132D01*
X105212Y-53070D01*
X104850Y-53070D01*
X104850Y-53077D01*
X104750Y-53077D01*
X104750Y-53070D01*
X104750Y-52970D01*
X104750Y-52707D01*
X104687Y-52645D01*
X104599Y-52645D01*
X104550Y-52645D01*
X104502Y-52654D01*
X104456Y-52673D01*
X104415Y-52700D01*
X104380Y-52735D01*
X104353Y-52776D01*
X104334Y-52822D01*
X104325Y-52870D01*
X104325Y-52907D01*
X104387Y-52970D01*
X104750Y-52970D01*
X104750Y-53070D01*
X104387Y-53070D01*
X104325Y-53132D01*
X104325Y-53169D01*
X104334Y-53217D01*
X104353Y-53263D01*
X104380Y-53304D01*
X104415Y-53339D01*
X104456Y-53366D01*
X104481Y-53376D01*
X104479Y-53378D01*
X104458Y-53399D01*
X104442Y-53423D01*
X104430Y-53451D01*
X104425Y-53480D01*
X104425Y-53509D01*
X104425Y-53759D01*
X104430Y-53788D01*
X104442Y-53816D01*
X104458Y-53840D01*
X104479Y-53861D01*
X104503Y-53877D01*
X104531Y-53889D01*
X104560Y-53895D01*
X104589Y-53895D01*
X105039Y-53895D01*
X105068Y-53889D01*
X105096Y-53877D01*
X105120Y-53861D01*
X105141Y-53840D01*
X105157Y-53816D01*
X105169Y-53788D01*
X105175Y-53759D01*
X105175Y-53730D01*
X105175Y-53480D01*
X105169Y-53451D01*
X105157Y-53423D01*
X105141Y-53399D01*
X105120Y-53378D01*
X105118Y-53376D01*
X105143Y-53366D01*
X105184Y-53339D01*
X105219Y-53304D01*
X105246Y-53263D01*
X105265Y-53217D01*
X105275Y-53169D01*
X105275Y-57023D01*
X105223Y-56613D01*
X104545Y-54577D01*
X103485Y-52711D01*
X102083Y-51086D01*
X100392Y-49765D01*
X98476Y-48797D01*
X96746Y-48314D01*
X106065Y-48454D01*
X106151Y-54034D01*
X106106Y-54053D01*
X106065Y-54080D01*
X106030Y-54115D01*
X106003Y-54156D01*
X105993Y-54181D01*
X105991Y-54179D01*
X105970Y-54158D01*
X105946Y-54142D01*
X105918Y-54130D01*
X105889Y-54125D01*
X105860Y-54125D01*
X105610Y-54125D01*
X105581Y-54130D01*
X105553Y-54142D01*
X105529Y-54158D01*
X105508Y-54179D01*
X105492Y-54203D01*
X105480Y-54231D01*
X105475Y-54260D01*
X105475Y-54289D01*
X105475Y-54739D01*
X105480Y-54768D01*
X105492Y-54796D01*
X105508Y-54820D01*
X105529Y-54841D01*
X105553Y-54857D01*
X105581Y-54869D01*
X105610Y-54875D01*
X105581Y-54880D01*
X105553Y-54892D01*
X105529Y-54908D01*
X105508Y-54929D01*
X105492Y-54953D01*
X105480Y-54981D01*
X105475Y-55010D01*
X105475Y-55039D01*
X105475Y-55489D01*
X105480Y-55518D01*
X105492Y-55546D01*
X105508Y-55570D01*
X105529Y-55591D01*
X105553Y-55607D01*
X105581Y-55619D01*
X105610Y-55625D01*
X105639Y-55625D01*
X105889Y-55625D01*
X105918Y-55619D01*
X105946Y-55607D01*
X105970Y-55591D01*
X105991Y-55570D01*
X105993Y-55568D01*
X106003Y-55593D01*
X106030Y-55634D01*
X106065Y-55669D01*
X106106Y-55696D01*
X106152Y-55715D01*
X106177Y-55720D01*
X106424Y-71795D01*
M02*
