M48
;DRILL file {Pcbnew (2013-mar-13)-testing} date Wed 22 May 2013 10:16:07 PM CEST
;FORMAT={-:-/ absolute / inch / decimal}
FMAT,2
INCH,TZ
T1C0.015
T2C0.030
T3C0.035
T4C0.040
T5C0.045
T6C0.118
%
G90
G05
M72
T1
X8.722Y-6.422
X8.815Y-5.43
X8.816Y-5.292
X8.832Y-6.31
X8.9Y-6.42
X8.9625Y-5.415
X8.9625Y-5.4675
X8.992Y-6.348
X9.03Y-5.465
X9.066Y-6.458
X9.084Y-5.01
X9.0875Y-5.1175
X9.088Y-5.056
X9.122Y-6.52
X9.188Y-4.952
X9.19Y-5.17
X9.205Y-6.58
X9.222Y-5.464
X9.245Y-5.305
X9.2675Y-5.515
X9.3025Y-5.235
X9.305Y-5.115
X9.318Y-4.936
X9.3425Y-6.2575
X9.3475Y-5.505
X9.355Y-5.4425
X9.43Y-5.055
X9.444Y-6.45
X9.4825Y-5.555
X9.485Y-5.375
X9.54Y-6.29
X9.545Y-5.445
X9.55Y-5.555
X9.57Y-5.01
X9.57Y-6.34
X9.57Y-6.4
X9.572Y-4.888
X9.585Y-6.585
X9.61Y-5.56
X9.62Y-6.305
X9.62Y-6.365
X9.63Y-6.648
X9.63Y-6.728
X9.632Y-6.764
X9.65Y-5.17
X9.778Y-5.722
X9.82Y-6.145
X9.918Y-6.224
T2
X9.3593Y-6.3193
X9.5007Y-6.4607
T3
X9.765Y-5.58
T4
X9.695Y-6.545
X9.695Y-6.645
X9.695Y-6.745
X9.795Y-6.545
X9.795Y-6.645
X9.795Y-6.745
X10.226Y-6.286
X10.226Y-6.386
X10.285Y-5.7555
X10.285Y-5.8555
X10.285Y-5.9555
X10.285Y-6.0555
T5
X10.1043Y-5.2018
X10.175Y-5.2725
X10.2457Y-5.3432
T6
X8.5236Y-5.905
X9.4256Y-6.8015
X10.1386Y-5.8605
T0
M30
