G04 (created by PCBNEW (2013-mar-13)-testing) date Wed 22 May 2013 10:15:49 PM CEST*
%MOIN*%
G04 Gerber Fmt 3.4, Leading zero omitted, Abs format*
%FSLAX34Y34*%
G01*
G70*
G90*
G04 APERTURE LIST*
%ADD10C,0.005906*%
%ADD11R,0.196850X0.160000*%
%ADD12C,0.078740*%
%ADD13C,0.122047*%
%ADD14R,0.025000X0.045000*%
%ADD15R,0.045000X0.025000*%
%ADD16R,0.060000X0.060000*%
%ADD17C,0.060000*%
%ADD18C,0.056000*%
%ADD19R,0.035000X0.055000*%
%ADD20C,0.070000*%
G04 APERTURE END LIST*
G54D10*
G54D11*
X97605Y-55800D03*
G54D12*
X97650Y-55800D03*
G54D13*
X85236Y-59050D03*
G54D10*
G36*
X99249Y-52071D02*
X99981Y-50502D01*
X100891Y-50926D01*
X100159Y-52496D01*
X99249Y-52071D01*
X99249Y-52071D01*
G37*
G36*
X97108Y-51073D02*
X97840Y-49503D01*
X98750Y-49928D01*
X98018Y-51497D01*
X97108Y-51073D01*
X97108Y-51073D01*
G37*
G54D14*
X94900Y-53250D03*
X95500Y-53250D03*
G54D15*
X91275Y-51175D03*
X91275Y-51775D03*
G54D14*
X98550Y-61450D03*
X99150Y-61450D03*
G54D16*
X102850Y-60555D03*
G54D17*
X102850Y-59555D03*
X102850Y-58555D03*
X102850Y-57555D03*
G54D18*
X95007Y-64607D03*
X93592Y-63192D03*
G54D10*
G36*
X102342Y-55682D02*
X101117Y-54457D01*
X101827Y-53747D01*
X103052Y-54972D01*
X102342Y-55682D01*
X102342Y-55682D01*
G37*
G36*
X100672Y-57352D02*
X99447Y-56127D01*
X100157Y-55417D01*
X101382Y-56642D01*
X100672Y-57352D01*
X100672Y-57352D01*
G37*
G54D16*
X97950Y-65450D03*
G54D17*
X96950Y-65450D03*
X97950Y-66450D03*
X96950Y-66450D03*
X97950Y-67450D03*
X96950Y-67450D03*
G54D16*
X102260Y-63860D03*
G54D17*
X102260Y-62860D03*
G54D15*
X89500Y-64180D03*
X89500Y-64780D03*
G54D11*
X91319Y-55800D03*
G54D13*
X94256Y-68015D03*
X101386Y-58605D03*
G54D19*
X93025Y-52850D03*
X93775Y-52850D03*
G54D14*
X91300Y-50100D03*
X91900Y-50100D03*
G54D20*
X102457Y-53432D03*
G54D10*
G36*
X101750Y-53219D02*
X101255Y-52725D01*
X101750Y-52230D01*
X102244Y-52725D01*
X101750Y-53219D01*
X101750Y-53219D01*
G37*
G54D20*
X101042Y-52017D03*
M02*
